%TF.GenerationSoftware,KiCad,Pcbnew,9.0.1*%
%TF.CreationDate,2025-04-05T14:03:07-06:00*%
%TF.ProjectId,GBDump,47424475-6d70-42e6-9b69-6361645f7063,rev?*%
%TF.SameCoordinates,Original*%
%TF.FileFunction,Legend,Bot*%
%TF.FilePolarity,Positive*%
%FSLAX46Y46*%
G04 Gerber Fmt 4.6, Leading zero omitted, Abs format (unit mm)*
G04 Created by KiCad (PCBNEW 9.0.1) date 2025-04-05 14:03:07*
%MOMM*%
%LPD*%
G01*
G04 APERTURE LIST*
%ADD10C,0.100000*%
%ADD11C,0.150000*%
%ADD12C,0.000000*%
%ADD13C,0.250000*%
%ADD14C,0.120000*%
G04 APERTURE END LIST*
D10*
X98243734Y-108824800D02*
X98100877Y-108872419D01*
X98100877Y-108872419D02*
X97862782Y-108872419D01*
X97862782Y-108872419D02*
X97767544Y-108824800D01*
X97767544Y-108824800D02*
X97719925Y-108777180D01*
X97719925Y-108777180D02*
X97672306Y-108681942D01*
X97672306Y-108681942D02*
X97672306Y-108586704D01*
X97672306Y-108586704D02*
X97719925Y-108491466D01*
X97719925Y-108491466D02*
X97767544Y-108443847D01*
X97767544Y-108443847D02*
X97862782Y-108396228D01*
X97862782Y-108396228D02*
X98053258Y-108348609D01*
X98053258Y-108348609D02*
X98148496Y-108300990D01*
X98148496Y-108300990D02*
X98196115Y-108253371D01*
X98196115Y-108253371D02*
X98243734Y-108158133D01*
X98243734Y-108158133D02*
X98243734Y-108062895D01*
X98243734Y-108062895D02*
X98196115Y-107967657D01*
X98196115Y-107967657D02*
X98148496Y-107920038D01*
X98148496Y-107920038D02*
X98053258Y-107872419D01*
X98053258Y-107872419D02*
X97815163Y-107872419D01*
X97815163Y-107872419D02*
X97672306Y-107920038D01*
X96672306Y-108777180D02*
X96719925Y-108824800D01*
X96719925Y-108824800D02*
X96862782Y-108872419D01*
X96862782Y-108872419D02*
X96958020Y-108872419D01*
X96958020Y-108872419D02*
X97100877Y-108824800D01*
X97100877Y-108824800D02*
X97196115Y-108729561D01*
X97196115Y-108729561D02*
X97243734Y-108634323D01*
X97243734Y-108634323D02*
X97291353Y-108443847D01*
X97291353Y-108443847D02*
X97291353Y-108300990D01*
X97291353Y-108300990D02*
X97243734Y-108110514D01*
X97243734Y-108110514D02*
X97196115Y-108015276D01*
X97196115Y-108015276D02*
X97100877Y-107920038D01*
X97100877Y-107920038D02*
X96958020Y-107872419D01*
X96958020Y-107872419D02*
X96862782Y-107872419D01*
X96862782Y-107872419D02*
X96719925Y-107920038D01*
X96719925Y-107920038D02*
X96672306Y-107967657D01*
X96243734Y-108872419D02*
X96243734Y-107872419D01*
X95672306Y-108872419D02*
X96100877Y-108300990D01*
X95672306Y-107872419D02*
X96243734Y-108443847D01*
X98196115Y-114372419D02*
X98196115Y-113372419D01*
X98196115Y-113372419D02*
X97862782Y-114086704D01*
X97862782Y-114086704D02*
X97529449Y-113372419D01*
X97529449Y-113372419D02*
X97529449Y-114372419D01*
X97053258Y-114372419D02*
X97053258Y-113372419D01*
X96624687Y-114324800D02*
X96481830Y-114372419D01*
X96481830Y-114372419D02*
X96243735Y-114372419D01*
X96243735Y-114372419D02*
X96148497Y-114324800D01*
X96148497Y-114324800D02*
X96100878Y-114277180D01*
X96100878Y-114277180D02*
X96053259Y-114181942D01*
X96053259Y-114181942D02*
X96053259Y-114086704D01*
X96053259Y-114086704D02*
X96100878Y-113991466D01*
X96100878Y-113991466D02*
X96148497Y-113943847D01*
X96148497Y-113943847D02*
X96243735Y-113896228D01*
X96243735Y-113896228D02*
X96434211Y-113848609D01*
X96434211Y-113848609D02*
X96529449Y-113800990D01*
X96529449Y-113800990D02*
X96577068Y-113753371D01*
X96577068Y-113753371D02*
X96624687Y-113658133D01*
X96624687Y-113658133D02*
X96624687Y-113562895D01*
X96624687Y-113562895D02*
X96577068Y-113467657D01*
X96577068Y-113467657D02*
X96529449Y-113420038D01*
X96529449Y-113420038D02*
X96434211Y-113372419D01*
X96434211Y-113372419D02*
X96196116Y-113372419D01*
X96196116Y-113372419D02*
X96053259Y-113420038D01*
X95434211Y-113372419D02*
X95243735Y-113372419D01*
X95243735Y-113372419D02*
X95148497Y-113420038D01*
X95148497Y-113420038D02*
X95053259Y-113515276D01*
X95053259Y-113515276D02*
X95005640Y-113705752D01*
X95005640Y-113705752D02*
X95005640Y-114039085D01*
X95005640Y-114039085D02*
X95053259Y-114229561D01*
X95053259Y-114229561D02*
X95148497Y-114324800D01*
X95148497Y-114324800D02*
X95243735Y-114372419D01*
X95243735Y-114372419D02*
X95434211Y-114372419D01*
X95434211Y-114372419D02*
X95529449Y-114324800D01*
X95529449Y-114324800D02*
X95624687Y-114229561D01*
X95624687Y-114229561D02*
X95672306Y-114039085D01*
X95672306Y-114039085D02*
X95672306Y-113705752D01*
X95672306Y-113705752D02*
X95624687Y-113515276D01*
X95624687Y-113515276D02*
X95529449Y-113420038D01*
X95529449Y-113420038D02*
X95434211Y-113372419D01*
X98196115Y-111872419D02*
X98196115Y-110872419D01*
X98196115Y-110872419D02*
X97862782Y-111586704D01*
X97862782Y-111586704D02*
X97529449Y-110872419D01*
X97529449Y-110872419D02*
X97529449Y-111872419D01*
X96862782Y-110872419D02*
X96672306Y-110872419D01*
X96672306Y-110872419D02*
X96577068Y-110920038D01*
X96577068Y-110920038D02*
X96481830Y-111015276D01*
X96481830Y-111015276D02*
X96434211Y-111205752D01*
X96434211Y-111205752D02*
X96434211Y-111539085D01*
X96434211Y-111539085D02*
X96481830Y-111729561D01*
X96481830Y-111729561D02*
X96577068Y-111824800D01*
X96577068Y-111824800D02*
X96672306Y-111872419D01*
X96672306Y-111872419D02*
X96862782Y-111872419D01*
X96862782Y-111872419D02*
X96958020Y-111824800D01*
X96958020Y-111824800D02*
X97053258Y-111729561D01*
X97053258Y-111729561D02*
X97100877Y-111539085D01*
X97100877Y-111539085D02*
X97100877Y-111205752D01*
X97100877Y-111205752D02*
X97053258Y-111015276D01*
X97053258Y-111015276D02*
X96958020Y-110920038D01*
X96958020Y-110920038D02*
X96862782Y-110872419D01*
X96053258Y-111824800D02*
X95910401Y-111872419D01*
X95910401Y-111872419D02*
X95672306Y-111872419D01*
X95672306Y-111872419D02*
X95577068Y-111824800D01*
X95577068Y-111824800D02*
X95529449Y-111777180D01*
X95529449Y-111777180D02*
X95481830Y-111681942D01*
X95481830Y-111681942D02*
X95481830Y-111586704D01*
X95481830Y-111586704D02*
X95529449Y-111491466D01*
X95529449Y-111491466D02*
X95577068Y-111443847D01*
X95577068Y-111443847D02*
X95672306Y-111396228D01*
X95672306Y-111396228D02*
X95862782Y-111348609D01*
X95862782Y-111348609D02*
X95958020Y-111300990D01*
X95958020Y-111300990D02*
X96005639Y-111253371D01*
X96005639Y-111253371D02*
X96053258Y-111158133D01*
X96053258Y-111158133D02*
X96053258Y-111062895D01*
X96053258Y-111062895D02*
X96005639Y-110967657D01*
X96005639Y-110967657D02*
X95958020Y-110920038D01*
X95958020Y-110920038D02*
X95862782Y-110872419D01*
X95862782Y-110872419D02*
X95624687Y-110872419D01*
X95624687Y-110872419D02*
X95481830Y-110920038D01*
X95053258Y-111872419D02*
X95053258Y-110872419D01*
X98196115Y-106372419D02*
X98196115Y-105372419D01*
X98196115Y-105372419D02*
X97624687Y-106372419D01*
X97624687Y-106372419D02*
X97624687Y-105372419D01*
X97196115Y-106324800D02*
X97053258Y-106372419D01*
X97053258Y-106372419D02*
X96815163Y-106372419D01*
X96815163Y-106372419D02*
X96719925Y-106324800D01*
X96719925Y-106324800D02*
X96672306Y-106277180D01*
X96672306Y-106277180D02*
X96624687Y-106181942D01*
X96624687Y-106181942D02*
X96624687Y-106086704D01*
X96624687Y-106086704D02*
X96672306Y-105991466D01*
X96672306Y-105991466D02*
X96719925Y-105943847D01*
X96719925Y-105943847D02*
X96815163Y-105896228D01*
X96815163Y-105896228D02*
X97005639Y-105848609D01*
X97005639Y-105848609D02*
X97100877Y-105800990D01*
X97100877Y-105800990D02*
X97148496Y-105753371D01*
X97148496Y-105753371D02*
X97196115Y-105658133D01*
X97196115Y-105658133D02*
X97196115Y-105562895D01*
X97196115Y-105562895D02*
X97148496Y-105467657D01*
X97148496Y-105467657D02*
X97100877Y-105420038D01*
X97100877Y-105420038D02*
X97005639Y-105372419D01*
X97005639Y-105372419D02*
X96767544Y-105372419D01*
X96767544Y-105372419D02*
X96624687Y-105420038D01*
X96243734Y-106324800D02*
X96100877Y-106372419D01*
X96100877Y-106372419D02*
X95862782Y-106372419D01*
X95862782Y-106372419D02*
X95767544Y-106324800D01*
X95767544Y-106324800D02*
X95719925Y-106277180D01*
X95719925Y-106277180D02*
X95672306Y-106181942D01*
X95672306Y-106181942D02*
X95672306Y-106086704D01*
X95672306Y-106086704D02*
X95719925Y-105991466D01*
X95719925Y-105991466D02*
X95767544Y-105943847D01*
X95767544Y-105943847D02*
X95862782Y-105896228D01*
X95862782Y-105896228D02*
X96053258Y-105848609D01*
X96053258Y-105848609D02*
X96148496Y-105800990D01*
X96148496Y-105800990D02*
X96196115Y-105753371D01*
X96196115Y-105753371D02*
X96243734Y-105658133D01*
X96243734Y-105658133D02*
X96243734Y-105562895D01*
X96243734Y-105562895D02*
X96196115Y-105467657D01*
X96196115Y-105467657D02*
X96148496Y-105420038D01*
X96148496Y-105420038D02*
X96053258Y-105372419D01*
X96053258Y-105372419D02*
X95815163Y-105372419D01*
X95815163Y-105372419D02*
X95672306Y-105420038D01*
X97672306Y-102920038D02*
X97767544Y-102872419D01*
X97767544Y-102872419D02*
X97910401Y-102872419D01*
X97910401Y-102872419D02*
X98053258Y-102920038D01*
X98053258Y-102920038D02*
X98148496Y-103015276D01*
X98148496Y-103015276D02*
X98196115Y-103110514D01*
X98196115Y-103110514D02*
X98243734Y-103300990D01*
X98243734Y-103300990D02*
X98243734Y-103443847D01*
X98243734Y-103443847D02*
X98196115Y-103634323D01*
X98196115Y-103634323D02*
X98148496Y-103729561D01*
X98148496Y-103729561D02*
X98053258Y-103824800D01*
X98053258Y-103824800D02*
X97910401Y-103872419D01*
X97910401Y-103872419D02*
X97815163Y-103872419D01*
X97815163Y-103872419D02*
X97672306Y-103824800D01*
X97672306Y-103824800D02*
X97624687Y-103777180D01*
X97624687Y-103777180D02*
X97624687Y-103443847D01*
X97624687Y-103443847D02*
X97815163Y-103443847D01*
X97196115Y-103872419D02*
X97196115Y-102872419D01*
X97196115Y-102872419D02*
X96624687Y-103872419D01*
X96624687Y-103872419D02*
X96624687Y-102872419D01*
X96148496Y-103872419D02*
X96148496Y-102872419D01*
X96148496Y-102872419D02*
X95910401Y-102872419D01*
X95910401Y-102872419D02*
X95767544Y-102920038D01*
X95767544Y-102920038D02*
X95672306Y-103015276D01*
X95672306Y-103015276D02*
X95624687Y-103110514D01*
X95624687Y-103110514D02*
X95577068Y-103300990D01*
X95577068Y-103300990D02*
X95577068Y-103443847D01*
X95577068Y-103443847D02*
X95624687Y-103634323D01*
X95624687Y-103634323D02*
X95672306Y-103729561D01*
X95672306Y-103729561D02*
X95767544Y-103824800D01*
X95767544Y-103824800D02*
X95910401Y-103872419D01*
X95910401Y-103872419D02*
X96148496Y-103872419D01*
D11*
X98258458Y-100369819D02*
X97639411Y-100369819D01*
X97639411Y-100369819D02*
X97972744Y-100750771D01*
X97972744Y-100750771D02*
X97829887Y-100750771D01*
X97829887Y-100750771D02*
X97734649Y-100798390D01*
X97734649Y-100798390D02*
X97687030Y-100846009D01*
X97687030Y-100846009D02*
X97639411Y-100941247D01*
X97639411Y-100941247D02*
X97639411Y-101179342D01*
X97639411Y-101179342D02*
X97687030Y-101274580D01*
X97687030Y-101274580D02*
X97734649Y-101322200D01*
X97734649Y-101322200D02*
X97829887Y-101369819D01*
X97829887Y-101369819D02*
X98115601Y-101369819D01*
X98115601Y-101369819D02*
X98210839Y-101322200D01*
X98210839Y-101322200D02*
X98258458Y-101274580D01*
X97210839Y-101274580D02*
X97163220Y-101322200D01*
X97163220Y-101322200D02*
X97210839Y-101369819D01*
X97210839Y-101369819D02*
X97258458Y-101322200D01*
X97258458Y-101322200D02*
X97210839Y-101274580D01*
X97210839Y-101274580D02*
X97210839Y-101369819D01*
X96829887Y-100369819D02*
X96210840Y-100369819D01*
X96210840Y-100369819D02*
X96544173Y-100750771D01*
X96544173Y-100750771D02*
X96401316Y-100750771D01*
X96401316Y-100750771D02*
X96306078Y-100798390D01*
X96306078Y-100798390D02*
X96258459Y-100846009D01*
X96258459Y-100846009D02*
X96210840Y-100941247D01*
X96210840Y-100941247D02*
X96210840Y-101179342D01*
X96210840Y-101179342D02*
X96258459Y-101274580D01*
X96258459Y-101274580D02*
X96306078Y-101322200D01*
X96306078Y-101322200D02*
X96401316Y-101369819D01*
X96401316Y-101369819D02*
X96687030Y-101369819D01*
X96687030Y-101369819D02*
X96782268Y-101322200D01*
X96782268Y-101322200D02*
X96829887Y-101274580D01*
X95925125Y-100369819D02*
X95591792Y-101369819D01*
X95591792Y-101369819D02*
X95258459Y-100369819D01*
X94210839Y-116322200D02*
X94067982Y-116369819D01*
X94067982Y-116369819D02*
X93829887Y-116369819D01*
X93829887Y-116369819D02*
X93734649Y-116322200D01*
X93734649Y-116322200D02*
X93687030Y-116274580D01*
X93687030Y-116274580D02*
X93639411Y-116179342D01*
X93639411Y-116179342D02*
X93639411Y-116084104D01*
X93639411Y-116084104D02*
X93687030Y-115988866D01*
X93687030Y-115988866D02*
X93734649Y-115941247D01*
X93734649Y-115941247D02*
X93829887Y-115893628D01*
X93829887Y-115893628D02*
X94020363Y-115846009D01*
X94020363Y-115846009D02*
X94115601Y-115798390D01*
X94115601Y-115798390D02*
X94163220Y-115750771D01*
X94163220Y-115750771D02*
X94210839Y-115655533D01*
X94210839Y-115655533D02*
X94210839Y-115560295D01*
X94210839Y-115560295D02*
X94163220Y-115465057D01*
X94163220Y-115465057D02*
X94115601Y-115417438D01*
X94115601Y-115417438D02*
X94020363Y-115369819D01*
X94020363Y-115369819D02*
X93782268Y-115369819D01*
X93782268Y-115369819D02*
X93639411Y-115417438D01*
X93210839Y-116369819D02*
X93210839Y-115369819D01*
X93210839Y-115369819D02*
X92829887Y-115369819D01*
X92829887Y-115369819D02*
X92734649Y-115417438D01*
X92734649Y-115417438D02*
X92687030Y-115465057D01*
X92687030Y-115465057D02*
X92639411Y-115560295D01*
X92639411Y-115560295D02*
X92639411Y-115703152D01*
X92639411Y-115703152D02*
X92687030Y-115798390D01*
X92687030Y-115798390D02*
X92734649Y-115846009D01*
X92734649Y-115846009D02*
X92829887Y-115893628D01*
X92829887Y-115893628D02*
X93210839Y-115893628D01*
X92210839Y-116369819D02*
X92210839Y-115369819D01*
X91210840Y-116369819D02*
X91782268Y-116369819D01*
X91496554Y-116369819D02*
X91496554Y-115369819D01*
X91496554Y-115369819D02*
X91591792Y-115512676D01*
X91591792Y-115512676D02*
X91687030Y-115607914D01*
X91687030Y-115607914D02*
X91782268Y-115655533D01*
X94210839Y-80822200D02*
X94067982Y-80869819D01*
X94067982Y-80869819D02*
X93829887Y-80869819D01*
X93829887Y-80869819D02*
X93734649Y-80822200D01*
X93734649Y-80822200D02*
X93687030Y-80774580D01*
X93687030Y-80774580D02*
X93639411Y-80679342D01*
X93639411Y-80679342D02*
X93639411Y-80584104D01*
X93639411Y-80584104D02*
X93687030Y-80488866D01*
X93687030Y-80488866D02*
X93734649Y-80441247D01*
X93734649Y-80441247D02*
X93829887Y-80393628D01*
X93829887Y-80393628D02*
X94020363Y-80346009D01*
X94020363Y-80346009D02*
X94115601Y-80298390D01*
X94115601Y-80298390D02*
X94163220Y-80250771D01*
X94163220Y-80250771D02*
X94210839Y-80155533D01*
X94210839Y-80155533D02*
X94210839Y-80060295D01*
X94210839Y-80060295D02*
X94163220Y-79965057D01*
X94163220Y-79965057D02*
X94115601Y-79917438D01*
X94115601Y-79917438D02*
X94020363Y-79869819D01*
X94020363Y-79869819D02*
X93782268Y-79869819D01*
X93782268Y-79869819D02*
X93639411Y-79917438D01*
X93210839Y-80869819D02*
X93210839Y-79869819D01*
X93210839Y-79869819D02*
X92829887Y-79869819D01*
X92829887Y-79869819D02*
X92734649Y-79917438D01*
X92734649Y-79917438D02*
X92687030Y-79965057D01*
X92687030Y-79965057D02*
X92639411Y-80060295D01*
X92639411Y-80060295D02*
X92639411Y-80203152D01*
X92639411Y-80203152D02*
X92687030Y-80298390D01*
X92687030Y-80298390D02*
X92734649Y-80346009D01*
X92734649Y-80346009D02*
X92829887Y-80393628D01*
X92829887Y-80393628D02*
X93210839Y-80393628D01*
X92210839Y-80869819D02*
X92210839Y-79869819D01*
X91782268Y-79965057D02*
X91734649Y-79917438D01*
X91734649Y-79917438D02*
X91639411Y-79869819D01*
X91639411Y-79869819D02*
X91401316Y-79869819D01*
X91401316Y-79869819D02*
X91306078Y-79917438D01*
X91306078Y-79917438D02*
X91258459Y-79965057D01*
X91258459Y-79965057D02*
X91210840Y-80060295D01*
X91210840Y-80060295D02*
X91210840Y-80155533D01*
X91210840Y-80155533D02*
X91258459Y-80298390D01*
X91258459Y-80298390D02*
X91829887Y-80869819D01*
X91829887Y-80869819D02*
X91210840Y-80869819D01*
X100687030Y-69869819D02*
X101163220Y-69869819D01*
X101163220Y-69869819D02*
X101210839Y-70346009D01*
X101210839Y-70346009D02*
X101163220Y-70298390D01*
X101163220Y-70298390D02*
X101067982Y-70250771D01*
X101067982Y-70250771D02*
X100829887Y-70250771D01*
X100829887Y-70250771D02*
X100734649Y-70298390D01*
X100734649Y-70298390D02*
X100687030Y-70346009D01*
X100687030Y-70346009D02*
X100639411Y-70441247D01*
X100639411Y-70441247D02*
X100639411Y-70679342D01*
X100639411Y-70679342D02*
X100687030Y-70774580D01*
X100687030Y-70774580D02*
X100734649Y-70822200D01*
X100734649Y-70822200D02*
X100829887Y-70869819D01*
X100829887Y-70869819D02*
X101067982Y-70869819D01*
X101067982Y-70869819D02*
X101163220Y-70822200D01*
X101163220Y-70822200D02*
X101210839Y-70774580D01*
X100353696Y-69869819D02*
X100020363Y-70869819D01*
X100020363Y-70869819D02*
X99687030Y-69869819D01*
X102758458Y-64369819D02*
X102139411Y-64369819D01*
X102139411Y-64369819D02*
X102472744Y-64750771D01*
X102472744Y-64750771D02*
X102329887Y-64750771D01*
X102329887Y-64750771D02*
X102234649Y-64798390D01*
X102234649Y-64798390D02*
X102187030Y-64846009D01*
X102187030Y-64846009D02*
X102139411Y-64941247D01*
X102139411Y-64941247D02*
X102139411Y-65179342D01*
X102139411Y-65179342D02*
X102187030Y-65274580D01*
X102187030Y-65274580D02*
X102234649Y-65322200D01*
X102234649Y-65322200D02*
X102329887Y-65369819D01*
X102329887Y-65369819D02*
X102615601Y-65369819D01*
X102615601Y-65369819D02*
X102710839Y-65322200D01*
X102710839Y-65322200D02*
X102758458Y-65274580D01*
X101710839Y-65274580D02*
X101663220Y-65322200D01*
X101663220Y-65322200D02*
X101710839Y-65369819D01*
X101710839Y-65369819D02*
X101758458Y-65322200D01*
X101758458Y-65322200D02*
X101710839Y-65274580D01*
X101710839Y-65274580D02*
X101710839Y-65369819D01*
X101329887Y-64369819D02*
X100710840Y-64369819D01*
X100710840Y-64369819D02*
X101044173Y-64750771D01*
X101044173Y-64750771D02*
X100901316Y-64750771D01*
X100901316Y-64750771D02*
X100806078Y-64798390D01*
X100806078Y-64798390D02*
X100758459Y-64846009D01*
X100758459Y-64846009D02*
X100710840Y-64941247D01*
X100710840Y-64941247D02*
X100710840Y-65179342D01*
X100710840Y-65179342D02*
X100758459Y-65274580D01*
X100758459Y-65274580D02*
X100806078Y-65322200D01*
X100806078Y-65322200D02*
X100901316Y-65369819D01*
X100901316Y-65369819D02*
X101187030Y-65369819D01*
X101187030Y-65369819D02*
X101282268Y-65322200D01*
X101282268Y-65322200D02*
X101329887Y-65274580D01*
X100425125Y-64369819D02*
X100091792Y-65369819D01*
X100091792Y-65369819D02*
X99758459Y-64369819D01*
X94869819Y-64693922D02*
X95869819Y-65027255D01*
X95869819Y-65027255D02*
X94869819Y-65360588D01*
X95822200Y-66408208D02*
X95869819Y-66551065D01*
X95869819Y-66551065D02*
X95869819Y-66789160D01*
X95869819Y-66789160D02*
X95822200Y-66884398D01*
X95822200Y-66884398D02*
X95774580Y-66932017D01*
X95774580Y-66932017D02*
X95679342Y-66979636D01*
X95679342Y-66979636D02*
X95584104Y-66979636D01*
X95584104Y-66979636D02*
X95488866Y-66932017D01*
X95488866Y-66932017D02*
X95441247Y-66884398D01*
X95441247Y-66884398D02*
X95393628Y-66789160D01*
X95393628Y-66789160D02*
X95346009Y-66598684D01*
X95346009Y-66598684D02*
X95298390Y-66503446D01*
X95298390Y-66503446D02*
X95250771Y-66455827D01*
X95250771Y-66455827D02*
X95155533Y-66408208D01*
X95155533Y-66408208D02*
X95060295Y-66408208D01*
X95060295Y-66408208D02*
X94965057Y-66455827D01*
X94965057Y-66455827D02*
X94917438Y-66503446D01*
X94917438Y-66503446D02*
X94869819Y-66598684D01*
X94869819Y-66598684D02*
X94869819Y-66836779D01*
X94869819Y-66836779D02*
X94917438Y-66979636D01*
X95822200Y-67789160D02*
X95869819Y-67693922D01*
X95869819Y-67693922D02*
X95869819Y-67503446D01*
X95869819Y-67503446D02*
X95822200Y-67408208D01*
X95822200Y-67408208D02*
X95726961Y-67360589D01*
X95726961Y-67360589D02*
X95346009Y-67360589D01*
X95346009Y-67360589D02*
X95250771Y-67408208D01*
X95250771Y-67408208D02*
X95203152Y-67503446D01*
X95203152Y-67503446D02*
X95203152Y-67693922D01*
X95203152Y-67693922D02*
X95250771Y-67789160D01*
X95250771Y-67789160D02*
X95346009Y-67836779D01*
X95346009Y-67836779D02*
X95441247Y-67836779D01*
X95441247Y-67836779D02*
X95536485Y-67360589D01*
X95869819Y-68408208D02*
X95822200Y-68312970D01*
X95822200Y-68312970D02*
X95726961Y-68265351D01*
X95726961Y-68265351D02*
X94869819Y-68265351D01*
X95822200Y-69170113D02*
X95869819Y-69074875D01*
X95869819Y-69074875D02*
X95869819Y-68884399D01*
X95869819Y-68884399D02*
X95822200Y-68789161D01*
X95822200Y-68789161D02*
X95726961Y-68741542D01*
X95726961Y-68741542D02*
X95346009Y-68741542D01*
X95346009Y-68741542D02*
X95250771Y-68789161D01*
X95250771Y-68789161D02*
X95203152Y-68884399D01*
X95203152Y-68884399D02*
X95203152Y-69074875D01*
X95203152Y-69074875D02*
X95250771Y-69170113D01*
X95250771Y-69170113D02*
X95346009Y-69217732D01*
X95346009Y-69217732D02*
X95441247Y-69217732D01*
X95441247Y-69217732D02*
X95536485Y-68741542D01*
X95822200Y-70074875D02*
X95869819Y-69979637D01*
X95869819Y-69979637D02*
X95869819Y-69789161D01*
X95869819Y-69789161D02*
X95822200Y-69693923D01*
X95822200Y-69693923D02*
X95774580Y-69646304D01*
X95774580Y-69646304D02*
X95679342Y-69598685D01*
X95679342Y-69598685D02*
X95393628Y-69598685D01*
X95393628Y-69598685D02*
X95298390Y-69646304D01*
X95298390Y-69646304D02*
X95250771Y-69693923D01*
X95250771Y-69693923D02*
X95203152Y-69789161D01*
X95203152Y-69789161D02*
X95203152Y-69979637D01*
X95203152Y-69979637D02*
X95250771Y-70074875D01*
X95203152Y-70360590D02*
X95203152Y-70741542D01*
X94869819Y-70503447D02*
X95726961Y-70503447D01*
X95726961Y-70503447D02*
X95822200Y-70551066D01*
X95822200Y-70551066D02*
X95869819Y-70646304D01*
X95869819Y-70646304D02*
X95869819Y-70741542D01*
D12*
G36*
X161359755Y-95697155D02*
G01*
X159423779Y-95697155D01*
X159423779Y-93761179D01*
X161359755Y-93761179D01*
X161359755Y-95697155D01*
G37*
G36*
X162650405Y-96987805D02*
G01*
X158133129Y-96987805D01*
X158133129Y-93115854D01*
X158778454Y-93115854D01*
X158778454Y-96342479D01*
X162005080Y-96342479D01*
X162005080Y-93115854D01*
X158778454Y-93115854D01*
X158133129Y-93115854D01*
X158133129Y-92470528D01*
X162650405Y-92470528D01*
X162650405Y-96342479D01*
X162650405Y-96987805D01*
G37*
G36*
X144581300Y-78918700D02*
G01*
X142645324Y-78918700D01*
X142645324Y-76982724D01*
X144581300Y-76982724D01*
X144581300Y-78918700D01*
G37*
G36*
X161359755Y-78918700D02*
G01*
X159423779Y-78918700D01*
X159423779Y-76982724D01*
X161359755Y-76982724D01*
X161359755Y-78918700D01*
G37*
G36*
X145871951Y-80209350D02*
G01*
X141354674Y-80209350D01*
X141354674Y-76337399D01*
X142000000Y-76337399D01*
X142000000Y-79564025D01*
X145226625Y-79564025D01*
X145226625Y-76337399D01*
X142000000Y-76337399D01*
X141354674Y-76337399D01*
X141354674Y-75692074D01*
X145871951Y-75692074D01*
X145871951Y-79564025D01*
X145871951Y-80209350D01*
G37*
G36*
X162650405Y-80209350D02*
G01*
X158133129Y-80209350D01*
X158133129Y-76337399D01*
X158778454Y-76337399D01*
X158778454Y-79564025D01*
X162005080Y-79564025D01*
X162005080Y-76337399D01*
X158778454Y-76337399D01*
X158133129Y-76337399D01*
X158133129Y-75692074D01*
X162650405Y-75692074D01*
X162650405Y-79564025D01*
X162650405Y-80209350D01*
G37*
G36*
X142645324Y-96987805D02*
G01*
X142000000Y-96987805D01*
X142000000Y-96342479D01*
X142645324Y-96342479D01*
X142645324Y-96987805D01*
G37*
G36*
X143935975Y-96987805D02*
G01*
X143290649Y-96987805D01*
X143290649Y-96342479D01*
X143935975Y-96342479D01*
X143935975Y-96987805D01*
G37*
G36*
X145871951Y-96987805D02*
G01*
X145226625Y-96987805D01*
X145226625Y-96342479D01*
X145871951Y-96342479D01*
X145871951Y-96987805D01*
G37*
G36*
X147807927Y-96987805D02*
G01*
X147162600Y-96987805D01*
X147162600Y-96342479D01*
X147807927Y-96342479D01*
X147807927Y-96987805D01*
G37*
G36*
X149743901Y-96987805D02*
G01*
X149098576Y-96987805D01*
X149098576Y-96342479D01*
X149743901Y-96342479D01*
X149743901Y-96987805D01*
G37*
G36*
X151679876Y-96987805D02*
G01*
X151034552Y-96987805D01*
X151034552Y-96342479D01*
X151679876Y-96342479D01*
X151679876Y-96987805D01*
G37*
G36*
X152970527Y-96987805D02*
G01*
X152325203Y-96987805D01*
X152325203Y-96342479D01*
X152970527Y-96342479D01*
X152970527Y-96987805D01*
G37*
G36*
X153615853Y-96987805D02*
G01*
X152970527Y-96987805D01*
X152970527Y-96342479D01*
X153615853Y-96342479D01*
X153615853Y-96987805D01*
G37*
G36*
X156197153Y-96987805D02*
G01*
X155551829Y-96987805D01*
X155551829Y-96342479D01*
X156197153Y-96342479D01*
X156197153Y-96987805D01*
G37*
G36*
X156842479Y-96987805D02*
G01*
X156197153Y-96987805D01*
X156197153Y-96342479D01*
X156842479Y-96342479D01*
X156842479Y-96987805D01*
G37*
G36*
X157487803Y-96987805D02*
G01*
X156842479Y-96987805D01*
X156842479Y-96342479D01*
X157487803Y-96342479D01*
X157487803Y-96987805D01*
G37*
G36*
X142000000Y-96342479D02*
G01*
X141354674Y-96342479D01*
X141354674Y-95697155D01*
X142000000Y-95697155D01*
X142000000Y-96342479D01*
G37*
G36*
X142645324Y-96342479D02*
G01*
X142000000Y-96342479D01*
X142000000Y-95697155D01*
X142645324Y-95697155D01*
X142645324Y-96342479D01*
G37*
G36*
X143935975Y-96342479D02*
G01*
X143290649Y-96342479D01*
X143290649Y-95697155D01*
X143935975Y-95697155D01*
X143935975Y-96342479D01*
G37*
G36*
X144581300Y-96342479D02*
G01*
X143935975Y-96342479D01*
X143935975Y-95697155D01*
X144581300Y-95697155D01*
X144581300Y-96342479D01*
G37*
G36*
X146517276Y-96342479D02*
G01*
X145871951Y-96342479D01*
X145871951Y-95697155D01*
X146517276Y-95697155D01*
X146517276Y-96342479D01*
G37*
G36*
X147162600Y-96342479D02*
G01*
X146517276Y-96342479D01*
X146517276Y-95697155D01*
X147162600Y-95697155D01*
X147162600Y-96342479D01*
G37*
G36*
X147807927Y-96342479D02*
G01*
X147162600Y-96342479D01*
X147162600Y-95697155D01*
X147807927Y-95697155D01*
X147807927Y-96342479D01*
G37*
G36*
X149098576Y-96342479D02*
G01*
X148453251Y-96342479D01*
X148453251Y-95697155D01*
X149098576Y-95697155D01*
X149098576Y-96342479D01*
G37*
G36*
X151034552Y-96342479D02*
G01*
X150389227Y-96342479D01*
X150389227Y-95697155D01*
X151034552Y-95697155D01*
X151034552Y-96342479D01*
G37*
G36*
X151679876Y-96342479D02*
G01*
X151034552Y-96342479D01*
X151034552Y-95697155D01*
X151679876Y-95697155D01*
X151679876Y-96342479D01*
G37*
G36*
X152970527Y-96342479D02*
G01*
X152325203Y-96342479D01*
X152325203Y-95697155D01*
X152970527Y-95697155D01*
X152970527Y-96342479D01*
G37*
G36*
X155551829Y-96342479D02*
G01*
X154906503Y-96342479D01*
X154906503Y-95697155D01*
X155551829Y-95697155D01*
X155551829Y-96342479D01*
G37*
G36*
X156197153Y-96342479D02*
G01*
X155551829Y-96342479D01*
X155551829Y-95697155D01*
X156197153Y-95697155D01*
X156197153Y-96342479D01*
G37*
G36*
X143290649Y-95697155D02*
G01*
X142645324Y-95697155D01*
X142645324Y-95051830D01*
X143290649Y-95051830D01*
X143290649Y-95697155D01*
G37*
G36*
X145226625Y-95697155D02*
G01*
X144581300Y-95697155D01*
X144581300Y-95051830D01*
X145226625Y-95051830D01*
X145226625Y-95697155D01*
G37*
G36*
X145871951Y-95697155D02*
G01*
X145226625Y-95697155D01*
X145226625Y-95051830D01*
X145871951Y-95051830D01*
X145871951Y-95697155D01*
G37*
G36*
X146517276Y-95697155D02*
G01*
X145871951Y-95697155D01*
X145871951Y-95051830D01*
X146517276Y-95051830D01*
X146517276Y-95697155D01*
G37*
G36*
X147162600Y-95697155D02*
G01*
X146517276Y-95697155D01*
X146517276Y-95051830D01*
X147162600Y-95051830D01*
X147162600Y-95697155D01*
G37*
G36*
X147807927Y-95697155D02*
G01*
X147162600Y-95697155D01*
X147162600Y-95051830D01*
X147807927Y-95051830D01*
X147807927Y-95697155D01*
G37*
G36*
X148453251Y-95697155D02*
G01*
X147807927Y-95697155D01*
X147807927Y-95051830D01*
X148453251Y-95051830D01*
X148453251Y-95697155D01*
G37*
G36*
X149743901Y-95697155D02*
G01*
X149098576Y-95697155D01*
X149098576Y-95051830D01*
X149743901Y-95051830D01*
X149743901Y-95697155D01*
G37*
G36*
X151679876Y-95697155D02*
G01*
X151034552Y-95697155D01*
X151034552Y-95051830D01*
X151679876Y-95051830D01*
X151679876Y-95697155D01*
G37*
G36*
X152325203Y-95697155D02*
G01*
X151679876Y-95697155D01*
X151679876Y-95051830D01*
X152325203Y-95051830D01*
X152325203Y-95697155D01*
G37*
G36*
X152970527Y-95697155D02*
G01*
X152325203Y-95697155D01*
X152325203Y-95051830D01*
X152970527Y-95051830D01*
X152970527Y-95697155D01*
G37*
G36*
X153615853Y-95697155D02*
G01*
X152970527Y-95697155D01*
X152970527Y-95051830D01*
X153615853Y-95051830D01*
X153615853Y-95697155D01*
G37*
G36*
X154906503Y-95697155D02*
G01*
X154261178Y-95697155D01*
X154261178Y-95051830D01*
X154906503Y-95051830D01*
X154906503Y-95697155D01*
G37*
G36*
X155551829Y-95697155D02*
G01*
X154906503Y-95697155D01*
X154906503Y-95051830D01*
X155551829Y-95051830D01*
X155551829Y-95697155D01*
G37*
G36*
X156197153Y-95697155D02*
G01*
X155551829Y-95697155D01*
X155551829Y-95051830D01*
X156197153Y-95051830D01*
X156197153Y-95697155D01*
G37*
G36*
X156842479Y-95697155D02*
G01*
X156197153Y-95697155D01*
X156197153Y-95051830D01*
X156842479Y-95051830D01*
X156842479Y-95697155D01*
G37*
G36*
X157487803Y-95697155D02*
G01*
X156842479Y-95697155D01*
X156842479Y-95051830D01*
X157487803Y-95051830D01*
X157487803Y-95697155D01*
G37*
G36*
X142645324Y-95051830D02*
G01*
X142000000Y-95051830D01*
X142000000Y-94406504D01*
X142645324Y-94406504D01*
X142645324Y-95051830D01*
G37*
G36*
X143290649Y-95051830D02*
G01*
X142645324Y-95051830D01*
X142645324Y-94406504D01*
X143290649Y-94406504D01*
X143290649Y-95051830D01*
G37*
G36*
X143935975Y-95051830D02*
G01*
X143290649Y-95051830D01*
X143290649Y-94406504D01*
X143935975Y-94406504D01*
X143935975Y-95051830D01*
G37*
G36*
X145226625Y-95051830D02*
G01*
X144581300Y-95051830D01*
X144581300Y-94406504D01*
X145226625Y-94406504D01*
X145226625Y-95051830D01*
G37*
G36*
X145871951Y-95051830D02*
G01*
X145226625Y-95051830D01*
X145226625Y-94406504D01*
X145871951Y-94406504D01*
X145871951Y-95051830D01*
G37*
G36*
X146517276Y-95051830D02*
G01*
X145871951Y-95051830D01*
X145871951Y-94406504D01*
X146517276Y-94406504D01*
X146517276Y-95051830D01*
G37*
G36*
X149098576Y-95051830D02*
G01*
X148453251Y-95051830D01*
X148453251Y-94406504D01*
X149098576Y-94406504D01*
X149098576Y-95051830D01*
G37*
G36*
X151034552Y-95051830D02*
G01*
X150389227Y-95051830D01*
X150389227Y-94406504D01*
X151034552Y-94406504D01*
X151034552Y-95051830D01*
G37*
G36*
X152970527Y-95051830D02*
G01*
X152325203Y-95051830D01*
X152325203Y-94406504D01*
X152970527Y-94406504D01*
X152970527Y-95051830D01*
G37*
G36*
X154261178Y-95051830D02*
G01*
X153615853Y-95051830D01*
X153615853Y-94406504D01*
X154261178Y-94406504D01*
X154261178Y-95051830D01*
G37*
G36*
X154906503Y-95051830D02*
G01*
X154261178Y-95051830D01*
X154261178Y-94406504D01*
X154906503Y-94406504D01*
X154906503Y-95051830D01*
G37*
G36*
X155551829Y-95051830D02*
G01*
X154906503Y-95051830D01*
X154906503Y-94406504D01*
X155551829Y-94406504D01*
X155551829Y-95051830D01*
G37*
G36*
X156197153Y-95051830D02*
G01*
X155551829Y-95051830D01*
X155551829Y-94406504D01*
X156197153Y-94406504D01*
X156197153Y-95051830D01*
G37*
G36*
X157487803Y-95051830D02*
G01*
X156842479Y-95051830D01*
X156842479Y-94406504D01*
X157487803Y-94406504D01*
X157487803Y-95051830D01*
G37*
G36*
X142645324Y-94406504D02*
G01*
X142000000Y-94406504D01*
X142000000Y-93761179D01*
X142645324Y-93761179D01*
X142645324Y-94406504D01*
G37*
G36*
X143290649Y-94406504D02*
G01*
X142645324Y-94406504D01*
X142645324Y-93761179D01*
X143290649Y-93761179D01*
X143290649Y-94406504D01*
G37*
G36*
X144581300Y-94406504D02*
G01*
X143935975Y-94406504D01*
X143935975Y-93761179D01*
X144581300Y-93761179D01*
X144581300Y-94406504D01*
G37*
G36*
X145226625Y-94406504D02*
G01*
X144581300Y-94406504D01*
X144581300Y-93761179D01*
X145226625Y-93761179D01*
X145226625Y-94406504D01*
G37*
G36*
X145871951Y-94406504D02*
G01*
X145226625Y-94406504D01*
X145226625Y-93761179D01*
X145871951Y-93761179D01*
X145871951Y-94406504D01*
G37*
G36*
X146517276Y-94406504D02*
G01*
X145871951Y-94406504D01*
X145871951Y-93761179D01*
X146517276Y-93761179D01*
X146517276Y-94406504D01*
G37*
G36*
X147162600Y-94406504D02*
G01*
X146517276Y-94406504D01*
X146517276Y-93761179D01*
X147162600Y-93761179D01*
X147162600Y-94406504D01*
G37*
G36*
X148453251Y-94406504D02*
G01*
X147807927Y-94406504D01*
X147807927Y-93761179D01*
X148453251Y-93761179D01*
X148453251Y-94406504D01*
G37*
G36*
X149098576Y-94406504D02*
G01*
X148453251Y-94406504D01*
X148453251Y-93761179D01*
X149098576Y-93761179D01*
X149098576Y-94406504D01*
G37*
G36*
X149743901Y-94406504D02*
G01*
X149098576Y-94406504D01*
X149098576Y-93761179D01*
X149743901Y-93761179D01*
X149743901Y-94406504D01*
G37*
G36*
X152325203Y-94406504D02*
G01*
X151679876Y-94406504D01*
X151679876Y-93761179D01*
X152325203Y-93761179D01*
X152325203Y-94406504D01*
G37*
G36*
X152970527Y-94406504D02*
G01*
X152325203Y-94406504D01*
X152325203Y-93761179D01*
X152970527Y-93761179D01*
X152970527Y-94406504D01*
G37*
G36*
X153615853Y-94406504D02*
G01*
X152970527Y-94406504D01*
X152970527Y-93761179D01*
X153615853Y-93761179D01*
X153615853Y-94406504D01*
G37*
G36*
X154261178Y-94406504D02*
G01*
X153615853Y-94406504D01*
X153615853Y-93761179D01*
X154261178Y-93761179D01*
X154261178Y-94406504D01*
G37*
G36*
X156842479Y-94406504D02*
G01*
X156197153Y-94406504D01*
X156197153Y-93761179D01*
X156842479Y-93761179D01*
X156842479Y-94406504D01*
G37*
G36*
X157487803Y-94406504D02*
G01*
X156842479Y-94406504D01*
X156842479Y-93761179D01*
X157487803Y-93761179D01*
X157487803Y-94406504D01*
G37*
G36*
X142000000Y-93761179D02*
G01*
X141354674Y-93761179D01*
X141354674Y-93115854D01*
X142000000Y-93115854D01*
X142000000Y-93761179D01*
G37*
G36*
X142645324Y-93761179D02*
G01*
X142000000Y-93761179D01*
X142000000Y-93115854D01*
X142645324Y-93115854D01*
X142645324Y-93761179D01*
G37*
G36*
X143290649Y-93761179D02*
G01*
X142645324Y-93761179D01*
X142645324Y-93115854D01*
X143290649Y-93115854D01*
X143290649Y-93761179D01*
G37*
G36*
X143935975Y-93761179D02*
G01*
X143290649Y-93761179D01*
X143290649Y-93115854D01*
X143935975Y-93115854D01*
X143935975Y-93761179D01*
G37*
G36*
X144581300Y-93761179D02*
G01*
X143935975Y-93761179D01*
X143935975Y-93115854D01*
X144581300Y-93115854D01*
X144581300Y-93761179D01*
G37*
G36*
X147162600Y-93761179D02*
G01*
X146517276Y-93761179D01*
X146517276Y-93115854D01*
X147162600Y-93115854D01*
X147162600Y-93761179D01*
G37*
G36*
X147807927Y-93761179D02*
G01*
X147162600Y-93761179D01*
X147162600Y-93115854D01*
X147807927Y-93115854D01*
X147807927Y-93761179D01*
G37*
G36*
X149743901Y-93761179D02*
G01*
X149098576Y-93761179D01*
X149098576Y-93115854D01*
X149743901Y-93115854D01*
X149743901Y-93761179D01*
G37*
G36*
X150389227Y-93761179D02*
G01*
X149743901Y-93761179D01*
X149743901Y-93115854D01*
X150389227Y-93115854D01*
X150389227Y-93761179D01*
G37*
G36*
X151034552Y-93761179D02*
G01*
X150389227Y-93761179D01*
X150389227Y-93115854D01*
X151034552Y-93115854D01*
X151034552Y-93761179D01*
G37*
G36*
X151679876Y-93761179D02*
G01*
X151034552Y-93761179D01*
X151034552Y-93115854D01*
X151679876Y-93115854D01*
X151679876Y-93761179D01*
G37*
G36*
X152325203Y-93761179D02*
G01*
X151679876Y-93761179D01*
X151679876Y-93115854D01*
X152325203Y-93115854D01*
X152325203Y-93761179D01*
G37*
G36*
X155551829Y-93761179D02*
G01*
X154906503Y-93761179D01*
X154906503Y-93115854D01*
X155551829Y-93115854D01*
X155551829Y-93761179D01*
G37*
G36*
X157487803Y-93761179D02*
G01*
X156842479Y-93761179D01*
X156842479Y-93115854D01*
X157487803Y-93115854D01*
X157487803Y-93761179D01*
G37*
G36*
X143935975Y-93115854D02*
G01*
X143290649Y-93115854D01*
X143290649Y-92470528D01*
X143935975Y-92470528D01*
X143935975Y-93115854D01*
G37*
G36*
X144581300Y-93115854D02*
G01*
X143935975Y-93115854D01*
X143935975Y-92470528D01*
X144581300Y-92470528D01*
X144581300Y-93115854D01*
G37*
G36*
X145871951Y-93115854D02*
G01*
X145226625Y-93115854D01*
X145226625Y-92470528D01*
X145871951Y-92470528D01*
X145871951Y-93115854D01*
G37*
G36*
X147162600Y-93115854D02*
G01*
X146517276Y-93115854D01*
X146517276Y-92470528D01*
X147162600Y-92470528D01*
X147162600Y-93115854D01*
G37*
G36*
X147807927Y-93115854D02*
G01*
X147162600Y-93115854D01*
X147162600Y-92470528D01*
X147807927Y-92470528D01*
X147807927Y-93115854D01*
G37*
G36*
X148453251Y-93115854D02*
G01*
X147807927Y-93115854D01*
X147807927Y-92470528D01*
X148453251Y-92470528D01*
X148453251Y-93115854D01*
G37*
G36*
X150389227Y-93115854D02*
G01*
X149743901Y-93115854D01*
X149743901Y-92470528D01*
X150389227Y-92470528D01*
X150389227Y-93115854D01*
G37*
G36*
X151679876Y-93115854D02*
G01*
X151034552Y-93115854D01*
X151034552Y-92470528D01*
X151679876Y-92470528D01*
X151679876Y-93115854D01*
G37*
G36*
X152325203Y-93115854D02*
G01*
X151679876Y-93115854D01*
X151679876Y-92470528D01*
X152325203Y-92470528D01*
X152325203Y-93115854D01*
G37*
G36*
X152970527Y-93115854D02*
G01*
X152325203Y-93115854D01*
X152325203Y-92470528D01*
X152970527Y-92470528D01*
X152970527Y-93115854D01*
G37*
G36*
X153615853Y-93115854D02*
G01*
X152970527Y-93115854D01*
X152970527Y-92470528D01*
X153615853Y-92470528D01*
X153615853Y-93115854D01*
G37*
G36*
X154906503Y-93115854D02*
G01*
X154261178Y-93115854D01*
X154261178Y-92470528D01*
X154906503Y-92470528D01*
X154906503Y-93115854D01*
G37*
G36*
X156197153Y-93115854D02*
G01*
X155551829Y-93115854D01*
X155551829Y-92470528D01*
X156197153Y-92470528D01*
X156197153Y-93115854D01*
G37*
G36*
X156842479Y-93115854D02*
G01*
X156197153Y-93115854D01*
X156197153Y-92470528D01*
X156842479Y-92470528D01*
X156842479Y-93115854D01*
G37*
G36*
X142000000Y-92470528D02*
G01*
X141354674Y-92470528D01*
X141354674Y-91825203D01*
X142000000Y-91825203D01*
X142000000Y-92470528D01*
G37*
G36*
X142645324Y-92470528D02*
G01*
X142000000Y-92470528D01*
X142000000Y-91825203D01*
X142645324Y-91825203D01*
X142645324Y-92470528D01*
G37*
G36*
X143290649Y-92470528D02*
G01*
X142645324Y-92470528D01*
X142645324Y-91825203D01*
X143290649Y-91825203D01*
X143290649Y-92470528D01*
G37*
G36*
X143935975Y-92470528D02*
G01*
X143290649Y-92470528D01*
X143290649Y-91825203D01*
X143935975Y-91825203D01*
X143935975Y-92470528D01*
G37*
G36*
X144581300Y-92470528D02*
G01*
X143935975Y-92470528D01*
X143935975Y-91825203D01*
X144581300Y-91825203D01*
X144581300Y-92470528D01*
G37*
G36*
X147162600Y-92470528D02*
G01*
X146517276Y-92470528D01*
X146517276Y-91825203D01*
X147162600Y-91825203D01*
X147162600Y-92470528D01*
G37*
G36*
X147807927Y-92470528D02*
G01*
X147162600Y-92470528D01*
X147162600Y-91825203D01*
X147807927Y-91825203D01*
X147807927Y-92470528D01*
G37*
G36*
X149743901Y-92470528D02*
G01*
X149098576Y-92470528D01*
X149098576Y-91825203D01*
X149743901Y-91825203D01*
X149743901Y-92470528D01*
G37*
G36*
X150389227Y-92470528D02*
G01*
X149743901Y-92470528D01*
X149743901Y-91825203D01*
X150389227Y-91825203D01*
X150389227Y-92470528D01*
G37*
G36*
X151679876Y-92470528D02*
G01*
X151034552Y-92470528D01*
X151034552Y-91825203D01*
X151679876Y-91825203D01*
X151679876Y-92470528D01*
G37*
G36*
X153615853Y-92470528D02*
G01*
X152970527Y-92470528D01*
X152970527Y-91825203D01*
X153615853Y-91825203D01*
X153615853Y-92470528D01*
G37*
G36*
X154261178Y-92470528D02*
G01*
X153615853Y-92470528D01*
X153615853Y-91825203D01*
X154261178Y-91825203D01*
X154261178Y-92470528D01*
G37*
G36*
X156197153Y-92470528D02*
G01*
X155551829Y-92470528D01*
X155551829Y-91825203D01*
X156197153Y-91825203D01*
X156197153Y-92470528D01*
G37*
G36*
X157487803Y-92470528D02*
G01*
X156842479Y-92470528D01*
X156842479Y-91825203D01*
X157487803Y-91825203D01*
X157487803Y-92470528D01*
G37*
G36*
X142000000Y-91825203D02*
G01*
X141354674Y-91825203D01*
X141354674Y-91179879D01*
X142000000Y-91179879D01*
X142000000Y-91825203D01*
G37*
G36*
X144581300Y-91825203D02*
G01*
X143935975Y-91825203D01*
X143935975Y-91179879D01*
X144581300Y-91179879D01*
X144581300Y-91825203D01*
G37*
G36*
X145226625Y-91825203D02*
G01*
X144581300Y-91825203D01*
X144581300Y-91179879D01*
X145226625Y-91179879D01*
X145226625Y-91825203D01*
G37*
G36*
X145871951Y-91825203D02*
G01*
X145226625Y-91825203D01*
X145226625Y-91179879D01*
X145871951Y-91179879D01*
X145871951Y-91825203D01*
G37*
G36*
X146517276Y-91825203D02*
G01*
X145871951Y-91825203D01*
X145871951Y-91179879D01*
X146517276Y-91179879D01*
X146517276Y-91825203D01*
G37*
G36*
X147162600Y-91825203D02*
G01*
X146517276Y-91825203D01*
X146517276Y-91179879D01*
X147162600Y-91179879D01*
X147162600Y-91825203D01*
G37*
G36*
X148453251Y-91825203D02*
G01*
X147807927Y-91825203D01*
X147807927Y-91179879D01*
X148453251Y-91179879D01*
X148453251Y-91825203D01*
G37*
G36*
X149743901Y-91825203D02*
G01*
X149098576Y-91825203D01*
X149098576Y-91179879D01*
X149743901Y-91179879D01*
X149743901Y-91825203D01*
G37*
G36*
X150389227Y-91825203D02*
G01*
X149743901Y-91825203D01*
X149743901Y-91179879D01*
X150389227Y-91179879D01*
X150389227Y-91825203D01*
G37*
G36*
X151679876Y-91825203D02*
G01*
X151034552Y-91825203D01*
X151034552Y-91179879D01*
X151679876Y-91179879D01*
X151679876Y-91825203D01*
G37*
G36*
X152325203Y-91825203D02*
G01*
X151679876Y-91825203D01*
X151679876Y-91179879D01*
X152325203Y-91179879D01*
X152325203Y-91825203D01*
G37*
G36*
X153615853Y-91825203D02*
G01*
X152970527Y-91825203D01*
X152970527Y-91179879D01*
X153615853Y-91179879D01*
X153615853Y-91825203D01*
G37*
G36*
X154261178Y-91825203D02*
G01*
X153615853Y-91825203D01*
X153615853Y-91179879D01*
X154261178Y-91179879D01*
X154261178Y-91825203D01*
G37*
G36*
X154906503Y-91825203D02*
G01*
X154261178Y-91825203D01*
X154261178Y-91179879D01*
X154906503Y-91179879D01*
X154906503Y-91825203D01*
G37*
G36*
X155551829Y-91825203D02*
G01*
X154906503Y-91825203D01*
X154906503Y-91179879D01*
X155551829Y-91179879D01*
X155551829Y-91825203D01*
G37*
G36*
X158133129Y-91825203D02*
G01*
X157487803Y-91825203D01*
X157487803Y-91179879D01*
X158133129Y-91179879D01*
X158133129Y-91825203D01*
G37*
G36*
X158778454Y-91825203D02*
G01*
X158133129Y-91825203D01*
X158133129Y-91179879D01*
X158778454Y-91179879D01*
X158778454Y-91825203D01*
G37*
G36*
X159423779Y-91825203D02*
G01*
X158778454Y-91825203D01*
X158778454Y-91179879D01*
X159423779Y-91179879D01*
X159423779Y-91825203D01*
G37*
G36*
X160714430Y-91825203D02*
G01*
X160069105Y-91825203D01*
X160069105Y-91179879D01*
X160714430Y-91179879D01*
X160714430Y-91825203D01*
G37*
G36*
X161359755Y-91825203D02*
G01*
X160714430Y-91825203D01*
X160714430Y-91179879D01*
X161359755Y-91179879D01*
X161359755Y-91825203D01*
G37*
G36*
X162650405Y-91825203D02*
G01*
X162005080Y-91825203D01*
X162005080Y-91179879D01*
X162650405Y-91179879D01*
X162650405Y-91825203D01*
G37*
G36*
X142000000Y-91179879D02*
G01*
X141354674Y-91179879D01*
X141354674Y-90534552D01*
X142000000Y-90534552D01*
X142000000Y-91179879D01*
G37*
G36*
X143290649Y-91179879D02*
G01*
X142645324Y-91179879D01*
X142645324Y-90534552D01*
X143290649Y-90534552D01*
X143290649Y-91179879D01*
G37*
G36*
X145871951Y-91179879D02*
G01*
X145226625Y-91179879D01*
X145226625Y-90534552D01*
X145871951Y-90534552D01*
X145871951Y-91179879D01*
G37*
G36*
X147807927Y-91179879D02*
G01*
X147162600Y-91179879D01*
X147162600Y-90534552D01*
X147807927Y-90534552D01*
X147807927Y-91179879D01*
G37*
G36*
X149743901Y-91179879D02*
G01*
X149098576Y-91179879D01*
X149098576Y-90534552D01*
X149743901Y-90534552D01*
X149743901Y-91179879D01*
G37*
G36*
X150389227Y-91179879D02*
G01*
X149743901Y-91179879D01*
X149743901Y-90534552D01*
X150389227Y-90534552D01*
X150389227Y-91179879D01*
G37*
G36*
X151034552Y-91179879D02*
G01*
X150389227Y-91179879D01*
X150389227Y-90534552D01*
X151034552Y-90534552D01*
X151034552Y-91179879D01*
G37*
G36*
X151679876Y-91179879D02*
G01*
X151034552Y-91179879D01*
X151034552Y-90534552D01*
X151679876Y-90534552D01*
X151679876Y-91179879D01*
G37*
G36*
X152325203Y-91179879D02*
G01*
X151679876Y-91179879D01*
X151679876Y-90534552D01*
X152325203Y-90534552D01*
X152325203Y-91179879D01*
G37*
G36*
X153615853Y-91179879D02*
G01*
X152970527Y-91179879D01*
X152970527Y-90534552D01*
X153615853Y-90534552D01*
X153615853Y-91179879D01*
G37*
G36*
X154261178Y-91179879D02*
G01*
X153615853Y-91179879D01*
X153615853Y-90534552D01*
X154261178Y-90534552D01*
X154261178Y-91179879D01*
G37*
G36*
X154906503Y-91179879D02*
G01*
X154261178Y-91179879D01*
X154261178Y-90534552D01*
X154906503Y-90534552D01*
X154906503Y-91179879D01*
G37*
G36*
X157487803Y-91179879D02*
G01*
X156842479Y-91179879D01*
X156842479Y-90534552D01*
X157487803Y-90534552D01*
X157487803Y-91179879D01*
G37*
G36*
X158133129Y-91179879D02*
G01*
X157487803Y-91179879D01*
X157487803Y-90534552D01*
X158133129Y-90534552D01*
X158133129Y-91179879D01*
G37*
G36*
X159423779Y-91179879D02*
G01*
X158778454Y-91179879D01*
X158778454Y-90534552D01*
X159423779Y-90534552D01*
X159423779Y-91179879D01*
G37*
G36*
X160069105Y-91179879D02*
G01*
X159423779Y-91179879D01*
X159423779Y-90534552D01*
X160069105Y-90534552D01*
X160069105Y-91179879D01*
G37*
G36*
X162650405Y-91179879D02*
G01*
X162005080Y-91179879D01*
X162005080Y-90534552D01*
X162650405Y-90534552D01*
X162650405Y-91179879D01*
G37*
G36*
X142645324Y-90534552D02*
G01*
X142000000Y-90534552D01*
X142000000Y-89889228D01*
X142645324Y-89889228D01*
X142645324Y-90534552D01*
G37*
G36*
X143290649Y-90534552D02*
G01*
X142645324Y-90534552D01*
X142645324Y-89889228D01*
X143290649Y-89889228D01*
X143290649Y-90534552D01*
G37*
G36*
X143935975Y-90534552D02*
G01*
X143290649Y-90534552D01*
X143290649Y-89889228D01*
X143935975Y-89889228D01*
X143935975Y-90534552D01*
G37*
G36*
X145226625Y-90534552D02*
G01*
X144581300Y-90534552D01*
X144581300Y-89889228D01*
X145226625Y-89889228D01*
X145226625Y-90534552D01*
G37*
G36*
X150389227Y-90534552D02*
G01*
X149743901Y-90534552D01*
X149743901Y-89889228D01*
X150389227Y-89889228D01*
X150389227Y-90534552D01*
G37*
G36*
X151679876Y-90534552D02*
G01*
X151034552Y-90534552D01*
X151034552Y-89889228D01*
X151679876Y-89889228D01*
X151679876Y-90534552D01*
G37*
G36*
X153615853Y-90534552D02*
G01*
X152970527Y-90534552D01*
X152970527Y-89889228D01*
X153615853Y-89889228D01*
X153615853Y-90534552D01*
G37*
G36*
X154261178Y-90534552D02*
G01*
X153615853Y-90534552D01*
X153615853Y-89889228D01*
X154261178Y-89889228D01*
X154261178Y-90534552D01*
G37*
G36*
X155551829Y-90534552D02*
G01*
X154906503Y-90534552D01*
X154906503Y-89889228D01*
X155551829Y-89889228D01*
X155551829Y-90534552D01*
G37*
G36*
X156197153Y-90534552D02*
G01*
X155551829Y-90534552D01*
X155551829Y-89889228D01*
X156197153Y-89889228D01*
X156197153Y-90534552D01*
G37*
G36*
X156842479Y-90534552D02*
G01*
X156197153Y-90534552D01*
X156197153Y-89889228D01*
X156842479Y-89889228D01*
X156842479Y-90534552D01*
G37*
G36*
X158133129Y-90534552D02*
G01*
X157487803Y-90534552D01*
X157487803Y-89889228D01*
X158133129Y-89889228D01*
X158133129Y-90534552D01*
G37*
G36*
X158778454Y-90534552D02*
G01*
X158133129Y-90534552D01*
X158133129Y-89889228D01*
X158778454Y-89889228D01*
X158778454Y-90534552D01*
G37*
G36*
X160069105Y-90534552D02*
G01*
X159423779Y-90534552D01*
X159423779Y-89889228D01*
X160069105Y-89889228D01*
X160069105Y-90534552D01*
G37*
G36*
X161359755Y-90534552D02*
G01*
X160714430Y-90534552D01*
X160714430Y-89889228D01*
X161359755Y-89889228D01*
X161359755Y-90534552D01*
G37*
G36*
X162650405Y-90534552D02*
G01*
X162005080Y-90534552D01*
X162005080Y-89889228D01*
X162650405Y-89889228D01*
X162650405Y-90534552D01*
G37*
G36*
X143290649Y-89889228D02*
G01*
X142645324Y-89889228D01*
X142645324Y-89243903D01*
X143290649Y-89243903D01*
X143290649Y-89889228D01*
G37*
G36*
X143935975Y-89889228D02*
G01*
X143290649Y-89889228D01*
X143290649Y-89243903D01*
X143935975Y-89243903D01*
X143935975Y-89889228D01*
G37*
G36*
X144581300Y-89889228D02*
G01*
X143935975Y-89889228D01*
X143935975Y-89243903D01*
X144581300Y-89243903D01*
X144581300Y-89889228D01*
G37*
G36*
X146517276Y-89889228D02*
G01*
X145871951Y-89889228D01*
X145871951Y-89243903D01*
X146517276Y-89243903D01*
X146517276Y-89889228D01*
G37*
G36*
X147162600Y-89889228D02*
G01*
X146517276Y-89889228D01*
X146517276Y-89243903D01*
X147162600Y-89243903D01*
X147162600Y-89889228D01*
G37*
G36*
X148453251Y-89889228D02*
G01*
X147807927Y-89889228D01*
X147807927Y-89243903D01*
X148453251Y-89243903D01*
X148453251Y-89889228D01*
G37*
G36*
X149098576Y-89889228D02*
G01*
X148453251Y-89889228D01*
X148453251Y-89243903D01*
X149098576Y-89243903D01*
X149098576Y-89889228D01*
G37*
G36*
X149743901Y-89889228D02*
G01*
X149098576Y-89889228D01*
X149098576Y-89243903D01*
X149743901Y-89243903D01*
X149743901Y-89889228D01*
G37*
G36*
X152325203Y-89889228D02*
G01*
X151679876Y-89889228D01*
X151679876Y-89243903D01*
X152325203Y-89243903D01*
X152325203Y-89889228D01*
G37*
G36*
X152970527Y-89889228D02*
G01*
X152325203Y-89889228D01*
X152325203Y-89243903D01*
X152970527Y-89243903D01*
X152970527Y-89889228D01*
G37*
G36*
X154261178Y-89889228D02*
G01*
X153615853Y-89889228D01*
X153615853Y-89243903D01*
X154261178Y-89243903D01*
X154261178Y-89889228D01*
G37*
G36*
X157487803Y-89889228D02*
G01*
X156842479Y-89889228D01*
X156842479Y-89243903D01*
X157487803Y-89243903D01*
X157487803Y-89889228D01*
G37*
G36*
X160069105Y-89889228D02*
G01*
X159423779Y-89889228D01*
X159423779Y-89243903D01*
X160069105Y-89243903D01*
X160069105Y-89889228D01*
G37*
G36*
X160714430Y-89889228D02*
G01*
X160069105Y-89889228D01*
X160069105Y-89243903D01*
X160714430Y-89243903D01*
X160714430Y-89889228D01*
G37*
G36*
X161359755Y-89889228D02*
G01*
X160714430Y-89889228D01*
X160714430Y-89243903D01*
X161359755Y-89243903D01*
X161359755Y-89889228D01*
G37*
G36*
X162650405Y-89889228D02*
G01*
X162005080Y-89889228D01*
X162005080Y-89243903D01*
X162650405Y-89243903D01*
X162650405Y-89889228D01*
G37*
G36*
X142645324Y-89243903D02*
G01*
X142000000Y-89243903D01*
X142000000Y-88598578D01*
X142645324Y-88598578D01*
X142645324Y-89243903D01*
G37*
G36*
X143290649Y-89243903D02*
G01*
X142645324Y-89243903D01*
X142645324Y-88598578D01*
X143290649Y-88598578D01*
X143290649Y-89243903D01*
G37*
G36*
X146517276Y-89243903D02*
G01*
X145871951Y-89243903D01*
X145871951Y-88598578D01*
X146517276Y-88598578D01*
X146517276Y-89243903D01*
G37*
G36*
X147162600Y-89243903D02*
G01*
X146517276Y-89243903D01*
X146517276Y-88598578D01*
X147162600Y-88598578D01*
X147162600Y-89243903D01*
G37*
G36*
X149098576Y-89243903D02*
G01*
X148453251Y-89243903D01*
X148453251Y-88598578D01*
X149098576Y-88598578D01*
X149098576Y-89243903D01*
G37*
G36*
X151034552Y-89243903D02*
G01*
X150389227Y-89243903D01*
X150389227Y-88598578D01*
X151034552Y-88598578D01*
X151034552Y-89243903D01*
G37*
G36*
X152970527Y-89243903D02*
G01*
X152325203Y-89243903D01*
X152325203Y-88598578D01*
X152970527Y-88598578D01*
X152970527Y-89243903D01*
G37*
G36*
X153615853Y-89243903D02*
G01*
X152970527Y-89243903D01*
X152970527Y-88598578D01*
X153615853Y-88598578D01*
X153615853Y-89243903D01*
G37*
G36*
X154261178Y-89243903D02*
G01*
X153615853Y-89243903D01*
X153615853Y-88598578D01*
X154261178Y-88598578D01*
X154261178Y-89243903D01*
G37*
G36*
X155551829Y-89243903D02*
G01*
X154906503Y-89243903D01*
X154906503Y-88598578D01*
X155551829Y-88598578D01*
X155551829Y-89243903D01*
G37*
G36*
X156197153Y-89243903D02*
G01*
X155551829Y-89243903D01*
X155551829Y-88598578D01*
X156197153Y-88598578D01*
X156197153Y-89243903D01*
G37*
G36*
X158778454Y-89243903D02*
G01*
X158133129Y-89243903D01*
X158133129Y-88598578D01*
X158778454Y-88598578D01*
X158778454Y-89243903D01*
G37*
G36*
X159423779Y-89243903D02*
G01*
X158778454Y-89243903D01*
X158778454Y-88598578D01*
X159423779Y-88598578D01*
X159423779Y-89243903D01*
G37*
G36*
X160069105Y-89243903D02*
G01*
X159423779Y-89243903D01*
X159423779Y-88598578D01*
X160069105Y-88598578D01*
X160069105Y-89243903D01*
G37*
G36*
X160714430Y-89243903D02*
G01*
X160069105Y-89243903D01*
X160069105Y-88598578D01*
X160714430Y-88598578D01*
X160714430Y-89243903D01*
G37*
G36*
X161359755Y-89243903D02*
G01*
X160714430Y-89243903D01*
X160714430Y-88598578D01*
X161359755Y-88598578D01*
X161359755Y-89243903D01*
G37*
G36*
X162005080Y-89243903D02*
G01*
X161359755Y-89243903D01*
X161359755Y-88598578D01*
X162005080Y-88598578D01*
X162005080Y-89243903D01*
G37*
G36*
X142000000Y-88598578D02*
G01*
X141354674Y-88598578D01*
X141354674Y-87953252D01*
X142000000Y-87953252D01*
X142000000Y-88598578D01*
G37*
G36*
X143290649Y-88598578D02*
G01*
X142645324Y-88598578D01*
X142645324Y-87953252D01*
X143290649Y-87953252D01*
X143290649Y-88598578D01*
G37*
G36*
X143935975Y-88598578D02*
G01*
X143290649Y-88598578D01*
X143290649Y-87953252D01*
X143935975Y-87953252D01*
X143935975Y-88598578D01*
G37*
G36*
X145871951Y-88598578D02*
G01*
X145226625Y-88598578D01*
X145226625Y-87953252D01*
X145871951Y-87953252D01*
X145871951Y-88598578D01*
G37*
G36*
X146517276Y-88598578D02*
G01*
X145871951Y-88598578D01*
X145871951Y-87953252D01*
X146517276Y-87953252D01*
X146517276Y-88598578D01*
G37*
G36*
X147807927Y-88598578D02*
G01*
X147162600Y-88598578D01*
X147162600Y-87953252D01*
X147807927Y-87953252D01*
X147807927Y-88598578D01*
G37*
G36*
X148453251Y-88598578D02*
G01*
X147807927Y-88598578D01*
X147807927Y-87953252D01*
X148453251Y-87953252D01*
X148453251Y-88598578D01*
G37*
G36*
X149098576Y-88598578D02*
G01*
X148453251Y-88598578D01*
X148453251Y-87953252D01*
X149098576Y-87953252D01*
X149098576Y-88598578D01*
G37*
G36*
X149743901Y-88598578D02*
G01*
X149098576Y-88598578D01*
X149098576Y-87953252D01*
X149743901Y-87953252D01*
X149743901Y-88598578D01*
G37*
G36*
X150389227Y-88598578D02*
G01*
X149743901Y-88598578D01*
X149743901Y-87953252D01*
X150389227Y-87953252D01*
X150389227Y-88598578D01*
G37*
G36*
X152325203Y-88598578D02*
G01*
X151679876Y-88598578D01*
X151679876Y-87953252D01*
X152325203Y-87953252D01*
X152325203Y-88598578D01*
G37*
G36*
X153615853Y-88598578D02*
G01*
X152970527Y-88598578D01*
X152970527Y-87953252D01*
X153615853Y-87953252D01*
X153615853Y-88598578D01*
G37*
G36*
X154906503Y-88598578D02*
G01*
X154261178Y-88598578D01*
X154261178Y-87953252D01*
X154906503Y-87953252D01*
X154906503Y-88598578D01*
G37*
G36*
X155551829Y-88598578D02*
G01*
X154906503Y-88598578D01*
X154906503Y-87953252D01*
X155551829Y-87953252D01*
X155551829Y-88598578D01*
G37*
G36*
X156197153Y-88598578D02*
G01*
X155551829Y-88598578D01*
X155551829Y-87953252D01*
X156197153Y-87953252D01*
X156197153Y-88598578D01*
G37*
G36*
X156842479Y-88598578D02*
G01*
X156197153Y-88598578D01*
X156197153Y-87953252D01*
X156842479Y-87953252D01*
X156842479Y-88598578D01*
G37*
G36*
X161359755Y-88598578D02*
G01*
X160714430Y-88598578D01*
X160714430Y-87953252D01*
X161359755Y-87953252D01*
X161359755Y-88598578D01*
G37*
G36*
X162005080Y-88598578D02*
G01*
X161359755Y-88598578D01*
X161359755Y-87953252D01*
X162005080Y-87953252D01*
X162005080Y-88598578D01*
G37*
G36*
X162650405Y-88598578D02*
G01*
X162005080Y-88598578D01*
X162005080Y-87953252D01*
X162650405Y-87953252D01*
X162650405Y-88598578D01*
G37*
G36*
X142000000Y-87953252D02*
G01*
X141354674Y-87953252D01*
X141354674Y-87307927D01*
X142000000Y-87307927D01*
X142000000Y-87953252D01*
G37*
G36*
X142645324Y-87953252D02*
G01*
X142000000Y-87953252D01*
X142000000Y-87307927D01*
X142645324Y-87307927D01*
X142645324Y-87953252D01*
G37*
G36*
X143935975Y-87953252D02*
G01*
X143290649Y-87953252D01*
X143290649Y-87307927D01*
X143935975Y-87307927D01*
X143935975Y-87953252D01*
G37*
G36*
X144581300Y-87953252D02*
G01*
X143935975Y-87953252D01*
X143935975Y-87307927D01*
X144581300Y-87307927D01*
X144581300Y-87953252D01*
G37*
G36*
X146517276Y-87953252D02*
G01*
X145871951Y-87953252D01*
X145871951Y-87307927D01*
X146517276Y-87307927D01*
X146517276Y-87953252D01*
G37*
G36*
X147162600Y-87953252D02*
G01*
X146517276Y-87953252D01*
X146517276Y-87307927D01*
X147162600Y-87307927D01*
X147162600Y-87953252D01*
G37*
G36*
X147807927Y-87953252D02*
G01*
X147162600Y-87953252D01*
X147162600Y-87307927D01*
X147807927Y-87307927D01*
X147807927Y-87953252D01*
G37*
G36*
X149098576Y-87953252D02*
G01*
X148453251Y-87953252D01*
X148453251Y-87307927D01*
X149098576Y-87307927D01*
X149098576Y-87953252D01*
G37*
G36*
X150389227Y-87953252D02*
G01*
X149743901Y-87953252D01*
X149743901Y-87307927D01*
X150389227Y-87307927D01*
X150389227Y-87953252D01*
G37*
G36*
X151034552Y-87953252D02*
G01*
X150389227Y-87953252D01*
X150389227Y-87307927D01*
X151034552Y-87307927D01*
X151034552Y-87953252D01*
G37*
G36*
X152325203Y-87953252D02*
G01*
X151679876Y-87953252D01*
X151679876Y-87307927D01*
X152325203Y-87307927D01*
X152325203Y-87953252D01*
G37*
G36*
X152970527Y-87953252D02*
G01*
X152325203Y-87953252D01*
X152325203Y-87307927D01*
X152970527Y-87307927D01*
X152970527Y-87953252D01*
G37*
G36*
X154261178Y-87953252D02*
G01*
X153615853Y-87953252D01*
X153615853Y-87307927D01*
X154261178Y-87307927D01*
X154261178Y-87953252D01*
G37*
G36*
X155551829Y-87953252D02*
G01*
X154906503Y-87953252D01*
X154906503Y-87307927D01*
X155551829Y-87307927D01*
X155551829Y-87953252D01*
G37*
G36*
X156197153Y-87953252D02*
G01*
X155551829Y-87953252D01*
X155551829Y-87307927D01*
X156197153Y-87307927D01*
X156197153Y-87953252D01*
G37*
G36*
X156842479Y-87953252D02*
G01*
X156197153Y-87953252D01*
X156197153Y-87307927D01*
X156842479Y-87307927D01*
X156842479Y-87953252D01*
G37*
G36*
X157487803Y-87953252D02*
G01*
X156842479Y-87953252D01*
X156842479Y-87307927D01*
X157487803Y-87307927D01*
X157487803Y-87953252D01*
G37*
G36*
X158133129Y-87953252D02*
G01*
X157487803Y-87953252D01*
X157487803Y-87307927D01*
X158133129Y-87307927D01*
X158133129Y-87953252D01*
G37*
G36*
X158778454Y-87953252D02*
G01*
X158133129Y-87953252D01*
X158133129Y-87307927D01*
X158778454Y-87307927D01*
X158778454Y-87953252D01*
G37*
G36*
X160069105Y-87953252D02*
G01*
X159423779Y-87953252D01*
X159423779Y-87307927D01*
X160069105Y-87307927D01*
X160069105Y-87953252D01*
G37*
G36*
X160714430Y-87953252D02*
G01*
X160069105Y-87953252D01*
X160069105Y-87307927D01*
X160714430Y-87307927D01*
X160714430Y-87953252D01*
G37*
G36*
X162650405Y-87953252D02*
G01*
X162005080Y-87953252D01*
X162005080Y-87307927D01*
X162650405Y-87307927D01*
X162650405Y-87953252D01*
G37*
G36*
X142000000Y-87307927D02*
G01*
X141354674Y-87307927D01*
X141354674Y-86662603D01*
X142000000Y-86662603D01*
X142000000Y-87307927D01*
G37*
G36*
X142645324Y-87307927D02*
G01*
X142000000Y-87307927D01*
X142000000Y-86662603D01*
X142645324Y-86662603D01*
X142645324Y-87307927D01*
G37*
G36*
X143290649Y-87307927D02*
G01*
X142645324Y-87307927D01*
X142645324Y-86662603D01*
X143290649Y-86662603D01*
X143290649Y-87307927D01*
G37*
G36*
X143935975Y-87307927D02*
G01*
X143290649Y-87307927D01*
X143290649Y-86662603D01*
X143935975Y-86662603D01*
X143935975Y-87307927D01*
G37*
G36*
X145226625Y-87307927D02*
G01*
X144581300Y-87307927D01*
X144581300Y-86662603D01*
X145226625Y-86662603D01*
X145226625Y-87307927D01*
G37*
G36*
X145871951Y-87307927D02*
G01*
X145226625Y-87307927D01*
X145226625Y-86662603D01*
X145871951Y-86662603D01*
X145871951Y-87307927D01*
G37*
G36*
X146517276Y-87307927D02*
G01*
X145871951Y-87307927D01*
X145871951Y-86662603D01*
X146517276Y-86662603D01*
X146517276Y-87307927D01*
G37*
G36*
X147162600Y-87307927D02*
G01*
X146517276Y-87307927D01*
X146517276Y-86662603D01*
X147162600Y-86662603D01*
X147162600Y-87307927D01*
G37*
G36*
X149098576Y-87307927D02*
G01*
X148453251Y-87307927D01*
X148453251Y-86662603D01*
X149098576Y-86662603D01*
X149098576Y-87307927D01*
G37*
G36*
X149743901Y-87307927D02*
G01*
X149098576Y-87307927D01*
X149098576Y-86662603D01*
X149743901Y-86662603D01*
X149743901Y-87307927D01*
G37*
G36*
X151034552Y-87307927D02*
G01*
X150389227Y-87307927D01*
X150389227Y-86662603D01*
X151034552Y-86662603D01*
X151034552Y-87307927D01*
G37*
G36*
X152325203Y-87307927D02*
G01*
X151679876Y-87307927D01*
X151679876Y-86662603D01*
X152325203Y-86662603D01*
X152325203Y-87307927D01*
G37*
G36*
X152970527Y-87307927D02*
G01*
X152325203Y-87307927D01*
X152325203Y-86662603D01*
X152970527Y-86662603D01*
X152970527Y-87307927D01*
G37*
G36*
X153615853Y-87307927D02*
G01*
X152970527Y-87307927D01*
X152970527Y-86662603D01*
X153615853Y-86662603D01*
X153615853Y-87307927D01*
G37*
G36*
X154261178Y-87307927D02*
G01*
X153615853Y-87307927D01*
X153615853Y-86662603D01*
X154261178Y-86662603D01*
X154261178Y-87307927D01*
G37*
G36*
X156842479Y-87307927D02*
G01*
X156197153Y-87307927D01*
X156197153Y-86662603D01*
X156842479Y-86662603D01*
X156842479Y-87307927D01*
G37*
G36*
X157487803Y-87307927D02*
G01*
X156842479Y-87307927D01*
X156842479Y-86662603D01*
X157487803Y-86662603D01*
X157487803Y-87307927D01*
G37*
G36*
X158133129Y-87307927D02*
G01*
X157487803Y-87307927D01*
X157487803Y-86662603D01*
X158133129Y-86662603D01*
X158133129Y-87307927D01*
G37*
G36*
X160069105Y-87307927D02*
G01*
X159423779Y-87307927D01*
X159423779Y-86662603D01*
X160069105Y-86662603D01*
X160069105Y-87307927D01*
G37*
G36*
X160714430Y-87307927D02*
G01*
X160069105Y-87307927D01*
X160069105Y-86662603D01*
X160714430Y-86662603D01*
X160714430Y-87307927D01*
G37*
G36*
X162650405Y-87307927D02*
G01*
X162005080Y-87307927D01*
X162005080Y-86662603D01*
X162650405Y-86662603D01*
X162650405Y-87307927D01*
G37*
G36*
X143935975Y-86662603D02*
G01*
X143290649Y-86662603D01*
X143290649Y-86017276D01*
X143935975Y-86017276D01*
X143935975Y-86662603D01*
G37*
G36*
X144581300Y-86662603D02*
G01*
X143935975Y-86662603D01*
X143935975Y-86017276D01*
X144581300Y-86017276D01*
X144581300Y-86662603D01*
G37*
G36*
X145871951Y-86662603D02*
G01*
X145226625Y-86662603D01*
X145226625Y-86017276D01*
X145871951Y-86017276D01*
X145871951Y-86662603D01*
G37*
G36*
X146517276Y-86662603D02*
G01*
X145871951Y-86662603D01*
X145871951Y-86017276D01*
X146517276Y-86017276D01*
X146517276Y-86662603D01*
G37*
G36*
X149743901Y-86662603D02*
G01*
X149098576Y-86662603D01*
X149098576Y-86017276D01*
X149743901Y-86017276D01*
X149743901Y-86662603D01*
G37*
G36*
X152970527Y-86662603D02*
G01*
X152325203Y-86662603D01*
X152325203Y-86017276D01*
X152970527Y-86017276D01*
X152970527Y-86662603D01*
G37*
G36*
X153615853Y-86662603D02*
G01*
X152970527Y-86662603D01*
X152970527Y-86017276D01*
X153615853Y-86017276D01*
X153615853Y-86662603D01*
G37*
G36*
X154261178Y-86662603D02*
G01*
X153615853Y-86662603D01*
X153615853Y-86017276D01*
X154261178Y-86017276D01*
X154261178Y-86662603D01*
G37*
G36*
X154906503Y-86662603D02*
G01*
X154261178Y-86662603D01*
X154261178Y-86017276D01*
X154906503Y-86017276D01*
X154906503Y-86662603D01*
G37*
G36*
X156842479Y-86662603D02*
G01*
X156197153Y-86662603D01*
X156197153Y-86017276D01*
X156842479Y-86017276D01*
X156842479Y-86662603D01*
G37*
G36*
X157487803Y-86662603D02*
G01*
X156842479Y-86662603D01*
X156842479Y-86017276D01*
X157487803Y-86017276D01*
X157487803Y-86662603D01*
G37*
G36*
X158778454Y-86662603D02*
G01*
X158133129Y-86662603D01*
X158133129Y-86017276D01*
X158778454Y-86017276D01*
X158778454Y-86662603D01*
G37*
G36*
X159423779Y-86662603D02*
G01*
X158778454Y-86662603D01*
X158778454Y-86017276D01*
X159423779Y-86017276D01*
X159423779Y-86662603D01*
G37*
G36*
X161359755Y-86662603D02*
G01*
X160714430Y-86662603D01*
X160714430Y-86017276D01*
X161359755Y-86017276D01*
X161359755Y-86662603D01*
G37*
G36*
X162005080Y-86662603D02*
G01*
X161359755Y-86662603D01*
X161359755Y-86017276D01*
X162005080Y-86017276D01*
X162005080Y-86662603D01*
G37*
G36*
X142000000Y-86017276D02*
G01*
X141354674Y-86017276D01*
X141354674Y-85371952D01*
X142000000Y-85371952D01*
X142000000Y-86017276D01*
G37*
G36*
X143935975Y-86017276D02*
G01*
X143290649Y-86017276D01*
X143290649Y-85371952D01*
X143935975Y-85371952D01*
X143935975Y-86017276D01*
G37*
G36*
X145226625Y-86017276D02*
G01*
X144581300Y-86017276D01*
X144581300Y-85371952D01*
X145226625Y-85371952D01*
X145226625Y-86017276D01*
G37*
G36*
X145871951Y-86017276D02*
G01*
X145226625Y-86017276D01*
X145226625Y-85371952D01*
X145871951Y-85371952D01*
X145871951Y-86017276D01*
G37*
G36*
X147807927Y-86017276D02*
G01*
X147162600Y-86017276D01*
X147162600Y-85371952D01*
X147807927Y-85371952D01*
X147807927Y-86017276D01*
G37*
G36*
X149098576Y-86017276D02*
G01*
X148453251Y-86017276D01*
X148453251Y-85371952D01*
X149098576Y-85371952D01*
X149098576Y-86017276D01*
G37*
G36*
X151034552Y-86017276D02*
G01*
X150389227Y-86017276D01*
X150389227Y-85371952D01*
X151034552Y-85371952D01*
X151034552Y-86017276D01*
G37*
G36*
X152970527Y-86017276D02*
G01*
X152325203Y-86017276D01*
X152325203Y-85371952D01*
X152970527Y-85371952D01*
X152970527Y-86017276D01*
G37*
G36*
X153615853Y-86017276D02*
G01*
X152970527Y-86017276D01*
X152970527Y-85371952D01*
X153615853Y-85371952D01*
X153615853Y-86017276D01*
G37*
G36*
X154261178Y-86017276D02*
G01*
X153615853Y-86017276D01*
X153615853Y-85371952D01*
X154261178Y-85371952D01*
X154261178Y-86017276D01*
G37*
G36*
X156197153Y-86017276D02*
G01*
X155551829Y-86017276D01*
X155551829Y-85371952D01*
X156197153Y-85371952D01*
X156197153Y-86017276D01*
G37*
G36*
X156842479Y-86017276D02*
G01*
X156197153Y-86017276D01*
X156197153Y-85371952D01*
X156842479Y-85371952D01*
X156842479Y-86017276D01*
G37*
G36*
X157487803Y-86017276D02*
G01*
X156842479Y-86017276D01*
X156842479Y-85371952D01*
X157487803Y-85371952D01*
X157487803Y-86017276D01*
G37*
G36*
X159423779Y-86017276D02*
G01*
X158778454Y-86017276D01*
X158778454Y-85371952D01*
X159423779Y-85371952D01*
X159423779Y-86017276D01*
G37*
G36*
X162650405Y-86017276D02*
G01*
X162005080Y-86017276D01*
X162005080Y-85371952D01*
X162650405Y-85371952D01*
X162650405Y-86017276D01*
G37*
G36*
X142000000Y-85371952D02*
G01*
X141354674Y-85371952D01*
X141354674Y-84726626D01*
X142000000Y-84726626D01*
X142000000Y-85371952D01*
G37*
G36*
X144581300Y-85371952D02*
G01*
X143935975Y-85371952D01*
X143935975Y-84726626D01*
X144581300Y-84726626D01*
X144581300Y-85371952D01*
G37*
G36*
X145226625Y-85371952D02*
G01*
X144581300Y-85371952D01*
X144581300Y-84726626D01*
X145226625Y-84726626D01*
X145226625Y-85371952D01*
G37*
G36*
X147162600Y-85371952D02*
G01*
X146517276Y-85371952D01*
X146517276Y-84726626D01*
X147162600Y-84726626D01*
X147162600Y-85371952D01*
G37*
G36*
X148453251Y-85371952D02*
G01*
X147807927Y-85371952D01*
X147807927Y-84726626D01*
X148453251Y-84726626D01*
X148453251Y-85371952D01*
G37*
G36*
X149743901Y-85371952D02*
G01*
X149098576Y-85371952D01*
X149098576Y-84726626D01*
X149743901Y-84726626D01*
X149743901Y-85371952D01*
G37*
G36*
X151679876Y-85371952D02*
G01*
X151034552Y-85371952D01*
X151034552Y-84726626D01*
X151679876Y-84726626D01*
X151679876Y-85371952D01*
G37*
G36*
X152325203Y-85371952D02*
G01*
X151679876Y-85371952D01*
X151679876Y-84726626D01*
X152325203Y-84726626D01*
X152325203Y-85371952D01*
G37*
G36*
X152970527Y-85371952D02*
G01*
X152325203Y-85371952D01*
X152325203Y-84726626D01*
X152970527Y-84726626D01*
X152970527Y-85371952D01*
G37*
G36*
X154261178Y-85371952D02*
G01*
X153615853Y-85371952D01*
X153615853Y-84726626D01*
X154261178Y-84726626D01*
X154261178Y-85371952D01*
G37*
G36*
X154906503Y-85371952D02*
G01*
X154261178Y-85371952D01*
X154261178Y-84726626D01*
X154906503Y-84726626D01*
X154906503Y-85371952D01*
G37*
G36*
X156842479Y-85371952D02*
G01*
X156197153Y-85371952D01*
X156197153Y-84726626D01*
X156842479Y-84726626D01*
X156842479Y-85371952D01*
G37*
G36*
X158778454Y-85371952D02*
G01*
X158133129Y-85371952D01*
X158133129Y-84726626D01*
X158778454Y-84726626D01*
X158778454Y-85371952D01*
G37*
G36*
X160069105Y-85371952D02*
G01*
X159423779Y-85371952D01*
X159423779Y-84726626D01*
X160069105Y-84726626D01*
X160069105Y-85371952D01*
G37*
G36*
X160714430Y-85371952D02*
G01*
X160069105Y-85371952D01*
X160069105Y-84726626D01*
X160714430Y-84726626D01*
X160714430Y-85371952D01*
G37*
G36*
X142000000Y-84726626D02*
G01*
X141354674Y-84726626D01*
X141354674Y-84081301D01*
X142000000Y-84081301D01*
X142000000Y-84726626D01*
G37*
G36*
X142645324Y-84726626D02*
G01*
X142000000Y-84726626D01*
X142000000Y-84081301D01*
X142645324Y-84081301D01*
X142645324Y-84726626D01*
G37*
G36*
X143290649Y-84726626D02*
G01*
X142645324Y-84726626D01*
X142645324Y-84081301D01*
X143290649Y-84081301D01*
X143290649Y-84726626D01*
G37*
G36*
X144581300Y-84726626D02*
G01*
X143935975Y-84726626D01*
X143935975Y-84081301D01*
X144581300Y-84081301D01*
X144581300Y-84726626D01*
G37*
G36*
X149098576Y-84726626D02*
G01*
X148453251Y-84726626D01*
X148453251Y-84081301D01*
X149098576Y-84081301D01*
X149098576Y-84726626D01*
G37*
G36*
X151034552Y-84726626D02*
G01*
X150389227Y-84726626D01*
X150389227Y-84081301D01*
X151034552Y-84081301D01*
X151034552Y-84726626D01*
G37*
G36*
X152970527Y-84726626D02*
G01*
X152325203Y-84726626D01*
X152325203Y-84081301D01*
X152970527Y-84081301D01*
X152970527Y-84726626D01*
G37*
G36*
X154906503Y-84726626D02*
G01*
X154261178Y-84726626D01*
X154261178Y-84081301D01*
X154906503Y-84081301D01*
X154906503Y-84726626D01*
G37*
G36*
X156197153Y-84726626D02*
G01*
X155551829Y-84726626D01*
X155551829Y-84081301D01*
X156197153Y-84081301D01*
X156197153Y-84726626D01*
G37*
G36*
X157487803Y-84726626D02*
G01*
X156842479Y-84726626D01*
X156842479Y-84081301D01*
X157487803Y-84081301D01*
X157487803Y-84726626D01*
G37*
G36*
X158133129Y-84726626D02*
G01*
X157487803Y-84726626D01*
X157487803Y-84081301D01*
X158133129Y-84081301D01*
X158133129Y-84726626D01*
G37*
G36*
X159423779Y-84726626D02*
G01*
X158778454Y-84726626D01*
X158778454Y-84081301D01*
X159423779Y-84081301D01*
X159423779Y-84726626D01*
G37*
G36*
X160069105Y-84726626D02*
G01*
X159423779Y-84726626D01*
X159423779Y-84081301D01*
X160069105Y-84081301D01*
X160069105Y-84726626D01*
G37*
G36*
X142645324Y-84081301D02*
G01*
X142000000Y-84081301D01*
X142000000Y-83435976D01*
X142645324Y-83435976D01*
X142645324Y-84081301D01*
G37*
G36*
X143290649Y-84081301D02*
G01*
X142645324Y-84081301D01*
X142645324Y-83435976D01*
X143290649Y-83435976D01*
X143290649Y-84081301D01*
G37*
G36*
X146517276Y-84081301D02*
G01*
X145871951Y-84081301D01*
X145871951Y-83435976D01*
X146517276Y-83435976D01*
X146517276Y-84081301D01*
G37*
G36*
X148453251Y-84081301D02*
G01*
X147807927Y-84081301D01*
X147807927Y-83435976D01*
X148453251Y-83435976D01*
X148453251Y-84081301D01*
G37*
G36*
X149098576Y-84081301D02*
G01*
X148453251Y-84081301D01*
X148453251Y-83435976D01*
X149098576Y-83435976D01*
X149098576Y-84081301D01*
G37*
G36*
X149743901Y-84081301D02*
G01*
X149098576Y-84081301D01*
X149098576Y-83435976D01*
X149743901Y-83435976D01*
X149743901Y-84081301D01*
G37*
G36*
X152325203Y-84081301D02*
G01*
X151679876Y-84081301D01*
X151679876Y-83435976D01*
X152325203Y-83435976D01*
X152325203Y-84081301D01*
G37*
G36*
X152970527Y-84081301D02*
G01*
X152325203Y-84081301D01*
X152325203Y-83435976D01*
X152970527Y-83435976D01*
X152970527Y-84081301D01*
G37*
G36*
X153615853Y-84081301D02*
G01*
X152970527Y-84081301D01*
X152970527Y-83435976D01*
X153615853Y-83435976D01*
X153615853Y-84081301D01*
G37*
G36*
X155551829Y-84081301D02*
G01*
X154906503Y-84081301D01*
X154906503Y-83435976D01*
X155551829Y-83435976D01*
X155551829Y-84081301D01*
G37*
G36*
X156197153Y-84081301D02*
G01*
X155551829Y-84081301D01*
X155551829Y-83435976D01*
X156197153Y-83435976D01*
X156197153Y-84081301D01*
G37*
G36*
X158133129Y-84081301D02*
G01*
X157487803Y-84081301D01*
X157487803Y-83435976D01*
X158133129Y-83435976D01*
X158133129Y-84081301D01*
G37*
G36*
X158778454Y-84081301D02*
G01*
X158133129Y-84081301D01*
X158133129Y-83435976D01*
X158778454Y-83435976D01*
X158778454Y-84081301D01*
G37*
G36*
X162005080Y-84081301D02*
G01*
X161359755Y-84081301D01*
X161359755Y-83435976D01*
X162005080Y-83435976D01*
X162005080Y-84081301D01*
G37*
G36*
X162650405Y-84081301D02*
G01*
X162005080Y-84081301D01*
X162005080Y-83435976D01*
X162650405Y-83435976D01*
X162650405Y-84081301D01*
G37*
G36*
X142000000Y-83435976D02*
G01*
X141354674Y-83435976D01*
X141354674Y-82790650D01*
X142000000Y-82790650D01*
X142000000Y-83435976D01*
G37*
G36*
X145226625Y-83435976D02*
G01*
X144581300Y-83435976D01*
X144581300Y-82790650D01*
X145226625Y-82790650D01*
X145226625Y-83435976D01*
G37*
G36*
X145871951Y-83435976D02*
G01*
X145226625Y-83435976D01*
X145226625Y-82790650D01*
X145871951Y-82790650D01*
X145871951Y-83435976D01*
G37*
G36*
X147807927Y-83435976D02*
G01*
X147162600Y-83435976D01*
X147162600Y-82790650D01*
X147807927Y-82790650D01*
X147807927Y-83435976D01*
G37*
G36*
X150389227Y-83435976D02*
G01*
X149743901Y-83435976D01*
X149743901Y-82790650D01*
X150389227Y-82790650D01*
X150389227Y-83435976D01*
G37*
G36*
X151034552Y-83435976D02*
G01*
X150389227Y-83435976D01*
X150389227Y-82790650D01*
X151034552Y-82790650D01*
X151034552Y-83435976D01*
G37*
G36*
X151679876Y-83435976D02*
G01*
X151034552Y-83435976D01*
X151034552Y-82790650D01*
X151679876Y-82790650D01*
X151679876Y-83435976D01*
G37*
G36*
X152325203Y-83435976D02*
G01*
X151679876Y-83435976D01*
X151679876Y-82790650D01*
X152325203Y-82790650D01*
X152325203Y-83435976D01*
G37*
G36*
X154261178Y-83435976D02*
G01*
X153615853Y-83435976D01*
X153615853Y-82790650D01*
X154261178Y-82790650D01*
X154261178Y-83435976D01*
G37*
G36*
X154906503Y-83435976D02*
G01*
X154261178Y-83435976D01*
X154261178Y-82790650D01*
X154906503Y-82790650D01*
X154906503Y-83435976D01*
G37*
G36*
X155551829Y-83435976D02*
G01*
X154906503Y-83435976D01*
X154906503Y-82790650D01*
X155551829Y-82790650D01*
X155551829Y-83435976D01*
G37*
G36*
X156197153Y-83435976D02*
G01*
X155551829Y-83435976D01*
X155551829Y-82790650D01*
X156197153Y-82790650D01*
X156197153Y-83435976D01*
G37*
G36*
X160069105Y-83435976D02*
G01*
X159423779Y-83435976D01*
X159423779Y-82790650D01*
X160069105Y-82790650D01*
X160069105Y-83435976D01*
G37*
G36*
X162005080Y-83435976D02*
G01*
X161359755Y-83435976D01*
X161359755Y-82790650D01*
X162005080Y-82790650D01*
X162005080Y-83435976D01*
G37*
G36*
X162650405Y-83435976D02*
G01*
X162005080Y-83435976D01*
X162005080Y-82790650D01*
X162650405Y-82790650D01*
X162650405Y-83435976D01*
G37*
G36*
X142000000Y-82790650D02*
G01*
X141354674Y-82790650D01*
X141354674Y-82145326D01*
X142000000Y-82145326D01*
X142000000Y-82790650D01*
G37*
G36*
X142645324Y-82790650D02*
G01*
X142000000Y-82790650D01*
X142000000Y-82145326D01*
X142645324Y-82145326D01*
X142645324Y-82790650D01*
G37*
G36*
X144581300Y-82790650D02*
G01*
X143935975Y-82790650D01*
X143935975Y-82145326D01*
X144581300Y-82145326D01*
X144581300Y-82790650D01*
G37*
G36*
X146517276Y-82790650D02*
G01*
X145871951Y-82790650D01*
X145871951Y-82145326D01*
X146517276Y-82145326D01*
X146517276Y-82790650D01*
G37*
G36*
X148453251Y-82790650D02*
G01*
X147807927Y-82790650D01*
X147807927Y-82145326D01*
X148453251Y-82145326D01*
X148453251Y-82790650D01*
G37*
G36*
X150389227Y-82790650D02*
G01*
X149743901Y-82790650D01*
X149743901Y-82145326D01*
X150389227Y-82145326D01*
X150389227Y-82790650D01*
G37*
G36*
X151679876Y-82790650D02*
G01*
X151034552Y-82790650D01*
X151034552Y-82145326D01*
X151679876Y-82145326D01*
X151679876Y-82790650D01*
G37*
G36*
X153615853Y-82790650D02*
G01*
X152970527Y-82790650D01*
X152970527Y-82145326D01*
X153615853Y-82145326D01*
X153615853Y-82790650D01*
G37*
G36*
X154261178Y-82790650D02*
G01*
X153615853Y-82790650D01*
X153615853Y-82145326D01*
X154261178Y-82145326D01*
X154261178Y-82790650D01*
G37*
G36*
X154906503Y-82790650D02*
G01*
X154261178Y-82790650D01*
X154261178Y-82145326D01*
X154906503Y-82145326D01*
X154906503Y-82790650D01*
G37*
G36*
X155551829Y-82790650D02*
G01*
X154906503Y-82790650D01*
X154906503Y-82145326D01*
X155551829Y-82145326D01*
X155551829Y-82790650D01*
G37*
G36*
X156197153Y-82790650D02*
G01*
X155551829Y-82790650D01*
X155551829Y-82145326D01*
X156197153Y-82145326D01*
X156197153Y-82790650D01*
G37*
G36*
X158133129Y-82790650D02*
G01*
X157487803Y-82790650D01*
X157487803Y-82145326D01*
X158133129Y-82145326D01*
X158133129Y-82790650D01*
G37*
G36*
X158778454Y-82790650D02*
G01*
X158133129Y-82790650D01*
X158133129Y-82145326D01*
X158778454Y-82145326D01*
X158778454Y-82790650D01*
G37*
G36*
X160069105Y-82790650D02*
G01*
X159423779Y-82790650D01*
X159423779Y-82145326D01*
X160069105Y-82145326D01*
X160069105Y-82790650D01*
G37*
G36*
X160714430Y-82790650D02*
G01*
X160069105Y-82790650D01*
X160069105Y-82145326D01*
X160714430Y-82145326D01*
X160714430Y-82790650D01*
G37*
G36*
X162650405Y-82790650D02*
G01*
X162005080Y-82790650D01*
X162005080Y-82145326D01*
X162650405Y-82145326D01*
X162650405Y-82790650D01*
G37*
G36*
X142000000Y-82145326D02*
G01*
X141354674Y-82145326D01*
X141354674Y-81500000D01*
X142000000Y-81500000D01*
X142000000Y-82145326D01*
G37*
G36*
X143290649Y-82145326D02*
G01*
X142645324Y-82145326D01*
X142645324Y-81500000D01*
X143290649Y-81500000D01*
X143290649Y-82145326D01*
G37*
G36*
X143935975Y-82145326D02*
G01*
X143290649Y-82145326D01*
X143290649Y-81500000D01*
X143935975Y-81500000D01*
X143935975Y-82145326D01*
G37*
G36*
X144581300Y-82145326D02*
G01*
X143935975Y-82145326D01*
X143935975Y-81500000D01*
X144581300Y-81500000D01*
X144581300Y-82145326D01*
G37*
G36*
X145226625Y-82145326D02*
G01*
X144581300Y-82145326D01*
X144581300Y-81500000D01*
X145226625Y-81500000D01*
X145226625Y-82145326D01*
G37*
G36*
X145871951Y-82145326D02*
G01*
X145226625Y-82145326D01*
X145226625Y-81500000D01*
X145871951Y-81500000D01*
X145871951Y-82145326D01*
G37*
G36*
X148453251Y-82145326D02*
G01*
X147807927Y-82145326D01*
X147807927Y-81500000D01*
X148453251Y-81500000D01*
X148453251Y-82145326D01*
G37*
G36*
X149743901Y-82145326D02*
G01*
X149098576Y-82145326D01*
X149098576Y-81500000D01*
X149743901Y-81500000D01*
X149743901Y-82145326D01*
G37*
G36*
X150389227Y-82145326D02*
G01*
X149743901Y-82145326D01*
X149743901Y-81500000D01*
X150389227Y-81500000D01*
X150389227Y-82145326D01*
G37*
G36*
X151679876Y-82145326D02*
G01*
X151034552Y-82145326D01*
X151034552Y-81500000D01*
X151679876Y-81500000D01*
X151679876Y-82145326D01*
G37*
G36*
X152970527Y-82145326D02*
G01*
X152325203Y-82145326D01*
X152325203Y-81500000D01*
X152970527Y-81500000D01*
X152970527Y-82145326D01*
G37*
G36*
X154261178Y-82145326D02*
G01*
X153615853Y-82145326D01*
X153615853Y-81500000D01*
X154261178Y-81500000D01*
X154261178Y-82145326D01*
G37*
G36*
X154906503Y-82145326D02*
G01*
X154261178Y-82145326D01*
X154261178Y-81500000D01*
X154906503Y-81500000D01*
X154906503Y-82145326D01*
G37*
G36*
X155551829Y-82145326D02*
G01*
X154906503Y-82145326D01*
X154906503Y-81500000D01*
X155551829Y-81500000D01*
X155551829Y-82145326D01*
G37*
G36*
X156197153Y-82145326D02*
G01*
X155551829Y-82145326D01*
X155551829Y-81500000D01*
X156197153Y-81500000D01*
X156197153Y-82145326D01*
G37*
G36*
X156842479Y-82145326D02*
G01*
X156197153Y-82145326D01*
X156197153Y-81500000D01*
X156842479Y-81500000D01*
X156842479Y-82145326D01*
G37*
G36*
X157487803Y-82145326D02*
G01*
X156842479Y-82145326D01*
X156842479Y-81500000D01*
X157487803Y-81500000D01*
X157487803Y-82145326D01*
G37*
G36*
X158133129Y-82145326D02*
G01*
X157487803Y-82145326D01*
X157487803Y-81500000D01*
X158133129Y-81500000D01*
X158133129Y-82145326D01*
G37*
G36*
X159423779Y-82145326D02*
G01*
X158778454Y-82145326D01*
X158778454Y-81500000D01*
X159423779Y-81500000D01*
X159423779Y-82145326D01*
G37*
G36*
X160069105Y-82145326D02*
G01*
X159423779Y-82145326D01*
X159423779Y-81500000D01*
X160069105Y-81500000D01*
X160069105Y-82145326D01*
G37*
G36*
X162005080Y-82145326D02*
G01*
X161359755Y-82145326D01*
X161359755Y-81500000D01*
X162005080Y-81500000D01*
X162005080Y-82145326D01*
G37*
G36*
X143290649Y-81500000D02*
G01*
X142645324Y-81500000D01*
X142645324Y-80854676D01*
X143290649Y-80854676D01*
X143290649Y-81500000D01*
G37*
G36*
X143935975Y-81500000D02*
G01*
X143290649Y-81500000D01*
X143290649Y-80854676D01*
X143935975Y-80854676D01*
X143935975Y-81500000D01*
G37*
G36*
X144581300Y-81500000D02*
G01*
X143935975Y-81500000D01*
X143935975Y-80854676D01*
X144581300Y-80854676D01*
X144581300Y-81500000D01*
G37*
G36*
X145226625Y-81500000D02*
G01*
X144581300Y-81500000D01*
X144581300Y-80854676D01*
X145226625Y-80854676D01*
X145226625Y-81500000D01*
G37*
G36*
X145871951Y-81500000D02*
G01*
X145226625Y-81500000D01*
X145226625Y-80854676D01*
X145871951Y-80854676D01*
X145871951Y-81500000D01*
G37*
G36*
X147162600Y-81500000D02*
G01*
X146517276Y-81500000D01*
X146517276Y-80854676D01*
X147162600Y-80854676D01*
X147162600Y-81500000D01*
G37*
G36*
X148453251Y-81500000D02*
G01*
X147807927Y-81500000D01*
X147807927Y-80854676D01*
X148453251Y-80854676D01*
X148453251Y-81500000D01*
G37*
G36*
X149098576Y-81500000D02*
G01*
X148453251Y-81500000D01*
X148453251Y-80854676D01*
X149098576Y-80854676D01*
X149098576Y-81500000D01*
G37*
G36*
X149743901Y-81500000D02*
G01*
X149098576Y-81500000D01*
X149098576Y-80854676D01*
X149743901Y-80854676D01*
X149743901Y-81500000D01*
G37*
G36*
X150389227Y-81500000D02*
G01*
X149743901Y-81500000D01*
X149743901Y-80854676D01*
X150389227Y-80854676D01*
X150389227Y-81500000D01*
G37*
G36*
X151034552Y-81500000D02*
G01*
X150389227Y-81500000D01*
X150389227Y-80854676D01*
X151034552Y-80854676D01*
X151034552Y-81500000D01*
G37*
G36*
X152325203Y-81500000D02*
G01*
X151679876Y-81500000D01*
X151679876Y-80854676D01*
X152325203Y-80854676D01*
X152325203Y-81500000D01*
G37*
G36*
X155551829Y-81500000D02*
G01*
X154906503Y-81500000D01*
X154906503Y-80854676D01*
X155551829Y-80854676D01*
X155551829Y-81500000D01*
G37*
G36*
X158778454Y-81500000D02*
G01*
X158133129Y-81500000D01*
X158133129Y-80854676D01*
X158778454Y-80854676D01*
X158778454Y-81500000D01*
G37*
G36*
X159423779Y-81500000D02*
G01*
X158778454Y-81500000D01*
X158778454Y-80854676D01*
X159423779Y-80854676D01*
X159423779Y-81500000D01*
G37*
G36*
X160069105Y-81500000D02*
G01*
X159423779Y-81500000D01*
X159423779Y-80854676D01*
X160069105Y-80854676D01*
X160069105Y-81500000D01*
G37*
G36*
X160714430Y-81500000D02*
G01*
X160069105Y-81500000D01*
X160069105Y-80854676D01*
X160714430Y-80854676D01*
X160714430Y-81500000D01*
G37*
G36*
X161359755Y-81500000D02*
G01*
X160714430Y-81500000D01*
X160714430Y-80854676D01*
X161359755Y-80854676D01*
X161359755Y-81500000D01*
G37*
G36*
X162650405Y-81500000D02*
G01*
X162005080Y-81500000D01*
X162005080Y-80854676D01*
X162650405Y-80854676D01*
X162650405Y-81500000D01*
G37*
G36*
X147807927Y-80854676D02*
G01*
X147162600Y-80854676D01*
X147162600Y-80209350D01*
X147807927Y-80209350D01*
X147807927Y-80854676D01*
G37*
G36*
X148453251Y-80854676D02*
G01*
X147807927Y-80854676D01*
X147807927Y-80209350D01*
X148453251Y-80209350D01*
X148453251Y-80854676D01*
G37*
G36*
X149098576Y-80854676D02*
G01*
X148453251Y-80854676D01*
X148453251Y-80209350D01*
X149098576Y-80209350D01*
X149098576Y-80854676D01*
G37*
G36*
X149743901Y-80854676D02*
G01*
X149098576Y-80854676D01*
X149098576Y-80209350D01*
X149743901Y-80209350D01*
X149743901Y-80854676D01*
G37*
G36*
X150389227Y-80854676D02*
G01*
X149743901Y-80854676D01*
X149743901Y-80209350D01*
X150389227Y-80209350D01*
X150389227Y-80854676D01*
G37*
G36*
X151034552Y-80854676D02*
G01*
X150389227Y-80854676D01*
X150389227Y-80209350D01*
X151034552Y-80209350D01*
X151034552Y-80854676D01*
G37*
G36*
X152325203Y-80854676D02*
G01*
X151679876Y-80854676D01*
X151679876Y-80209350D01*
X152325203Y-80209350D01*
X152325203Y-80854676D01*
G37*
G36*
X153615853Y-80854676D02*
G01*
X152970527Y-80854676D01*
X152970527Y-80209350D01*
X153615853Y-80209350D01*
X153615853Y-80854676D01*
G37*
G36*
X154906503Y-80854676D02*
G01*
X154261178Y-80854676D01*
X154261178Y-80209350D01*
X154906503Y-80209350D01*
X154906503Y-80854676D01*
G37*
G36*
X155551829Y-80854676D02*
G01*
X154906503Y-80854676D01*
X154906503Y-80209350D01*
X155551829Y-80209350D01*
X155551829Y-80854676D01*
G37*
G36*
X157487803Y-80854676D02*
G01*
X156842479Y-80854676D01*
X156842479Y-80209350D01*
X157487803Y-80209350D01*
X157487803Y-80854676D01*
G37*
G36*
X147162600Y-80209350D02*
G01*
X146517276Y-80209350D01*
X146517276Y-79564025D01*
X147162600Y-79564025D01*
X147162600Y-80209350D01*
G37*
G36*
X148453251Y-80209350D02*
G01*
X147807927Y-80209350D01*
X147807927Y-79564025D01*
X148453251Y-79564025D01*
X148453251Y-80209350D01*
G37*
G36*
X149743901Y-80209350D02*
G01*
X149098576Y-80209350D01*
X149098576Y-79564025D01*
X149743901Y-79564025D01*
X149743901Y-80209350D01*
G37*
G36*
X151034552Y-80209350D02*
G01*
X150389227Y-80209350D01*
X150389227Y-79564025D01*
X151034552Y-79564025D01*
X151034552Y-80209350D01*
G37*
G36*
X152325203Y-80209350D02*
G01*
X151679876Y-80209350D01*
X151679876Y-79564025D01*
X152325203Y-79564025D01*
X152325203Y-80209350D01*
G37*
G36*
X153615853Y-80209350D02*
G01*
X152970527Y-80209350D01*
X152970527Y-79564025D01*
X153615853Y-79564025D01*
X153615853Y-80209350D01*
G37*
G36*
X154906503Y-80209350D02*
G01*
X154261178Y-80209350D01*
X154261178Y-79564025D01*
X154906503Y-79564025D01*
X154906503Y-80209350D01*
G37*
G36*
X156197153Y-80209350D02*
G01*
X155551829Y-80209350D01*
X155551829Y-79564025D01*
X156197153Y-79564025D01*
X156197153Y-80209350D01*
G37*
G36*
X157487803Y-80209350D02*
G01*
X156842479Y-80209350D01*
X156842479Y-79564025D01*
X157487803Y-79564025D01*
X157487803Y-80209350D01*
G37*
G36*
X148453251Y-79564025D02*
G01*
X147807927Y-79564025D01*
X147807927Y-78918700D01*
X148453251Y-78918700D01*
X148453251Y-79564025D01*
G37*
G36*
X150389227Y-79564025D02*
G01*
X149743901Y-79564025D01*
X149743901Y-78918700D01*
X150389227Y-78918700D01*
X150389227Y-79564025D01*
G37*
G36*
X151679876Y-79564025D02*
G01*
X151034552Y-79564025D01*
X151034552Y-78918700D01*
X151679876Y-78918700D01*
X151679876Y-79564025D01*
G37*
G36*
X153615853Y-79564025D02*
G01*
X152970527Y-79564025D01*
X152970527Y-78918700D01*
X153615853Y-78918700D01*
X153615853Y-79564025D01*
G37*
G36*
X154261178Y-79564025D02*
G01*
X153615853Y-79564025D01*
X153615853Y-78918700D01*
X154261178Y-78918700D01*
X154261178Y-79564025D01*
G37*
G36*
X154906503Y-79564025D02*
G01*
X154261178Y-79564025D01*
X154261178Y-78918700D01*
X154906503Y-78918700D01*
X154906503Y-79564025D01*
G37*
G36*
X157487803Y-79564025D02*
G01*
X156842479Y-79564025D01*
X156842479Y-78918700D01*
X157487803Y-78918700D01*
X157487803Y-79564025D01*
G37*
G36*
X147162600Y-78918700D02*
G01*
X146517276Y-78918700D01*
X146517276Y-78273374D01*
X147162600Y-78273374D01*
X147162600Y-78918700D01*
G37*
G36*
X147807927Y-78918700D02*
G01*
X147162600Y-78918700D01*
X147162600Y-78273374D01*
X147807927Y-78273374D01*
X147807927Y-78918700D01*
G37*
G36*
X149098576Y-78918700D02*
G01*
X148453251Y-78918700D01*
X148453251Y-78273374D01*
X149098576Y-78273374D01*
X149098576Y-78918700D01*
G37*
G36*
X149743901Y-78918700D02*
G01*
X149098576Y-78918700D01*
X149098576Y-78273374D01*
X149743901Y-78273374D01*
X149743901Y-78918700D01*
G37*
G36*
X152325203Y-78918700D02*
G01*
X151679876Y-78918700D01*
X151679876Y-78273374D01*
X152325203Y-78273374D01*
X152325203Y-78918700D01*
G37*
G36*
X152970527Y-78918700D02*
G01*
X152325203Y-78918700D01*
X152325203Y-78273374D01*
X152970527Y-78273374D01*
X152970527Y-78918700D01*
G37*
G36*
X153615853Y-78918700D02*
G01*
X152970527Y-78918700D01*
X152970527Y-78273374D01*
X153615853Y-78273374D01*
X153615853Y-78918700D01*
G37*
G36*
X157487803Y-78918700D02*
G01*
X156842479Y-78918700D01*
X156842479Y-78273374D01*
X157487803Y-78273374D01*
X157487803Y-78918700D01*
G37*
G36*
X147162600Y-78273374D02*
G01*
X146517276Y-78273374D01*
X146517276Y-77628049D01*
X147162600Y-77628049D01*
X147162600Y-78273374D01*
G37*
G36*
X149098576Y-78273374D02*
G01*
X148453251Y-78273374D01*
X148453251Y-77628049D01*
X149098576Y-77628049D01*
X149098576Y-78273374D01*
G37*
G36*
X151034552Y-78273374D02*
G01*
X150389227Y-78273374D01*
X150389227Y-77628049D01*
X151034552Y-77628049D01*
X151034552Y-78273374D01*
G37*
G36*
X152970527Y-78273374D02*
G01*
X152325203Y-78273374D01*
X152325203Y-77628049D01*
X152970527Y-77628049D01*
X152970527Y-78273374D01*
G37*
G36*
X154906503Y-78273374D02*
G01*
X154261178Y-78273374D01*
X154261178Y-77628049D01*
X154906503Y-77628049D01*
X154906503Y-78273374D01*
G37*
G36*
X156197153Y-78273374D02*
G01*
X155551829Y-78273374D01*
X155551829Y-77628049D01*
X156197153Y-77628049D01*
X156197153Y-78273374D01*
G37*
G36*
X156842479Y-78273374D02*
G01*
X156197153Y-78273374D01*
X156197153Y-77628049D01*
X156842479Y-77628049D01*
X156842479Y-78273374D01*
G37*
G36*
X157487803Y-78273374D02*
G01*
X156842479Y-78273374D01*
X156842479Y-77628049D01*
X157487803Y-77628049D01*
X157487803Y-78273374D01*
G37*
G36*
X147807927Y-77628049D02*
G01*
X147162600Y-77628049D01*
X147162600Y-76982724D01*
X147807927Y-76982724D01*
X147807927Y-77628049D01*
G37*
G36*
X149098576Y-77628049D02*
G01*
X148453251Y-77628049D01*
X148453251Y-76982724D01*
X149098576Y-76982724D01*
X149098576Y-77628049D01*
G37*
G36*
X149743901Y-77628049D02*
G01*
X149098576Y-77628049D01*
X149098576Y-76982724D01*
X149743901Y-76982724D01*
X149743901Y-77628049D01*
G37*
G36*
X150389227Y-77628049D02*
G01*
X149743901Y-77628049D01*
X149743901Y-76982724D01*
X150389227Y-76982724D01*
X150389227Y-77628049D01*
G37*
G36*
X152325203Y-77628049D02*
G01*
X151679876Y-77628049D01*
X151679876Y-76982724D01*
X152325203Y-76982724D01*
X152325203Y-77628049D01*
G37*
G36*
X153615853Y-77628049D02*
G01*
X152970527Y-77628049D01*
X152970527Y-76982724D01*
X153615853Y-76982724D01*
X153615853Y-77628049D01*
G37*
G36*
X154906503Y-77628049D02*
G01*
X154261178Y-77628049D01*
X154261178Y-76982724D01*
X154906503Y-76982724D01*
X154906503Y-77628049D01*
G37*
G36*
X157487803Y-77628049D02*
G01*
X156842479Y-77628049D01*
X156842479Y-76982724D01*
X157487803Y-76982724D01*
X157487803Y-77628049D01*
G37*
G36*
X147162600Y-76982724D02*
G01*
X146517276Y-76982724D01*
X146517276Y-76337399D01*
X147162600Y-76337399D01*
X147162600Y-76982724D01*
G37*
G36*
X147807927Y-76982724D02*
G01*
X147162600Y-76982724D01*
X147162600Y-76337399D01*
X147807927Y-76337399D01*
X147807927Y-76982724D01*
G37*
G36*
X149098576Y-76982724D02*
G01*
X148453251Y-76982724D01*
X148453251Y-76337399D01*
X149098576Y-76337399D01*
X149098576Y-76982724D01*
G37*
G36*
X150389227Y-76982724D02*
G01*
X149743901Y-76982724D01*
X149743901Y-76337399D01*
X150389227Y-76337399D01*
X150389227Y-76982724D01*
G37*
G36*
X151034552Y-76982724D02*
G01*
X150389227Y-76982724D01*
X150389227Y-76337399D01*
X151034552Y-76337399D01*
X151034552Y-76982724D01*
G37*
G36*
X156197153Y-76982724D02*
G01*
X155551829Y-76982724D01*
X155551829Y-76337399D01*
X156197153Y-76337399D01*
X156197153Y-76982724D01*
G37*
G36*
X147162600Y-76337399D02*
G01*
X146517276Y-76337399D01*
X146517276Y-75692074D01*
X147162600Y-75692074D01*
X147162600Y-76337399D01*
G37*
G36*
X149098576Y-76337399D02*
G01*
X148453251Y-76337399D01*
X148453251Y-75692074D01*
X149098576Y-75692074D01*
X149098576Y-76337399D01*
G37*
G36*
X150389227Y-76337399D02*
G01*
X149743901Y-76337399D01*
X149743901Y-75692074D01*
X150389227Y-75692074D01*
X150389227Y-76337399D01*
G37*
G36*
X152325203Y-76337399D02*
G01*
X151679876Y-76337399D01*
X151679876Y-75692074D01*
X152325203Y-75692074D01*
X152325203Y-76337399D01*
G37*
G36*
X152970527Y-76337399D02*
G01*
X152325203Y-76337399D01*
X152325203Y-75692074D01*
X152970527Y-75692074D01*
X152970527Y-76337399D01*
G37*
G36*
X153615853Y-76337399D02*
G01*
X152970527Y-76337399D01*
X152970527Y-75692074D01*
X153615853Y-75692074D01*
X153615853Y-76337399D01*
G37*
G36*
X155551829Y-76337399D02*
G01*
X154906503Y-76337399D01*
X154906503Y-75692074D01*
X155551829Y-75692074D01*
X155551829Y-76337399D01*
G37*
G36*
X156842479Y-76337399D02*
G01*
X156197153Y-76337399D01*
X156197153Y-75692074D01*
X156842479Y-75692074D01*
X156842479Y-76337399D01*
G37*
D13*
X161216479Y-104551761D02*
X161311717Y-104647000D01*
X161311717Y-104647000D02*
X161597431Y-104742238D01*
X161597431Y-104742238D02*
X161787907Y-104742238D01*
X161787907Y-104742238D02*
X162073622Y-104647000D01*
X162073622Y-104647000D02*
X162264098Y-104456523D01*
X162264098Y-104456523D02*
X162359336Y-104266047D01*
X162359336Y-104266047D02*
X162454574Y-103885095D01*
X162454574Y-103885095D02*
X162454574Y-103599380D01*
X162454574Y-103599380D02*
X162359336Y-103218428D01*
X162359336Y-103218428D02*
X162264098Y-103027952D01*
X162264098Y-103027952D02*
X162073622Y-102837476D01*
X162073622Y-102837476D02*
X161787907Y-102742238D01*
X161787907Y-102742238D02*
X161597431Y-102742238D01*
X161597431Y-102742238D02*
X161311717Y-102837476D01*
X161311717Y-102837476D02*
X161216479Y-102932714D01*
X159502193Y-103408904D02*
X159502193Y-104742238D01*
X160359336Y-103408904D02*
X160359336Y-104456523D01*
X160359336Y-104456523D02*
X160264098Y-104647000D01*
X160264098Y-104647000D02*
X160073622Y-104742238D01*
X160073622Y-104742238D02*
X159787907Y-104742238D01*
X159787907Y-104742238D02*
X159597431Y-104647000D01*
X159597431Y-104647000D02*
X159502193Y-104551761D01*
X158549812Y-104742238D02*
X158549812Y-102742238D01*
X158549812Y-103504142D02*
X158359336Y-103408904D01*
X158359336Y-103408904D02*
X157978383Y-103408904D01*
X157978383Y-103408904D02*
X157787907Y-103504142D01*
X157787907Y-103504142D02*
X157692669Y-103599380D01*
X157692669Y-103599380D02*
X157597431Y-103789857D01*
X157597431Y-103789857D02*
X157597431Y-104361285D01*
X157597431Y-104361285D02*
X157692669Y-104551761D01*
X157692669Y-104551761D02*
X157787907Y-104647000D01*
X157787907Y-104647000D02*
X157978383Y-104742238D01*
X157978383Y-104742238D02*
X158359336Y-104742238D01*
X158359336Y-104742238D02*
X158549812Y-104647000D01*
X156740288Y-104742238D02*
X156740288Y-102742238D01*
X156740288Y-103504142D02*
X156549812Y-103408904D01*
X156549812Y-103408904D02*
X156168859Y-103408904D01*
X156168859Y-103408904D02*
X155978383Y-103504142D01*
X155978383Y-103504142D02*
X155883145Y-103599380D01*
X155883145Y-103599380D02*
X155787907Y-103789857D01*
X155787907Y-103789857D02*
X155787907Y-104361285D01*
X155787907Y-104361285D02*
X155883145Y-104551761D01*
X155883145Y-104551761D02*
X155978383Y-104647000D01*
X155978383Y-104647000D02*
X156168859Y-104742238D01*
X156168859Y-104742238D02*
X156549812Y-104742238D01*
X156549812Y-104742238D02*
X156740288Y-104647000D01*
X155121240Y-103408904D02*
X154645050Y-104742238D01*
X154168859Y-103408904D02*
X154645050Y-104742238D01*
X154645050Y-104742238D02*
X154835526Y-105218428D01*
X154835526Y-105218428D02*
X154930764Y-105313666D01*
X154930764Y-105313666D02*
X155121240Y-105408904D01*
X151883144Y-104742238D02*
X151883144Y-102742238D01*
X151883144Y-102742238D02*
X151406954Y-102742238D01*
X151406954Y-102742238D02*
X151121239Y-102837476D01*
X151121239Y-102837476D02*
X150930763Y-103027952D01*
X150930763Y-103027952D02*
X150835525Y-103218428D01*
X150835525Y-103218428D02*
X150740287Y-103599380D01*
X150740287Y-103599380D02*
X150740287Y-103885095D01*
X150740287Y-103885095D02*
X150835525Y-104266047D01*
X150835525Y-104266047D02*
X150930763Y-104456523D01*
X150930763Y-104456523D02*
X151121239Y-104647000D01*
X151121239Y-104647000D02*
X151406954Y-104742238D01*
X151406954Y-104742238D02*
X151883144Y-104742238D01*
X149121239Y-104647000D02*
X149311715Y-104742238D01*
X149311715Y-104742238D02*
X149692668Y-104742238D01*
X149692668Y-104742238D02*
X149883144Y-104647000D01*
X149883144Y-104647000D02*
X149978382Y-104456523D01*
X149978382Y-104456523D02*
X149978382Y-103694619D01*
X149978382Y-103694619D02*
X149883144Y-103504142D01*
X149883144Y-103504142D02*
X149692668Y-103408904D01*
X149692668Y-103408904D02*
X149311715Y-103408904D01*
X149311715Y-103408904D02*
X149121239Y-103504142D01*
X149121239Y-103504142D02*
X149026001Y-103694619D01*
X149026001Y-103694619D02*
X149026001Y-103885095D01*
X149026001Y-103885095D02*
X149978382Y-104075571D01*
X147502191Y-103694619D02*
X147216477Y-103789857D01*
X147216477Y-103789857D02*
X147121239Y-103885095D01*
X147121239Y-103885095D02*
X147026001Y-104075571D01*
X147026001Y-104075571D02*
X147026001Y-104361285D01*
X147026001Y-104361285D02*
X147121239Y-104551761D01*
X147121239Y-104551761D02*
X147216477Y-104647000D01*
X147216477Y-104647000D02*
X147406953Y-104742238D01*
X147406953Y-104742238D02*
X148168858Y-104742238D01*
X148168858Y-104742238D02*
X148168858Y-102742238D01*
X148168858Y-102742238D02*
X147502191Y-102742238D01*
X147502191Y-102742238D02*
X147311715Y-102837476D01*
X147311715Y-102837476D02*
X147216477Y-102932714D01*
X147216477Y-102932714D02*
X147121239Y-103123190D01*
X147121239Y-103123190D02*
X147121239Y-103313666D01*
X147121239Y-103313666D02*
X147216477Y-103504142D01*
X147216477Y-103504142D02*
X147311715Y-103599380D01*
X147311715Y-103599380D02*
X147502191Y-103694619D01*
X147502191Y-103694619D02*
X148168858Y-103694619D01*
X146168858Y-104742238D02*
X146168858Y-103408904D01*
X146168858Y-103789857D02*
X146073620Y-103599380D01*
X146073620Y-103599380D02*
X145978382Y-103504142D01*
X145978382Y-103504142D02*
X145787906Y-103408904D01*
X145787906Y-103408904D02*
X145597429Y-103408904D01*
X145121239Y-103408904D02*
X144645049Y-104742238D01*
X144168858Y-103408904D02*
X144645049Y-104742238D01*
X144645049Y-104742238D02*
X144835525Y-105218428D01*
X144835525Y-105218428D02*
X144930763Y-105313666D01*
X144930763Y-105313666D02*
X145121239Y-105408904D01*
X162359336Y-99242238D02*
X162359336Y-100861285D01*
X162359336Y-100861285D02*
X162264098Y-101051761D01*
X162264098Y-101051761D02*
X162168860Y-101147000D01*
X162168860Y-101147000D02*
X161978384Y-101242238D01*
X161978384Y-101242238D02*
X161597431Y-101242238D01*
X161597431Y-101242238D02*
X161406955Y-101147000D01*
X161406955Y-101147000D02*
X161311717Y-101051761D01*
X161311717Y-101051761D02*
X161216479Y-100861285D01*
X161216479Y-100861285D02*
X161216479Y-99242238D01*
X158454574Y-101242238D02*
X158645050Y-101147000D01*
X158645050Y-101147000D02*
X158740288Y-101051761D01*
X158740288Y-101051761D02*
X158835526Y-100861285D01*
X158835526Y-100861285D02*
X158835526Y-100289857D01*
X158835526Y-100289857D02*
X158740288Y-100099380D01*
X158740288Y-100099380D02*
X158645050Y-100004142D01*
X158645050Y-100004142D02*
X158454574Y-99908904D01*
X158454574Y-99908904D02*
X158168859Y-99908904D01*
X158168859Y-99908904D02*
X157978383Y-100004142D01*
X157978383Y-100004142D02*
X157883145Y-100099380D01*
X157883145Y-100099380D02*
X157787907Y-100289857D01*
X157787907Y-100289857D02*
X157787907Y-100861285D01*
X157787907Y-100861285D02*
X157883145Y-101051761D01*
X157883145Y-101051761D02*
X157978383Y-101147000D01*
X157978383Y-101147000D02*
X158168859Y-101242238D01*
X158168859Y-101242238D02*
X158454574Y-101242238D01*
X157216478Y-99908904D02*
X156454574Y-99908904D01*
X156930764Y-101242238D02*
X156930764Y-99527952D01*
X156930764Y-99527952D02*
X156835526Y-99337476D01*
X156835526Y-99337476D02*
X156645050Y-99242238D01*
X156645050Y-99242238D02*
X156454574Y-99242238D01*
X154264097Y-99242238D02*
X154264097Y-100861285D01*
X154264097Y-100861285D02*
X154168859Y-101051761D01*
X154168859Y-101051761D02*
X154073621Y-101147000D01*
X154073621Y-101147000D02*
X153883145Y-101242238D01*
X153883145Y-101242238D02*
X153502192Y-101242238D01*
X153502192Y-101242238D02*
X153311716Y-101147000D01*
X153311716Y-101147000D02*
X153216478Y-101051761D01*
X153216478Y-101051761D02*
X153121240Y-100861285D01*
X153121240Y-100861285D02*
X153121240Y-99242238D01*
X150645049Y-100194619D02*
X149978382Y-100194619D01*
X149692668Y-101242238D02*
X150645049Y-101242238D01*
X150645049Y-101242238D02*
X150645049Y-99242238D01*
X150645049Y-99242238D02*
X149692668Y-99242238D01*
X148835525Y-101242238D02*
X148835525Y-99908904D01*
X148835525Y-100099380D02*
X148740287Y-100004142D01*
X148740287Y-100004142D02*
X148549811Y-99908904D01*
X148549811Y-99908904D02*
X148264096Y-99908904D01*
X148264096Y-99908904D02*
X148073620Y-100004142D01*
X148073620Y-100004142D02*
X147978382Y-100194619D01*
X147978382Y-100194619D02*
X147978382Y-101242238D01*
X147978382Y-100194619D02*
X147883144Y-100004142D01*
X147883144Y-100004142D02*
X147692668Y-99908904D01*
X147692668Y-99908904D02*
X147406954Y-99908904D01*
X147406954Y-99908904D02*
X147216477Y-100004142D01*
X147216477Y-100004142D02*
X147121239Y-100194619D01*
X147121239Y-100194619D02*
X147121239Y-101242238D01*
X146168858Y-101242238D02*
X146168858Y-99242238D01*
X146168858Y-100004142D02*
X145978382Y-99908904D01*
X145978382Y-99908904D02*
X145597429Y-99908904D01*
X145597429Y-99908904D02*
X145406953Y-100004142D01*
X145406953Y-100004142D02*
X145311715Y-100099380D01*
X145311715Y-100099380D02*
X145216477Y-100289857D01*
X145216477Y-100289857D02*
X145216477Y-100861285D01*
X145216477Y-100861285D02*
X145311715Y-101051761D01*
X145311715Y-101051761D02*
X145406953Y-101147000D01*
X145406953Y-101147000D02*
X145597429Y-101242238D01*
X145597429Y-101242238D02*
X145978382Y-101242238D01*
X145978382Y-101242238D02*
X146168858Y-101147000D01*
X143597429Y-101147000D02*
X143787905Y-101242238D01*
X143787905Y-101242238D02*
X144168858Y-101242238D01*
X144168858Y-101242238D02*
X144359334Y-101147000D01*
X144359334Y-101147000D02*
X144454572Y-100956523D01*
X144454572Y-100956523D02*
X144454572Y-100194619D01*
X144454572Y-100194619D02*
X144359334Y-100004142D01*
X144359334Y-100004142D02*
X144168858Y-99908904D01*
X144168858Y-99908904D02*
X143787905Y-99908904D01*
X143787905Y-99908904D02*
X143597429Y-100004142D01*
X143597429Y-100004142D02*
X143502191Y-100194619D01*
X143502191Y-100194619D02*
X143502191Y-100385095D01*
X143502191Y-100385095D02*
X144454572Y-100575571D01*
X141787905Y-101242238D02*
X141787905Y-99242238D01*
X141787905Y-101147000D02*
X141978381Y-101242238D01*
X141978381Y-101242238D02*
X142359334Y-101242238D01*
X142359334Y-101242238D02*
X142549810Y-101147000D01*
X142549810Y-101147000D02*
X142645048Y-101051761D01*
X142645048Y-101051761D02*
X142740286Y-100861285D01*
X142740286Y-100861285D02*
X142740286Y-100289857D01*
X142740286Y-100289857D02*
X142645048Y-100099380D01*
X142645048Y-100099380D02*
X142549810Y-100004142D01*
X142549810Y-100004142D02*
X142359334Y-99908904D01*
X142359334Y-99908904D02*
X141978381Y-99908904D01*
X141978381Y-99908904D02*
X141787905Y-100004142D01*
X139978381Y-101242238D02*
X139978381Y-99242238D01*
X139978381Y-101147000D02*
X140168857Y-101242238D01*
X140168857Y-101242238D02*
X140549810Y-101242238D01*
X140549810Y-101242238D02*
X140740286Y-101147000D01*
X140740286Y-101147000D02*
X140835524Y-101051761D01*
X140835524Y-101051761D02*
X140930762Y-100861285D01*
X140930762Y-100861285D02*
X140930762Y-100289857D01*
X140930762Y-100289857D02*
X140835524Y-100099380D01*
X140835524Y-100099380D02*
X140740286Y-100004142D01*
X140740286Y-100004142D02*
X140549810Y-99908904D01*
X140549810Y-99908904D02*
X140168857Y-99908904D01*
X140168857Y-99908904D02*
X139978381Y-100004142D01*
X138264095Y-101147000D02*
X138454571Y-101242238D01*
X138454571Y-101242238D02*
X138835524Y-101242238D01*
X138835524Y-101242238D02*
X139026000Y-101147000D01*
X139026000Y-101147000D02*
X139121238Y-100956523D01*
X139121238Y-100956523D02*
X139121238Y-100194619D01*
X139121238Y-100194619D02*
X139026000Y-100004142D01*
X139026000Y-100004142D02*
X138835524Y-99908904D01*
X138835524Y-99908904D02*
X138454571Y-99908904D01*
X138454571Y-99908904D02*
X138264095Y-100004142D01*
X138264095Y-100004142D02*
X138168857Y-100194619D01*
X138168857Y-100194619D02*
X138168857Y-100385095D01*
X138168857Y-100385095D02*
X139121238Y-100575571D01*
X136454571Y-101242238D02*
X136454571Y-99242238D01*
X136454571Y-101147000D02*
X136645047Y-101242238D01*
X136645047Y-101242238D02*
X137026000Y-101242238D01*
X137026000Y-101242238D02*
X137216476Y-101147000D01*
X137216476Y-101147000D02*
X137311714Y-101051761D01*
X137311714Y-101051761D02*
X137406952Y-100861285D01*
X137406952Y-100861285D02*
X137406952Y-100289857D01*
X137406952Y-100289857D02*
X137311714Y-100099380D01*
X137311714Y-100099380D02*
X137216476Y-100004142D01*
X137216476Y-100004142D02*
X137026000Y-99908904D01*
X137026000Y-99908904D02*
X136645047Y-99908904D01*
X136645047Y-99908904D02*
X136454571Y-100004142D01*
X134073618Y-101147000D02*
X133787904Y-101242238D01*
X133787904Y-101242238D02*
X133311713Y-101242238D01*
X133311713Y-101242238D02*
X133121237Y-101147000D01*
X133121237Y-101147000D02*
X133025999Y-101051761D01*
X133025999Y-101051761D02*
X132930761Y-100861285D01*
X132930761Y-100861285D02*
X132930761Y-100670809D01*
X132930761Y-100670809D02*
X133025999Y-100480333D01*
X133025999Y-100480333D02*
X133121237Y-100385095D01*
X133121237Y-100385095D02*
X133311713Y-100289857D01*
X133311713Y-100289857D02*
X133692666Y-100194619D01*
X133692666Y-100194619D02*
X133883142Y-100099380D01*
X133883142Y-100099380D02*
X133978380Y-100004142D01*
X133978380Y-100004142D02*
X134073618Y-99813666D01*
X134073618Y-99813666D02*
X134073618Y-99623190D01*
X134073618Y-99623190D02*
X133978380Y-99432714D01*
X133978380Y-99432714D02*
X133883142Y-99337476D01*
X133883142Y-99337476D02*
X133692666Y-99242238D01*
X133692666Y-99242238D02*
X133216475Y-99242238D01*
X133216475Y-99242238D02*
X132930761Y-99337476D01*
X132264094Y-99908904D02*
X131787904Y-101242238D01*
X131311713Y-99908904D02*
X131787904Y-101242238D01*
X131787904Y-101242238D02*
X131978380Y-101718428D01*
X131978380Y-101718428D02*
X132073618Y-101813666D01*
X132073618Y-101813666D02*
X132264094Y-101908904D01*
X130645046Y-101147000D02*
X130454570Y-101242238D01*
X130454570Y-101242238D02*
X130073618Y-101242238D01*
X130073618Y-101242238D02*
X129883141Y-101147000D01*
X129883141Y-101147000D02*
X129787903Y-100956523D01*
X129787903Y-100956523D02*
X129787903Y-100861285D01*
X129787903Y-100861285D02*
X129883141Y-100670809D01*
X129883141Y-100670809D02*
X130073618Y-100575571D01*
X130073618Y-100575571D02*
X130359332Y-100575571D01*
X130359332Y-100575571D02*
X130549808Y-100480333D01*
X130549808Y-100480333D02*
X130645046Y-100289857D01*
X130645046Y-100289857D02*
X130645046Y-100194619D01*
X130645046Y-100194619D02*
X130549808Y-100004142D01*
X130549808Y-100004142D02*
X130359332Y-99908904D01*
X130359332Y-99908904D02*
X130073618Y-99908904D01*
X130073618Y-99908904D02*
X129883141Y-100004142D01*
X129216474Y-99908904D02*
X128454570Y-99908904D01*
X128930760Y-99242238D02*
X128930760Y-100956523D01*
X128930760Y-100956523D02*
X128835522Y-101147000D01*
X128835522Y-101147000D02*
X128645046Y-101242238D01*
X128645046Y-101242238D02*
X128454570Y-101242238D01*
X127025998Y-101147000D02*
X127216474Y-101242238D01*
X127216474Y-101242238D02*
X127597427Y-101242238D01*
X127597427Y-101242238D02*
X127787903Y-101147000D01*
X127787903Y-101147000D02*
X127883141Y-100956523D01*
X127883141Y-100956523D02*
X127883141Y-100194619D01*
X127883141Y-100194619D02*
X127787903Y-100004142D01*
X127787903Y-100004142D02*
X127597427Y-99908904D01*
X127597427Y-99908904D02*
X127216474Y-99908904D01*
X127216474Y-99908904D02*
X127025998Y-100004142D01*
X127025998Y-100004142D02*
X126930760Y-100194619D01*
X126930760Y-100194619D02*
X126930760Y-100385095D01*
X126930760Y-100385095D02*
X127883141Y-100575571D01*
X126073617Y-101242238D02*
X126073617Y-99908904D01*
X126073617Y-100099380D02*
X125978379Y-100004142D01*
X125978379Y-100004142D02*
X125787903Y-99908904D01*
X125787903Y-99908904D02*
X125502188Y-99908904D01*
X125502188Y-99908904D02*
X125311712Y-100004142D01*
X125311712Y-100004142D02*
X125216474Y-100194619D01*
X125216474Y-100194619D02*
X125216474Y-101242238D01*
X125216474Y-100194619D02*
X125121236Y-100004142D01*
X125121236Y-100004142D02*
X124930760Y-99908904D01*
X124930760Y-99908904D02*
X124645046Y-99908904D01*
X124645046Y-99908904D02*
X124454569Y-100004142D01*
X124454569Y-100004142D02*
X124359331Y-100194619D01*
X124359331Y-100194619D02*
X124359331Y-101242238D01*
X123502188Y-101147000D02*
X123311712Y-101242238D01*
X123311712Y-101242238D02*
X122930760Y-101242238D01*
X122930760Y-101242238D02*
X122740283Y-101147000D01*
X122740283Y-101147000D02*
X122645045Y-100956523D01*
X122645045Y-100956523D02*
X122645045Y-100861285D01*
X122645045Y-100861285D02*
X122740283Y-100670809D01*
X122740283Y-100670809D02*
X122930760Y-100575571D01*
X122930760Y-100575571D02*
X123216474Y-100575571D01*
X123216474Y-100575571D02*
X123406950Y-100480333D01*
X123406950Y-100480333D02*
X123502188Y-100289857D01*
X123502188Y-100289857D02*
X123502188Y-100194619D01*
X123502188Y-100194619D02*
X123406950Y-100004142D01*
X123406950Y-100004142D02*
X123216474Y-99908904D01*
X123216474Y-99908904D02*
X122930760Y-99908904D01*
X122930760Y-99908904D02*
X122740283Y-100004142D01*
X120359330Y-99432714D02*
X120264092Y-99337476D01*
X120264092Y-99337476D02*
X120073616Y-99242238D01*
X120073616Y-99242238D02*
X119597425Y-99242238D01*
X119597425Y-99242238D02*
X119406949Y-99337476D01*
X119406949Y-99337476D02*
X119311711Y-99432714D01*
X119311711Y-99432714D02*
X119216473Y-99623190D01*
X119216473Y-99623190D02*
X119216473Y-99813666D01*
X119216473Y-99813666D02*
X119311711Y-100099380D01*
X119311711Y-100099380D02*
X120454568Y-101242238D01*
X120454568Y-101242238D02*
X119216473Y-101242238D01*
X117978378Y-99242238D02*
X117787901Y-99242238D01*
X117787901Y-99242238D02*
X117597425Y-99337476D01*
X117597425Y-99337476D02*
X117502187Y-99432714D01*
X117502187Y-99432714D02*
X117406949Y-99623190D01*
X117406949Y-99623190D02*
X117311711Y-100004142D01*
X117311711Y-100004142D02*
X117311711Y-100480333D01*
X117311711Y-100480333D02*
X117406949Y-100861285D01*
X117406949Y-100861285D02*
X117502187Y-101051761D01*
X117502187Y-101051761D02*
X117597425Y-101147000D01*
X117597425Y-101147000D02*
X117787901Y-101242238D01*
X117787901Y-101242238D02*
X117978378Y-101242238D01*
X117978378Y-101242238D02*
X118168854Y-101147000D01*
X118168854Y-101147000D02*
X118264092Y-101051761D01*
X118264092Y-101051761D02*
X118359330Y-100861285D01*
X118359330Y-100861285D02*
X118454568Y-100480333D01*
X118454568Y-100480333D02*
X118454568Y-100004142D01*
X118454568Y-100004142D02*
X118359330Y-99623190D01*
X118359330Y-99623190D02*
X118264092Y-99432714D01*
X118264092Y-99432714D02*
X118168854Y-99337476D01*
X118168854Y-99337476D02*
X117978378Y-99242238D01*
X116549806Y-99432714D02*
X116454568Y-99337476D01*
X116454568Y-99337476D02*
X116264092Y-99242238D01*
X116264092Y-99242238D02*
X115787901Y-99242238D01*
X115787901Y-99242238D02*
X115597425Y-99337476D01*
X115597425Y-99337476D02*
X115502187Y-99432714D01*
X115502187Y-99432714D02*
X115406949Y-99623190D01*
X115406949Y-99623190D02*
X115406949Y-99813666D01*
X115406949Y-99813666D02*
X115502187Y-100099380D01*
X115502187Y-100099380D02*
X116645044Y-101242238D01*
X116645044Y-101242238D02*
X115406949Y-101242238D01*
X113597425Y-99242238D02*
X114549806Y-99242238D01*
X114549806Y-99242238D02*
X114645044Y-100194619D01*
X114645044Y-100194619D02*
X114549806Y-100099380D01*
X114549806Y-100099380D02*
X114359330Y-100004142D01*
X114359330Y-100004142D02*
X113883139Y-100004142D01*
X113883139Y-100004142D02*
X113692663Y-100099380D01*
X113692663Y-100099380D02*
X113597425Y-100194619D01*
X113597425Y-100194619D02*
X113502187Y-100385095D01*
X113502187Y-100385095D02*
X113502187Y-100861285D01*
X113502187Y-100861285D02*
X113597425Y-101051761D01*
X113597425Y-101051761D02*
X113692663Y-101147000D01*
X113692663Y-101147000D02*
X113883139Y-101242238D01*
X113883139Y-101242238D02*
X114359330Y-101242238D01*
X114359330Y-101242238D02*
X114549806Y-101147000D01*
X114549806Y-101147000D02*
X114645044Y-101051761D01*
D12*
G36*
X208579916Y-103938182D02*
G01*
X208601939Y-103939259D01*
X208623973Y-103941423D01*
X208645981Y-103944686D01*
X208667924Y-103949061D01*
X208689764Y-103954560D01*
X208711461Y-103961194D01*
X208732979Y-103968978D01*
X208754277Y-103977922D01*
X208775319Y-103988040D01*
X211365571Y-105315136D01*
X211386075Y-105326305D01*
X211405777Y-105338367D01*
X211424664Y-105351285D01*
X211442723Y-105365019D01*
X211459944Y-105379533D01*
X211476313Y-105394787D01*
X211491818Y-105410743D01*
X211506446Y-105427363D01*
X211520185Y-105444608D01*
X211533023Y-105462441D01*
X211544948Y-105480822D01*
X211555947Y-105499713D01*
X211566007Y-105519076D01*
X211575117Y-105538873D01*
X211583264Y-105559065D01*
X211590435Y-105579614D01*
X211596618Y-105600481D01*
X211601802Y-105621628D01*
X211605973Y-105643018D01*
X211609119Y-105664610D01*
X211611227Y-105686368D01*
X211612286Y-105708252D01*
X211612283Y-105730225D01*
X211611206Y-105752248D01*
X211609042Y-105774282D01*
X211605779Y-105796290D01*
X211601404Y-105818232D01*
X211595906Y-105840071D01*
X211589271Y-105861768D01*
X211581488Y-105883285D01*
X211572544Y-105904584D01*
X211562427Y-105925625D01*
X211562425Y-105925627D01*
X211562425Y-105925628D01*
X211562424Y-105925629D01*
X211562424Y-105925630D01*
X211562423Y-105925631D01*
X211562423Y-105925632D01*
X211562423Y-105925633D01*
X211562423Y-105925634D01*
X211562423Y-105925635D01*
X211562423Y-105925636D01*
X211562423Y-105925638D01*
X211551254Y-105946141D01*
X211539192Y-105965843D01*
X211526275Y-105984729D01*
X211512540Y-106002789D01*
X211498026Y-106020010D01*
X211482772Y-106036379D01*
X211466816Y-106051883D01*
X211450196Y-106066512D01*
X211432950Y-106080251D01*
X211415118Y-106093089D01*
X211396737Y-106105014D01*
X211377846Y-106116013D01*
X211358482Y-106126073D01*
X211338685Y-106135183D01*
X211318493Y-106143330D01*
X211297944Y-106150501D01*
X211277077Y-106156685D01*
X211255929Y-106161868D01*
X211234540Y-106166039D01*
X211212947Y-106169185D01*
X211191189Y-106171293D01*
X211169304Y-106172352D01*
X211147331Y-106172349D01*
X211125308Y-106171272D01*
X211103274Y-106169108D01*
X211081266Y-106165845D01*
X211059323Y-106161470D01*
X211037484Y-106155972D01*
X211015786Y-106149337D01*
X210994269Y-106141553D01*
X210972970Y-106132609D01*
X210951928Y-106122491D01*
X208361676Y-104795395D01*
X208341172Y-104784226D01*
X208321470Y-104772164D01*
X208302583Y-104759247D01*
X208284523Y-104745512D01*
X208267303Y-104730998D01*
X208250934Y-104715744D01*
X208235429Y-104699788D01*
X208220801Y-104683168D01*
X208207062Y-104665923D01*
X208194223Y-104648090D01*
X208182299Y-104629709D01*
X208171300Y-104610818D01*
X208161240Y-104591455D01*
X208152130Y-104571658D01*
X208143983Y-104551466D01*
X208136812Y-104530917D01*
X208130629Y-104510050D01*
X208125445Y-104488903D01*
X208121275Y-104467514D01*
X208118129Y-104445921D01*
X208116020Y-104424163D01*
X208114961Y-104402279D01*
X208114964Y-104380306D01*
X208116042Y-104358283D01*
X208118206Y-104336249D01*
X208121469Y-104314242D01*
X208125844Y-104292299D01*
X208131342Y-104270460D01*
X208137977Y-104248763D01*
X208145760Y-104227246D01*
X208154705Y-104205947D01*
X208164822Y-104184906D01*
X208164823Y-104184904D01*
X208164823Y-104184902D01*
X208164823Y-104184901D01*
X208164824Y-104184900D01*
X208164824Y-104184899D01*
X208164824Y-104184898D01*
X208164825Y-104184898D01*
X208164825Y-104184897D01*
X208164826Y-104184896D01*
X208164827Y-104184894D01*
X208175995Y-104164390D01*
X208188057Y-104144689D01*
X208200974Y-104125802D01*
X208214709Y-104107742D01*
X208229222Y-104090521D01*
X208244476Y-104074153D01*
X208260432Y-104058648D01*
X208277052Y-104044020D01*
X208294297Y-104030280D01*
X208312130Y-104017442D01*
X208330511Y-104005517D01*
X208349402Y-103994518D01*
X208368765Y-103984458D01*
X208388562Y-103975348D01*
X208408754Y-103967201D01*
X208429303Y-103960030D01*
X208450170Y-103953847D01*
X208471318Y-103948663D01*
X208492707Y-103944492D01*
X208514300Y-103941346D01*
X208536058Y-103939238D01*
X208557943Y-103938179D01*
X208579916Y-103938182D01*
G37*
G36*
X216564584Y-75316510D02*
G01*
X216584943Y-75318059D01*
X216605007Y-75320608D01*
X216624749Y-75324134D01*
X216644145Y-75328610D01*
X216663169Y-75334013D01*
X216681797Y-75340315D01*
X216700002Y-75347494D01*
X216717761Y-75355522D01*
X216735047Y-75364376D01*
X216751835Y-75374029D01*
X216768101Y-75384457D01*
X216783819Y-75395634D01*
X216798964Y-75407536D01*
X216813511Y-75420136D01*
X216827434Y-75433411D01*
X216840708Y-75447334D01*
X216853309Y-75461881D01*
X216865210Y-75477026D01*
X216876388Y-75492744D01*
X216886816Y-75509010D01*
X216896469Y-75525798D01*
X216905322Y-75543085D01*
X216913351Y-75560843D01*
X216920529Y-75579049D01*
X216926832Y-75597676D01*
X216932234Y-75616701D01*
X216936711Y-75636097D01*
X216940237Y-75655839D01*
X216942786Y-75675903D01*
X216944334Y-75696262D01*
X216944856Y-75716893D01*
X216944334Y-75737523D01*
X216942786Y-75757883D01*
X216940237Y-75777947D01*
X216936711Y-75797689D01*
X216932235Y-75817085D01*
X216926832Y-75836110D01*
X216920530Y-75854738D01*
X216913351Y-75872943D01*
X216905323Y-75890702D01*
X216896470Y-75907988D01*
X216886816Y-75924777D01*
X216876389Y-75941043D01*
X216865211Y-75956761D01*
X216853310Y-75971906D01*
X216840709Y-75986452D01*
X216827435Y-76000376D01*
X216813512Y-76013650D01*
X216798965Y-76026251D01*
X216783821Y-76038152D01*
X216768103Y-76049330D01*
X216751837Y-76059757D01*
X216735048Y-76069411D01*
X216717762Y-76078264D01*
X216700004Y-76086293D01*
X216681798Y-76093471D01*
X216663170Y-76099774D01*
X216644146Y-76105176D01*
X216624750Y-76109653D01*
X216605007Y-76113178D01*
X216584944Y-76115728D01*
X216564584Y-76117276D01*
X216543953Y-76117798D01*
X216523323Y-76117276D01*
X216502963Y-76115728D01*
X216482899Y-76113178D01*
X216463157Y-76109653D01*
X216443761Y-76105176D01*
X216424736Y-76099774D01*
X216406109Y-76093471D01*
X216387903Y-76086292D01*
X216370144Y-76078264D01*
X216352858Y-76069411D01*
X216336069Y-76059757D01*
X216319803Y-76049329D01*
X216304085Y-76038152D01*
X216288940Y-76026250D01*
X216274393Y-76013650D01*
X216260470Y-76000375D01*
X216247196Y-75986452D01*
X216234595Y-75971905D01*
X216222693Y-75956760D01*
X216211516Y-75941042D01*
X216201088Y-75924776D01*
X216191435Y-75907988D01*
X216182581Y-75890702D01*
X216174553Y-75872943D01*
X216167374Y-75854737D01*
X216161071Y-75836110D01*
X216155669Y-75817085D01*
X216151192Y-75797689D01*
X216147667Y-75777947D01*
X216145117Y-75757883D01*
X216143569Y-75737523D01*
X216143047Y-75716893D01*
X216143569Y-75696262D01*
X216145117Y-75675903D01*
X216147667Y-75655839D01*
X216151192Y-75636097D01*
X216155669Y-75616701D01*
X216161071Y-75597676D01*
X216167374Y-75579048D01*
X216174553Y-75560843D01*
X216182581Y-75543084D01*
X216191435Y-75525798D01*
X216201088Y-75509009D01*
X216211516Y-75492743D01*
X216222693Y-75477025D01*
X216234595Y-75461880D01*
X216247196Y-75447334D01*
X216260470Y-75433411D01*
X216274393Y-75420136D01*
X216288940Y-75407536D01*
X216304085Y-75395634D01*
X216319803Y-75384457D01*
X216336069Y-75374029D01*
X216352858Y-75364376D01*
X216370144Y-75355522D01*
X216387903Y-75347494D01*
X216406109Y-75340315D01*
X216424736Y-75334013D01*
X216443761Y-75328610D01*
X216463157Y-75324134D01*
X216482899Y-75320608D01*
X216502963Y-75318058D01*
X216523323Y-75316510D01*
X216543953Y-75315989D01*
X216564584Y-75316510D01*
G37*
G36*
X213710874Y-84839992D02*
G01*
X213710245Y-84865025D01*
X213708379Y-84889722D01*
X213705305Y-84914051D01*
X213701054Y-84937983D01*
X213695655Y-84961489D01*
X213689139Y-84984537D01*
X213681536Y-85007098D01*
X213672875Y-85029142D01*
X213663187Y-85050639D01*
X213652501Y-85071559D01*
X213640848Y-85091872D01*
X213628258Y-85111547D01*
X213614761Y-85130556D01*
X213600386Y-85148867D01*
X213585164Y-85166451D01*
X213569124Y-85183277D01*
X213552298Y-85199317D01*
X213534714Y-85214539D01*
X213516403Y-85228914D01*
X213497394Y-85242411D01*
X213477719Y-85255002D01*
X213457406Y-85266655D01*
X213436486Y-85277340D01*
X213414990Y-85287028D01*
X213392945Y-85295689D01*
X213370384Y-85303293D01*
X213347336Y-85309809D01*
X213323831Y-85315207D01*
X213299898Y-85319459D01*
X213275569Y-85322532D01*
X213250872Y-85324398D01*
X213225839Y-85325027D01*
X198266339Y-85325027D01*
X198241306Y-85324398D01*
X198216609Y-85322532D01*
X198192280Y-85319459D01*
X198168347Y-85315207D01*
X198144842Y-85309809D01*
X198121794Y-85303293D01*
X198099233Y-85295689D01*
X198077189Y-85287028D01*
X198055692Y-85277340D01*
X198034772Y-85266655D01*
X198014460Y-85255002D01*
X197994784Y-85242411D01*
X197975776Y-85228914D01*
X197957465Y-85214539D01*
X197939881Y-85199317D01*
X197923054Y-85183277D01*
X197907015Y-85166451D01*
X197891793Y-85148867D01*
X197877418Y-85130556D01*
X197863920Y-85111547D01*
X197851330Y-85091872D01*
X197839677Y-85071559D01*
X197828992Y-85050639D01*
X197819303Y-85029142D01*
X197810643Y-85007098D01*
X197803039Y-84984537D01*
X197796523Y-84961489D01*
X197791125Y-84937983D01*
X197786873Y-84914051D01*
X197783800Y-84889722D01*
X197781933Y-84865025D01*
X197781305Y-84839992D01*
X197781305Y-75688303D01*
X199074145Y-75688303D01*
X199080864Y-75715795D01*
X199087478Y-75743390D01*
X199668631Y-75746594D01*
X200249785Y-75749798D01*
X200255986Y-78778244D01*
X200262083Y-81806585D01*
X201141823Y-82678058D01*
X202021666Y-83549425D01*
X202409858Y-83934620D01*
X202798053Y-84319714D01*
X205796525Y-84319714D01*
X208795102Y-84319714D01*
X210062414Y-83063046D01*
X211329728Y-81806379D01*
X211332828Y-78778140D01*
X211335929Y-75749798D01*
X211951188Y-75743700D01*
X212566344Y-75737499D01*
X212566344Y-73898025D01*
X212566344Y-72058551D01*
X209509580Y-72055450D01*
X206452713Y-72052350D01*
X206442894Y-72067749D01*
X206433076Y-72083149D01*
X206432869Y-73893891D01*
X206432663Y-75704736D01*
X206440103Y-75724167D01*
X206447648Y-75743700D01*
X207061564Y-75743700D01*
X207675377Y-75743700D01*
X207675377Y-78173733D01*
X207675377Y-80603868D01*
X205826704Y-80600767D01*
X203978032Y-80597667D01*
X203978032Y-78173733D01*
X203978032Y-75749798D01*
X204593188Y-75743700D01*
X205208447Y-75737499D01*
X205208447Y-73898025D01*
X205208447Y-72058551D01*
X202144656Y-72058551D01*
X199080864Y-72058551D01*
X199077556Y-73873427D01*
X199074145Y-75688303D01*
X197781305Y-75688303D01*
X197781305Y-71163825D01*
X197781933Y-71138791D01*
X197783800Y-71114095D01*
X197786873Y-71089766D01*
X197791125Y-71065833D01*
X197796523Y-71042328D01*
X197803039Y-71019280D01*
X197810643Y-70996718D01*
X197819303Y-70974674D01*
X197828992Y-70953177D01*
X197839677Y-70932258D01*
X197851330Y-70911945D01*
X197863920Y-70892270D01*
X197877418Y-70873261D01*
X197891793Y-70854950D01*
X197907015Y-70837366D01*
X197923054Y-70820540D01*
X197939881Y-70804500D01*
X197957465Y-70789278D01*
X197975776Y-70774903D01*
X197994784Y-70761406D01*
X198014460Y-70748816D01*
X198034772Y-70737163D01*
X198055692Y-70726477D01*
X198077189Y-70716789D01*
X198099233Y-70708128D01*
X198121794Y-70700525D01*
X198144842Y-70694009D01*
X198168347Y-70688610D01*
X198192280Y-70684359D01*
X198216609Y-70681285D01*
X198241306Y-70679419D01*
X198266339Y-70678790D01*
X213225839Y-70678790D01*
X213250872Y-70679419D01*
X213275569Y-70681285D01*
X213299898Y-70684359D01*
X213323831Y-70688610D01*
X213347336Y-70694009D01*
X213370384Y-70700525D01*
X213392945Y-70708128D01*
X213414990Y-70716789D01*
X213436486Y-70726477D01*
X213457406Y-70737163D01*
X213477719Y-70748816D01*
X213497394Y-70761406D01*
X213516403Y-70774903D01*
X213534714Y-70789278D01*
X213552298Y-70804500D01*
X213569124Y-70820540D01*
X213585164Y-70837366D01*
X213600386Y-70854950D01*
X213614761Y-70873261D01*
X213628258Y-70892270D01*
X213640848Y-70911945D01*
X213652501Y-70932258D01*
X213663187Y-70953177D01*
X213672875Y-70974674D01*
X213681536Y-70996718D01*
X213689139Y-71019280D01*
X213695655Y-71042328D01*
X213701054Y-71065833D01*
X213705305Y-71089766D01*
X213708379Y-71114095D01*
X213710245Y-71138791D01*
X213710874Y-71163825D01*
X213710874Y-72058551D01*
X213710874Y-84839992D01*
G37*
G36*
X220730290Y-96708413D02*
G01*
X220730290Y-105708013D01*
X220730290Y-106948392D01*
X220730290Y-107696770D01*
X220730290Y-108578887D01*
X220730290Y-112328027D01*
X220728889Y-112383813D01*
X220724730Y-112438847D01*
X220717880Y-112493064D01*
X220708407Y-112546395D01*
X220696376Y-112598775D01*
X220681856Y-112650137D01*
X220664912Y-112700413D01*
X220645612Y-112749537D01*
X220624022Y-112797441D01*
X220600210Y-112844059D01*
X220574242Y-112889324D01*
X220546186Y-112933170D01*
X220516107Y-112975528D01*
X220484074Y-113016333D01*
X220450152Y-113055518D01*
X220414409Y-113093015D01*
X220376912Y-113128757D01*
X220337728Y-113162679D01*
X220296923Y-113194712D01*
X220254564Y-113224790D01*
X220210719Y-113252846D01*
X220165454Y-113278814D01*
X220118835Y-113302626D01*
X220070931Y-113324215D01*
X220021808Y-113343515D01*
X219971532Y-113360459D01*
X219920171Y-113374979D01*
X219867791Y-113387010D01*
X219814460Y-113396483D01*
X219760244Y-113403333D01*
X219705210Y-113407491D01*
X219649426Y-113408893D01*
X201453535Y-113408893D01*
X200856952Y-113365404D01*
X200257574Y-113337190D01*
X199057009Y-113289837D01*
X198459108Y-113252324D01*
X198161472Y-113226089D01*
X197864986Y-113193337D01*
X197569855Y-113152919D01*
X197276286Y-113103688D01*
X196984484Y-113044495D01*
X196694653Y-112974191D01*
X196194575Y-112835367D01*
X195695628Y-112680798D01*
X195201463Y-112507751D01*
X194957315Y-112413445D01*
X194715731Y-112313493D01*
X194550669Y-112240195D01*
X199466432Y-112240195D01*
X199467011Y-112255892D01*
X199468343Y-112271512D01*
X199470422Y-112287028D01*
X199473240Y-112302412D01*
X199476789Y-112317636D01*
X199481064Y-112332673D01*
X199486056Y-112347495D01*
X199491759Y-112362075D01*
X199498165Y-112376384D01*
X199505267Y-112390395D01*
X199513058Y-112404081D01*
X199521531Y-112417414D01*
X199530679Y-112430366D01*
X199540494Y-112442910D01*
X199550970Y-112455017D01*
X199562099Y-112466661D01*
X199573874Y-112477814D01*
X199586287Y-112488448D01*
X199599333Y-112498535D01*
X199613003Y-112508047D01*
X199627290Y-112516958D01*
X199642007Y-112525141D01*
X199656950Y-112532491D01*
X199672094Y-112539016D01*
X199687410Y-112544723D01*
X199702870Y-112549619D01*
X199718446Y-112553711D01*
X199734112Y-112557008D01*
X199749840Y-112559514D01*
X199765601Y-112561239D01*
X199781368Y-112562189D01*
X199797114Y-112562371D01*
X199812811Y-112561792D01*
X199828431Y-112560460D01*
X199843947Y-112558382D01*
X199859331Y-112555564D01*
X199874555Y-112552014D01*
X199889592Y-112547740D01*
X199904414Y-112542748D01*
X199918993Y-112537045D01*
X199933303Y-112530639D01*
X199947314Y-112523537D01*
X199961000Y-112515746D01*
X199974333Y-112507273D01*
X199987285Y-112498125D01*
X199999829Y-112488310D01*
X200011936Y-112477834D01*
X200023581Y-112466705D01*
X200034733Y-112454930D01*
X200045367Y-112442516D01*
X200055454Y-112429471D01*
X200064967Y-112415801D01*
X200073878Y-112401513D01*
X202226614Y-108748712D01*
X202234797Y-108733995D01*
X202242148Y-108719051D01*
X202248674Y-108703908D01*
X202254383Y-108688592D01*
X202259282Y-108673132D01*
X202263377Y-108657555D01*
X202266677Y-108641889D01*
X202269187Y-108626162D01*
X202270915Y-108610400D01*
X202271869Y-108594633D01*
X202272055Y-108578887D01*
X202271481Y-108563190D01*
X202270153Y-108547570D01*
X202268080Y-108532054D01*
X202265267Y-108516670D01*
X202261722Y-108501446D01*
X202257452Y-108486409D01*
X202252465Y-108471587D01*
X202246767Y-108457008D01*
X202240366Y-108442698D01*
X202233268Y-108428687D01*
X202225481Y-108415001D01*
X202217012Y-108401668D01*
X202207868Y-108388716D01*
X202198056Y-108376172D01*
X202187584Y-108364065D01*
X202176458Y-108352421D01*
X202164685Y-108341268D01*
X202152273Y-108330635D01*
X202139229Y-108320548D01*
X202125560Y-108311035D01*
X202111273Y-108302124D01*
X202102103Y-108296912D01*
X202092839Y-108292025D01*
X202083490Y-108287463D01*
X202074060Y-108283222D01*
X202064558Y-108279302D01*
X202054990Y-108275701D01*
X202045362Y-108272417D01*
X202035682Y-108269448D01*
X202025957Y-108266793D01*
X202016192Y-108264451D01*
X202006396Y-108262419D01*
X201996574Y-108260695D01*
X201986735Y-108259279D01*
X201976883Y-108258169D01*
X201967027Y-108257362D01*
X201957173Y-108256857D01*
X201935534Y-108256800D01*
X201914007Y-108258175D01*
X201892666Y-108260964D01*
X201871580Y-108265149D01*
X201850823Y-108270710D01*
X201830466Y-108277630D01*
X201810580Y-108285889D01*
X201791238Y-108295470D01*
X201772512Y-108306354D01*
X201754472Y-108318522D01*
X201737191Y-108331956D01*
X201720742Y-108346637D01*
X201705194Y-108362547D01*
X201690621Y-108379667D01*
X201677094Y-108397979D01*
X201664685Y-108417465D01*
X199511845Y-112070370D01*
X199503663Y-112085087D01*
X199496313Y-112100031D01*
X199489788Y-112115175D01*
X199484081Y-112130490D01*
X199479184Y-112145950D01*
X199475092Y-112161527D01*
X199471796Y-112177193D01*
X199469289Y-112192920D01*
X199467564Y-112208682D01*
X199466614Y-112224449D01*
X199466432Y-112240195D01*
X194550669Y-112240195D01*
X194477168Y-112207556D01*
X194242081Y-112095292D01*
X194010928Y-111976358D01*
X193784164Y-111850414D01*
X193562246Y-111717117D01*
X193345629Y-111576126D01*
X193134772Y-111427099D01*
X193045037Y-111358079D01*
X197996209Y-111358079D01*
X197996783Y-111373775D01*
X197998111Y-111389396D01*
X198000185Y-111404912D01*
X198002998Y-111420295D01*
X198006542Y-111435520D01*
X198010812Y-111450556D01*
X198015799Y-111465378D01*
X198021497Y-111479958D01*
X198027899Y-111494267D01*
X198034997Y-111508279D01*
X198042783Y-111521964D01*
X198051252Y-111535297D01*
X198060396Y-111548249D01*
X198070208Y-111560793D01*
X198080681Y-111572901D01*
X198091807Y-111584545D01*
X198103579Y-111595697D01*
X198115991Y-111606331D01*
X198129035Y-111616418D01*
X198142704Y-111625931D01*
X198156991Y-111634842D01*
X198171708Y-111643024D01*
X198186651Y-111650375D01*
X198201795Y-111656902D01*
X198217110Y-111662610D01*
X198232570Y-111667509D01*
X198248147Y-111671604D01*
X198263813Y-111674904D01*
X198279540Y-111677414D01*
X198295301Y-111679142D01*
X198311069Y-111680096D01*
X198326815Y-111680283D01*
X198342512Y-111679708D01*
X198358132Y-111678381D01*
X198373648Y-111676307D01*
X198389031Y-111673494D01*
X198404256Y-111669950D01*
X198419293Y-111665680D01*
X198434115Y-111660693D01*
X198448694Y-111654995D01*
X198463004Y-111648593D01*
X198477015Y-111641496D01*
X198490701Y-111633709D01*
X198504034Y-111625240D01*
X198516986Y-111616096D01*
X198529530Y-111606284D01*
X198541638Y-111595812D01*
X198553282Y-111584685D01*
X198564434Y-111572913D01*
X198575068Y-111560501D01*
X198585155Y-111547457D01*
X198594668Y-111533788D01*
X198603580Y-111519501D01*
X200756419Y-107866595D01*
X200764602Y-107851879D01*
X200771953Y-107836935D01*
X200778479Y-107821791D01*
X200784188Y-107806475D01*
X200789087Y-107791015D01*
X200793182Y-107775438D01*
X200796481Y-107759772D01*
X200798992Y-107744045D01*
X200800720Y-107728284D01*
X200801674Y-107712516D01*
X200801860Y-107696770D01*
X200801286Y-107681073D01*
X200799958Y-107665453D01*
X200797884Y-107649937D01*
X200795071Y-107634553D01*
X200791526Y-107619329D01*
X200787257Y-107604292D01*
X200782269Y-107589470D01*
X200776571Y-107574891D01*
X200770170Y-107560582D01*
X200763072Y-107546570D01*
X200755285Y-107532884D01*
X200746816Y-107519551D01*
X200737672Y-107506599D01*
X200727860Y-107494056D01*
X200717388Y-107481948D01*
X200706262Y-107470304D01*
X200694490Y-107459152D01*
X200682078Y-107448518D01*
X200669034Y-107438431D01*
X200655365Y-107428918D01*
X200641078Y-107420007D01*
X200631908Y-107414795D01*
X200622645Y-107409908D01*
X200613295Y-107405345D01*
X200603866Y-107401104D01*
X200594364Y-107397184D01*
X200584795Y-107393583D01*
X200575168Y-107390299D01*
X200565488Y-107387330D01*
X200555762Y-107384676D01*
X200545998Y-107382333D01*
X200536202Y-107380301D01*
X200526380Y-107378578D01*
X200516541Y-107377162D01*
X200506689Y-107376052D01*
X200496833Y-107375245D01*
X200486979Y-107374740D01*
X200465340Y-107374684D01*
X200443814Y-107376063D01*
X200422472Y-107378857D01*
X200401386Y-107383048D01*
X200380629Y-107388617D01*
X200360271Y-107395545D01*
X200340386Y-107403814D01*
X200321043Y-107413404D01*
X200302317Y-107424297D01*
X200284277Y-107436475D01*
X200266996Y-107449917D01*
X200250546Y-107464606D01*
X200234999Y-107480523D01*
X200220426Y-107497649D01*
X200206899Y-107515965D01*
X200194490Y-107535452D01*
X198041650Y-111188254D01*
X198033467Y-111202970D01*
X198026116Y-111217914D01*
X198019590Y-111233058D01*
X198013881Y-111248373D01*
X198008982Y-111263834D01*
X198004887Y-111279410D01*
X198001588Y-111295076D01*
X197999077Y-111310804D01*
X197997349Y-111326565D01*
X197996395Y-111342333D01*
X197996209Y-111358079D01*
X193045037Y-111358079D01*
X192930128Y-111269696D01*
X192814259Y-111175033D01*
X192703056Y-111080499D01*
X192596231Y-110985302D01*
X192493497Y-110888649D01*
X192394564Y-110789747D01*
X192299146Y-110687804D01*
X192231164Y-110609804D01*
X196472789Y-110609804D01*
X196473363Y-110625501D01*
X196474691Y-110641121D01*
X196476764Y-110656637D01*
X196479577Y-110672021D01*
X196483122Y-110687245D01*
X196487392Y-110702282D01*
X196492379Y-110717104D01*
X196498077Y-110731683D01*
X196504479Y-110745992D01*
X196511576Y-110760004D01*
X196519363Y-110773689D01*
X196527832Y-110787022D01*
X196536976Y-110799974D01*
X196546788Y-110812518D01*
X196557261Y-110824625D01*
X196568387Y-110836269D01*
X196580159Y-110847422D01*
X196592571Y-110858055D01*
X196605615Y-110868142D01*
X196619284Y-110877655D01*
X196633571Y-110886566D01*
X196648287Y-110894748D01*
X196663231Y-110902098D01*
X196678374Y-110908623D01*
X196693690Y-110914330D01*
X196709150Y-110919227D01*
X196724726Y-110923319D01*
X196740392Y-110926615D01*
X196756119Y-110929122D01*
X196771881Y-110930847D01*
X196787648Y-110931797D01*
X196803394Y-110931979D01*
X196819091Y-110931401D01*
X196834711Y-110930068D01*
X196850227Y-110927990D01*
X196865611Y-110925173D01*
X196880835Y-110921623D01*
X196895872Y-110917349D01*
X196910694Y-110912357D01*
X196925273Y-110906654D01*
X196939583Y-110900248D01*
X196953594Y-110893146D01*
X196967280Y-110885355D01*
X196980613Y-110876882D01*
X196993565Y-110867734D01*
X197006109Y-110857918D01*
X197018217Y-110847443D01*
X197029861Y-110836314D01*
X197041014Y-110824539D01*
X197051647Y-110812125D01*
X197061735Y-110799079D01*
X197071248Y-110785409D01*
X197080159Y-110771121D01*
X199232998Y-107118219D01*
X199241181Y-107103502D01*
X199248532Y-107088558D01*
X199255059Y-107073414D01*
X199260767Y-107058098D01*
X199265666Y-107042638D01*
X199269761Y-107027061D01*
X199273061Y-107011395D01*
X199275571Y-106995667D01*
X199277299Y-106979906D01*
X199278253Y-106964138D01*
X199278439Y-106948392D01*
X199277865Y-106932696D01*
X199276537Y-106917075D01*
X199274463Y-106901560D01*
X199271651Y-106886176D01*
X199268106Y-106870952D01*
X199263836Y-106855915D01*
X199258849Y-106841093D01*
X199253151Y-106826513D01*
X199246749Y-106812204D01*
X199239651Y-106798193D01*
X199231864Y-106784507D01*
X199223395Y-106771174D01*
X199214252Y-106758223D01*
X199204440Y-106745679D01*
X199193967Y-106733571D01*
X199182841Y-106721928D01*
X199171069Y-106710775D01*
X199158657Y-106700141D01*
X199145613Y-106690054D01*
X199131944Y-106680542D01*
X199117657Y-106671631D01*
X199108487Y-106666420D01*
X199099224Y-106661536D01*
X199089875Y-106656979D01*
X199080445Y-106652745D01*
X199070943Y-106648832D01*
X199061374Y-106645240D01*
X199051747Y-106641965D01*
X199042067Y-106639005D01*
X199032341Y-106636360D01*
X199022577Y-106634027D01*
X199012780Y-106632003D01*
X199002959Y-106630287D01*
X198993119Y-106628878D01*
X198983268Y-106627772D01*
X198973411Y-106626968D01*
X198963557Y-106626465D01*
X198941918Y-106626408D01*
X198920392Y-106627783D01*
X198899050Y-106630572D01*
X198877964Y-106634757D01*
X198857207Y-106640318D01*
X198836850Y-106647238D01*
X198816964Y-106655497D01*
X198797622Y-106665078D01*
X198778896Y-106675962D01*
X198760856Y-106688130D01*
X198743576Y-106701564D01*
X198727126Y-106716246D01*
X198711578Y-106732156D01*
X198697005Y-106749277D01*
X198683478Y-106767589D01*
X198671069Y-106787076D01*
X196518229Y-110439978D01*
X196510047Y-110454695D01*
X196502696Y-110469639D01*
X196496169Y-110484783D01*
X196490460Y-110500099D01*
X196485562Y-110515559D01*
X196481467Y-110531136D01*
X196478167Y-110546802D01*
X196475657Y-110562529D01*
X196473929Y-110578291D01*
X196472975Y-110594058D01*
X196472789Y-110609804D01*
X192231164Y-110609804D01*
X192206955Y-110582028D01*
X192117702Y-110471626D01*
X192031100Y-110355805D01*
X191946861Y-110233773D01*
X191864696Y-110104737D01*
X191784319Y-109967905D01*
X191705440Y-109822484D01*
X191698170Y-109807993D01*
X194976060Y-109807993D01*
X194976638Y-109823690D01*
X194977971Y-109839310D01*
X194980049Y-109854826D01*
X194982867Y-109870210D01*
X194986416Y-109885434D01*
X194990691Y-109900471D01*
X194995683Y-109915292D01*
X195001386Y-109929872D01*
X195007792Y-109944181D01*
X195014894Y-109958192D01*
X195022685Y-109971878D01*
X195031159Y-109985211D01*
X195040306Y-109998163D01*
X195050122Y-110010706D01*
X195060598Y-110022813D01*
X195071726Y-110034457D01*
X195083501Y-110045610D01*
X195095915Y-110056243D01*
X195108961Y-110066330D01*
X195122631Y-110075843D01*
X195136918Y-110084753D01*
X195151635Y-110092935D01*
X195166579Y-110100286D01*
X195181722Y-110106811D01*
X195197038Y-110112518D01*
X195212498Y-110117414D01*
X195228075Y-110121506D01*
X195243740Y-110124803D01*
X195259468Y-110127310D01*
X195275229Y-110129034D01*
X195290996Y-110129984D01*
X195306742Y-110130166D01*
X195322439Y-110129588D01*
X195338059Y-110128256D01*
X195353575Y-110126177D01*
X195368959Y-110123360D01*
X195384183Y-110119810D01*
X195399220Y-110115536D01*
X195414042Y-110110544D01*
X195428622Y-110104841D01*
X195442931Y-110098435D01*
X195456942Y-110091333D01*
X195470628Y-110083542D01*
X195483961Y-110075069D01*
X195496913Y-110065921D01*
X195509457Y-110056106D01*
X195521565Y-110045630D01*
X195533209Y-110034501D01*
X195544362Y-110022726D01*
X195554995Y-110010312D01*
X195565082Y-109997266D01*
X195574595Y-109983596D01*
X195583507Y-109969308D01*
X197736346Y-106316510D01*
X197744529Y-106301793D01*
X197751879Y-106286849D01*
X197758404Y-106271705D01*
X197764111Y-106256389D01*
X197769007Y-106240929D01*
X197773100Y-106225352D01*
X197776396Y-106209686D01*
X197778902Y-106193958D01*
X197780627Y-106178197D01*
X197781577Y-106162429D01*
X197781759Y-106146683D01*
X197781180Y-106130987D01*
X197779848Y-106115366D01*
X197777769Y-106099851D01*
X197774951Y-106084467D01*
X197771402Y-106069243D01*
X197767127Y-106054206D01*
X197762135Y-106039384D01*
X197756432Y-106024805D01*
X197750026Y-106010495D01*
X197742924Y-105996484D01*
X197735133Y-105982798D01*
X197726659Y-105969465D01*
X197717512Y-105956514D01*
X197707697Y-105943970D01*
X197697221Y-105931862D01*
X197686092Y-105920219D01*
X197674317Y-105909066D01*
X197661904Y-105898432D01*
X197648858Y-105888345D01*
X197635188Y-105878833D01*
X197620901Y-105869922D01*
X197611731Y-105864710D01*
X197602468Y-105859823D01*
X197593118Y-105855260D01*
X197583688Y-105851020D01*
X197574186Y-105847100D01*
X197564618Y-105843499D01*
X197554990Y-105840214D01*
X197545310Y-105837246D01*
X197535585Y-105834591D01*
X197525821Y-105832248D01*
X197516024Y-105830216D01*
X197506203Y-105828492D01*
X197496363Y-105827076D01*
X197486511Y-105825964D01*
X197476655Y-105825157D01*
X197466801Y-105824652D01*
X197445162Y-105824595D01*
X197423636Y-105825970D01*
X197402294Y-105828759D01*
X197381208Y-105832944D01*
X197360451Y-105838505D01*
X197340094Y-105845425D01*
X197320208Y-105853684D01*
X197300866Y-105863265D01*
X197282140Y-105874149D01*
X197264100Y-105886317D01*
X197246820Y-105899751D01*
X197230370Y-105914433D01*
X197214822Y-105930343D01*
X197200249Y-105947464D01*
X197186722Y-105965777D01*
X197174313Y-105985263D01*
X195021473Y-109638168D01*
X195013291Y-109652885D01*
X195005941Y-109667829D01*
X194999416Y-109682972D01*
X194993708Y-109698288D01*
X194988812Y-109713748D01*
X194984719Y-109729325D01*
X194981423Y-109744991D01*
X194978916Y-109760718D01*
X194977191Y-109776480D01*
X194976242Y-109792247D01*
X194976060Y-109807993D01*
X191698170Y-109807993D01*
X191627772Y-109667682D01*
X191551028Y-109502706D01*
X191474919Y-109326764D01*
X191474919Y-108979413D01*
X193506147Y-108979413D01*
X193506721Y-108995109D01*
X193508049Y-109010729D01*
X193510123Y-109026245D01*
X193512936Y-109041629D01*
X193516480Y-109056853D01*
X193520750Y-109071890D01*
X193525738Y-109086712D01*
X193531436Y-109101291D01*
X193537837Y-109115600D01*
X193544935Y-109129611D01*
X193552722Y-109143297D01*
X193561191Y-109156630D01*
X193570335Y-109169582D01*
X193580147Y-109182125D01*
X193590619Y-109194233D01*
X193601745Y-109205877D01*
X193613518Y-109217029D01*
X193625930Y-109227663D01*
X193638973Y-109237750D01*
X193652642Y-109247263D01*
X193666929Y-109256173D01*
X193681646Y-109264356D01*
X193696590Y-109271707D01*
X193711734Y-109278233D01*
X193727049Y-109283942D01*
X193742509Y-109288841D01*
X193758086Y-109292936D01*
X193773752Y-109296236D01*
X193789480Y-109298746D01*
X193805241Y-109300475D01*
X193821008Y-109301429D01*
X193836754Y-109301615D01*
X193852451Y-109301041D01*
X193868072Y-109299713D01*
X193883587Y-109297640D01*
X193898971Y-109294827D01*
X193914195Y-109291282D01*
X193929232Y-109287013D01*
X193944054Y-109282026D01*
X193958634Y-109276328D01*
X193972943Y-109269926D01*
X193986954Y-109262829D01*
X194000640Y-109255042D01*
X194013973Y-109246573D01*
X194026925Y-109237429D01*
X194039469Y-109227617D01*
X194051576Y-109217144D01*
X194063220Y-109206018D01*
X194074373Y-109194246D01*
X194085007Y-109181833D01*
X194095094Y-109168789D01*
X194104607Y-109155120D01*
X194113518Y-109140832D01*
X196266359Y-105487930D01*
X196274541Y-105473213D01*
X196281891Y-105458269D01*
X196288416Y-105443125D01*
X196294123Y-105427809D01*
X196299020Y-105412349D01*
X196303112Y-105396772D01*
X196306408Y-105381106D01*
X196308915Y-105365379D01*
X196310640Y-105349617D01*
X196311589Y-105333850D01*
X196311771Y-105318104D01*
X196311192Y-105302407D01*
X196309860Y-105286787D01*
X196307782Y-105271271D01*
X196304964Y-105255887D01*
X196301414Y-105240663D01*
X196297140Y-105225626D01*
X196292147Y-105210804D01*
X196286445Y-105196225D01*
X196280038Y-105181916D01*
X196272936Y-105167904D01*
X196265145Y-105154218D01*
X196256672Y-105140886D01*
X196247524Y-105127934D01*
X196237709Y-105115390D01*
X196227233Y-105103283D01*
X196216105Y-105091639D01*
X196204330Y-105080486D01*
X196191916Y-105069853D01*
X196178871Y-105059766D01*
X196165201Y-105050253D01*
X196150914Y-105041342D01*
X196141745Y-105036129D01*
X196132485Y-105031242D01*
X196123140Y-105026679D01*
X196113717Y-105022438D01*
X196104223Y-105018518D01*
X196094663Y-105014917D01*
X196085045Y-105011632D01*
X196075375Y-105008664D01*
X196065659Y-105006009D01*
X196055904Y-105003666D01*
X196046116Y-105001634D01*
X196036303Y-104999911D01*
X196026470Y-104998494D01*
X196016623Y-104997384D01*
X196006770Y-104996577D01*
X195996917Y-104996072D01*
X195975277Y-104996016D01*
X195953747Y-104997395D01*
X195932401Y-105000189D01*
X195911308Y-105004380D01*
X195890543Y-105009950D01*
X195870177Y-105016878D01*
X195850283Y-105025147D01*
X195830931Y-105034738D01*
X195812195Y-105045631D01*
X195794146Y-105057809D01*
X195776856Y-105071251D01*
X195760399Y-105085941D01*
X195744845Y-105101858D01*
X195730266Y-105118984D01*
X195716736Y-105137300D01*
X195704326Y-105156787D01*
X193551588Y-108809588D01*
X193543405Y-108824305D01*
X193536054Y-108839249D01*
X193529528Y-108854393D01*
X193523819Y-108869708D01*
X193518920Y-108885168D01*
X193514825Y-108900745D01*
X193511525Y-108916411D01*
X193509015Y-108932138D01*
X193507287Y-108947899D01*
X193506333Y-108963667D01*
X193506147Y-108979413D01*
X191474919Y-108979413D01*
X191474919Y-108150936D01*
X192062852Y-108150936D01*
X192063431Y-108166633D01*
X192064763Y-108182253D01*
X192066842Y-108197769D01*
X192069660Y-108213152D01*
X192073210Y-108228377D01*
X192077484Y-108243413D01*
X192082476Y-108258235D01*
X192088179Y-108272815D01*
X192094585Y-108287124D01*
X192101688Y-108301135D01*
X192109479Y-108314821D01*
X192117952Y-108328154D01*
X192127100Y-108341106D01*
X192136915Y-108353649D01*
X192147391Y-108365757D01*
X192158519Y-108377401D01*
X192170294Y-108388553D01*
X192182708Y-108399187D01*
X192195753Y-108409274D01*
X192209423Y-108418787D01*
X192223710Y-108427698D01*
X192238427Y-108435880D01*
X192253371Y-108443231D01*
X192268515Y-108449757D01*
X192283830Y-108455466D01*
X192299290Y-108460365D01*
X192314867Y-108464460D01*
X192330533Y-108467760D01*
X192346260Y-108470270D01*
X192362021Y-108471999D01*
X192377789Y-108472953D01*
X192393535Y-108473139D01*
X192409231Y-108472565D01*
X192424852Y-108471238D01*
X192440367Y-108469164D01*
X192455751Y-108466351D01*
X192470975Y-108462806D01*
X192486012Y-108458537D01*
X192500834Y-108453550D01*
X192515413Y-108447852D01*
X192529723Y-108441451D01*
X192543734Y-108434353D01*
X192557420Y-108426566D01*
X192570753Y-108418097D01*
X192583705Y-108408953D01*
X192596249Y-108399141D01*
X192608356Y-108388668D01*
X192620000Y-108377542D01*
X192631153Y-108365770D01*
X192641787Y-108353358D01*
X192651874Y-108340313D01*
X192661387Y-108326644D01*
X192670299Y-108312356D01*
X194823036Y-104659454D01*
X194831219Y-104644737D01*
X194838569Y-104629793D01*
X194845096Y-104614649D01*
X194850805Y-104599333D01*
X194855703Y-104583873D01*
X194859798Y-104568296D01*
X194863098Y-104552630D01*
X194865608Y-104536903D01*
X194867336Y-104521141D01*
X194868290Y-104505374D01*
X194868476Y-104489628D01*
X194867902Y-104473931D01*
X194866574Y-104458311D01*
X194864500Y-104442795D01*
X194861687Y-104427411D01*
X194860285Y-104421387D01*
X203011968Y-104421387D01*
X203013007Y-104443262D01*
X203015097Y-104465006D01*
X203018227Y-104486582D01*
X203018819Y-104489628D01*
X203022384Y-104507952D01*
X203027557Y-104529078D01*
X203033732Y-104549922D01*
X203040899Y-104570446D01*
X203049044Y-104590613D01*
X203058155Y-104610385D01*
X203068221Y-104629725D01*
X203079229Y-104648593D01*
X203091167Y-104666953D01*
X203104023Y-104684767D01*
X203117784Y-104701997D01*
X203132438Y-104718605D01*
X203147973Y-104734553D01*
X203164378Y-104749804D01*
X203181639Y-104764320D01*
X203199744Y-104778063D01*
X203218682Y-104790995D01*
X203238440Y-104803079D01*
X203259006Y-104814276D01*
X204242335Y-105318104D01*
X205849235Y-106141430D01*
X205860156Y-106146683D01*
X205870337Y-106151581D01*
X205891687Y-106160558D01*
X205913245Y-106168373D01*
X205934976Y-106175039D01*
X205956841Y-106180567D01*
X205978801Y-106184971D01*
X206000820Y-106188262D01*
X206022860Y-106190452D01*
X206044882Y-106191554D01*
X206066850Y-106191580D01*
X206088725Y-106190541D01*
X206110469Y-106188451D01*
X206132045Y-106185321D01*
X206153414Y-106181164D01*
X206174540Y-106175992D01*
X206195384Y-106169816D01*
X206215909Y-106162650D01*
X206236076Y-106154505D01*
X206255848Y-106145393D01*
X206275187Y-106135327D01*
X206294056Y-106124319D01*
X206312416Y-106112382D01*
X206330230Y-106099526D01*
X206347460Y-106085765D01*
X206364069Y-106071111D01*
X206380017Y-106055576D01*
X206395268Y-106039172D01*
X206409784Y-106021911D01*
X206423527Y-106003805D01*
X206436460Y-105984867D01*
X206448544Y-105965109D01*
X206459741Y-105944543D01*
X206469892Y-105923441D01*
X206478869Y-105902092D01*
X206486684Y-105880533D01*
X206493350Y-105858802D01*
X206498879Y-105836937D01*
X206503282Y-105814977D01*
X206506573Y-105792957D01*
X206508764Y-105770918D01*
X206509866Y-105748895D01*
X206509891Y-105726928D01*
X206508853Y-105705053D01*
X206506763Y-105683308D01*
X206503633Y-105661733D01*
X206499475Y-105640363D01*
X206494303Y-105619237D01*
X206488127Y-105598393D01*
X206480961Y-105577868D01*
X206472815Y-105557701D01*
X206463704Y-105537929D01*
X206453638Y-105518590D01*
X206442630Y-105499721D01*
X206430692Y-105481361D01*
X206417837Y-105463547D01*
X206404076Y-105446317D01*
X206389421Y-105429708D01*
X206373886Y-105413760D01*
X206357482Y-105398509D01*
X206340221Y-105383993D01*
X206322115Y-105370250D01*
X206303178Y-105357317D01*
X206283420Y-105345233D01*
X206262854Y-105334036D01*
X204444565Y-104402473D01*
X208114682Y-104402473D01*
X208115716Y-104424347D01*
X208117802Y-104446092D01*
X208120927Y-104467667D01*
X208125080Y-104489037D01*
X208130248Y-104510163D01*
X208136418Y-104531007D01*
X208143580Y-104551531D01*
X208151720Y-104571698D01*
X208160827Y-104591471D01*
X208170889Y-104610810D01*
X208181892Y-104629678D01*
X208193826Y-104648038D01*
X208206677Y-104665852D01*
X208220434Y-104683082D01*
X208235085Y-104699690D01*
X208250617Y-104715639D01*
X208267019Y-104730890D01*
X208284277Y-104745405D01*
X208302381Y-104759148D01*
X208321317Y-104772080D01*
X208341074Y-104784164D01*
X208361640Y-104795361D01*
X210179866Y-105726928D01*
X210951973Y-106122516D01*
X210973075Y-106132666D01*
X210994423Y-106141643D01*
X211015981Y-106149459D01*
X211037709Y-106156125D01*
X211059572Y-106161653D01*
X211081530Y-106166057D01*
X211103546Y-106169348D01*
X211125582Y-106171538D01*
X211147601Y-106172640D01*
X211169564Y-106172665D01*
X211191435Y-106171627D01*
X211213175Y-106169537D01*
X211234746Y-106166407D01*
X211256111Y-106162249D01*
X211277232Y-106157077D01*
X211298071Y-106150901D01*
X211318591Y-106143735D01*
X211338753Y-106135590D01*
X211358520Y-106126478D01*
X211377855Y-106116412D01*
X211396719Y-106105404D01*
X211415075Y-106093466D01*
X211432885Y-106080611D01*
X211450111Y-106066850D01*
X211466716Y-106052195D01*
X211482661Y-106036660D01*
X211497909Y-106020256D01*
X211512423Y-106002995D01*
X211526164Y-105984890D01*
X211539095Y-105965952D01*
X211551178Y-105946194D01*
X211562375Y-105925628D01*
X211572525Y-105904526D01*
X211581503Y-105883177D01*
X211589320Y-105861618D01*
X211595987Y-105839887D01*
X211601518Y-105818023D01*
X211605925Y-105796062D01*
X211609219Y-105774043D01*
X211611412Y-105752003D01*
X211612518Y-105729980D01*
X211612548Y-105708013D01*
X211611513Y-105686138D01*
X211609428Y-105664394D01*
X211606302Y-105642818D01*
X211602150Y-105621448D01*
X211596982Y-105600323D01*
X211590811Y-105579479D01*
X211583650Y-105558954D01*
X211575509Y-105538787D01*
X211566402Y-105519015D01*
X211556341Y-105499676D01*
X211545338Y-105480807D01*
X211533404Y-105462447D01*
X211520553Y-105444633D01*
X211506796Y-105427403D01*
X211492145Y-105410795D01*
X211476613Y-105394847D01*
X211460211Y-105379596D01*
X211442953Y-105365080D01*
X211424849Y-105351337D01*
X211405913Y-105338405D01*
X211386156Y-105326321D01*
X211365590Y-105315124D01*
X208775361Y-103988074D01*
X208762203Y-103981590D01*
X208748942Y-103975566D01*
X208735587Y-103969997D01*
X208722147Y-103964882D01*
X208708632Y-103960217D01*
X208695052Y-103956000D01*
X208681416Y-103952228D01*
X208667732Y-103948898D01*
X208654011Y-103946007D01*
X208640262Y-103943553D01*
X208626494Y-103941533D01*
X208612717Y-103939944D01*
X208598939Y-103938784D01*
X208585171Y-103938049D01*
X208571422Y-103937737D01*
X208557700Y-103937845D01*
X208527655Y-103939542D01*
X208497885Y-103943219D01*
X208468487Y-103948845D01*
X208439559Y-103956387D01*
X208411201Y-103965814D01*
X208383509Y-103977095D01*
X208356582Y-103990196D01*
X208330519Y-104005088D01*
X208305416Y-104021738D01*
X208281373Y-104040115D01*
X208258488Y-104060186D01*
X208236858Y-104081920D01*
X208216582Y-104105286D01*
X208197757Y-104130252D01*
X208180482Y-104156786D01*
X208164856Y-104184857D01*
X208154705Y-104205959D01*
X208145727Y-104227308D01*
X208137910Y-104248867D01*
X208131243Y-104270598D01*
X208125712Y-104292463D01*
X208121305Y-104314424D01*
X208118011Y-104336443D01*
X208115817Y-104358482D01*
X208114712Y-104380505D01*
X208114682Y-104402473D01*
X204444565Y-104402473D01*
X203672624Y-104006985D01*
X203659466Y-104000502D01*
X203646204Y-103994478D01*
X203632849Y-103988910D01*
X203619410Y-103983795D01*
X203605895Y-103979131D01*
X203592315Y-103974914D01*
X203578679Y-103971142D01*
X203564995Y-103967812D01*
X203551274Y-103964921D01*
X203537525Y-103962467D01*
X203523757Y-103960447D01*
X203509980Y-103958858D01*
X203496203Y-103957697D01*
X203482434Y-103956962D01*
X203468685Y-103956649D01*
X203454963Y-103956756D01*
X203424918Y-103958454D01*
X203395148Y-103962131D01*
X203365750Y-103967757D01*
X203336823Y-103975299D01*
X203308464Y-103984727D01*
X203280772Y-103996007D01*
X203253846Y-104009109D01*
X203227782Y-104024001D01*
X203202680Y-104040652D01*
X203178637Y-104059028D01*
X203155751Y-104079100D01*
X203134121Y-104100835D01*
X203113844Y-104124201D01*
X203095020Y-104149167D01*
X203077745Y-104175701D01*
X203062118Y-104203772D01*
X203051968Y-104224874D01*
X203042991Y-104246223D01*
X203035175Y-104267782D01*
X203028509Y-104289513D01*
X203022981Y-104311378D01*
X203018577Y-104333338D01*
X203015286Y-104355357D01*
X203013096Y-104377397D01*
X203011994Y-104399420D01*
X203011968Y-104421387D01*
X194860285Y-104421387D01*
X194858143Y-104412187D01*
X194853873Y-104397150D01*
X194848886Y-104382328D01*
X194843188Y-104367749D01*
X194836786Y-104353440D01*
X194829689Y-104339428D01*
X194821902Y-104325743D01*
X194813433Y-104312410D01*
X194804289Y-104299458D01*
X194794477Y-104286914D01*
X194784005Y-104274807D01*
X194772879Y-104263163D01*
X194761106Y-104252010D01*
X194748695Y-104241377D01*
X194735651Y-104231290D01*
X194721982Y-104221777D01*
X194707695Y-104212866D01*
X194698525Y-104207653D01*
X194689262Y-104202766D01*
X194679912Y-104198203D01*
X194670483Y-104193963D01*
X194660980Y-104190042D01*
X194651412Y-104186441D01*
X194641784Y-104183156D01*
X194632104Y-104180188D01*
X194622379Y-104177533D01*
X194612614Y-104175190D01*
X194602818Y-104173158D01*
X194592996Y-104171435D01*
X194583156Y-104170018D01*
X194573304Y-104168908D01*
X194563448Y-104168101D01*
X194553593Y-104167596D01*
X194531955Y-104167539D01*
X194510429Y-104168915D01*
X194489087Y-104171704D01*
X194468002Y-104175888D01*
X194447245Y-104181449D01*
X194426888Y-104188369D01*
X194407002Y-104196629D01*
X194387660Y-104206210D01*
X194368934Y-104217094D01*
X194350894Y-104229262D01*
X194333614Y-104242696D01*
X194317164Y-104257377D01*
X194301616Y-104273288D01*
X194287043Y-104290408D01*
X194273516Y-104308721D01*
X194261107Y-104328207D01*
X192108265Y-107981109D01*
X192100083Y-107995826D01*
X192092733Y-108010770D01*
X192086208Y-108025914D01*
X192080500Y-108041230D01*
X192075604Y-108056690D01*
X192071512Y-108072267D01*
X192068215Y-108087933D01*
X192065709Y-108103661D01*
X192063984Y-108119422D01*
X192063034Y-108135190D01*
X192062852Y-108150936D01*
X191474919Y-108150936D01*
X191474919Y-98635739D01*
X197731074Y-98635739D01*
X197733308Y-98725874D01*
X197739968Y-98815396D01*
X197750993Y-98904156D01*
X197766320Y-98992005D01*
X197785889Y-99078795D01*
X197809637Y-99164376D01*
X197837503Y-99248600D01*
X197869424Y-99331318D01*
X197905341Y-99412380D01*
X197945190Y-99491638D01*
X197988910Y-99568944D01*
X198036439Y-99644147D01*
X198087715Y-99717100D01*
X198142678Y-99787653D01*
X198201265Y-99855658D01*
X198263414Y-99920965D01*
X198328722Y-99983114D01*
X198396727Y-100041701D01*
X198467280Y-100096663D01*
X198540233Y-100147940D01*
X198615436Y-100195469D01*
X198692741Y-100239189D01*
X198771998Y-100279038D01*
X198853058Y-100314954D01*
X198935773Y-100346876D01*
X199019993Y-100374741D01*
X199105570Y-100398489D01*
X199192355Y-100418058D01*
X199280198Y-100433385D01*
X199368951Y-100444409D01*
X199458465Y-100451069D01*
X199548590Y-100453302D01*
X199638709Y-100451071D01*
X199728218Y-100444413D01*
X199816967Y-100433391D01*
X199904807Y-100418065D01*
X199991590Y-100398498D01*
X200077166Y-100374751D01*
X200161387Y-100346886D01*
X200244102Y-100314964D01*
X200325164Y-100279048D01*
X200404423Y-100239199D01*
X200481729Y-100195478D01*
X200556935Y-100147948D01*
X200629890Y-100096670D01*
X200700446Y-100041706D01*
X200768453Y-99983117D01*
X200833763Y-99920965D01*
X200895914Y-99855655D01*
X200954502Y-99787647D01*
X201009466Y-99717091D01*
X201060744Y-99644136D01*
X201108274Y-99568930D01*
X201151994Y-99491622D01*
X201191844Y-99412362D01*
X201227760Y-99331298D01*
X201259681Y-99248580D01*
X201287546Y-99164356D01*
X201311293Y-99078776D01*
X201330861Y-98991988D01*
X201346187Y-98904141D01*
X201357209Y-98815385D01*
X201363867Y-98725868D01*
X201366098Y-98635739D01*
X201363864Y-98545622D01*
X201357204Y-98456116D01*
X201346180Y-98367370D01*
X201330852Y-98279532D01*
X201311284Y-98192752D01*
X201287536Y-98107179D01*
X201259670Y-98022962D01*
X201227748Y-97940249D01*
X201191832Y-97859191D01*
X201151983Y-97779936D01*
X201108263Y-97702632D01*
X201060734Y-97627430D01*
X201009458Y-97554478D01*
X200954495Y-97483925D01*
X200895909Y-97415920D01*
X200833760Y-97350613D01*
X200768452Y-97288465D01*
X200700447Y-97229879D01*
X200629894Y-97174916D01*
X200556941Y-97123640D01*
X200481738Y-97076111D01*
X200404433Y-97032391D01*
X200325176Y-96992542D01*
X200244116Y-96956626D01*
X200161401Y-96924704D01*
X200077180Y-96896839D01*
X199991603Y-96873091D01*
X199904819Y-96853523D01*
X199816975Y-96838196D01*
X199728223Y-96827172D01*
X199638709Y-96820512D01*
X199548584Y-96818280D01*
X199548535Y-96818280D01*
X199455010Y-96820647D01*
X199362712Y-96827667D01*
X199271757Y-96839227D01*
X199182258Y-96855212D01*
X199094329Y-96875507D01*
X199008084Y-96899999D01*
X198923638Y-96928574D01*
X198841106Y-96961117D01*
X198760600Y-96997513D01*
X198682235Y-97037650D01*
X198606127Y-97081413D01*
X198532387Y-97128687D01*
X198461132Y-97179358D01*
X198392474Y-97233313D01*
X198326529Y-97290436D01*
X198263410Y-97350614D01*
X198203232Y-97413733D01*
X198146108Y-97479678D01*
X198092154Y-97548336D01*
X198041482Y-97619591D01*
X197994208Y-97693331D01*
X197950446Y-97769440D01*
X197910309Y-97847804D01*
X197873912Y-97928310D01*
X197841369Y-98010842D01*
X197812794Y-98095288D01*
X197788302Y-98181533D01*
X197768007Y-98269461D01*
X197752022Y-98358961D01*
X197740462Y-98449916D01*
X197733441Y-98542214D01*
X197731074Y-98635739D01*
X191474919Y-98635739D01*
X191474919Y-96390811D01*
X192760112Y-96390811D01*
X192762477Y-96484332D01*
X192769495Y-96576625D01*
X192781052Y-96667577D01*
X192797035Y-96757073D01*
X192817328Y-96844999D01*
X192841818Y-96931241D01*
X192870390Y-97015685D01*
X192902931Y-97098216D01*
X192939326Y-97178720D01*
X192979461Y-97257083D01*
X193023221Y-97333191D01*
X193070494Y-97406930D01*
X193121163Y-97478185D01*
X193175116Y-97546842D01*
X193232238Y-97612788D01*
X193292414Y-97675907D01*
X193355532Y-97736086D01*
X193421475Y-97793210D01*
X193490131Y-97847166D01*
X193561386Y-97897838D01*
X193635124Y-97945114D01*
X193711231Y-97988878D01*
X193789595Y-98029016D01*
X193870100Y-98065415D01*
X193952632Y-98097960D01*
X194037076Y-98126536D01*
X194123320Y-98151031D01*
X194211249Y-98171328D01*
X194300748Y-98187315D01*
X194391703Y-98198877D01*
X194484000Y-98205900D01*
X194577525Y-98208270D01*
X194667659Y-98206040D01*
X194757180Y-98199383D01*
X194845940Y-98188361D01*
X194933789Y-98173037D01*
X195020579Y-98153471D01*
X195106160Y-98129725D01*
X195190385Y-98101862D01*
X195273103Y-98069943D01*
X195354166Y-98034029D01*
X195433426Y-97994182D01*
X195510733Y-97950464D01*
X195585938Y-97902937D01*
X195658892Y-97851663D01*
X195729447Y-97796702D01*
X195797454Y-97738117D01*
X195862764Y-97675970D01*
X195924914Y-97610664D01*
X195983503Y-97542661D01*
X196038467Y-97472109D01*
X196089745Y-97399158D01*
X196137276Y-97323956D01*
X196180998Y-97246653D01*
X196220849Y-97167397D01*
X196256767Y-97086338D01*
X196288691Y-97003624D01*
X196316559Y-96919404D01*
X196340310Y-96833828D01*
X196359880Y-96747044D01*
X196366622Y-96708413D01*
X210924791Y-96708413D01*
X210924791Y-98635739D01*
X210924791Y-99119327D01*
X210925002Y-99127806D01*
X210925629Y-99136168D01*
X210926662Y-99144402D01*
X210928091Y-99152499D01*
X210929907Y-99160448D01*
X210932098Y-99168240D01*
X210934656Y-99175865D01*
X210937569Y-99183313D01*
X210940829Y-99190573D01*
X210944426Y-99197637D01*
X210948348Y-99204493D01*
X210952588Y-99211132D01*
X210957133Y-99217545D01*
X210961975Y-99223720D01*
X210967104Y-99229649D01*
X210972510Y-99235321D01*
X210978182Y-99240726D01*
X210984110Y-99245855D01*
X210990286Y-99250697D01*
X210996699Y-99255243D01*
X211003338Y-99259482D01*
X211010194Y-99263404D01*
X211017258Y-99267000D01*
X211024518Y-99270260D01*
X211031966Y-99273174D01*
X211039590Y-99275731D01*
X211047382Y-99277922D01*
X211055331Y-99279738D01*
X211063428Y-99281167D01*
X211071662Y-99282200D01*
X211080023Y-99282827D01*
X211088502Y-99283038D01*
X213269661Y-99283038D01*
X213269661Y-101464197D01*
X213269877Y-101472676D01*
X213270518Y-101481038D01*
X213271573Y-101489272D01*
X213273033Y-101497369D01*
X213274885Y-101505318D01*
X213277121Y-101513110D01*
X213279728Y-101520735D01*
X213282698Y-101528183D01*
X213286018Y-101535443D01*
X213289679Y-101542507D01*
X213293670Y-101549363D01*
X213297981Y-101556002D01*
X213302600Y-101562415D01*
X213307518Y-101568590D01*
X213312723Y-101574519D01*
X213318206Y-101580191D01*
X213323956Y-101585596D01*
X213329961Y-101590725D01*
X213336213Y-101595567D01*
X213342699Y-101600113D01*
X213349410Y-101604352D01*
X213356334Y-101608274D01*
X213363462Y-101611870D01*
X213370783Y-101615130D01*
X213378286Y-101618044D01*
X213385961Y-101620601D01*
X213393797Y-101622792D01*
X213401783Y-101624608D01*
X213409910Y-101626037D01*
X213418166Y-101627070D01*
X213426541Y-101627697D01*
X213435025Y-101627908D01*
X215846040Y-101627908D01*
X215854520Y-101627697D01*
X215862882Y-101627070D01*
X215871116Y-101626036D01*
X215879213Y-101624607D01*
X215887162Y-101622792D01*
X215894954Y-101620601D01*
X215902579Y-101618043D01*
X215910027Y-101615129D01*
X215917287Y-101611869D01*
X215924351Y-101608273D01*
X215931207Y-101604350D01*
X215937847Y-101600111D01*
X215944259Y-101595565D01*
X215950435Y-101590723D01*
X215956363Y-101585594D01*
X215962035Y-101580189D01*
X215967440Y-101574517D01*
X215972569Y-101568588D01*
X215977411Y-101562412D01*
X215981957Y-101556000D01*
X215986195Y-101549360D01*
X215990118Y-101542504D01*
X215993714Y-101535441D01*
X215996974Y-101528180D01*
X215999888Y-101520733D01*
X216002445Y-101513108D01*
X216004636Y-101505316D01*
X216006451Y-101497367D01*
X216007880Y-101489270D01*
X216008913Y-101481037D01*
X216009540Y-101472675D01*
X216009752Y-101464197D01*
X216009752Y-99283038D01*
X218190910Y-99283038D01*
X218199390Y-99282827D01*
X218207751Y-99282200D01*
X218215986Y-99281166D01*
X218224083Y-99279737D01*
X218232032Y-99277922D01*
X218239824Y-99275731D01*
X218247449Y-99273173D01*
X218254897Y-99270259D01*
X218262157Y-99266999D01*
X218269221Y-99263403D01*
X218276077Y-99259480D01*
X218282716Y-99255241D01*
X218289129Y-99250695D01*
X218295304Y-99245853D01*
X218301233Y-99240724D01*
X218306905Y-99235319D01*
X218312310Y-99229647D01*
X218317439Y-99223718D01*
X218322281Y-99217542D01*
X218326826Y-99211130D01*
X218331065Y-99204490D01*
X218334988Y-99197634D01*
X218338584Y-99190571D01*
X218341843Y-99183310D01*
X218344757Y-99175863D01*
X218347314Y-99168238D01*
X218349506Y-99160446D01*
X218351321Y-99152497D01*
X218352750Y-99144400D01*
X218353783Y-99136167D01*
X218354410Y-99127805D01*
X218354621Y-99119327D01*
X218354621Y-96708413D01*
X218354410Y-96699934D01*
X218353783Y-96691571D01*
X218352750Y-96683336D01*
X218351320Y-96675237D01*
X218349505Y-96667285D01*
X218347314Y-96659491D01*
X218344756Y-96651863D01*
X218341843Y-96644412D01*
X218338583Y-96637147D01*
X218334986Y-96630080D01*
X218331063Y-96623219D01*
X218326824Y-96616576D01*
X218322279Y-96610159D01*
X218317437Y-96603979D01*
X218312308Y-96598045D01*
X218306902Y-96592368D01*
X218301230Y-96586958D01*
X218295302Y-96581825D01*
X218289126Y-96576978D01*
X218282713Y-96572429D01*
X218276074Y-96568185D01*
X218269218Y-96564258D01*
X218262154Y-96560658D01*
X218254894Y-96557395D01*
X218247446Y-96554478D01*
X218239822Y-96551917D01*
X218232030Y-96549723D01*
X218224081Y-96547906D01*
X218215984Y-96546475D01*
X218207750Y-96545441D01*
X218199389Y-96544813D01*
X218190910Y-96544601D01*
X216009752Y-96544601D01*
X216009752Y-94363440D01*
X216009540Y-94354956D01*
X216008913Y-94346581D01*
X216007880Y-94338325D01*
X216006451Y-94330198D01*
X216004636Y-94322212D01*
X216002444Y-94314376D01*
X215999887Y-94306701D01*
X215996973Y-94299198D01*
X215993713Y-94291877D01*
X215990117Y-94284749D01*
X215986194Y-94277825D01*
X215981955Y-94271114D01*
X215977409Y-94264628D01*
X215972567Y-94258377D01*
X215967438Y-94252371D01*
X215962033Y-94246622D01*
X215956361Y-94241139D01*
X215950432Y-94235934D01*
X215944256Y-94231016D01*
X215937844Y-94226397D01*
X215931204Y-94222086D01*
X215924348Y-94218095D01*
X215917285Y-94214434D01*
X215910024Y-94211114D01*
X215902577Y-94208145D01*
X215894952Y-94205537D01*
X215887160Y-94203301D01*
X215879211Y-94201449D01*
X215871114Y-94199990D01*
X215862881Y-94198934D01*
X215854519Y-94198293D01*
X215846040Y-94198077D01*
X213435025Y-94198077D01*
X213426541Y-94198293D01*
X213418166Y-94198934D01*
X213409910Y-94199990D01*
X213401783Y-94201449D01*
X213393797Y-94203301D01*
X213385961Y-94205537D01*
X213378286Y-94208145D01*
X213370783Y-94211114D01*
X213363462Y-94214434D01*
X213356334Y-94218095D01*
X213349410Y-94222086D01*
X213342699Y-94226397D01*
X213336213Y-94231016D01*
X213329961Y-94235934D01*
X213323956Y-94241139D01*
X213318206Y-94246622D01*
X213312723Y-94252371D01*
X213307518Y-94258377D01*
X213302600Y-94264628D01*
X213297981Y-94271114D01*
X213293670Y-94277825D01*
X213289679Y-94284749D01*
X213286018Y-94291877D01*
X213282698Y-94299198D01*
X213279728Y-94306701D01*
X213277121Y-94314376D01*
X213274885Y-94322212D01*
X213273033Y-94330198D01*
X213271573Y-94338325D01*
X213270518Y-94346581D01*
X213269877Y-94354956D01*
X213269661Y-94363440D01*
X213269661Y-96390811D01*
X213269661Y-96544601D01*
X211088502Y-96544601D01*
X211080022Y-96544813D01*
X211071660Y-96545441D01*
X211063426Y-96546475D01*
X211055329Y-96547906D01*
X211047380Y-96549724D01*
X211039588Y-96551918D01*
X211031963Y-96554478D01*
X211024515Y-96557396D01*
X211017255Y-96560659D01*
X211010191Y-96564260D01*
X211003335Y-96568187D01*
X210996696Y-96572430D01*
X210990283Y-96576980D01*
X210984108Y-96581827D01*
X210978179Y-96586961D01*
X210972507Y-96592371D01*
X210967102Y-96598048D01*
X210961973Y-96603981D01*
X210957131Y-96610161D01*
X210952586Y-96616578D01*
X210948347Y-96623222D01*
X210944424Y-96630083D01*
X210940828Y-96637150D01*
X210937568Y-96644414D01*
X210934655Y-96651865D01*
X210932097Y-96659493D01*
X210929906Y-96667287D01*
X210928091Y-96675239D01*
X210926662Y-96683337D01*
X210925629Y-96691572D01*
X210925002Y-96699934D01*
X210924791Y-96708413D01*
X196366622Y-96708413D01*
X196375210Y-96659202D01*
X196386237Y-96570449D01*
X196392899Y-96480936D01*
X196395135Y-96390811D01*
X196392901Y-96300673D01*
X196386241Y-96211147D01*
X196375216Y-96122384D01*
X196359887Y-96034531D01*
X196340317Y-95947738D01*
X196316567Y-95862154D01*
X196288700Y-95777927D01*
X196256776Y-95695207D01*
X196220857Y-95614142D01*
X196181005Y-95534881D01*
X196137283Y-95457573D01*
X196089750Y-95382368D01*
X196038470Y-95309413D01*
X195983504Y-95238859D01*
X195924914Y-95170853D01*
X195862761Y-95105545D01*
X195797449Y-95043396D01*
X195729439Y-94984810D01*
X195658881Y-94929848D01*
X195585924Y-94878573D01*
X195510716Y-94831045D01*
X195433407Y-94787327D01*
X195354146Y-94747480D01*
X195273081Y-94711566D01*
X195190362Y-94679647D01*
X195106137Y-94651784D01*
X195020556Y-94628039D01*
X194933767Y-94608474D01*
X194845920Y-94593151D01*
X194757164Y-94582131D01*
X194667647Y-94575476D01*
X194577547Y-94573249D01*
X194487448Y-94575484D01*
X194397934Y-94582146D01*
X194309181Y-94593173D01*
X194221338Y-94608503D01*
X194134554Y-94628074D01*
X194048977Y-94651824D01*
X193964757Y-94679692D01*
X193882043Y-94711617D01*
X193800984Y-94747535D01*
X193721728Y-94787386D01*
X193644425Y-94831108D01*
X193569223Y-94878639D01*
X193496272Y-94929918D01*
X193425720Y-94984882D01*
X193357717Y-95043470D01*
X193292412Y-95105621D01*
X193230265Y-95170931D01*
X193171681Y-95238937D01*
X193116721Y-95309492D01*
X193065447Y-95382446D01*
X193017920Y-95457651D01*
X192974203Y-95534956D01*
X192934356Y-95614214D01*
X192898443Y-95695276D01*
X192866523Y-95777991D01*
X192838660Y-95862213D01*
X192814914Y-95947790D01*
X192795348Y-96034575D01*
X192780023Y-96122419D01*
X192769001Y-96211172D01*
X192762343Y-96300686D01*
X192760112Y-96390811D01*
X191474919Y-96390811D01*
X191474919Y-69231333D01*
X193105208Y-69231333D01*
X193105208Y-82751541D01*
X193105682Y-82777940D01*
X193107072Y-82804162D01*
X193109323Y-82830185D01*
X193112384Y-82855988D01*
X193116202Y-82881551D01*
X193120723Y-82906853D01*
X193125895Y-82931874D01*
X193131666Y-82956593D01*
X193131666Y-84107530D01*
X193136273Y-84290949D01*
X193149945Y-84471898D01*
X193172464Y-84650156D01*
X193203609Y-84825504D01*
X193243161Y-84997722D01*
X193290900Y-85166589D01*
X193346605Y-85331887D01*
X193410057Y-85493394D01*
X193481037Y-85650893D01*
X193559323Y-85804161D01*
X193644697Y-85952981D01*
X193736939Y-86097132D01*
X193835828Y-86236393D01*
X193941145Y-86370546D01*
X194052670Y-86499371D01*
X194170182Y-86622647D01*
X194293463Y-86740155D01*
X194422293Y-86851675D01*
X194556451Y-86956987D01*
X194695717Y-87055872D01*
X194839872Y-87148109D01*
X194988696Y-87233478D01*
X195141969Y-87311761D01*
X195299471Y-87382737D01*
X195460982Y-87446185D01*
X195626283Y-87501888D01*
X195795153Y-87549623D01*
X195967373Y-87589173D01*
X196142722Y-87620316D01*
X196320982Y-87642833D01*
X196501932Y-87656505D01*
X196685351Y-87661111D01*
X197416263Y-87661111D01*
X213653203Y-87661111D01*
X217344140Y-87661111D01*
X217399510Y-87659720D01*
X217454135Y-87655589D01*
X217507951Y-87648787D01*
X217560889Y-87639379D01*
X217612885Y-87627432D01*
X217663871Y-87613012D01*
X217713781Y-87596185D01*
X217762549Y-87577019D01*
X217810107Y-87555580D01*
X217856390Y-87531934D01*
X217901330Y-87506148D01*
X217944862Y-87478288D01*
X217986918Y-87448421D01*
X218027433Y-87416613D01*
X218066340Y-87382930D01*
X218103572Y-87347440D01*
X218139063Y-87310209D01*
X218172746Y-87271303D01*
X218204555Y-87230788D01*
X218234423Y-87188732D01*
X218262283Y-87145200D01*
X218288071Y-87100260D01*
X218311717Y-87053977D01*
X218333157Y-87006418D01*
X218352324Y-86957650D01*
X218369151Y-86907740D01*
X218383572Y-86856752D01*
X218395520Y-86804755D01*
X218404928Y-86751815D01*
X218411731Y-86697998D01*
X218415862Y-86643370D01*
X218417253Y-86587999D01*
X218417253Y-69456229D01*
X218415862Y-69400866D01*
X218411732Y-69346256D01*
X218404930Y-69292464D01*
X218395523Y-69239556D01*
X218383577Y-69187598D01*
X218369159Y-69136655D01*
X218352334Y-69086794D01*
X218333170Y-69038081D01*
X218311733Y-68990582D01*
X218288090Y-68944362D01*
X218262306Y-68899487D01*
X218234449Y-68856024D01*
X218204585Y-68814038D01*
X218172780Y-68773595D01*
X218139102Y-68734762D01*
X218103615Y-68697603D01*
X218066387Y-68662186D01*
X218027485Y-68628575D01*
X217986975Y-68596837D01*
X217944923Y-68567038D01*
X217901395Y-68539243D01*
X217856459Y-68513520D01*
X217810181Y-68489932D01*
X217762626Y-68468547D01*
X217713863Y-68449431D01*
X217663957Y-68432649D01*
X217612974Y-68418266D01*
X217560982Y-68406351D01*
X217508046Y-68396967D01*
X217454234Y-68390181D01*
X217399611Y-68386059D01*
X217344244Y-68384667D01*
X217344140Y-68384667D01*
X216945715Y-68384667D01*
X197416263Y-68384667D01*
X193951875Y-68384667D01*
X193908175Y-68385764D01*
X193865063Y-68389021D01*
X193822592Y-68394386D01*
X193780814Y-68401807D01*
X193739782Y-68411230D01*
X193699549Y-68422603D01*
X193660166Y-68435875D01*
X193621685Y-68450992D01*
X193584160Y-68467903D01*
X193547643Y-68486555D01*
X193512185Y-68506895D01*
X193477840Y-68528871D01*
X193444660Y-68552431D01*
X193412697Y-68577523D01*
X193382004Y-68604094D01*
X193352632Y-68632091D01*
X193324635Y-68661463D01*
X193298064Y-68692156D01*
X193272972Y-68724119D01*
X193249412Y-68757299D01*
X193227436Y-68791644D01*
X193207096Y-68827102D01*
X193188444Y-68863619D01*
X193171533Y-68901144D01*
X193156416Y-68939624D01*
X193143144Y-68979007D01*
X193131771Y-69019241D01*
X193122348Y-69060273D01*
X193114928Y-69102050D01*
X193109562Y-69144521D01*
X193106305Y-69187633D01*
X193105208Y-69231333D01*
X191474919Y-69231333D01*
X191474919Y-65579463D01*
X191476320Y-65523678D01*
X191480479Y-65468644D01*
X191487329Y-65414427D01*
X191496802Y-65361096D01*
X191508833Y-65308716D01*
X191523353Y-65257355D01*
X191540297Y-65207079D01*
X191559597Y-65157955D01*
X191581187Y-65110051D01*
X191604999Y-65063433D01*
X191630967Y-65018167D01*
X191659024Y-64974322D01*
X191689102Y-64931963D01*
X191721136Y-64891159D01*
X191755057Y-64851974D01*
X191790800Y-64814477D01*
X191828297Y-64778735D01*
X191867482Y-64744813D01*
X191908287Y-64712780D01*
X191950646Y-64682702D01*
X191994491Y-64654645D01*
X192039756Y-64628678D01*
X192086375Y-64604866D01*
X192134279Y-64583276D01*
X192183402Y-64563976D01*
X192233678Y-64547033D01*
X192285039Y-64532512D01*
X192337419Y-64520482D01*
X192390750Y-64511008D01*
X192444966Y-64504159D01*
X192500000Y-64500000D01*
X192555784Y-64498599D01*
X219649633Y-64498599D01*
X219649426Y-64499012D01*
X219705211Y-64500414D01*
X219760245Y-64504572D01*
X219814462Y-64511422D01*
X219867793Y-64520895D01*
X219920173Y-64532926D01*
X219971534Y-64547447D01*
X220021810Y-64564390D01*
X220070934Y-64583690D01*
X220118838Y-64605280D01*
X220165456Y-64629092D01*
X220210722Y-64655060D01*
X220254567Y-64683117D01*
X220296926Y-64713195D01*
X220337731Y-64745228D01*
X220376915Y-64779150D01*
X220414412Y-64814893D01*
X220450154Y-64852390D01*
X220484076Y-64891574D01*
X220516109Y-64932379D01*
X220546187Y-64974738D01*
X220574244Y-65018583D01*
X220600211Y-65063848D01*
X220624023Y-65110466D01*
X220645613Y-65158371D01*
X220664913Y-65207494D01*
X220681856Y-65257770D01*
X220696377Y-65309131D01*
X220708407Y-65361511D01*
X220717881Y-65414842D01*
X220724730Y-65469058D01*
X220728889Y-65524092D01*
X220730290Y-65579877D01*
X220730290Y-69456229D01*
X220730290Y-96708413D01*
G37*
D11*
X170509580Y-85308333D02*
X170557200Y-85260714D01*
X170557200Y-85260714D02*
X170604819Y-85117857D01*
X170604819Y-85117857D02*
X170604819Y-85022619D01*
X170604819Y-85022619D02*
X170557200Y-84879762D01*
X170557200Y-84879762D02*
X170461961Y-84784524D01*
X170461961Y-84784524D02*
X170366723Y-84736905D01*
X170366723Y-84736905D02*
X170176247Y-84689286D01*
X170176247Y-84689286D02*
X170033390Y-84689286D01*
X170033390Y-84689286D02*
X169842914Y-84736905D01*
X169842914Y-84736905D02*
X169747676Y-84784524D01*
X169747676Y-84784524D02*
X169652438Y-84879762D01*
X169652438Y-84879762D02*
X169604819Y-85022619D01*
X169604819Y-85022619D02*
X169604819Y-85117857D01*
X169604819Y-85117857D02*
X169652438Y-85260714D01*
X169652438Y-85260714D02*
X169700057Y-85308333D01*
X169604819Y-86213095D02*
X169604819Y-85736905D01*
X169604819Y-85736905D02*
X170081009Y-85689286D01*
X170081009Y-85689286D02*
X170033390Y-85736905D01*
X170033390Y-85736905D02*
X169985771Y-85832143D01*
X169985771Y-85832143D02*
X169985771Y-86070238D01*
X169985771Y-86070238D02*
X170033390Y-86165476D01*
X170033390Y-86165476D02*
X170081009Y-86213095D01*
X170081009Y-86213095D02*
X170176247Y-86260714D01*
X170176247Y-86260714D02*
X170414342Y-86260714D01*
X170414342Y-86260714D02*
X170509580Y-86213095D01*
X170509580Y-86213095D02*
X170557200Y-86165476D01*
X170557200Y-86165476D02*
X170604819Y-86070238D01*
X170604819Y-86070238D02*
X170604819Y-85832143D01*
X170604819Y-85832143D02*
X170557200Y-85736905D01*
X170557200Y-85736905D02*
X170509580Y-85689286D01*
X170509580Y-76333333D02*
X170557200Y-76285714D01*
X170557200Y-76285714D02*
X170604819Y-76142857D01*
X170604819Y-76142857D02*
X170604819Y-76047619D01*
X170604819Y-76047619D02*
X170557200Y-75904762D01*
X170557200Y-75904762D02*
X170461961Y-75809524D01*
X170461961Y-75809524D02*
X170366723Y-75761905D01*
X170366723Y-75761905D02*
X170176247Y-75714286D01*
X170176247Y-75714286D02*
X170033390Y-75714286D01*
X170033390Y-75714286D02*
X169842914Y-75761905D01*
X169842914Y-75761905D02*
X169747676Y-75809524D01*
X169747676Y-75809524D02*
X169652438Y-75904762D01*
X169652438Y-75904762D02*
X169604819Y-76047619D01*
X169604819Y-76047619D02*
X169604819Y-76142857D01*
X169604819Y-76142857D02*
X169652438Y-76285714D01*
X169652438Y-76285714D02*
X169700057Y-76333333D01*
X169604819Y-76666667D02*
X169604819Y-77333333D01*
X169604819Y-77333333D02*
X170604819Y-76904762D01*
X176709580Y-94308333D02*
X176757200Y-94260714D01*
X176757200Y-94260714D02*
X176804819Y-94117857D01*
X176804819Y-94117857D02*
X176804819Y-94022619D01*
X176804819Y-94022619D02*
X176757200Y-93879762D01*
X176757200Y-93879762D02*
X176661961Y-93784524D01*
X176661961Y-93784524D02*
X176566723Y-93736905D01*
X176566723Y-93736905D02*
X176376247Y-93689286D01*
X176376247Y-93689286D02*
X176233390Y-93689286D01*
X176233390Y-93689286D02*
X176042914Y-93736905D01*
X176042914Y-93736905D02*
X175947676Y-93784524D01*
X175947676Y-93784524D02*
X175852438Y-93879762D01*
X175852438Y-93879762D02*
X175804819Y-94022619D01*
X175804819Y-94022619D02*
X175804819Y-94117857D01*
X175804819Y-94117857D02*
X175852438Y-94260714D01*
X175852438Y-94260714D02*
X175900057Y-94308333D01*
X176138152Y-95165476D02*
X176804819Y-95165476D01*
X175757200Y-94927381D02*
X176471485Y-94689286D01*
X176471485Y-94689286D02*
X176471485Y-95308333D01*
X182704166Y-105284819D02*
X183037499Y-104808628D01*
X183275594Y-105284819D02*
X183275594Y-104284819D01*
X183275594Y-104284819D02*
X182894642Y-104284819D01*
X182894642Y-104284819D02*
X182799404Y-104332438D01*
X182799404Y-104332438D02*
X182751785Y-104380057D01*
X182751785Y-104380057D02*
X182704166Y-104475295D01*
X182704166Y-104475295D02*
X182704166Y-104618152D01*
X182704166Y-104618152D02*
X182751785Y-104713390D01*
X182751785Y-104713390D02*
X182799404Y-104761009D01*
X182799404Y-104761009D02*
X182894642Y-104808628D01*
X182894642Y-104808628D02*
X183275594Y-104808628D01*
X181751785Y-105284819D02*
X182323213Y-105284819D01*
X182037499Y-105284819D02*
X182037499Y-104284819D01*
X182037499Y-104284819D02*
X182132737Y-104427676D01*
X182132737Y-104427676D02*
X182227975Y-104522914D01*
X182227975Y-104522914D02*
X182323213Y-104570533D01*
X176709580Y-102808333D02*
X176757200Y-102760714D01*
X176757200Y-102760714D02*
X176804819Y-102617857D01*
X176804819Y-102617857D02*
X176804819Y-102522619D01*
X176804819Y-102522619D02*
X176757200Y-102379762D01*
X176757200Y-102379762D02*
X176661961Y-102284524D01*
X176661961Y-102284524D02*
X176566723Y-102236905D01*
X176566723Y-102236905D02*
X176376247Y-102189286D01*
X176376247Y-102189286D02*
X176233390Y-102189286D01*
X176233390Y-102189286D02*
X176042914Y-102236905D01*
X176042914Y-102236905D02*
X175947676Y-102284524D01*
X175947676Y-102284524D02*
X175852438Y-102379762D01*
X175852438Y-102379762D02*
X175804819Y-102522619D01*
X175804819Y-102522619D02*
X175804819Y-102617857D01*
X175804819Y-102617857D02*
X175852438Y-102760714D01*
X175852438Y-102760714D02*
X175900057Y-102808333D01*
X175900057Y-103189286D02*
X175852438Y-103236905D01*
X175852438Y-103236905D02*
X175804819Y-103332143D01*
X175804819Y-103332143D02*
X175804819Y-103570238D01*
X175804819Y-103570238D02*
X175852438Y-103665476D01*
X175852438Y-103665476D02*
X175900057Y-103713095D01*
X175900057Y-103713095D02*
X175995295Y-103760714D01*
X175995295Y-103760714D02*
X176090533Y-103760714D01*
X176090533Y-103760714D02*
X176233390Y-103713095D01*
X176233390Y-103713095D02*
X176804819Y-103141667D01*
X176804819Y-103141667D02*
X176804819Y-103760714D01*
X176709580Y-76358333D02*
X176757200Y-76310714D01*
X176757200Y-76310714D02*
X176804819Y-76167857D01*
X176804819Y-76167857D02*
X176804819Y-76072619D01*
X176804819Y-76072619D02*
X176757200Y-75929762D01*
X176757200Y-75929762D02*
X176661961Y-75834524D01*
X176661961Y-75834524D02*
X176566723Y-75786905D01*
X176566723Y-75786905D02*
X176376247Y-75739286D01*
X176376247Y-75739286D02*
X176233390Y-75739286D01*
X176233390Y-75739286D02*
X176042914Y-75786905D01*
X176042914Y-75786905D02*
X175947676Y-75834524D01*
X175947676Y-75834524D02*
X175852438Y-75929762D01*
X175852438Y-75929762D02*
X175804819Y-76072619D01*
X175804819Y-76072619D02*
X175804819Y-76167857D01*
X175804819Y-76167857D02*
X175852438Y-76310714D01*
X175852438Y-76310714D02*
X175900057Y-76358333D01*
X176233390Y-76929762D02*
X176185771Y-76834524D01*
X176185771Y-76834524D02*
X176138152Y-76786905D01*
X176138152Y-76786905D02*
X176042914Y-76739286D01*
X176042914Y-76739286D02*
X175995295Y-76739286D01*
X175995295Y-76739286D02*
X175900057Y-76786905D01*
X175900057Y-76786905D02*
X175852438Y-76834524D01*
X175852438Y-76834524D02*
X175804819Y-76929762D01*
X175804819Y-76929762D02*
X175804819Y-77120238D01*
X175804819Y-77120238D02*
X175852438Y-77215476D01*
X175852438Y-77215476D02*
X175900057Y-77263095D01*
X175900057Y-77263095D02*
X175995295Y-77310714D01*
X175995295Y-77310714D02*
X176042914Y-77310714D01*
X176042914Y-77310714D02*
X176138152Y-77263095D01*
X176138152Y-77263095D02*
X176185771Y-77215476D01*
X176185771Y-77215476D02*
X176233390Y-77120238D01*
X176233390Y-77120238D02*
X176233390Y-76929762D01*
X176233390Y-76929762D02*
X176281009Y-76834524D01*
X176281009Y-76834524D02*
X176328628Y-76786905D01*
X176328628Y-76786905D02*
X176423866Y-76739286D01*
X176423866Y-76739286D02*
X176614342Y-76739286D01*
X176614342Y-76739286D02*
X176709580Y-76786905D01*
X176709580Y-76786905D02*
X176757200Y-76834524D01*
X176757200Y-76834524D02*
X176804819Y-76929762D01*
X176804819Y-76929762D02*
X176804819Y-77120238D01*
X176804819Y-77120238D02*
X176757200Y-77215476D01*
X176757200Y-77215476D02*
X176709580Y-77263095D01*
X176709580Y-77263095D02*
X176614342Y-77310714D01*
X176614342Y-77310714D02*
X176423866Y-77310714D01*
X176423866Y-77310714D02*
X176328628Y-77263095D01*
X176328628Y-77263095D02*
X176281009Y-77215476D01*
X176281009Y-77215476D02*
X176233390Y-77120238D01*
X176709580Y-85308333D02*
X176757200Y-85260714D01*
X176757200Y-85260714D02*
X176804819Y-85117857D01*
X176804819Y-85117857D02*
X176804819Y-85022619D01*
X176804819Y-85022619D02*
X176757200Y-84879762D01*
X176757200Y-84879762D02*
X176661961Y-84784524D01*
X176661961Y-84784524D02*
X176566723Y-84736905D01*
X176566723Y-84736905D02*
X176376247Y-84689286D01*
X176376247Y-84689286D02*
X176233390Y-84689286D01*
X176233390Y-84689286D02*
X176042914Y-84736905D01*
X176042914Y-84736905D02*
X175947676Y-84784524D01*
X175947676Y-84784524D02*
X175852438Y-84879762D01*
X175852438Y-84879762D02*
X175804819Y-85022619D01*
X175804819Y-85022619D02*
X175804819Y-85117857D01*
X175804819Y-85117857D02*
X175852438Y-85260714D01*
X175852438Y-85260714D02*
X175900057Y-85308333D01*
X175804819Y-86165476D02*
X175804819Y-85975000D01*
X175804819Y-85975000D02*
X175852438Y-85879762D01*
X175852438Y-85879762D02*
X175900057Y-85832143D01*
X175900057Y-85832143D02*
X176042914Y-85736905D01*
X176042914Y-85736905D02*
X176233390Y-85689286D01*
X176233390Y-85689286D02*
X176614342Y-85689286D01*
X176614342Y-85689286D02*
X176709580Y-85736905D01*
X176709580Y-85736905D02*
X176757200Y-85784524D01*
X176757200Y-85784524D02*
X176804819Y-85879762D01*
X176804819Y-85879762D02*
X176804819Y-86070238D01*
X176804819Y-86070238D02*
X176757200Y-86165476D01*
X176757200Y-86165476D02*
X176709580Y-86213095D01*
X176709580Y-86213095D02*
X176614342Y-86260714D01*
X176614342Y-86260714D02*
X176376247Y-86260714D01*
X176376247Y-86260714D02*
X176281009Y-86213095D01*
X176281009Y-86213095D02*
X176233390Y-86165476D01*
X176233390Y-86165476D02*
X176185771Y-86070238D01*
X176185771Y-86070238D02*
X176185771Y-85879762D01*
X176185771Y-85879762D02*
X176233390Y-85784524D01*
X176233390Y-85784524D02*
X176281009Y-85736905D01*
X176281009Y-85736905D02*
X176376247Y-85689286D01*
X170509580Y-94283333D02*
X170557200Y-94235714D01*
X170557200Y-94235714D02*
X170604819Y-94092857D01*
X170604819Y-94092857D02*
X170604819Y-93997619D01*
X170604819Y-93997619D02*
X170557200Y-93854762D01*
X170557200Y-93854762D02*
X170461961Y-93759524D01*
X170461961Y-93759524D02*
X170366723Y-93711905D01*
X170366723Y-93711905D02*
X170176247Y-93664286D01*
X170176247Y-93664286D02*
X170033390Y-93664286D01*
X170033390Y-93664286D02*
X169842914Y-93711905D01*
X169842914Y-93711905D02*
X169747676Y-93759524D01*
X169747676Y-93759524D02*
X169652438Y-93854762D01*
X169652438Y-93854762D02*
X169604819Y-93997619D01*
X169604819Y-93997619D02*
X169604819Y-94092857D01*
X169604819Y-94092857D02*
X169652438Y-94235714D01*
X169652438Y-94235714D02*
X169700057Y-94283333D01*
X169604819Y-94616667D02*
X169604819Y-95235714D01*
X169604819Y-95235714D02*
X169985771Y-94902381D01*
X169985771Y-94902381D02*
X169985771Y-95045238D01*
X169985771Y-95045238D02*
X170033390Y-95140476D01*
X170033390Y-95140476D02*
X170081009Y-95188095D01*
X170081009Y-95188095D02*
X170176247Y-95235714D01*
X170176247Y-95235714D02*
X170414342Y-95235714D01*
X170414342Y-95235714D02*
X170509580Y-95188095D01*
X170509580Y-95188095D02*
X170557200Y-95140476D01*
X170557200Y-95140476D02*
X170604819Y-95045238D01*
X170604819Y-95045238D02*
X170604819Y-94759524D01*
X170604819Y-94759524D02*
X170557200Y-94664286D01*
X170557200Y-94664286D02*
X170509580Y-94616667D01*
X170484580Y-102858333D02*
X170532200Y-102810714D01*
X170532200Y-102810714D02*
X170579819Y-102667857D01*
X170579819Y-102667857D02*
X170579819Y-102572619D01*
X170579819Y-102572619D02*
X170532200Y-102429762D01*
X170532200Y-102429762D02*
X170436961Y-102334524D01*
X170436961Y-102334524D02*
X170341723Y-102286905D01*
X170341723Y-102286905D02*
X170151247Y-102239286D01*
X170151247Y-102239286D02*
X170008390Y-102239286D01*
X170008390Y-102239286D02*
X169817914Y-102286905D01*
X169817914Y-102286905D02*
X169722676Y-102334524D01*
X169722676Y-102334524D02*
X169627438Y-102429762D01*
X169627438Y-102429762D02*
X169579819Y-102572619D01*
X169579819Y-102572619D02*
X169579819Y-102667857D01*
X169579819Y-102667857D02*
X169627438Y-102810714D01*
X169627438Y-102810714D02*
X169675057Y-102858333D01*
X170579819Y-103810714D02*
X170579819Y-103239286D01*
X170579819Y-103525000D02*
X169579819Y-103525000D01*
X169579819Y-103525000D02*
X169722676Y-103429762D01*
X169722676Y-103429762D02*
X169817914Y-103334524D01*
X169817914Y-103334524D02*
X169865533Y-103239286D01*
D14*
%TO.C,C5*%
X171090000Y-84763748D02*
X171090000Y-86186252D01*
X172910000Y-84763748D02*
X172910000Y-86186252D01*
%TO.C,C7*%
X171090000Y-75788748D02*
X171090000Y-77211252D01*
X172910000Y-75788748D02*
X172910000Y-77211252D01*
%TO.C,C4*%
X173590000Y-95186252D02*
X173590000Y-93763748D01*
X175410000Y-95186252D02*
X175410000Y-93763748D01*
%TO.C,R1*%
X181810436Y-102090000D02*
X183264564Y-102090000D01*
X181810436Y-103910000D02*
X183264564Y-103910000D01*
%TO.C,C2*%
X173590000Y-103686252D02*
X173590000Y-102263748D01*
X175410000Y-103686252D02*
X175410000Y-102263748D01*
%TO.C,C8*%
X173590000Y-77236252D02*
X173590000Y-75813748D01*
X175410000Y-77236252D02*
X175410000Y-75813748D01*
%TO.C,C6*%
X173590000Y-86186252D02*
X173590000Y-84763748D01*
X175410000Y-86186252D02*
X175410000Y-84763748D01*
%TO.C,C3*%
X171090000Y-93738748D02*
X171090000Y-95161252D01*
X172910000Y-93738748D02*
X172910000Y-95161252D01*
%TO.C,C1*%
X171065000Y-102313748D02*
X171065000Y-103736252D01*
X172885000Y-102313748D02*
X172885000Y-103736252D01*
%TD*%
M02*
