%TF.GenerationSoftware,KiCad,Pcbnew,9.0.1*%
%TF.CreationDate,2025-04-05T14:03:07-06:00*%
%TF.ProjectId,GBDump,47424475-6d70-42e6-9b69-6361645f7063,rev?*%
%TF.SameCoordinates,Original*%
%TF.FileFunction,Paste,Top*%
%TF.FilePolarity,Positive*%
%FSLAX46Y46*%
G04 Gerber Fmt 4.6, Leading zero omitted, Abs format (unit mm)*
G04 Created by KiCad (PCBNEW 9.0.1) date 2025-04-05 14:03:07*
%MOMM*%
%LPD*%
G01*
G04 APERTURE LIST*
G04 Aperture macros list*
%AMRoundRect*
0 Rectangle with rounded corners*
0 $1 Rounding radius*
0 $2 $3 $4 $5 $6 $7 $8 $9 X,Y pos of 4 corners*
0 Add a 4 corners polygon primitive as box body*
4,1,4,$2,$3,$4,$5,$6,$7,$8,$9,$2,$3,0*
0 Add four circle primitives for the rounded corners*
1,1,$1+$1,$2,$3*
1,1,$1+$1,$4,$5*
1,1,$1+$1,$6,$7*
1,1,$1+$1,$8,$9*
0 Add four rect primitives between the rounded corners*
20,1,$1+$1,$2,$3,$4,$5,0*
20,1,$1+$1,$4,$5,$6,$7,0*
20,1,$1+$1,$6,$7,$8,$9,0*
20,1,$1+$1,$8,$9,$2,$3,0*%
G04 Aperture macros list end*
%ADD10RoundRect,0.100000X-0.637500X-0.100000X0.637500X-0.100000X0.637500X0.100000X-0.637500X0.100000X0*%
%ADD11R,1.200000X0.700000*%
%ADD12R,0.800000X1.000000*%
%ADD13R,1.200000X1.000000*%
%ADD14R,2.800000X1.000000*%
%ADD15R,1.900000X1.300000*%
G04 APERTURE END LIST*
D10*
%TO.C,U3*%
X170637500Y-82408333D03*
X170637500Y-83058333D03*
X170637500Y-83708333D03*
X170637500Y-84358333D03*
X170637500Y-85008333D03*
X170637500Y-85658333D03*
X170637500Y-86308333D03*
X170637500Y-86958333D03*
X170637500Y-87608333D03*
X170637500Y-88258333D03*
X176362500Y-88258333D03*
X176362500Y-87608333D03*
X176362500Y-86958333D03*
X176362500Y-86308333D03*
X176362500Y-85658333D03*
X176362500Y-85008333D03*
X176362500Y-84358333D03*
X176362500Y-83708333D03*
X176362500Y-83058333D03*
X176362500Y-82408333D03*
%TD*%
%TO.C,U2*%
X170637500Y-73575000D03*
X170637500Y-74225000D03*
X170637500Y-74875000D03*
X170637500Y-75525000D03*
X170637500Y-76175000D03*
X170637500Y-76825000D03*
X170637500Y-77475000D03*
X170637500Y-78125000D03*
X170637500Y-78775000D03*
X170637500Y-79425000D03*
X176362500Y-79425000D03*
X176362500Y-78775000D03*
X176362500Y-78125000D03*
X176362500Y-77475000D03*
X176362500Y-76825000D03*
X176362500Y-76175000D03*
X176362500Y-75525000D03*
X176362500Y-74875000D03*
X176362500Y-74225000D03*
X176362500Y-73575000D03*
%TD*%
D11*
%TO.C,J2*%
X105225000Y-92275000D03*
X105225000Y-91175000D03*
X105225000Y-90075000D03*
X105225000Y-88975000D03*
X105225000Y-87875000D03*
X105225000Y-86775000D03*
X105225000Y-85675000D03*
X105225000Y-84575000D03*
X105225000Y-83625000D03*
D12*
X94725000Y-82675000D03*
D13*
X100925000Y-82675000D03*
D14*
X90575000Y-82675000D03*
D13*
X105225000Y-93825000D03*
D15*
X90125000Y-96175000D03*
%TD*%
D10*
%TO.C,U6*%
X170637500Y-100075000D03*
X170637500Y-100725000D03*
X170637500Y-101375000D03*
X170637500Y-102025000D03*
X170637500Y-102675000D03*
X170637500Y-103325000D03*
X170637500Y-103975000D03*
X170637500Y-104625000D03*
X170637500Y-105275000D03*
X170637500Y-105925000D03*
X176362500Y-105925000D03*
X176362500Y-105275000D03*
X176362500Y-104625000D03*
X176362500Y-103975000D03*
X176362500Y-103325000D03*
X176362500Y-102675000D03*
X176362500Y-102025000D03*
X176362500Y-101375000D03*
X176362500Y-100725000D03*
X176362500Y-100075000D03*
%TD*%
%TO.C,U4*%
X170637500Y-91241667D03*
X170637500Y-91891667D03*
X170637500Y-92541667D03*
X170637500Y-93191667D03*
X170637500Y-93841667D03*
X170637500Y-94491667D03*
X170637500Y-95141667D03*
X170637500Y-95791667D03*
X170637500Y-96441667D03*
X170637500Y-97091667D03*
X176362500Y-97091667D03*
X176362500Y-96441667D03*
X176362500Y-95791667D03*
X176362500Y-95141667D03*
X176362500Y-94491667D03*
X176362500Y-93841667D03*
X176362500Y-93191667D03*
X176362500Y-92541667D03*
X176362500Y-91891667D03*
X176362500Y-91241667D03*
%TD*%
M02*
