%TF.GenerationSoftware,KiCad,Pcbnew,9.0.1*%
%TF.CreationDate,2025-04-05T14:03:06-06:00*%
%TF.ProjectId,GBDump,47424475-6d70-42e6-9b69-6361645f7063,rev?*%
%TF.SameCoordinates,Original*%
%TF.FileFunction,Copper,L2,Bot*%
%TF.FilePolarity,Positive*%
%FSLAX46Y46*%
G04 Gerber Fmt 4.6, Leading zero omitted, Abs format (unit mm)*
G04 Created by KiCad (PCBNEW 9.0.1) date 2025-04-05 14:03:06*
%MOMM*%
%LPD*%
G01*
G04 APERTURE LIST*
G04 Aperture macros list*
%AMRoundRect*
0 Rectangle with rounded corners*
0 $1 Rounding radius*
0 $2 $3 $4 $5 $6 $7 $8 $9 X,Y pos of 4 corners*
0 Add a 4 corners polygon primitive as box body*
4,1,4,$2,$3,$4,$5,$6,$7,$8,$9,$2,$3,0*
0 Add four circle primitives for the rounded corners*
1,1,$1+$1,$2,$3*
1,1,$1+$1,$4,$5*
1,1,$1+$1,$6,$7*
1,1,$1+$1,$8,$9*
0 Add four rect primitives between the rounded corners*
20,1,$1+$1,$2,$3,$4,$5,0*
20,1,$1+$1,$4,$5,$6,$7,0*
20,1,$1+$1,$6,$7,$8,$9,0*
20,1,$1+$1,$8,$9,$2,$3,0*%
G04 Aperture macros list end*
%TA.AperFunction,ComponentPad*%
%ADD10R,1.700000X1.700000*%
%TD*%
%TA.AperFunction,ComponentPad*%
%ADD11C,1.700000*%
%TD*%
%TA.AperFunction,WasherPad*%
%ADD12C,2.500000*%
%TD*%
%TA.AperFunction,SMDPad,CuDef*%
%ADD13RoundRect,0.250000X-0.650000X0.325000X-0.650000X-0.325000X0.650000X-0.325000X0.650000X0.325000X0*%
%TD*%
%TA.AperFunction,SMDPad,CuDef*%
%ADD14RoundRect,0.250000X0.650000X-0.325000X0.650000X0.325000X-0.650000X0.325000X-0.650000X-0.325000X0*%
%TD*%
%TA.AperFunction,SMDPad,CuDef*%
%ADD15RoundRect,0.250000X-0.312500X-0.625000X0.312500X-0.625000X0.312500X0.625000X-0.312500X0.625000X0*%
%TD*%
%TA.AperFunction,ViaPad*%
%ADD16C,0.600000*%
%TD*%
%TA.AperFunction,Conductor*%
%ADD17C,0.254000*%
%TD*%
G04 APERTURE END LIST*
D10*
%TO.P,J3,1,Pin_1*%
%TO.N,+3.3V*%
X93000000Y-65000000D03*
D11*
%TO.P,J3,2,Pin_2*%
%TO.N,GND*%
X93000000Y-67540000D03*
%TO.P,J3,3,Pin_3*%
%TO.N,SPI2_NSS*%
X93000000Y-70080000D03*
%TO.P,J3,4,Pin_4*%
%TO.N,SPI2_SCK*%
X93000000Y-72620000D03*
%TO.P,J3,5,Pin_5*%
%TO.N,SPI2_MOSI*%
X93000000Y-75160000D03*
%TO.P,J3,6,Pin_6*%
%TO.N,SPI2_MISO*%
X93000000Y-77700000D03*
%TD*%
D10*
%TO.P,U1,1,3V*%
%TO.N,+3.3V*%
X103860000Y-108550000D03*
D11*
%TO.P,U1,2,GND*%
%TO.N,unconnected-(U1-GND-Pad2)*%
X106400000Y-108550000D03*
%TO.P,U1,3,VBAT*%
%TO.N,unconnected-(U1-VBAT-Pad3)*%
X108940000Y-108550000D03*
%TO.P,U1,4,PC13*%
%TO.N,AD13*%
X111480000Y-108550000D03*
%TO.P,U1,5,PC14*%
%TO.N,AD14*%
X114020000Y-108550000D03*
%TO.P,U1,6,PC15*%
%TO.N,AD15*%
X116560000Y-108550000D03*
%TO.P,U1,7,PF0*%
%TO.N,unconnected-(U1-PF0-Pad7)*%
X119100000Y-108550000D03*
%TO.P,U1,8,PF1*%
%TO.N,unconnected-(U1-PF1-Pad8)*%
X121640000Y-108550000D03*
%TO.P,U1,9,GND*%
%TO.N,unconnected-(U1-GND-Pad9)*%
X124180000Y-108550000D03*
%TO.P,U1,10,NRST*%
%TO.N,unconnected-(U1-NRST-Pad10)*%
X126720000Y-108550000D03*
%TO.P,U1,11,PC0*%
%TO.N,AD0*%
X129260000Y-108550000D03*
%TO.P,U1,12,PC1*%
%TO.N,AD1*%
X131800000Y-108550000D03*
%TO.P,U1,13,PC2*%
%TO.N,AD2*%
X134340000Y-108550000D03*
%TO.P,U1,14,PC3*%
%TO.N,AD3*%
X136880000Y-108550000D03*
%TO.P,U1,15,PA0*%
%TO.N,CART_RST*%
X139420000Y-108550000D03*
%TO.P,U1,16,PA1*%
%TO.N,CART_SND*%
X141960000Y-108550000D03*
%TO.P,U1,17,PA2*%
%TO.N,SHIFT_EN*%
X144500000Y-108550000D03*
%TO.P,U1,18,PA3*%
%TO.N,unconnected-(U1-PA3-Pad18)*%
X147040000Y-108550000D03*
%TO.P,U1,19,GND*%
%TO.N,unconnected-(U1-GND-Pad19)*%
X149580000Y-108550000D03*
%TO.P,U1,20,VDD*%
%TO.N,unconnected-(U1-VDD-Pad20)*%
X152120000Y-108550000D03*
%TO.P,U1,21,PA4*%
%TO.N,SPI1_NSS*%
X154660000Y-108550000D03*
%TO.P,U1,22,PA5*%
%TO.N,SPI1_SCK*%
X157200000Y-108550000D03*
%TO.P,U1,23,PA6*%
%TO.N,SPI1_MISO*%
X159740000Y-108550000D03*
%TO.P,U1,24,PA7*%
%TO.N,SPI1_MOSI*%
X162280000Y-108550000D03*
%TO.P,U1,25,PC4*%
%TO.N,AD4*%
X164820000Y-108550000D03*
%TO.P,U1,26,PC5*%
%TO.N,AD5*%
X167360000Y-108550000D03*
%TO.P,U1,27,PB0*%
%TO.N,AD16*%
X169900000Y-108550000D03*
%TO.P,U1,28,PB1*%
%TO.N,AD17*%
X172440000Y-108550000D03*
%TO.P,U1,29,PB2*%
%TO.N,AD18*%
X174980000Y-108550000D03*
%TO.P,U1,30,PB10*%
%TO.N,CART_RD*%
X177520000Y-108550000D03*
%TO.P,U1,31,PB11*%
%TO.N,CART_CS*%
X180060000Y-108550000D03*
%TO.P,U1,32,PB12*%
%TO.N,SPI2_NSS*%
X182600000Y-108550000D03*
%TO.P,U1,33,GND*%
%TO.N,GND*%
X185140000Y-108550000D03*
D10*
%TO.P,U1,34,5V*%
%TO.N,+5V*%
X103860000Y-70450000D03*
D11*
%TO.P,U1,35,GND*%
%TO.N,unconnected-(U1-GND-Pad35)*%
X106400000Y-70450000D03*
%TO.P,U1,36,PB9*%
%TO.N,CART_WR*%
X108940000Y-70450000D03*
%TO.P,U1,37,PB8*%
%TO.N,CART_CLK*%
X111480000Y-70450000D03*
%TO.P,U1,38,VDD*%
%TO.N,unconnected-(U1-VDD-Pad38)*%
X114020000Y-70450000D03*
%TO.P,U1,39,BOOT0*%
%TO.N,unconnected-(U1-BOOT0-Pad39)*%
X116560000Y-70450000D03*
%TO.P,U1,40,PB7*%
%TO.N,AD23*%
X119100000Y-70450000D03*
%TO.P,U1,41,PB6*%
%TO.N,AD22*%
X121640000Y-70450000D03*
%TO.P,U1,42,PB5*%
%TO.N,AD21*%
X124180000Y-70450000D03*
%TO.P,U1,43,PB4*%
%TO.N,AD20*%
X126720000Y-70450000D03*
%TO.P,U1,44,PB3*%
%TO.N,AD19*%
X129260000Y-70450000D03*
%TO.P,U1,45,PD2*%
%TO.N,unconnected-(U1-PD2-Pad45)*%
X131800000Y-70450000D03*
%TO.P,U1,46,PC12*%
%TO.N,AD12*%
X134340000Y-70450000D03*
%TO.P,U1,47,PC11*%
%TO.N,AD11*%
X136880000Y-70450000D03*
%TO.P,U1,48,PC10*%
%TO.N,AD10*%
X139420000Y-70450000D03*
%TO.P,U1,49,PA15*%
%TO.N,unconnected-(U1-PA15-Pad49)*%
X141960000Y-70450000D03*
%TO.P,U1,50,PA14*%
%TO.N,unconnected-(U1-PA14-Pad50)*%
X144500000Y-70450000D03*
%TO.P,U1,51,VDDIO2*%
%TO.N,unconnected-(U1-VDDIO2-Pad51)*%
X147040000Y-70450000D03*
%TO.P,U1,52,VDDA*%
%TO.N,unconnected-(U1-VDDA-Pad52)*%
X149580000Y-70450000D03*
%TO.P,U1,53,PA13*%
%TO.N,unconnected-(U1-PA13-Pad53)*%
X152120000Y-70450000D03*
%TO.P,U1,54,PA12*%
%TO.N,unconnected-(U1-PA12-Pad54)*%
X154660000Y-70450000D03*
%TO.P,U1,55,PA11*%
%TO.N,unconnected-(U1-PA11-Pad55)*%
X157200000Y-70450000D03*
%TO.P,U1,56,PA10*%
%TO.N,unconnected-(U1-PA10-Pad56)*%
X159740000Y-70450000D03*
%TO.P,U1,57,PA9*%
%TO.N,unconnected-(U1-PA9-Pad57)*%
X162280000Y-70450000D03*
%TO.P,U1,58,PA8*%
%TO.N,unconnected-(U1-PA8-Pad58)*%
X164820000Y-70450000D03*
%TO.P,U1,59,PC9*%
%TO.N,AD9*%
X167360000Y-70450000D03*
%TO.P,U1,60,PC8*%
%TO.N,AD8*%
X169900000Y-70450000D03*
%TO.P,U1,61,PC7*%
%TO.N,AD7*%
X172440000Y-70450000D03*
%TO.P,U1,62,PC6*%
%TO.N,AD6*%
X174980000Y-70450000D03*
%TO.P,U1,63,PB15*%
%TO.N,SPI2_MOSI*%
X177520000Y-70450000D03*
%TO.P,U1,64,PB14*%
%TO.N,SPI2_MISO*%
X180060000Y-70450000D03*
%TO.P,U1,65,PB13*%
%TO.N,SPI2_SCK*%
X182600000Y-70450000D03*
%TO.P,U1,66,GND*%
%TO.N,GND*%
X185140000Y-70450000D03*
%TD*%
D12*
%TO.P,U5,*%
%TO.N,*%
X209500000Y-76475000D03*
X209500000Y-102475000D03*
%TD*%
D10*
%TO.P,JP1,1,A*%
%TO.N,+3.3V*%
X98000000Y-65000000D03*
D11*
%TO.P,JP1,2,C*%
%TO.N,V_CART*%
X98000000Y-67540000D03*
%TO.P,JP1,3,B*%
%TO.N,+5V*%
X98000000Y-70080000D03*
%TD*%
D10*
%TO.P,J1,1,Pin_1*%
%TO.N,+3.3V*%
X93000000Y-101000000D03*
D11*
%TO.P,J1,2,Pin_2*%
%TO.N,GND*%
X93000000Y-103540000D03*
%TO.P,J1,3,Pin_3*%
%TO.N,SPI1_NSS*%
X93000000Y-106080000D03*
%TO.P,J1,4,Pin_4*%
%TO.N,SPI1_SCK*%
X93000000Y-108620000D03*
%TO.P,J1,5,Pin_5*%
%TO.N,SPI1_MOSI*%
X93000000Y-111160000D03*
%TO.P,J1,6,Pin_6*%
%TO.N,SPI1_MISO*%
X93000000Y-113700000D03*
%TD*%
D13*
%TO.P,C5,1*%
%TO.N,+3.3V*%
X172000000Y-84000000D03*
%TO.P,C5,2*%
%TO.N,GND*%
X172000000Y-86950000D03*
%TD*%
%TO.P,C7,1*%
%TO.N,+3.3V*%
X172000000Y-75025000D03*
%TO.P,C7,2*%
%TO.N,GND*%
X172000000Y-77975000D03*
%TD*%
D14*
%TO.P,C4,1*%
%TO.N,GND*%
X174500000Y-95950000D03*
%TO.P,C4,2*%
%TO.N,V_CART*%
X174500000Y-93000000D03*
%TD*%
D15*
%TO.P,R1,1*%
%TO.N,SHIFT_EN*%
X181075000Y-103000000D03*
%TO.P,R1,2*%
%TO.N,GND*%
X184000000Y-103000000D03*
%TD*%
D14*
%TO.P,C2,1*%
%TO.N,GND*%
X174500000Y-104450000D03*
%TO.P,C2,2*%
%TO.N,V_CART*%
X174500000Y-101500000D03*
%TD*%
%TO.P,C8,1*%
%TO.N,GND*%
X174500000Y-78000000D03*
%TO.P,C8,2*%
%TO.N,V_CART*%
X174500000Y-75050000D03*
%TD*%
%TO.P,C6,1*%
%TO.N,GND*%
X174500000Y-86950000D03*
%TO.P,C6,2*%
%TO.N,V_CART*%
X174500000Y-84000000D03*
%TD*%
D13*
%TO.P,C3,1*%
%TO.N,+3.3V*%
X172000000Y-92975000D03*
%TO.P,C3,2*%
%TO.N,GND*%
X172000000Y-95925000D03*
%TD*%
%TO.P,C1,1*%
%TO.N,+3.3V*%
X171975000Y-101550000D03*
%TO.P,C1,2*%
%TO.N,GND*%
X171975000Y-104500000D03*
%TD*%
D16*
%TO.N,GND*%
X178000000Y-79500000D03*
X186250000Y-88250000D03*
X97750000Y-106750000D03*
X107750000Y-101750000D03*
X107750000Y-102750000D03*
X185000000Y-79500000D03*
X97750000Y-105750000D03*
X185000000Y-88250000D03*
X186250000Y-79500000D03*
X183500000Y-88250000D03*
X187500000Y-79500000D03*
X190500000Y-89000000D03*
X106750000Y-101750000D03*
X183500000Y-79500000D03*
X177750000Y-97250000D03*
X189500000Y-88250000D03*
X98750000Y-106750000D03*
X106750000Y-102750000D03*
X187500000Y-88250000D03*
X108000000Y-91250000D03*
X177750000Y-105750000D03*
X98750000Y-105750000D03*
X186500000Y-97250000D03*
X106750000Y-86750000D03*
X185000000Y-97250000D03*
X191000000Y-79000000D03*
X177750000Y-88250000D03*
X183250000Y-97250000D03*
%TO.N,+3.3V*%
X172000000Y-74000000D03*
X181500000Y-98500000D03*
X172000000Y-83000000D03*
X181000000Y-72500000D03*
X109500000Y-84250000D03*
X181500000Y-89500000D03*
X172000000Y-92000000D03*
X107000000Y-88750000D03*
X171975000Y-100525000D03*
X181000000Y-81500000D03*
%TO.N,V_CART*%
X188500000Y-82500000D03*
X174500000Y-92000000D03*
X174500000Y-83000000D03*
X174500000Y-74000000D03*
X174500000Y-100500000D03*
X188000000Y-100530000D03*
X188500000Y-68500000D03*
X188500000Y-91696667D03*
X188500000Y-73000000D03*
%TO.N,SPI2_NSS*%
X100000000Y-73000000D03*
%TO.N,SHIFT_EN*%
X181000000Y-105500000D03*
X180500000Y-98000000D03*
X179500000Y-81000000D03*
X180500000Y-89000000D03*
%TO.N,CART_CS*%
X164175000Y-76175000D03*
%TO.N,AD18*%
X168768289Y-95903412D03*
%TO.N,CART_WR*%
X161625000Y-74875000D03*
%TO.N,AD5*%
X169000000Y-83708333D03*
%TO.N,AD2*%
X158000000Y-83000000D03*
%TO.N,AD23*%
X161000000Y-95000000D03*
%TO.N,AD0*%
X156000000Y-83000000D03*
%TO.N,CART_RD*%
X163025000Y-75525000D03*
%TO.N,AD4*%
X169000000Y-82408333D03*
%TO.N,AD19*%
X165000000Y-95000000D03*
%TO.N,AD17*%
X168390055Y-95198471D03*
%TO.N,AD7*%
X167000000Y-79500000D03*
%TO.N,AD20*%
X164000000Y-95000000D03*
%TO.N,AD9*%
X165000000Y-79500000D03*
%TO.N,CART_CLK*%
X158500000Y-73500000D03*
%TO.N,AD3*%
X159000000Y-83000000D03*
%TO.N,AD22*%
X162000000Y-95000000D03*
%TO.N,AD21*%
X163000000Y-95000000D03*
%TO.N,AD16*%
X168000000Y-94500000D03*
%TO.N,AD1*%
X157000000Y-83000000D03*
%TO.N,AD8*%
X166000000Y-79500000D03*
%TO.N,AD6*%
X168000000Y-79500000D03*
%TD*%
D17*
%TO.N,+3.3V*%
X172000000Y-92975000D02*
X172000000Y-92000000D01*
X181000000Y-72500000D02*
X181000000Y-81500000D01*
X107000000Y-88750000D02*
X109500000Y-86250000D01*
X183962000Y-104723842D02*
X181965500Y-102727342D01*
X181500000Y-82000000D02*
X181500000Y-89500000D01*
X181500000Y-89500000D02*
X181500000Y-98500000D01*
X105038000Y-109728000D02*
X183272000Y-109728000D01*
X181000000Y-81500000D02*
X181500000Y-82000000D01*
X171975000Y-101550000D02*
X171975000Y-100525000D01*
X183962000Y-109038000D02*
X183962000Y-104723842D01*
X181965500Y-98965500D02*
X181500000Y-98500000D01*
X172000000Y-75025000D02*
X172000000Y-74000000D01*
X172000000Y-84000000D02*
X172000000Y-83000000D01*
X109500000Y-86250000D02*
X109500000Y-84250000D01*
X103860000Y-108550000D02*
X105038000Y-109728000D01*
X183272000Y-109728000D02*
X183962000Y-109038000D01*
X181965500Y-102727342D02*
X181965500Y-98965500D01*
%TO.N,V_CART*%
X186090000Y-66090000D02*
X99450000Y-66090000D01*
X188000000Y-100530000D02*
X188500000Y-100030000D01*
X188500000Y-100030000D02*
X188500000Y-91696667D01*
X188500000Y-68500000D02*
X186090000Y-66090000D01*
X174500000Y-75050000D02*
X174500000Y-74000000D01*
X188500000Y-73000000D02*
X188500000Y-68500000D01*
X188500000Y-82500000D02*
X188500000Y-73000000D01*
X188500000Y-91696667D02*
X188500000Y-82500000D01*
X174500000Y-93000000D02*
X174500000Y-92000000D01*
X174500000Y-101500000D02*
X174500000Y-100500000D01*
X99450000Y-66090000D02*
X98000000Y-67540000D01*
X174500000Y-84000000D02*
X174500000Y-83000000D01*
%TO.N,SPI2_NSS*%
X178698000Y-69962056D02*
X178698000Y-82698000D01*
X101571734Y-71428266D02*
X101571734Y-68071734D01*
X100000000Y-73000000D02*
X101571734Y-71428266D01*
X170643468Y-68000000D02*
X176735944Y-68000000D01*
X101571734Y-68071734D02*
X102143468Y-67500000D01*
X178698000Y-82698000D02*
X179500000Y-83500000D01*
X179500000Y-83500000D02*
X179500000Y-105450000D01*
X170143468Y-67500000D02*
X170643468Y-68000000D01*
X102143468Y-67500000D02*
X170143468Y-67500000D01*
X179500000Y-105450000D02*
X182600000Y-108550000D01*
X176735944Y-68000000D02*
X178698000Y-69962056D01*
%TO.N,SPI2_SCK*%
X182600000Y-70450000D02*
X179150000Y-67000000D01*
X101811532Y-66545000D02*
X100500000Y-67856532D01*
X171500000Y-67000000D02*
X171045000Y-66545000D01*
X98380000Y-72620000D02*
X93000000Y-72620000D01*
X179150000Y-67000000D02*
X171500000Y-67000000D01*
X100500000Y-67856532D02*
X100500000Y-70500000D01*
X171045000Y-66545000D02*
X101811532Y-66545000D01*
X100500000Y-70500000D02*
X98380000Y-72620000D01*
%TO.N,SPI2_MOSI*%
X170045000Y-68045000D02*
X109495056Y-68045000D01*
X177520000Y-70450000D02*
X175570000Y-68500000D01*
X170500000Y-68500000D02*
X170045000Y-68045000D01*
X107578000Y-69962056D02*
X107578000Y-73422000D01*
X105840000Y-75160000D02*
X93000000Y-75160000D01*
X107578000Y-73422000D02*
X105840000Y-75160000D01*
X109495056Y-68045000D02*
X107578000Y-69962056D01*
X170500000Y-68500000D02*
X175570000Y-68500000D01*
%TO.N,SPI2_MISO*%
X97643467Y-74000000D02*
X101000000Y-70643467D01*
X170500000Y-67000000D02*
X171000000Y-67500000D01*
X102000000Y-67000000D02*
X170500000Y-67000000D01*
X177110000Y-67500000D02*
X180060000Y-70450000D01*
X171000000Y-67500000D02*
X177110000Y-67500000D01*
X91822000Y-76522000D02*
X93000000Y-77700000D01*
X92512056Y-73982000D02*
X91822000Y-74672056D01*
X101000000Y-70643467D02*
X101000000Y-68000000D01*
X97500000Y-74000000D02*
X97643467Y-74000000D01*
X97500000Y-74000000D02*
X97482000Y-73982000D01*
X91822000Y-74672056D02*
X91822000Y-76522000D01*
X101000000Y-68000000D02*
X102000000Y-67000000D01*
X97482000Y-73982000D02*
X92512056Y-73982000D01*
%TO.N,SHIFT_EN*%
X180500000Y-89000000D02*
X180500000Y-82000000D01*
X181000000Y-103075000D02*
X181075000Y-103000000D01*
X180500000Y-82000000D02*
X179500000Y-81000000D01*
X180500000Y-98000000D02*
X180500000Y-98500000D01*
X180500000Y-89000000D02*
X180500000Y-98000000D01*
X181075000Y-99075000D02*
X181075000Y-103000000D01*
X181000000Y-105500000D02*
X181000000Y-103075000D01*
X180500000Y-98500000D02*
X181075000Y-99075000D01*
%TO.N,CART_CS*%
X175143467Y-81000000D02*
X179000000Y-84856533D01*
X163000000Y-77000000D02*
X163000000Y-79000000D01*
X163000000Y-79000000D02*
X165000000Y-81000000D01*
X179000000Y-84856533D02*
X179000000Y-107490000D01*
X179000000Y-107490000D02*
X180060000Y-108550000D01*
X163825000Y-76175000D02*
X163000000Y-77000000D01*
X164175000Y-76175000D02*
X163825000Y-76175000D01*
X165000000Y-81000000D02*
X175143467Y-81000000D01*
%TO.N,AD18*%
X174980000Y-108550000D02*
X174225658Y-108550000D01*
X168768289Y-103092631D02*
X168768289Y-95903412D01*
X174225658Y-108550000D02*
X168768289Y-103092631D01*
%TO.N,CART_WR*%
X138058000Y-69558000D02*
X137000000Y-68500000D01*
X159622000Y-72872000D02*
X139992056Y-72872000D01*
X161625000Y-74875000D02*
X159622000Y-72872000D01*
X139992056Y-72872000D02*
X138058000Y-70937944D01*
X110890000Y-68500000D02*
X108940000Y-70450000D01*
X138058000Y-70937944D02*
X138058000Y-69558000D01*
X137000000Y-68500000D02*
X110890000Y-68500000D01*
%TO.N,AD5*%
X167230289Y-108420289D02*
X167230289Y-85478044D01*
X167230289Y-85478044D02*
X169000000Y-83708333D01*
X167360000Y-108550000D02*
X167230289Y-108420289D01*
%TO.N,AD2*%
X158000000Y-84890000D02*
X158000000Y-83000000D01*
X134340000Y-108550000D02*
X158000000Y-84890000D01*
%TO.N,AD23*%
X161000000Y-83500000D02*
X158500000Y-81000000D01*
X119100000Y-73600000D02*
X119100000Y-70450000D01*
X126500000Y-81000000D02*
X119100000Y-73600000D01*
X161000000Y-95000000D02*
X161000000Y-83500000D01*
X158500000Y-81000000D02*
X126500000Y-81000000D01*
%TO.N,AD0*%
X129260000Y-108550000D02*
X154810000Y-83000000D01*
X154810000Y-83000000D02*
X156000000Y-83000000D01*
%TO.N,CART_RD*%
X178500000Y-85000000D02*
X178500000Y-107570000D01*
X163025000Y-75525000D02*
X162000000Y-76550000D01*
X164500000Y-81500000D02*
X175000000Y-81500000D01*
X162000000Y-79000000D02*
X164500000Y-81500000D01*
X162000000Y-76550000D02*
X162000000Y-79000000D01*
X178500000Y-107570000D02*
X177520000Y-108550000D01*
X175000000Y-81500000D02*
X178500000Y-85000000D01*
%TO.N,AD4*%
X166775289Y-106594711D02*
X166775289Y-84633044D01*
X164820000Y-108550000D02*
X166775289Y-106594711D01*
X166775289Y-84633044D02*
X169000000Y-82408333D01*
%TO.N,AD19*%
X129260000Y-77260000D02*
X129260000Y-70450000D01*
X131000000Y-79000000D02*
X129260000Y-77260000D01*
X160500000Y-79000000D02*
X131000000Y-79000000D01*
X165000000Y-83500000D02*
X160500000Y-79000000D01*
X165000000Y-95000000D02*
X165000000Y-83500000D01*
%TO.N,AD17*%
X168140289Y-104250289D02*
X168140289Y-95448237D01*
X172440000Y-108550000D02*
X168140289Y-104250289D01*
X168140289Y-95448237D02*
X168390055Y-95198471D01*
%TO.N,AD7*%
X167000000Y-75500000D02*
X170500000Y-72000000D01*
X172000000Y-72000000D02*
X172440000Y-71560000D01*
X170500000Y-72000000D02*
X172000000Y-72000000D01*
X172440000Y-71560000D02*
X172440000Y-70450000D01*
X167000000Y-79500000D02*
X167000000Y-75500000D01*
%TO.N,AD20*%
X129500000Y-79500000D02*
X126720000Y-76720000D01*
X160000000Y-79500000D02*
X129500000Y-79500000D01*
X164000000Y-83500000D02*
X160000000Y-79500000D01*
X126720000Y-76720000D02*
X126720000Y-70450000D01*
X164000000Y-95000000D02*
X164000000Y-83500000D01*
%TO.N,AD9*%
X165000000Y-72810000D02*
X167360000Y-70450000D01*
X165000000Y-79500000D02*
X165000000Y-72810000D01*
%TO.N,CART_CLK*%
X112930000Y-69000000D02*
X111480000Y-70450000D01*
X158500000Y-73500000D02*
X138000000Y-73500000D01*
X135518000Y-71018000D02*
X135518000Y-69962056D01*
X135518000Y-69962056D02*
X134555944Y-69000000D01*
X134555944Y-69000000D02*
X112930000Y-69000000D01*
X138000000Y-73500000D02*
X135518000Y-71018000D01*
%TO.N,AD3*%
X136880000Y-108550000D02*
X159000000Y-86430000D01*
X159000000Y-86430000D02*
X159000000Y-83000000D01*
%TO.N,AD22*%
X121640000Y-74640000D02*
X121640000Y-70450000D01*
X127455000Y-80455000D02*
X121640000Y-74640000D01*
X158955000Y-80455000D02*
X127455000Y-80455000D01*
X162000000Y-95000000D02*
X162000000Y-83500000D01*
X162000000Y-83500000D02*
X158955000Y-80455000D01*
%TO.N,AD21*%
X163000000Y-95000000D02*
X163000000Y-83500000D01*
X159500000Y-80000000D02*
X128500000Y-80000000D01*
X163000000Y-83500000D02*
X159500000Y-80000000D01*
X124180000Y-75680000D02*
X124180000Y-70450000D01*
X128500000Y-80000000D02*
X124180000Y-75680000D01*
%TO.N,AD16*%
X169900000Y-108550000D02*
X167685289Y-106335289D01*
X167685289Y-106335289D02*
X167685289Y-94814711D01*
X167685289Y-94814711D02*
X168000000Y-94500000D01*
%TO.N,AD1*%
X131800000Y-108550000D02*
X157000000Y-83350000D01*
X157000000Y-83350000D02*
X157000000Y-83000000D01*
%TO.N,AD8*%
X166000000Y-74350000D02*
X169900000Y-70450000D01*
X166000000Y-79500000D02*
X166000000Y-74350000D01*
%TO.N,AD6*%
X168000000Y-75500000D02*
X171000000Y-72500000D01*
X171000000Y-72500000D02*
X172930000Y-72500000D01*
X168000000Y-79500000D02*
X168000000Y-75500000D01*
X172930000Y-72500000D02*
X174980000Y-70450000D01*
%TD*%
%TA.AperFunction,Conductor*%
%TO.N,GND*%
G36*
X171488653Y-82137043D02*
G01*
X171521320Y-82146005D01*
X171522089Y-82146861D01*
X171523192Y-82147185D01*
X171545360Y-82172769D01*
X171568010Y-82197984D01*
X171568194Y-82199120D01*
X171568947Y-82199989D01*
X171573768Y-82233520D01*
X171579186Y-82266954D01*
X171578727Y-82268007D01*
X171578891Y-82269147D01*
X171564810Y-82299978D01*
X171551300Y-82331017D01*
X171550174Y-82332028D01*
X171549866Y-82332703D01*
X171525044Y-82354602D01*
X171489710Y-82378210D01*
X171378213Y-82489707D01*
X171378210Y-82489711D01*
X171290609Y-82620814D01*
X171290602Y-82620827D01*
X171230264Y-82766498D01*
X171230261Y-82766507D01*
X171210797Y-82864358D01*
X171178411Y-82926268D01*
X171128185Y-82957871D01*
X171030666Y-82990186D01*
X171030663Y-82990187D01*
X170881342Y-83082289D01*
X170757289Y-83206342D01*
X170665187Y-83355663D01*
X170665185Y-83355668D01*
X170650492Y-83400008D01*
X170610001Y-83522203D01*
X170610001Y-83522204D01*
X170610000Y-83522204D01*
X170599500Y-83624983D01*
X170599500Y-84375001D01*
X170599501Y-84375019D01*
X170610000Y-84477796D01*
X170610001Y-84477799D01*
X170665185Y-84644331D01*
X170665187Y-84644336D01*
X170678796Y-84666399D01*
X170757288Y-84793656D01*
X170881344Y-84917712D01*
X171030666Y-85009814D01*
X171197203Y-85064999D01*
X171299991Y-85075500D01*
X172700008Y-85075499D01*
X172802797Y-85064999D01*
X172969334Y-85009814D01*
X173118656Y-84917712D01*
X173162319Y-84874049D01*
X173223642Y-84840564D01*
X173293334Y-84845548D01*
X173337681Y-84874049D01*
X173381344Y-84917712D01*
X173530666Y-85009814D01*
X173697203Y-85064999D01*
X173799991Y-85075500D01*
X175200008Y-85075499D01*
X175302797Y-85064999D01*
X175469334Y-85009814D01*
X175618656Y-84917712D01*
X175742712Y-84793656D01*
X175834814Y-84644334D01*
X175889999Y-84477797D01*
X175900500Y-84375009D01*
X175900499Y-83624992D01*
X175897569Y-83596309D01*
X175910338Y-83527617D01*
X175958219Y-83476733D01*
X176026009Y-83459812D01*
X176092185Y-83482228D01*
X176108608Y-83496027D01*
X177836181Y-85223600D01*
X177869666Y-85284923D01*
X177872500Y-85311281D01*
X177872500Y-107093311D01*
X177852815Y-107160350D01*
X177800011Y-107206105D01*
X177730853Y-107216049D01*
X177729103Y-107215784D01*
X177626287Y-107199500D01*
X177413713Y-107199500D01*
X177372011Y-107206105D01*
X177203760Y-107232753D01*
X177001585Y-107298444D01*
X176812179Y-107394951D01*
X176640213Y-107519890D01*
X176489890Y-107670213D01*
X176364949Y-107842182D01*
X176360484Y-107850946D01*
X176312509Y-107901742D01*
X176244688Y-107918536D01*
X176178553Y-107895998D01*
X176139516Y-107850946D01*
X176135050Y-107842182D01*
X176010109Y-107670213D01*
X175859786Y-107519890D01*
X175687820Y-107394951D01*
X175498414Y-107298444D01*
X175498413Y-107298443D01*
X175498412Y-107298443D01*
X175296243Y-107232754D01*
X175296241Y-107232753D01*
X175296240Y-107232753D01*
X175127989Y-107206105D01*
X175086287Y-107199500D01*
X174873713Y-107199500D01*
X174832011Y-107206105D01*
X174663760Y-107232753D01*
X174461585Y-107298444D01*
X174272181Y-107394950D01*
X174175903Y-107464899D01*
X174110097Y-107488378D01*
X174042043Y-107472552D01*
X174015338Y-107452261D01*
X172349757Y-105786680D01*
X172316272Y-105725357D01*
X172321256Y-105655665D01*
X172363128Y-105599732D01*
X172428592Y-105575315D01*
X172437438Y-105574999D01*
X172674972Y-105574999D01*
X172674986Y-105574998D01*
X172777697Y-105564505D01*
X172944119Y-105509358D01*
X172944124Y-105509356D01*
X173093345Y-105417315D01*
X173174819Y-105335842D01*
X173236142Y-105302357D01*
X173305834Y-105307341D01*
X173350181Y-105335842D01*
X173381654Y-105367315D01*
X173530875Y-105459356D01*
X173530880Y-105459358D01*
X173697302Y-105514505D01*
X173697309Y-105514506D01*
X173800019Y-105524999D01*
X174249999Y-105524999D01*
X174750000Y-105524999D01*
X175199972Y-105524999D01*
X175199986Y-105524998D01*
X175302697Y-105514505D01*
X175469119Y-105459358D01*
X175469124Y-105459356D01*
X175618345Y-105367315D01*
X175742315Y-105243345D01*
X175834356Y-105094124D01*
X175834358Y-105094119D01*
X175889505Y-104927697D01*
X175889506Y-104927690D01*
X175899999Y-104824986D01*
X175900000Y-104824973D01*
X175900000Y-104700000D01*
X174750000Y-104700000D01*
X174750000Y-105524999D01*
X174249999Y-105524999D01*
X174250000Y-105524998D01*
X174250000Y-104700000D01*
X173505000Y-104700000D01*
X173491319Y-104713681D01*
X173429996Y-104747166D01*
X173403638Y-104750000D01*
X172099000Y-104750000D01*
X172031961Y-104730315D01*
X171986206Y-104677511D01*
X171975000Y-104626000D01*
X171975000Y-104500000D01*
X171849000Y-104500000D01*
X171781961Y-104480315D01*
X171736206Y-104427511D01*
X171725000Y-104376000D01*
X171725000Y-103425000D01*
X172225000Y-103425000D01*
X172225000Y-104250000D01*
X172970000Y-104250000D01*
X172983681Y-104236319D01*
X173045004Y-104202834D01*
X173071362Y-104200000D01*
X174250000Y-104200000D01*
X174750000Y-104200000D01*
X175899999Y-104200000D01*
X175899999Y-104075028D01*
X175899998Y-104075013D01*
X175889505Y-103972302D01*
X175834358Y-103805880D01*
X175834356Y-103805875D01*
X175742315Y-103656654D01*
X175618345Y-103532684D01*
X175469124Y-103440643D01*
X175469119Y-103440641D01*
X175302697Y-103385494D01*
X175302690Y-103385493D01*
X175199986Y-103375000D01*
X174750000Y-103375000D01*
X174750000Y-104200000D01*
X174250000Y-104200000D01*
X174250000Y-103375000D01*
X173800028Y-103375000D01*
X173800012Y-103375001D01*
X173697302Y-103385494D01*
X173530880Y-103440641D01*
X173530875Y-103440643D01*
X173381654Y-103532684D01*
X173300179Y-103614158D01*
X173238856Y-103647643D01*
X173169164Y-103642657D01*
X173124818Y-103614157D01*
X173093345Y-103582684D01*
X172944124Y-103490643D01*
X172944119Y-103490641D01*
X172777697Y-103435494D01*
X172777690Y-103435493D01*
X172674986Y-103425000D01*
X172225000Y-103425000D01*
X171725000Y-103425000D01*
X171275028Y-103425000D01*
X171275012Y-103425001D01*
X171172302Y-103435494D01*
X171005880Y-103490641D01*
X171005875Y-103490643D01*
X170856654Y-103582684D01*
X170732682Y-103706656D01*
X170638396Y-103859517D01*
X170586448Y-103906241D01*
X170517485Y-103917462D01*
X170453403Y-103889619D01*
X170445177Y-103882100D01*
X169432108Y-102869031D01*
X169398623Y-102807708D01*
X169395789Y-102781350D01*
X169395789Y-101174983D01*
X170574500Y-101174983D01*
X170574500Y-101925001D01*
X170574501Y-101925019D01*
X170585000Y-102027796D01*
X170585001Y-102027799D01*
X170623618Y-102144336D01*
X170640186Y-102194334D01*
X170732288Y-102343656D01*
X170856344Y-102467712D01*
X171005666Y-102559814D01*
X171172203Y-102614999D01*
X171274991Y-102625500D01*
X172675008Y-102625499D01*
X172777797Y-102614999D01*
X172944334Y-102559814D01*
X173093656Y-102467712D01*
X173174821Y-102386546D01*
X173236140Y-102353064D01*
X173305832Y-102358048D01*
X173350179Y-102386548D01*
X173379693Y-102416061D01*
X173381344Y-102417712D01*
X173530666Y-102509814D01*
X173697203Y-102564999D01*
X173799991Y-102575500D01*
X175200008Y-102575499D01*
X175302797Y-102564999D01*
X175469334Y-102509814D01*
X175618656Y-102417712D01*
X175742712Y-102293656D01*
X175834814Y-102144334D01*
X175889999Y-101977797D01*
X175900500Y-101875009D01*
X175900499Y-101124992D01*
X175889999Y-101022203D01*
X175834814Y-100855666D01*
X175742712Y-100706344D01*
X175618656Y-100582288D01*
X175469334Y-100490186D01*
X175371814Y-100457871D01*
X175314370Y-100418098D01*
X175289202Y-100364357D01*
X175269738Y-100266508D01*
X175269737Y-100266507D01*
X175269737Y-100266503D01*
X175247590Y-100213034D01*
X175209397Y-100120827D01*
X175209390Y-100120814D01*
X175121789Y-99989711D01*
X175121786Y-99989707D01*
X175010292Y-99878213D01*
X175010288Y-99878210D01*
X174879185Y-99790609D01*
X174879172Y-99790602D01*
X174733501Y-99730264D01*
X174733489Y-99730261D01*
X174578845Y-99699500D01*
X174578842Y-99699500D01*
X174421158Y-99699500D01*
X174421155Y-99699500D01*
X174266510Y-99730261D01*
X174266498Y-99730264D01*
X174120827Y-99790602D01*
X174120814Y-99790609D01*
X173989711Y-99878210D01*
X173989707Y-99878213D01*
X173878213Y-99989707D01*
X173878210Y-99989711D01*
X173790609Y-100120814D01*
X173790602Y-100120827D01*
X173730264Y-100266498D01*
X173730261Y-100266507D01*
X173710797Y-100364358D01*
X173678411Y-100426268D01*
X173628185Y-100457871D01*
X173530666Y-100490186D01*
X173530663Y-100490187D01*
X173381342Y-100582289D01*
X173300179Y-100663451D01*
X173238856Y-100696936D01*
X173169164Y-100691950D01*
X173124818Y-100663450D01*
X173093657Y-100632289D01*
X173093656Y-100632288D01*
X172944334Y-100540186D01*
X172852136Y-100509634D01*
X172794693Y-100469862D01*
X172769525Y-100416120D01*
X172759229Y-100364358D01*
X172744737Y-100291503D01*
X172734384Y-100266508D01*
X172684397Y-100145827D01*
X172684390Y-100145814D01*
X172596789Y-100014711D01*
X172596786Y-100014707D01*
X172485292Y-99903213D01*
X172485288Y-99903210D01*
X172354185Y-99815609D01*
X172354172Y-99815602D01*
X172208501Y-99755264D01*
X172208489Y-99755261D01*
X172053845Y-99724500D01*
X172053842Y-99724500D01*
X171896158Y-99724500D01*
X171896155Y-99724500D01*
X171741510Y-99755261D01*
X171741498Y-99755264D01*
X171595827Y-99815602D01*
X171595814Y-99815609D01*
X171464711Y-99903210D01*
X171464707Y-99903213D01*
X171353213Y-100014707D01*
X171353210Y-100014711D01*
X171265609Y-100145814D01*
X171265602Y-100145827D01*
X171205264Y-100291498D01*
X171205261Y-100291508D01*
X171180474Y-100416121D01*
X171148089Y-100478032D01*
X171097862Y-100509635D01*
X171005666Y-100540186D01*
X171005663Y-100540187D01*
X170856342Y-100632289D01*
X170732289Y-100756342D01*
X170640187Y-100905663D01*
X170640186Y-100905666D01*
X170585001Y-101072203D01*
X170585001Y-101072204D01*
X170585000Y-101072204D01*
X170574500Y-101174983D01*
X169395789Y-101174983D01*
X169395789Y-96442768D01*
X169415474Y-96375729D01*
X169416687Y-96373877D01*
X169466060Y-96299986D01*
X170600001Y-96299986D01*
X170610494Y-96402697D01*
X170665641Y-96569119D01*
X170665643Y-96569124D01*
X170757684Y-96718345D01*
X170881654Y-96842315D01*
X171030875Y-96934356D01*
X171030880Y-96934358D01*
X171197302Y-96989505D01*
X171197309Y-96989506D01*
X171300019Y-96999999D01*
X171749999Y-96999999D01*
X172250000Y-96999999D01*
X172699972Y-96999999D01*
X172699986Y-96999998D01*
X172802697Y-96989505D01*
X172969119Y-96934358D01*
X172969124Y-96934356D01*
X173118347Y-96842314D01*
X173149818Y-96810843D01*
X173211140Y-96777357D01*
X173280832Y-96782341D01*
X173325181Y-96810842D01*
X173381654Y-96867315D01*
X173530875Y-96959356D01*
X173530880Y-96959358D01*
X173697302Y-97014505D01*
X173697309Y-97014506D01*
X173800019Y-97024999D01*
X174249999Y-97024999D01*
X174750000Y-97024999D01*
X175199972Y-97024999D01*
X175199986Y-97024998D01*
X175302697Y-97014505D01*
X175469119Y-96959358D01*
X175469124Y-96959356D01*
X175618345Y-96867315D01*
X175742315Y-96743345D01*
X175834356Y-96594124D01*
X175834358Y-96594119D01*
X175889505Y-96427697D01*
X175889506Y-96427690D01*
X175899999Y-96324986D01*
X175900000Y-96324973D01*
X175900000Y-96200000D01*
X174750000Y-96200000D01*
X174750000Y-97024999D01*
X174249999Y-97024999D01*
X174250000Y-97024998D01*
X174250000Y-96200000D01*
X173046362Y-96200000D01*
X172979323Y-96180315D01*
X172972727Y-96175000D01*
X172250000Y-96175000D01*
X172250000Y-96999999D01*
X171749999Y-96999999D01*
X171750000Y-96999998D01*
X171750000Y-96175000D01*
X170600001Y-96175000D01*
X170600001Y-96299986D01*
X169466060Y-96299986D01*
X169477683Y-96282591D01*
X169538026Y-96136909D01*
X169568789Y-95982254D01*
X169568789Y-95824570D01*
X169568789Y-95824567D01*
X169568788Y-95824565D01*
X169557882Y-95769737D01*
X169538026Y-95669915D01*
X169488361Y-95550013D01*
X170600000Y-95550013D01*
X170600000Y-95675000D01*
X171750000Y-95675000D01*
X172250000Y-95675000D01*
X173453638Y-95675000D01*
X173520677Y-95694685D01*
X173527273Y-95700000D01*
X174250000Y-95700000D01*
X174750000Y-95700000D01*
X175899999Y-95700000D01*
X175899999Y-95575028D01*
X175899998Y-95575013D01*
X175889505Y-95472302D01*
X175834358Y-95305880D01*
X175834356Y-95305875D01*
X175742315Y-95156654D01*
X175618345Y-95032684D01*
X175469124Y-94940643D01*
X175469119Y-94940641D01*
X175302697Y-94885494D01*
X175302690Y-94885493D01*
X175199986Y-94875000D01*
X174750000Y-94875000D01*
X174750000Y-95700000D01*
X174250000Y-95700000D01*
X174250000Y-94875000D01*
X173800028Y-94875000D01*
X173800012Y-94875001D01*
X173697302Y-94885494D01*
X173530880Y-94940641D01*
X173530875Y-94940643D01*
X173381656Y-95032683D01*
X173350178Y-95064160D01*
X173288854Y-95097643D01*
X173219162Y-95092657D01*
X173174818Y-95064157D01*
X173118345Y-95007684D01*
X172969124Y-94915643D01*
X172969119Y-94915641D01*
X172802697Y-94860494D01*
X172802690Y-94860493D01*
X172699986Y-94850000D01*
X172250000Y-94850000D01*
X172250000Y-95675000D01*
X171750000Y-95675000D01*
X171750000Y-94850000D01*
X171300028Y-94850000D01*
X171300012Y-94850001D01*
X171197302Y-94860494D01*
X171030880Y-94915641D01*
X171030875Y-94915643D01*
X170881654Y-95007684D01*
X170757684Y-95131654D01*
X170665643Y-95280875D01*
X170665641Y-95280880D01*
X170610494Y-95447302D01*
X170610493Y-95447309D01*
X170600000Y-95550013D01*
X169488361Y-95550013D01*
X169477683Y-95524233D01*
X169477681Y-95524230D01*
X169477679Y-95524226D01*
X169390078Y-95393123D01*
X169390075Y-95393119D01*
X169278585Y-95281629D01*
X169278581Y-95281626D01*
X169278578Y-95281623D01*
X169245661Y-95259628D01*
X169200858Y-95206015D01*
X169190555Y-95156528D01*
X169190555Y-95119626D01*
X169190554Y-95119624D01*
X169173260Y-95032683D01*
X169159792Y-94964974D01*
X169126870Y-94885493D01*
X169099452Y-94819298D01*
X169099445Y-94819285D01*
X169011844Y-94688182D01*
X169011841Y-94688178D01*
X168900347Y-94576684D01*
X168855608Y-94546790D01*
X168810804Y-94493177D01*
X168800500Y-94443688D01*
X168800500Y-94421155D01*
X168800499Y-94421153D01*
X168769738Y-94266510D01*
X168769737Y-94266503D01*
X168769735Y-94266498D01*
X168709397Y-94120827D01*
X168709390Y-94120814D01*
X168621789Y-93989711D01*
X168621786Y-93989707D01*
X168510292Y-93878213D01*
X168510288Y-93878210D01*
X168379185Y-93790609D01*
X168379172Y-93790602D01*
X168233501Y-93730264D01*
X168233489Y-93730261D01*
X168078845Y-93699500D01*
X168078842Y-93699500D01*
X167981789Y-93699500D01*
X167914750Y-93679815D01*
X167868995Y-93627011D01*
X167857789Y-93575500D01*
X167857789Y-92599983D01*
X170599500Y-92599983D01*
X170599500Y-93350001D01*
X170599501Y-93350019D01*
X170610000Y-93452796D01*
X170610001Y-93452799D01*
X170618285Y-93477797D01*
X170665186Y-93619334D01*
X170757288Y-93768656D01*
X170881344Y-93892712D01*
X171030666Y-93984814D01*
X171197203Y-94039999D01*
X171299991Y-94050500D01*
X172700008Y-94050499D01*
X172802797Y-94039999D01*
X172969334Y-93984814D01*
X173118656Y-93892712D01*
X173149818Y-93861550D01*
X173211140Y-93828064D01*
X173280832Y-93833048D01*
X173325181Y-93861549D01*
X173381344Y-93917712D01*
X173530666Y-94009814D01*
X173697203Y-94064999D01*
X173799991Y-94075500D01*
X175200008Y-94075499D01*
X175302797Y-94064999D01*
X175469334Y-94009814D01*
X175618656Y-93917712D01*
X175742712Y-93793656D01*
X175834814Y-93644334D01*
X175889999Y-93477797D01*
X175900500Y-93375009D01*
X175900499Y-92624992D01*
X175889999Y-92522203D01*
X175834814Y-92355666D01*
X175742712Y-92206344D01*
X175618656Y-92082288D01*
X175469334Y-91990186D01*
X175371814Y-91957871D01*
X175314370Y-91918098D01*
X175289202Y-91864357D01*
X175269738Y-91766508D01*
X175269737Y-91766507D01*
X175269737Y-91766503D01*
X175269735Y-91766498D01*
X175209397Y-91620827D01*
X175209390Y-91620814D01*
X175121789Y-91489711D01*
X175121786Y-91489707D01*
X175010292Y-91378213D01*
X175010288Y-91378210D01*
X174879185Y-91290609D01*
X174879172Y-91290602D01*
X174733501Y-91230264D01*
X174733489Y-91230261D01*
X174578845Y-91199500D01*
X174578842Y-91199500D01*
X174421158Y-91199500D01*
X174421155Y-91199500D01*
X174266510Y-91230261D01*
X174266498Y-91230264D01*
X174120827Y-91290602D01*
X174120814Y-91290609D01*
X173989711Y-91378210D01*
X173989707Y-91378213D01*
X173878213Y-91489707D01*
X173878210Y-91489711D01*
X173790609Y-91620814D01*
X173790602Y-91620827D01*
X173730264Y-91766498D01*
X173730261Y-91766507D01*
X173710797Y-91864358D01*
X173678411Y-91926268D01*
X173628185Y-91957871D01*
X173530666Y-91990186D01*
X173530663Y-91990187D01*
X173381342Y-92082289D01*
X173350178Y-92113453D01*
X173288854Y-92146936D01*
X173219162Y-92141950D01*
X173174818Y-92113450D01*
X173118657Y-92057289D01*
X173118656Y-92057288D01*
X172969334Y-91965186D01*
X172866489Y-91931106D01*
X172809045Y-91891334D01*
X172783878Y-91837596D01*
X172769737Y-91766503D01*
X172769735Y-91766498D01*
X172709397Y-91620827D01*
X172709390Y-91620814D01*
X172621789Y-91489711D01*
X172621786Y-91489707D01*
X172510292Y-91378213D01*
X172510288Y-91378210D01*
X172379185Y-91290609D01*
X172379172Y-91290602D01*
X172233501Y-91230264D01*
X172233489Y-91230261D01*
X172078845Y-91199500D01*
X172078842Y-91199500D01*
X171921158Y-91199500D01*
X171921155Y-91199500D01*
X171766510Y-91230261D01*
X171766498Y-91230264D01*
X171620827Y-91290602D01*
X171620814Y-91290609D01*
X171489711Y-91378210D01*
X171489707Y-91378213D01*
X171378213Y-91489707D01*
X171378210Y-91489711D01*
X171290609Y-91620814D01*
X171290602Y-91620827D01*
X171230264Y-91766498D01*
X171230261Y-91766507D01*
X171216121Y-91837594D01*
X171183735Y-91899504D01*
X171133509Y-91931107D01*
X171030666Y-91965186D01*
X171030663Y-91965187D01*
X170881342Y-92057289D01*
X170757289Y-92181342D01*
X170665187Y-92330663D01*
X170665186Y-92330666D01*
X170610001Y-92497203D01*
X170610001Y-92497204D01*
X170610000Y-92497204D01*
X170599500Y-92599983D01*
X167857789Y-92599983D01*
X167857789Y-87324986D01*
X170600001Y-87324986D01*
X170610494Y-87427697D01*
X170665641Y-87594119D01*
X170665643Y-87594124D01*
X170757684Y-87743345D01*
X170881654Y-87867315D01*
X171030875Y-87959356D01*
X171030880Y-87959358D01*
X171197302Y-88014505D01*
X171197309Y-88014506D01*
X171300019Y-88024999D01*
X171749999Y-88024999D01*
X172250000Y-88024999D01*
X172699972Y-88024999D01*
X172699986Y-88024998D01*
X172802697Y-88014505D01*
X172969119Y-87959358D01*
X172969124Y-87959356D01*
X173118345Y-87867315D01*
X173162319Y-87823342D01*
X173223642Y-87789857D01*
X173293334Y-87794841D01*
X173337681Y-87823342D01*
X173381654Y-87867315D01*
X173530875Y-87959356D01*
X173530880Y-87959358D01*
X173697302Y-88014505D01*
X173697309Y-88014506D01*
X173800019Y-88024999D01*
X174249999Y-88024999D01*
X174750000Y-88024999D01*
X175199972Y-88024999D01*
X175199986Y-88024998D01*
X175302697Y-88014505D01*
X175469119Y-87959358D01*
X175469124Y-87959356D01*
X175618345Y-87867315D01*
X175742315Y-87743345D01*
X175834356Y-87594124D01*
X175834358Y-87594119D01*
X175889505Y-87427697D01*
X175889506Y-87427690D01*
X175899999Y-87324986D01*
X175900000Y-87324973D01*
X175900000Y-87200000D01*
X174750000Y-87200000D01*
X174750000Y-88024999D01*
X174249999Y-88024999D01*
X174250000Y-88024998D01*
X174250000Y-87200000D01*
X172250000Y-87200000D01*
X172250000Y-88024999D01*
X171749999Y-88024999D01*
X171750000Y-88024998D01*
X171750000Y-87200000D01*
X170600001Y-87200000D01*
X170600001Y-87324986D01*
X167857789Y-87324986D01*
X167857789Y-86575013D01*
X170600000Y-86575013D01*
X170600000Y-86700000D01*
X171750000Y-86700000D01*
X172250000Y-86700000D01*
X174250000Y-86700000D01*
X174750000Y-86700000D01*
X175899999Y-86700000D01*
X175899999Y-86575028D01*
X175899998Y-86575013D01*
X175889505Y-86472302D01*
X175834358Y-86305880D01*
X175834356Y-86305875D01*
X175742315Y-86156654D01*
X175618345Y-86032684D01*
X175469124Y-85940643D01*
X175469119Y-85940641D01*
X175302697Y-85885494D01*
X175302690Y-85885493D01*
X175199986Y-85875000D01*
X174750000Y-85875000D01*
X174750000Y-86700000D01*
X174250000Y-86700000D01*
X174250000Y-85875000D01*
X173800028Y-85875000D01*
X173800012Y-85875001D01*
X173697302Y-85885494D01*
X173530880Y-85940641D01*
X173530875Y-85940643D01*
X173381654Y-86032684D01*
X173337681Y-86076658D01*
X173276358Y-86110143D01*
X173206666Y-86105159D01*
X173162319Y-86076658D01*
X173118345Y-86032684D01*
X172969124Y-85940643D01*
X172969119Y-85940641D01*
X172802697Y-85885494D01*
X172802690Y-85885493D01*
X172699986Y-85875000D01*
X172250000Y-85875000D01*
X172250000Y-86700000D01*
X171750000Y-86700000D01*
X171750000Y-85875000D01*
X171300028Y-85875000D01*
X171300012Y-85875001D01*
X171197302Y-85885494D01*
X171030880Y-85940641D01*
X171030875Y-85940643D01*
X170881654Y-86032684D01*
X170757684Y-86156654D01*
X170665643Y-86305875D01*
X170665641Y-86305880D01*
X170610494Y-86472302D01*
X170610493Y-86472309D01*
X170600000Y-86575013D01*
X167857789Y-86575013D01*
X167857789Y-85789324D01*
X167877474Y-85722285D01*
X167894103Y-85701647D01*
X169062328Y-84533422D01*
X169123649Y-84499939D01*
X169125648Y-84499522D01*
X169233497Y-84478070D01*
X169379179Y-84417727D01*
X169510289Y-84330122D01*
X169621789Y-84218622D01*
X169709394Y-84087512D01*
X169769737Y-83941830D01*
X169800500Y-83787175D01*
X169800500Y-83629491D01*
X169800500Y-83629488D01*
X169800499Y-83629486D01*
X169782820Y-83540609D01*
X169769737Y-83474836D01*
X169754561Y-83438197D01*
X169709397Y-83329160D01*
X169709390Y-83329147D01*
X169621789Y-83198044D01*
X169621786Y-83198040D01*
X169569760Y-83146014D01*
X169536275Y-83084691D01*
X169541259Y-83014999D01*
X169569760Y-82970652D01*
X169621786Y-82918625D01*
X169621789Y-82918622D01*
X169709394Y-82787512D01*
X169718095Y-82766507D01*
X169769735Y-82641834D01*
X169769737Y-82641830D01*
X169800500Y-82487175D01*
X169800500Y-82329491D01*
X169800500Y-82329488D01*
X169789799Y-82275692D01*
X169796026Y-82206100D01*
X169838889Y-82150923D01*
X169904779Y-82127678D01*
X169911416Y-82127500D01*
X171456153Y-82127500D01*
X171488653Y-82137043D01*
G37*
%TD.AperFunction*%
%TA.AperFunction,Conductor*%
G36*
X176321444Y-71103999D02*
G01*
X176360486Y-71149056D01*
X176364951Y-71157820D01*
X176489890Y-71329786D01*
X176640213Y-71480109D01*
X176812179Y-71605048D01*
X176812181Y-71605049D01*
X176812184Y-71605051D01*
X177001588Y-71701557D01*
X177203757Y-71767246D01*
X177413713Y-71800500D01*
X177413714Y-71800500D01*
X177626286Y-71800500D01*
X177626287Y-71800500D01*
X177836243Y-71767246D01*
X177908183Y-71743870D01*
X177978023Y-71741876D01*
X178037856Y-71777956D01*
X178068684Y-71840657D01*
X178070500Y-71861802D01*
X178070500Y-82740251D01*
X178050815Y-82807290D01*
X177998011Y-82853045D01*
X177928853Y-82862989D01*
X177865297Y-82833964D01*
X177858819Y-82827932D01*
X175543476Y-80512589D01*
X175519954Y-80496873D01*
X175519955Y-80496873D01*
X175516738Y-80494724D01*
X175440700Y-80443917D01*
X175407251Y-80430062D01*
X175399570Y-80426880D01*
X175399566Y-80426878D01*
X175326502Y-80396614D01*
X175326494Y-80396612D01*
X175205274Y-80372500D01*
X175205270Y-80372500D01*
X168543847Y-80372500D01*
X168476808Y-80352815D01*
X168431053Y-80300011D01*
X168421109Y-80230853D01*
X168450134Y-80167297D01*
X168474956Y-80145398D01*
X168510289Y-80121789D01*
X168621786Y-80010292D01*
X168621789Y-80010289D01*
X168709394Y-79879179D01*
X168769737Y-79733497D01*
X168800500Y-79578842D01*
X168800500Y-79421158D01*
X168800500Y-79421155D01*
X168800499Y-79421153D01*
X168769738Y-79266510D01*
X168769737Y-79266503D01*
X168735143Y-79182985D01*
X168709397Y-79120827D01*
X168709390Y-79120814D01*
X168648398Y-79029533D01*
X168627520Y-78962855D01*
X168627500Y-78960642D01*
X168627500Y-78349986D01*
X170600001Y-78349986D01*
X170610494Y-78452697D01*
X170665641Y-78619119D01*
X170665643Y-78619124D01*
X170757684Y-78768345D01*
X170881654Y-78892315D01*
X171030875Y-78984356D01*
X171030880Y-78984358D01*
X171197302Y-79039505D01*
X171197309Y-79039506D01*
X171300019Y-79049999D01*
X171749999Y-79049999D01*
X172250000Y-79049999D01*
X172699972Y-79049999D01*
X172699986Y-79049998D01*
X172802697Y-79039505D01*
X172969119Y-78984358D01*
X172969124Y-78984356D01*
X173118347Y-78892314D01*
X173149818Y-78860843D01*
X173211140Y-78827357D01*
X173280832Y-78832341D01*
X173325181Y-78860842D01*
X173381654Y-78917315D01*
X173530875Y-79009356D01*
X173530880Y-79009358D01*
X173697302Y-79064505D01*
X173697309Y-79064506D01*
X173800019Y-79074999D01*
X174249999Y-79074999D01*
X174750000Y-79074999D01*
X175199972Y-79074999D01*
X175199986Y-79074998D01*
X175302697Y-79064505D01*
X175469119Y-79009358D01*
X175469124Y-79009356D01*
X175618345Y-78917315D01*
X175742315Y-78793345D01*
X175834356Y-78644124D01*
X175834358Y-78644119D01*
X175889505Y-78477697D01*
X175889506Y-78477690D01*
X175899999Y-78374986D01*
X175900000Y-78374973D01*
X175900000Y-78250000D01*
X174750000Y-78250000D01*
X174750000Y-79074999D01*
X174249999Y-79074999D01*
X174250000Y-79074998D01*
X174250000Y-78250000D01*
X173046362Y-78250000D01*
X172979323Y-78230315D01*
X172972727Y-78225000D01*
X172250000Y-78225000D01*
X172250000Y-79049999D01*
X171749999Y-79049999D01*
X171750000Y-79049998D01*
X171750000Y-78225000D01*
X170600001Y-78225000D01*
X170600001Y-78349986D01*
X168627500Y-78349986D01*
X168627500Y-77600013D01*
X170600000Y-77600013D01*
X170600000Y-77725000D01*
X171750000Y-77725000D01*
X172250000Y-77725000D01*
X173453638Y-77725000D01*
X173520677Y-77744685D01*
X173527273Y-77750000D01*
X174250000Y-77750000D01*
X174750000Y-77750000D01*
X175899999Y-77750000D01*
X175899999Y-77625028D01*
X175899998Y-77625013D01*
X175889505Y-77522302D01*
X175834358Y-77355880D01*
X175834356Y-77355875D01*
X175742315Y-77206654D01*
X175618345Y-77082684D01*
X175469124Y-76990643D01*
X175469119Y-76990641D01*
X175302697Y-76935494D01*
X175302690Y-76935493D01*
X175199986Y-76925000D01*
X174750000Y-76925000D01*
X174750000Y-77750000D01*
X174250000Y-77750000D01*
X174250000Y-76925000D01*
X173800028Y-76925000D01*
X173800012Y-76925001D01*
X173697302Y-76935494D01*
X173530880Y-76990641D01*
X173530875Y-76990643D01*
X173381656Y-77082683D01*
X173350178Y-77114160D01*
X173288854Y-77147643D01*
X173219162Y-77142657D01*
X173174818Y-77114157D01*
X173118345Y-77057684D01*
X172969124Y-76965643D01*
X172969119Y-76965641D01*
X172802697Y-76910494D01*
X172802690Y-76910493D01*
X172699986Y-76900000D01*
X172250000Y-76900000D01*
X172250000Y-77725000D01*
X171750000Y-77725000D01*
X171750000Y-76900000D01*
X171300028Y-76900000D01*
X171300012Y-76900001D01*
X171197302Y-76910494D01*
X171030880Y-76965641D01*
X171030875Y-76965643D01*
X170881654Y-77057684D01*
X170757684Y-77181654D01*
X170665643Y-77330875D01*
X170665641Y-77330880D01*
X170610494Y-77497302D01*
X170610493Y-77497309D01*
X170600000Y-77600013D01*
X168627500Y-77600013D01*
X168627500Y-75811281D01*
X168647185Y-75744242D01*
X168663819Y-75723600D01*
X171223600Y-73163819D01*
X171284923Y-73130334D01*
X171311281Y-73127500D01*
X171456153Y-73127500D01*
X171523192Y-73147185D01*
X171568947Y-73199989D01*
X171578891Y-73269147D01*
X171549866Y-73332703D01*
X171525044Y-73354602D01*
X171489710Y-73378210D01*
X171378213Y-73489707D01*
X171378210Y-73489711D01*
X171290609Y-73620814D01*
X171290602Y-73620827D01*
X171230264Y-73766498D01*
X171230261Y-73766508D01*
X171205474Y-73891121D01*
X171173089Y-73953032D01*
X171122862Y-73984635D01*
X171030666Y-74015186D01*
X171030663Y-74015187D01*
X170881342Y-74107289D01*
X170757289Y-74231342D01*
X170665187Y-74380663D01*
X170665185Y-74380668D01*
X170656903Y-74405663D01*
X170610001Y-74547203D01*
X170610001Y-74547204D01*
X170610000Y-74547204D01*
X170599500Y-74649983D01*
X170599500Y-75400001D01*
X170599501Y-75400019D01*
X170610000Y-75502796D01*
X170610001Y-75502799D01*
X170665185Y-75669331D01*
X170665187Y-75669336D01*
X170668989Y-75675500D01*
X170757288Y-75818656D01*
X170881344Y-75942712D01*
X171030666Y-76034814D01*
X171197203Y-76089999D01*
X171299991Y-76100500D01*
X172700008Y-76100499D01*
X172802797Y-76089999D01*
X172969334Y-76034814D01*
X173118656Y-75942712D01*
X173149818Y-75911550D01*
X173211140Y-75878064D01*
X173280832Y-75883048D01*
X173325181Y-75911549D01*
X173381344Y-75967712D01*
X173530666Y-76059814D01*
X173697203Y-76114999D01*
X173799991Y-76125500D01*
X175200008Y-76125499D01*
X175302797Y-76114999D01*
X175469334Y-76059814D01*
X175618656Y-75967712D01*
X175742712Y-75843656D01*
X175834814Y-75694334D01*
X175889999Y-75527797D01*
X175900500Y-75425009D01*
X175900499Y-74674992D01*
X175899098Y-74661280D01*
X175889999Y-74572203D01*
X175889998Y-74572200D01*
X175876843Y-74532500D01*
X175834814Y-74405666D01*
X175742712Y-74256344D01*
X175618656Y-74132288D01*
X175487609Y-74051458D01*
X175469336Y-74040187D01*
X175469335Y-74040186D01*
X175469334Y-74040186D01*
X175382461Y-74011399D01*
X175325016Y-73971626D01*
X175299849Y-73917884D01*
X175269738Y-73766510D01*
X175269738Y-73766508D01*
X175269737Y-73766503D01*
X175256066Y-73733497D01*
X175209397Y-73620827D01*
X175209390Y-73620814D01*
X175121789Y-73489711D01*
X175121786Y-73489707D01*
X175010292Y-73378213D01*
X175010288Y-73378210D01*
X174879185Y-73290609D01*
X174879172Y-73290602D01*
X174733501Y-73230264D01*
X174733489Y-73230261D01*
X174578845Y-73199500D01*
X174578842Y-73199500D01*
X174421158Y-73199500D01*
X174421155Y-73199500D01*
X174266510Y-73230261D01*
X174266498Y-73230264D01*
X174120827Y-73290602D01*
X174120814Y-73290609D01*
X173989711Y-73378210D01*
X173989707Y-73378213D01*
X173878213Y-73489707D01*
X173878210Y-73489711D01*
X173790609Y-73620814D01*
X173790602Y-73620827D01*
X173730264Y-73766498D01*
X173730261Y-73766508D01*
X173700150Y-73917885D01*
X173667765Y-73979796D01*
X173617538Y-74011398D01*
X173530674Y-74040182D01*
X173530663Y-74040187D01*
X173381342Y-74132289D01*
X173350178Y-74163453D01*
X173288854Y-74196936D01*
X173219162Y-74191950D01*
X173174818Y-74163450D01*
X173118657Y-74107289D01*
X173118656Y-74107288D01*
X172969334Y-74015186D01*
X172877136Y-73984634D01*
X172819693Y-73944862D01*
X172794525Y-73891120D01*
X172783378Y-73835081D01*
X172769737Y-73766503D01*
X172756066Y-73733497D01*
X172709397Y-73620827D01*
X172709390Y-73620814D01*
X172621789Y-73489711D01*
X172621786Y-73489707D01*
X172510289Y-73378210D01*
X172474956Y-73354602D01*
X172430151Y-73300990D01*
X172421444Y-73231665D01*
X172451598Y-73168638D01*
X172511041Y-73131918D01*
X172543847Y-73127500D01*
X172991804Y-73127500D01*
X172991805Y-73127499D01*
X173113035Y-73103386D01*
X173207953Y-73064069D01*
X173207954Y-73064069D01*
X173227227Y-73056086D01*
X173227230Y-73056084D01*
X173227233Y-73056083D01*
X173330008Y-72987411D01*
X173417411Y-72900008D01*
X174524298Y-71793119D01*
X174585619Y-71759636D01*
X174650298Y-71762872D01*
X174663757Y-71767246D01*
X174873713Y-71800500D01*
X174873714Y-71800500D01*
X175086286Y-71800500D01*
X175086287Y-71800500D01*
X175296243Y-71767246D01*
X175498412Y-71701557D01*
X175687816Y-71605051D01*
X175742572Y-71565269D01*
X175859786Y-71480109D01*
X175859788Y-71480106D01*
X175859792Y-71480104D01*
X176010104Y-71329792D01*
X176010106Y-71329788D01*
X176010109Y-71329786D01*
X176135048Y-71157820D01*
X176135047Y-71157820D01*
X176135051Y-71157816D01*
X176139514Y-71149054D01*
X176187488Y-71098259D01*
X176255308Y-71081463D01*
X176321444Y-71103999D01*
G37*
%TD.AperFunction*%
%TA.AperFunction,Conductor*%
G36*
X224847539Y-62055185D02*
G01*
X224893294Y-62107989D01*
X224904500Y-62159500D01*
X224904500Y-116790500D01*
X224884815Y-116857539D01*
X224832011Y-116903294D01*
X224780500Y-116914500D01*
X89269500Y-116914500D01*
X89202461Y-116894815D01*
X89156706Y-116842011D01*
X89145500Y-116790500D01*
X89145500Y-100102135D01*
X91649500Y-100102135D01*
X91649500Y-101897870D01*
X91649501Y-101897876D01*
X91655908Y-101957483D01*
X91706202Y-102092328D01*
X91706206Y-102092335D01*
X91792452Y-102207544D01*
X91792455Y-102207547D01*
X91907664Y-102293793D01*
X91907671Y-102293797D01*
X91952618Y-102310561D01*
X92042517Y-102344091D01*
X92102127Y-102350500D01*
X92112685Y-102350499D01*
X92179723Y-102370179D01*
X92200372Y-102386818D01*
X92870591Y-103057037D01*
X92807007Y-103074075D01*
X92692993Y-103139901D01*
X92599901Y-103232993D01*
X92534075Y-103347007D01*
X92517037Y-103410591D01*
X91884728Y-102778282D01*
X91884727Y-102778282D01*
X91845380Y-102832439D01*
X91748904Y-103021782D01*
X91683242Y-103223869D01*
X91683242Y-103223872D01*
X91650000Y-103433753D01*
X91650000Y-103646246D01*
X91683242Y-103856127D01*
X91683242Y-103856130D01*
X91748904Y-104058217D01*
X91845375Y-104247550D01*
X91884728Y-104301716D01*
X92517037Y-103669408D01*
X92534075Y-103732993D01*
X92599901Y-103847007D01*
X92692993Y-103940099D01*
X92807007Y-104005925D01*
X92870590Y-104022962D01*
X92238282Y-104655269D01*
X92238282Y-104655270D01*
X92292452Y-104694626D01*
X92292451Y-104694626D01*
X92301495Y-104699234D01*
X92352292Y-104747208D01*
X92369087Y-104815029D01*
X92346550Y-104881164D01*
X92301499Y-104920202D01*
X92292182Y-104924949D01*
X92120213Y-105049890D01*
X91969890Y-105200213D01*
X91844951Y-105372179D01*
X91748444Y-105561585D01*
X91748443Y-105561587D01*
X91748443Y-105561588D01*
X91743983Y-105575315D01*
X91682753Y-105763760D01*
X91679123Y-105786680D01*
X91649500Y-105973713D01*
X91649500Y-106186287D01*
X91659534Y-106249644D01*
X91674991Y-106347234D01*
X91682754Y-106396243D01*
X91705068Y-106464919D01*
X91748444Y-106598414D01*
X91844951Y-106787820D01*
X91969890Y-106959786D01*
X92120213Y-107110109D01*
X92292182Y-107235050D01*
X92300946Y-107239516D01*
X92351742Y-107287491D01*
X92368536Y-107355312D01*
X92345998Y-107421447D01*
X92300946Y-107460484D01*
X92292182Y-107464949D01*
X92120213Y-107589890D01*
X91969890Y-107740213D01*
X91844951Y-107912179D01*
X91748444Y-108101585D01*
X91682753Y-108303760D01*
X91649500Y-108513713D01*
X91649500Y-108726286D01*
X91671648Y-108866127D01*
X91682754Y-108936243D01*
X91735898Y-109099804D01*
X91748444Y-109138414D01*
X91844951Y-109327820D01*
X91969890Y-109499786D01*
X92120213Y-109650109D01*
X92292182Y-109775050D01*
X92300946Y-109779516D01*
X92351742Y-109827491D01*
X92368536Y-109895312D01*
X92345998Y-109961447D01*
X92300946Y-110000484D01*
X92292182Y-110004949D01*
X92120213Y-110129890D01*
X91969890Y-110280213D01*
X91844951Y-110452179D01*
X91748444Y-110641585D01*
X91682753Y-110843760D01*
X91649500Y-111053713D01*
X91649500Y-111266286D01*
X91682753Y-111476239D01*
X91748444Y-111678414D01*
X91844951Y-111867820D01*
X91969890Y-112039786D01*
X92120213Y-112190109D01*
X92292182Y-112315050D01*
X92300946Y-112319516D01*
X92351742Y-112367491D01*
X92368536Y-112435312D01*
X92345998Y-112501447D01*
X92300946Y-112540484D01*
X92292182Y-112544949D01*
X92120213Y-112669890D01*
X91969890Y-112820213D01*
X91844951Y-112992179D01*
X91748444Y-113181585D01*
X91682753Y-113383760D01*
X91649500Y-113593713D01*
X91649500Y-113806286D01*
X91682753Y-114016239D01*
X91748444Y-114218414D01*
X91844951Y-114407820D01*
X91969890Y-114579786D01*
X92120213Y-114730109D01*
X92292179Y-114855048D01*
X92292181Y-114855049D01*
X92292184Y-114855051D01*
X92481588Y-114951557D01*
X92683757Y-115017246D01*
X92893713Y-115050500D01*
X92893714Y-115050500D01*
X93106286Y-115050500D01*
X93106287Y-115050500D01*
X93316243Y-115017246D01*
X93518412Y-114951557D01*
X93707816Y-114855051D01*
X93729789Y-114839086D01*
X93879786Y-114730109D01*
X93879788Y-114730106D01*
X93879792Y-114730104D01*
X94030104Y-114579792D01*
X94030106Y-114579788D01*
X94030109Y-114579786D01*
X94155048Y-114407820D01*
X94155047Y-114407820D01*
X94155051Y-114407816D01*
X94251557Y-114218412D01*
X94317246Y-114016243D01*
X94350500Y-113806287D01*
X94350500Y-113593713D01*
X94317246Y-113383757D01*
X94251557Y-113181588D01*
X94155051Y-112992184D01*
X94155049Y-112992181D01*
X94155048Y-112992179D01*
X94030109Y-112820213D01*
X93879786Y-112669890D01*
X93707820Y-112544951D01*
X93707115Y-112544591D01*
X93699054Y-112540485D01*
X93648259Y-112492512D01*
X93631463Y-112424692D01*
X93653999Y-112358556D01*
X93699054Y-112319515D01*
X93707816Y-112315051D01*
X93729789Y-112299086D01*
X93879786Y-112190109D01*
X93879788Y-112190106D01*
X93879792Y-112190104D01*
X94030104Y-112039792D01*
X94030106Y-112039788D01*
X94030109Y-112039786D01*
X94155048Y-111867820D01*
X94155047Y-111867820D01*
X94155051Y-111867816D01*
X94251557Y-111678412D01*
X94317246Y-111476243D01*
X94350500Y-111266287D01*
X94350500Y-111053713D01*
X94317246Y-110843757D01*
X94251557Y-110641588D01*
X94155051Y-110452184D01*
X94155049Y-110452181D01*
X94155048Y-110452179D01*
X94030109Y-110280213D01*
X93879786Y-110129890D01*
X93707820Y-110004951D01*
X93707115Y-110004591D01*
X93699054Y-110000485D01*
X93648259Y-109952512D01*
X93631463Y-109884692D01*
X93653999Y-109818556D01*
X93699054Y-109779515D01*
X93707816Y-109775051D01*
X93731910Y-109757546D01*
X93879786Y-109650109D01*
X93879788Y-109650106D01*
X93879792Y-109650104D01*
X94030104Y-109499792D01*
X94030106Y-109499788D01*
X94030109Y-109499786D01*
X94155048Y-109327820D01*
X94155047Y-109327820D01*
X94155051Y-109327816D01*
X94251557Y-109138412D01*
X94317246Y-108936243D01*
X94350500Y-108726287D01*
X94350500Y-108513713D01*
X94317246Y-108303757D01*
X94251557Y-108101588D01*
X94155051Y-107912184D01*
X94155049Y-107912181D01*
X94155048Y-107912179D01*
X94030109Y-107740213D01*
X93879786Y-107589890D01*
X93707820Y-107464951D01*
X93707115Y-107464591D01*
X93699054Y-107460485D01*
X93648259Y-107412512D01*
X93631463Y-107344692D01*
X93653999Y-107278556D01*
X93699054Y-107239515D01*
X93707816Y-107235051D01*
X93734335Y-107215784D01*
X93879786Y-107110109D01*
X93879788Y-107110106D01*
X93879792Y-107110104D01*
X94030104Y-106959792D01*
X94030106Y-106959788D01*
X94030109Y-106959786D01*
X94155048Y-106787820D01*
X94155047Y-106787820D01*
X94155051Y-106787816D01*
X94251557Y-106598412D01*
X94317246Y-106396243D01*
X94350500Y-106186287D01*
X94350500Y-105973713D01*
X94317246Y-105763757D01*
X94251557Y-105561588D01*
X94155051Y-105372184D01*
X94155049Y-105372181D01*
X94155048Y-105372179D01*
X94030109Y-105200213D01*
X93879786Y-105049890D01*
X93707817Y-104924949D01*
X93698504Y-104920204D01*
X93647707Y-104872230D01*
X93630912Y-104804409D01*
X93653449Y-104738274D01*
X93698507Y-104699232D01*
X93707555Y-104694622D01*
X93761716Y-104655270D01*
X93761717Y-104655270D01*
X93129408Y-104022962D01*
X93192993Y-104005925D01*
X93307007Y-103940099D01*
X93400099Y-103847007D01*
X93465925Y-103732993D01*
X93482962Y-103669409D01*
X94115270Y-104301717D01*
X94115270Y-104301716D01*
X94154622Y-104247554D01*
X94251095Y-104058217D01*
X94316757Y-103856130D01*
X94316757Y-103856127D01*
X94350000Y-103646246D01*
X94350000Y-103433753D01*
X94316757Y-103223872D01*
X94316757Y-103223869D01*
X94251095Y-103021782D01*
X94154624Y-102832449D01*
X94115270Y-102778282D01*
X94115269Y-102778282D01*
X93482962Y-103410590D01*
X93465925Y-103347007D01*
X93400099Y-103232993D01*
X93307007Y-103139901D01*
X93192993Y-103074075D01*
X93129409Y-103057037D01*
X93799627Y-102386818D01*
X93860950Y-102353333D01*
X93887307Y-102350499D01*
X93897872Y-102350499D01*
X93957483Y-102344091D01*
X94092331Y-102293796D01*
X94207546Y-102207546D01*
X94293796Y-102092331D01*
X94344091Y-101957483D01*
X94350500Y-101897873D01*
X94350499Y-100102128D01*
X94344091Y-100042517D01*
X94335583Y-100019707D01*
X94293797Y-99907671D01*
X94293793Y-99907664D01*
X94207547Y-99792455D01*
X94207544Y-99792452D01*
X94092335Y-99706206D01*
X94092328Y-99706202D01*
X93957482Y-99655908D01*
X93957483Y-99655908D01*
X93897883Y-99649501D01*
X93897881Y-99649500D01*
X93897873Y-99649500D01*
X93897864Y-99649500D01*
X92102129Y-99649500D01*
X92102123Y-99649501D01*
X92042516Y-99655908D01*
X91907671Y-99706202D01*
X91907664Y-99706206D01*
X91792455Y-99792452D01*
X91792452Y-99792455D01*
X91706206Y-99907664D01*
X91706202Y-99907671D01*
X91655908Y-100042517D01*
X91649501Y-100102116D01*
X91649501Y-100102123D01*
X91649500Y-100102135D01*
X89145500Y-100102135D01*
X89145500Y-88671153D01*
X106199500Y-88671153D01*
X106199500Y-88828846D01*
X106230261Y-88983489D01*
X106230264Y-88983501D01*
X106290602Y-89129172D01*
X106290609Y-89129185D01*
X106378210Y-89260288D01*
X106378213Y-89260292D01*
X106489707Y-89371786D01*
X106489711Y-89371789D01*
X106620814Y-89459390D01*
X106620827Y-89459397D01*
X106766498Y-89519735D01*
X106766503Y-89519737D01*
X106921153Y-89550499D01*
X106921156Y-89550500D01*
X106921158Y-89550500D01*
X107078844Y-89550500D01*
X107078845Y-89550499D01*
X107233497Y-89519737D01*
X107379179Y-89459394D01*
X107510289Y-89371789D01*
X107621789Y-89260289D01*
X107709394Y-89129179D01*
X107712854Y-89120827D01*
X107750668Y-89029533D01*
X107769737Y-88983497D01*
X107791156Y-88875812D01*
X107823539Y-88813906D01*
X107825034Y-88812383D01*
X109987411Y-86650008D01*
X110056083Y-86547233D01*
X110079043Y-86491803D01*
X110103386Y-86433035D01*
X110127500Y-86311803D01*
X110127500Y-86188197D01*
X110127500Y-84789356D01*
X110147185Y-84722317D01*
X110148398Y-84720465D01*
X110209394Y-84629179D01*
X110269737Y-84483497D01*
X110300500Y-84328842D01*
X110300500Y-84171158D01*
X110300500Y-84171155D01*
X110300499Y-84171153D01*
X110295423Y-84145633D01*
X110269737Y-84016503D01*
X110269735Y-84016498D01*
X110209397Y-83870827D01*
X110209390Y-83870814D01*
X110121789Y-83739711D01*
X110121786Y-83739707D01*
X110010292Y-83628213D01*
X110010288Y-83628210D01*
X109879185Y-83540609D01*
X109879172Y-83540602D01*
X109733501Y-83480264D01*
X109733489Y-83480261D01*
X109578845Y-83449500D01*
X109578842Y-83449500D01*
X109421158Y-83449500D01*
X109421155Y-83449500D01*
X109266510Y-83480261D01*
X109266498Y-83480264D01*
X109120827Y-83540602D01*
X109120814Y-83540609D01*
X108989711Y-83628210D01*
X108989707Y-83628213D01*
X108878213Y-83739707D01*
X108878210Y-83739711D01*
X108790609Y-83870814D01*
X108790602Y-83870827D01*
X108730264Y-84016498D01*
X108730261Y-84016510D01*
X108699500Y-84171153D01*
X108699500Y-84328846D01*
X108730261Y-84483489D01*
X108730264Y-84483501D01*
X108790603Y-84629174D01*
X108790604Y-84629175D01*
X108790606Y-84629179D01*
X108815476Y-84666399D01*
X108851602Y-84720465D01*
X108872480Y-84787142D01*
X108872500Y-84789356D01*
X108872500Y-85938718D01*
X108852815Y-86005757D01*
X108836181Y-86026399D01*
X106937672Y-87924907D01*
X106876349Y-87958392D01*
X106874183Y-87958843D01*
X106766508Y-87980261D01*
X106766498Y-87980264D01*
X106620827Y-88040602D01*
X106620814Y-88040609D01*
X106489711Y-88128210D01*
X106489707Y-88128213D01*
X106378213Y-88239707D01*
X106378210Y-88239711D01*
X106290609Y-88370814D01*
X106290602Y-88370827D01*
X106230264Y-88516498D01*
X106230261Y-88516510D01*
X106199500Y-88671153D01*
X89145500Y-88671153D01*
X89145500Y-74610254D01*
X91194500Y-74610254D01*
X91194500Y-76583807D01*
X91218612Y-76705027D01*
X91218614Y-76705035D01*
X91248997Y-76778385D01*
X91265917Y-76819233D01*
X91309456Y-76884394D01*
X91312048Y-76888273D01*
X91312053Y-76888282D01*
X91334585Y-76922003D01*
X91334591Y-76922011D01*
X91656877Y-77244296D01*
X91690362Y-77305619D01*
X91687128Y-77370293D01*
X91682754Y-77383755D01*
X91649500Y-77593713D01*
X91649500Y-77806286D01*
X91669665Y-77933607D01*
X91682754Y-78016243D01*
X91741013Y-78195546D01*
X91748444Y-78218414D01*
X91844951Y-78407820D01*
X91969890Y-78579786D01*
X92120213Y-78730109D01*
X92292179Y-78855048D01*
X92292181Y-78855049D01*
X92292184Y-78855051D01*
X92481588Y-78951557D01*
X92683757Y-79017246D01*
X92893713Y-79050500D01*
X92893714Y-79050500D01*
X93106286Y-79050500D01*
X93106287Y-79050500D01*
X93316243Y-79017246D01*
X93518412Y-78951557D01*
X93707816Y-78855051D01*
X93816071Y-78776400D01*
X93879786Y-78730109D01*
X93879788Y-78730106D01*
X93879792Y-78730104D01*
X94030104Y-78579792D01*
X94030106Y-78579788D01*
X94030109Y-78579786D01*
X94155048Y-78407820D01*
X94155047Y-78407820D01*
X94155051Y-78407816D01*
X94251557Y-78218412D01*
X94317246Y-78016243D01*
X94350500Y-77806287D01*
X94350500Y-77593713D01*
X94317246Y-77383757D01*
X94251557Y-77181588D01*
X94155051Y-76992184D01*
X94155049Y-76992181D01*
X94155048Y-76992179D01*
X94030109Y-76820213D01*
X93879786Y-76669890D01*
X93707820Y-76544951D01*
X93707115Y-76544591D01*
X93699054Y-76540485D01*
X93648259Y-76492512D01*
X93631463Y-76424692D01*
X93653999Y-76358556D01*
X93699054Y-76319515D01*
X93707816Y-76315051D01*
X93793542Y-76252768D01*
X93879786Y-76190109D01*
X93879788Y-76190106D01*
X93879792Y-76190104D01*
X94030104Y-76039792D01*
X94030106Y-76039788D01*
X94030109Y-76039786D01*
X94155050Y-75867818D01*
X94161475Y-75855208D01*
X94209448Y-75804411D01*
X94271961Y-75787500D01*
X105901804Y-75787500D01*
X105901805Y-75787499D01*
X106023035Y-75763386D01*
X106103784Y-75729937D01*
X106137233Y-75716083D01*
X106240008Y-75647411D01*
X106327411Y-75560008D01*
X108065411Y-73822008D01*
X108073263Y-73810256D01*
X108134083Y-73719233D01*
X108181385Y-73605035D01*
X108205500Y-73483803D01*
X108205500Y-71793804D01*
X108225185Y-71726765D01*
X108277989Y-71681010D01*
X108347147Y-71671066D01*
X108385796Y-71683320D01*
X108421583Y-71701555D01*
X108421585Y-71701555D01*
X108421588Y-71701557D01*
X108623757Y-71767246D01*
X108833713Y-71800500D01*
X108833714Y-71800500D01*
X109046286Y-71800500D01*
X109046287Y-71800500D01*
X109256243Y-71767246D01*
X109458412Y-71701557D01*
X109647816Y-71605051D01*
X109702572Y-71565269D01*
X109819786Y-71480109D01*
X109819788Y-71480106D01*
X109819792Y-71480104D01*
X109970104Y-71329792D01*
X109970106Y-71329788D01*
X109970109Y-71329786D01*
X110095048Y-71157820D01*
X110095047Y-71157820D01*
X110095051Y-71157816D01*
X110099514Y-71149054D01*
X110147488Y-71098259D01*
X110215308Y-71081463D01*
X110281444Y-71103999D01*
X110320486Y-71149056D01*
X110324951Y-71157820D01*
X110449890Y-71329786D01*
X110600213Y-71480109D01*
X110772179Y-71605048D01*
X110772181Y-71605049D01*
X110772184Y-71605051D01*
X110961588Y-71701557D01*
X111163757Y-71767246D01*
X111373713Y-71800500D01*
X111373714Y-71800500D01*
X111586286Y-71800500D01*
X111586287Y-71800500D01*
X111796243Y-71767246D01*
X111998412Y-71701557D01*
X112187816Y-71605051D01*
X112242572Y-71565269D01*
X112359786Y-71480109D01*
X112359788Y-71480106D01*
X112359792Y-71480104D01*
X112510104Y-71329792D01*
X112510106Y-71329788D01*
X112510109Y-71329786D01*
X112635048Y-71157820D01*
X112635047Y-71157820D01*
X112635051Y-71157816D01*
X112639514Y-71149054D01*
X112687488Y-71098259D01*
X112755308Y-71081463D01*
X112821444Y-71103999D01*
X112860486Y-71149056D01*
X112864951Y-71157820D01*
X112989890Y-71329786D01*
X113140213Y-71480109D01*
X113312179Y-71605048D01*
X113312181Y-71605049D01*
X113312184Y-71605051D01*
X113501588Y-71701557D01*
X113703757Y-71767246D01*
X113913713Y-71800500D01*
X113913714Y-71800500D01*
X114126286Y-71800500D01*
X114126287Y-71800500D01*
X114336243Y-71767246D01*
X114538412Y-71701557D01*
X114727816Y-71605051D01*
X114782572Y-71565269D01*
X114899786Y-71480109D01*
X114899788Y-71480106D01*
X114899792Y-71480104D01*
X115050104Y-71329792D01*
X115050106Y-71329788D01*
X115050109Y-71329786D01*
X115175048Y-71157820D01*
X115175047Y-71157820D01*
X115175051Y-71157816D01*
X115179514Y-71149054D01*
X115227488Y-71098259D01*
X115295308Y-71081463D01*
X115361444Y-71103999D01*
X115400486Y-71149056D01*
X115404951Y-71157820D01*
X115529890Y-71329786D01*
X115680213Y-71480109D01*
X115852179Y-71605048D01*
X115852181Y-71605049D01*
X115852184Y-71605051D01*
X116041588Y-71701557D01*
X116243757Y-71767246D01*
X116453713Y-71800500D01*
X116453714Y-71800500D01*
X116666286Y-71800500D01*
X116666287Y-71800500D01*
X116876243Y-71767246D01*
X117078412Y-71701557D01*
X117267816Y-71605051D01*
X117322572Y-71565269D01*
X117439786Y-71480109D01*
X117439788Y-71480106D01*
X117439792Y-71480104D01*
X117590104Y-71329792D01*
X117590106Y-71329788D01*
X117590109Y-71329786D01*
X117715048Y-71157820D01*
X117715047Y-71157820D01*
X117715051Y-71157816D01*
X117719514Y-71149054D01*
X117767488Y-71098259D01*
X117835308Y-71081463D01*
X117901444Y-71103999D01*
X117940486Y-71149056D01*
X117944951Y-71157820D01*
X118069890Y-71329786D01*
X118069896Y-71329792D01*
X118220208Y-71480104D01*
X118392184Y-71605051D01*
X118392188Y-71605053D01*
X118392195Y-71605057D01*
X118404790Y-71611474D01*
X118455588Y-71659446D01*
X118472500Y-71721961D01*
X118472500Y-73661807D01*
X118496612Y-73783028D01*
X118496615Y-73783038D01*
X118507890Y-73810256D01*
X118512758Y-73822008D01*
X118543917Y-73897233D01*
X118595545Y-73974500D01*
X118598731Y-73979268D01*
X118612590Y-74000010D01*
X126099988Y-81487408D01*
X126099992Y-81487411D01*
X126202760Y-81556079D01*
X126202773Y-81556086D01*
X126308778Y-81599994D01*
X126316965Y-81603385D01*
X126316969Y-81603385D01*
X126316970Y-81603386D01*
X126438193Y-81627500D01*
X126438196Y-81627500D01*
X126438197Y-81627500D01*
X158188719Y-81627500D01*
X158255758Y-81647185D01*
X158276400Y-81663819D01*
X158689259Y-82076678D01*
X158701410Y-82098931D01*
X158716968Y-82118959D01*
X158717873Y-82129081D01*
X158722744Y-82138001D01*
X158720935Y-82163294D01*
X158723195Y-82188550D01*
X158718485Y-82197554D01*
X158717760Y-82207693D01*
X158702561Y-82227994D01*
X158690810Y-82250461D01*
X158680471Y-82257503D01*
X158675888Y-82263626D01*
X158662938Y-82272113D01*
X158656188Y-82275956D01*
X158620821Y-82290606D01*
X158565214Y-82327761D01*
X158561360Y-82329956D01*
X158531498Y-82337012D01*
X158502214Y-82346182D01*
X158497808Y-82344973D01*
X158493363Y-82346024D01*
X158464426Y-82335816D01*
X158434833Y-82327698D01*
X158431109Y-82325304D01*
X158379185Y-82290609D01*
X158379172Y-82290602D01*
X158233501Y-82230264D01*
X158233489Y-82230261D01*
X158078845Y-82199500D01*
X158078842Y-82199500D01*
X157921158Y-82199500D01*
X157921155Y-82199500D01*
X157766510Y-82230261D01*
X157766498Y-82230264D01*
X157620827Y-82290602D01*
X157620814Y-82290609D01*
X157568891Y-82325304D01*
X157502214Y-82346182D01*
X157434833Y-82327698D01*
X157431109Y-82325304D01*
X157379185Y-82290609D01*
X157379172Y-82290602D01*
X157233501Y-82230264D01*
X157233489Y-82230261D01*
X157078845Y-82199500D01*
X157078842Y-82199500D01*
X156921158Y-82199500D01*
X156921155Y-82199500D01*
X156766510Y-82230261D01*
X156766498Y-82230264D01*
X156620827Y-82290602D01*
X156620814Y-82290609D01*
X156568891Y-82325304D01*
X156502214Y-82346182D01*
X156434833Y-82327698D01*
X156431109Y-82325304D01*
X156379185Y-82290609D01*
X156379172Y-82290602D01*
X156233501Y-82230264D01*
X156233489Y-82230261D01*
X156078845Y-82199500D01*
X156078842Y-82199500D01*
X155921158Y-82199500D01*
X155921155Y-82199500D01*
X155766510Y-82230261D01*
X155766498Y-82230264D01*
X155620827Y-82290602D01*
X155620814Y-82290609D01*
X155529534Y-82351602D01*
X155462857Y-82372480D01*
X155460643Y-82372500D01*
X154748192Y-82372500D01*
X154626973Y-82396612D01*
X154626965Y-82396614D01*
X154568881Y-82420673D01*
X154568874Y-82420676D01*
X154561974Y-82423535D01*
X154512767Y-82443917D01*
X154436729Y-82494724D01*
X154432811Y-82497342D01*
X154409989Y-82512590D01*
X129715702Y-107206877D01*
X129654379Y-107240362D01*
X129589707Y-107237128D01*
X129576245Y-107232754D01*
X129576240Y-107232753D01*
X129407989Y-107206105D01*
X129366287Y-107199500D01*
X129153713Y-107199500D01*
X129112011Y-107206105D01*
X128943760Y-107232753D01*
X128741585Y-107298444D01*
X128552179Y-107394951D01*
X128380213Y-107519890D01*
X128229890Y-107670213D01*
X128104949Y-107842182D01*
X128100484Y-107850946D01*
X128052509Y-107901742D01*
X127984688Y-107918536D01*
X127918553Y-107895998D01*
X127879516Y-107850946D01*
X127875050Y-107842182D01*
X127750109Y-107670213D01*
X127599786Y-107519890D01*
X127427820Y-107394951D01*
X127238414Y-107298444D01*
X127238413Y-107298443D01*
X127238412Y-107298443D01*
X127036243Y-107232754D01*
X127036241Y-107232753D01*
X127036240Y-107232753D01*
X126867989Y-107206105D01*
X126826287Y-107199500D01*
X126613713Y-107199500D01*
X126572011Y-107206105D01*
X126403760Y-107232753D01*
X126201585Y-107298444D01*
X126012179Y-107394951D01*
X125840213Y-107519890D01*
X125689890Y-107670213D01*
X125564949Y-107842182D01*
X125560484Y-107850946D01*
X125512509Y-107901742D01*
X125444688Y-107918536D01*
X125378553Y-107895998D01*
X125339516Y-107850946D01*
X125335050Y-107842182D01*
X125210109Y-107670213D01*
X125059786Y-107519890D01*
X124887820Y-107394951D01*
X124698414Y-107298444D01*
X124698413Y-107298443D01*
X124698412Y-107298443D01*
X124496243Y-107232754D01*
X124496241Y-107232753D01*
X124496240Y-107232753D01*
X124327989Y-107206105D01*
X124286287Y-107199500D01*
X124073713Y-107199500D01*
X124032011Y-107206105D01*
X123863760Y-107232753D01*
X123661585Y-107298444D01*
X123472179Y-107394951D01*
X123300213Y-107519890D01*
X123149890Y-107670213D01*
X123024949Y-107842182D01*
X123020484Y-107850946D01*
X122972509Y-107901742D01*
X122904688Y-107918536D01*
X122838553Y-107895998D01*
X122799516Y-107850946D01*
X122795050Y-107842182D01*
X122670109Y-107670213D01*
X122519786Y-107519890D01*
X122347820Y-107394951D01*
X122158414Y-107298444D01*
X122158413Y-107298443D01*
X122158412Y-107298443D01*
X121956243Y-107232754D01*
X121956241Y-107232753D01*
X121956240Y-107232753D01*
X121787989Y-107206105D01*
X121746287Y-107199500D01*
X121533713Y-107199500D01*
X121492011Y-107206105D01*
X121323760Y-107232753D01*
X121121585Y-107298444D01*
X120932179Y-107394951D01*
X120760213Y-107519890D01*
X120609890Y-107670213D01*
X120484949Y-107842182D01*
X120480484Y-107850946D01*
X120432509Y-107901742D01*
X120364688Y-107918536D01*
X120298553Y-107895998D01*
X120259516Y-107850946D01*
X120255050Y-107842182D01*
X120130109Y-107670213D01*
X119979786Y-107519890D01*
X119807820Y-107394951D01*
X119618414Y-107298444D01*
X119618413Y-107298443D01*
X119618412Y-107298443D01*
X119416243Y-107232754D01*
X119416241Y-107232753D01*
X119416240Y-107232753D01*
X119247989Y-107206105D01*
X119206287Y-107199500D01*
X118993713Y-107199500D01*
X118952011Y-107206105D01*
X118783760Y-107232753D01*
X118581585Y-107298444D01*
X118392179Y-107394951D01*
X118220213Y-107519890D01*
X118069890Y-107670213D01*
X117944949Y-107842182D01*
X117940484Y-107850946D01*
X117892509Y-107901742D01*
X117824688Y-107918536D01*
X117758553Y-107895998D01*
X117719516Y-107850946D01*
X117715050Y-107842182D01*
X117590109Y-107670213D01*
X117439786Y-107519890D01*
X117267820Y-107394951D01*
X117078414Y-107298444D01*
X117078413Y-107298443D01*
X117078412Y-107298443D01*
X116876243Y-107232754D01*
X116876241Y-107232753D01*
X116876240Y-107232753D01*
X116707989Y-107206105D01*
X116666287Y-107199500D01*
X116453713Y-107199500D01*
X116412011Y-107206105D01*
X116243760Y-107232753D01*
X116041585Y-107298444D01*
X115852179Y-107394951D01*
X115680213Y-107519890D01*
X115529890Y-107670213D01*
X115404949Y-107842182D01*
X115400484Y-107850946D01*
X115352509Y-107901742D01*
X115284688Y-107918536D01*
X115218553Y-107895998D01*
X115179516Y-107850946D01*
X115175050Y-107842182D01*
X115050109Y-107670213D01*
X114899786Y-107519890D01*
X114727820Y-107394951D01*
X114538414Y-107298444D01*
X114538413Y-107298443D01*
X114538412Y-107298443D01*
X114336243Y-107232754D01*
X114336241Y-107232753D01*
X114336240Y-107232753D01*
X114167989Y-107206105D01*
X114126287Y-107199500D01*
X113913713Y-107199500D01*
X113872011Y-107206105D01*
X113703760Y-107232753D01*
X113501585Y-107298444D01*
X113312179Y-107394951D01*
X113140213Y-107519890D01*
X112989890Y-107670213D01*
X112864949Y-107842182D01*
X112860484Y-107850946D01*
X112812509Y-107901742D01*
X112744688Y-107918536D01*
X112678553Y-107895998D01*
X112639516Y-107850946D01*
X112635050Y-107842182D01*
X112510109Y-107670213D01*
X112359786Y-107519890D01*
X112187820Y-107394951D01*
X111998414Y-107298444D01*
X111998413Y-107298443D01*
X111998412Y-107298443D01*
X111796243Y-107232754D01*
X111796241Y-107232753D01*
X111796240Y-107232753D01*
X111627989Y-107206105D01*
X111586287Y-107199500D01*
X111373713Y-107199500D01*
X111332011Y-107206105D01*
X111163760Y-107232753D01*
X110961585Y-107298444D01*
X110772179Y-107394951D01*
X110600213Y-107519890D01*
X110449890Y-107670213D01*
X110324949Y-107842182D01*
X110320484Y-107850946D01*
X110272509Y-107901742D01*
X110204688Y-107918536D01*
X110138553Y-107895998D01*
X110099516Y-107850946D01*
X110095050Y-107842182D01*
X109970109Y-107670213D01*
X109819786Y-107519890D01*
X109647820Y-107394951D01*
X109458414Y-107298444D01*
X109458413Y-107298443D01*
X109458412Y-107298443D01*
X109256243Y-107232754D01*
X109256241Y-107232753D01*
X109256240Y-107232753D01*
X109087989Y-107206105D01*
X109046287Y-107199500D01*
X108833713Y-107199500D01*
X108792011Y-107206105D01*
X108623760Y-107232753D01*
X108421585Y-107298444D01*
X108232179Y-107394951D01*
X108060213Y-107519890D01*
X107909890Y-107670213D01*
X107784949Y-107842182D01*
X107780484Y-107850946D01*
X107732509Y-107901742D01*
X107664688Y-107918536D01*
X107598553Y-107895998D01*
X107559516Y-107850946D01*
X107555050Y-107842182D01*
X107430109Y-107670213D01*
X107279786Y-107519890D01*
X107107820Y-107394951D01*
X106918414Y-107298444D01*
X106918413Y-107298443D01*
X106918412Y-107298443D01*
X106716243Y-107232754D01*
X106716241Y-107232753D01*
X106716240Y-107232753D01*
X106547989Y-107206105D01*
X106506287Y-107199500D01*
X106293713Y-107199500D01*
X106252011Y-107206105D01*
X106083760Y-107232753D01*
X105881585Y-107298444D01*
X105692179Y-107394951D01*
X105520215Y-107519889D01*
X105406673Y-107633431D01*
X105345350Y-107666915D01*
X105275658Y-107661931D01*
X105219725Y-107620059D01*
X105202810Y-107589082D01*
X105153797Y-107457671D01*
X105153793Y-107457664D01*
X105067547Y-107342455D01*
X105067544Y-107342452D01*
X104952335Y-107256206D01*
X104952328Y-107256202D01*
X104817482Y-107205908D01*
X104817483Y-107205908D01*
X104757883Y-107199501D01*
X104757881Y-107199500D01*
X104757873Y-107199500D01*
X104757864Y-107199500D01*
X102962129Y-107199500D01*
X102962123Y-107199501D01*
X102902516Y-107205908D01*
X102767671Y-107256202D01*
X102767664Y-107256206D01*
X102652455Y-107342452D01*
X102652452Y-107342455D01*
X102566206Y-107457664D01*
X102566202Y-107457671D01*
X102515908Y-107592517D01*
X102509501Y-107652116D01*
X102509500Y-107652135D01*
X102509500Y-109447870D01*
X102509501Y-109447876D01*
X102515908Y-109507483D01*
X102566202Y-109642328D01*
X102566206Y-109642335D01*
X102652452Y-109757544D01*
X102652455Y-109757547D01*
X102767664Y-109843793D01*
X102767671Y-109843797D01*
X102902517Y-109894091D01*
X102902516Y-109894091D01*
X102909444Y-109894835D01*
X102962127Y-109900500D01*
X104271718Y-109900499D01*
X104338757Y-109920184D01*
X104359399Y-109936818D01*
X104550589Y-110128008D01*
X104637992Y-110215411D01*
X104637994Y-110215413D01*
X104637996Y-110215414D01*
X104740756Y-110284076D01*
X104740758Y-110284077D01*
X104740767Y-110284083D01*
X104765772Y-110294440D01*
X104788071Y-110303677D01*
X104830254Y-110321149D01*
X104854966Y-110331386D01*
X104976192Y-110355499D01*
X104976196Y-110355500D01*
X104976197Y-110355500D01*
X183333804Y-110355500D01*
X183333805Y-110355499D01*
X183455035Y-110331386D01*
X183535784Y-110297937D01*
X183569233Y-110284083D01*
X183672008Y-110215411D01*
X183759411Y-110128008D01*
X184212967Y-109674451D01*
X184274286Y-109640969D01*
X184343977Y-109645953D01*
X184373530Y-109661818D01*
X184432441Y-109704620D01*
X184621782Y-109801095D01*
X184823870Y-109866757D01*
X185033754Y-109900000D01*
X185246246Y-109900000D01*
X185456127Y-109866757D01*
X185456130Y-109866757D01*
X185658217Y-109801095D01*
X185847554Y-109704622D01*
X185901716Y-109665270D01*
X185901717Y-109665270D01*
X185269409Y-109032962D01*
X185332993Y-109015925D01*
X185447007Y-108950099D01*
X185540099Y-108857007D01*
X185605925Y-108742993D01*
X185622962Y-108679408D01*
X186255270Y-109311717D01*
X186255270Y-109311716D01*
X186294622Y-109257554D01*
X186391095Y-109068217D01*
X186456757Y-108866130D01*
X186456757Y-108866127D01*
X186490000Y-108656246D01*
X186490000Y-108443753D01*
X186456757Y-108233872D01*
X186456757Y-108233869D01*
X186391095Y-108031782D01*
X186294624Y-107842449D01*
X186255270Y-107788282D01*
X186255269Y-107788282D01*
X185622962Y-108420590D01*
X185605925Y-108357007D01*
X185540099Y-108242993D01*
X185447007Y-108149901D01*
X185332993Y-108084075D01*
X185269407Y-108067036D01*
X185901716Y-107434728D01*
X185847550Y-107395375D01*
X185658217Y-107298904D01*
X185456129Y-107233242D01*
X185246246Y-107200000D01*
X185033754Y-107200000D01*
X184823872Y-107233242D01*
X184823865Y-107233243D01*
X184751817Y-107256653D01*
X184681976Y-107258648D01*
X184622143Y-107222567D01*
X184591316Y-107159866D01*
X184589500Y-107138722D01*
X184589500Y-104662040D01*
X184588084Y-104654922D01*
X184587164Y-104650297D01*
X184565385Y-104540807D01*
X184537253Y-104472891D01*
X184535245Y-104465698D01*
X184535614Y-104437938D01*
X184532646Y-104410332D01*
X184536072Y-104403487D01*
X184536174Y-104395835D01*
X184551493Y-104372679D01*
X184563921Y-104347853D01*
X184570868Y-104343394D01*
X184574726Y-104337564D01*
X184591419Y-104330206D01*
X184615676Y-104314641D01*
X184631618Y-104309358D01*
X184631624Y-104309356D01*
X184780845Y-104217315D01*
X184904815Y-104093345D01*
X184996856Y-103944124D01*
X184996858Y-103944119D01*
X185052005Y-103777697D01*
X185052006Y-103777690D01*
X185062499Y-103674986D01*
X185062500Y-103674973D01*
X185062500Y-103250000D01*
X184124000Y-103250000D01*
X184056961Y-103230315D01*
X184011206Y-103177511D01*
X184000000Y-103126000D01*
X184000000Y-103000000D01*
X183874000Y-103000000D01*
X183806961Y-102980315D01*
X183761206Y-102927511D01*
X183750000Y-102876000D01*
X183750000Y-102750000D01*
X184250000Y-102750000D01*
X185062499Y-102750000D01*
X185062499Y-102360258D01*
X207749500Y-102360258D01*
X207749500Y-102589741D01*
X207755623Y-102636245D01*
X207779452Y-102817238D01*
X207793330Y-102869031D01*
X207838842Y-103038887D01*
X207926650Y-103250876D01*
X207926656Y-103250888D01*
X208033237Y-103435493D01*
X208041392Y-103449617D01*
X208181081Y-103631661D01*
X208181089Y-103631670D01*
X208343330Y-103793911D01*
X208343338Y-103793918D01*
X208525382Y-103933607D01*
X208525385Y-103933608D01*
X208525388Y-103933611D01*
X208724112Y-104048344D01*
X208724117Y-104048346D01*
X208724123Y-104048349D01*
X208815480Y-104086190D01*
X208936113Y-104136158D01*
X209157762Y-104195548D01*
X209385266Y-104225500D01*
X209385273Y-104225500D01*
X209614727Y-104225500D01*
X209614734Y-104225500D01*
X209842238Y-104195548D01*
X210063887Y-104136158D01*
X210275888Y-104048344D01*
X210474612Y-103933611D01*
X210656661Y-103793919D01*
X210656665Y-103793914D01*
X210656670Y-103793911D01*
X210818911Y-103631670D01*
X210818914Y-103631665D01*
X210818919Y-103631661D01*
X210958611Y-103449612D01*
X211073344Y-103250888D01*
X211161158Y-103038887D01*
X211220548Y-102817238D01*
X211250500Y-102589734D01*
X211250500Y-102360266D01*
X211220548Y-102132762D01*
X211161158Y-101911113D01*
X211083589Y-101723845D01*
X211073349Y-101699123D01*
X211073346Y-101699117D01*
X211073344Y-101699112D01*
X210958611Y-101500388D01*
X210958608Y-101500385D01*
X210958607Y-101500382D01*
X210857764Y-101368962D01*
X210818919Y-101318339D01*
X210818918Y-101318338D01*
X210818911Y-101318330D01*
X210656670Y-101156089D01*
X210656661Y-101156081D01*
X210474617Y-101016392D01*
X210275890Y-100901657D01*
X210275876Y-100901650D01*
X210063887Y-100813842D01*
X209842238Y-100754452D01*
X209804215Y-100749446D01*
X209614741Y-100724500D01*
X209614734Y-100724500D01*
X209385266Y-100724500D01*
X209385258Y-100724500D01*
X209168715Y-100753009D01*
X209157762Y-100754452D01*
X209064076Y-100779554D01*
X208936112Y-100813842D01*
X208724123Y-100901650D01*
X208724109Y-100901657D01*
X208525382Y-101016392D01*
X208343338Y-101156081D01*
X208181081Y-101318338D01*
X208041392Y-101500382D01*
X207926657Y-101699109D01*
X207926650Y-101699123D01*
X207838842Y-101911112D01*
X207779453Y-102132759D01*
X207779451Y-102132770D01*
X207749500Y-102360258D01*
X185062499Y-102360258D01*
X185062499Y-102325028D01*
X185062498Y-102325013D01*
X185052005Y-102222302D01*
X184996858Y-102055880D01*
X184996856Y-102055875D01*
X184904815Y-101906654D01*
X184780845Y-101782684D01*
X184631624Y-101690643D01*
X184631619Y-101690641D01*
X184465197Y-101635494D01*
X184465190Y-101635493D01*
X184362486Y-101625000D01*
X184250000Y-101625000D01*
X184250000Y-102750000D01*
X183750000Y-102750000D01*
X183750000Y-101625000D01*
X183637527Y-101625000D01*
X183637512Y-101625001D01*
X183534802Y-101635494D01*
X183368380Y-101690641D01*
X183368375Y-101690643D01*
X183219154Y-101782684D01*
X183095184Y-101906654D01*
X183003143Y-102055875D01*
X183003141Y-102055880D01*
X182947994Y-102222302D01*
X182947993Y-102222309D01*
X182937500Y-102325013D01*
X182937500Y-102512561D01*
X182931261Y-102533806D01*
X182929682Y-102555895D01*
X182921609Y-102566678D01*
X182917815Y-102579600D01*
X182901081Y-102594099D01*
X182887810Y-102611828D01*
X182875189Y-102616535D01*
X182865011Y-102625355D01*
X182843093Y-102628506D01*
X182822346Y-102636245D01*
X182809185Y-102633382D01*
X182795853Y-102635299D01*
X182775709Y-102626099D01*
X182754073Y-102621393D01*
X182736347Y-102608124D01*
X182732297Y-102606274D01*
X182725819Y-102600242D01*
X182629319Y-102503742D01*
X182595834Y-102442419D01*
X182593000Y-102416061D01*
X182593000Y-98903694D01*
X182568886Y-98782470D01*
X182568885Y-98782469D01*
X182568885Y-98782465D01*
X182568883Y-98782460D01*
X182521586Y-98668273D01*
X182521579Y-98668260D01*
X182452912Y-98565493D01*
X182452911Y-98565492D01*
X182365508Y-98478089D01*
X182325091Y-98437672D01*
X182291606Y-98376349D01*
X182291183Y-98374323D01*
X182269737Y-98266503D01*
X182254651Y-98230082D01*
X182209397Y-98120827D01*
X182209390Y-98120814D01*
X182148398Y-98029533D01*
X182127520Y-97962855D01*
X182127500Y-97960642D01*
X182127500Y-90039356D01*
X182147185Y-89972317D01*
X182148398Y-89970465D01*
X182209394Y-89879179D01*
X182269737Y-89733497D01*
X182300500Y-89578842D01*
X182300500Y-89421158D01*
X182300500Y-89421155D01*
X182300499Y-89421153D01*
X182269738Y-89266510D01*
X182269737Y-89266503D01*
X182267163Y-89260288D01*
X182209397Y-89120827D01*
X182209390Y-89120814D01*
X182148398Y-89029533D01*
X182127520Y-88962855D01*
X182127500Y-88960642D01*
X182127500Y-81938196D01*
X182127499Y-81938192D01*
X182103387Y-81816973D01*
X182103386Y-81816966D01*
X182058407Y-81708379D01*
X182056763Y-81703784D01*
X181987414Y-81599996D01*
X181987413Y-81599994D01*
X181987411Y-81599992D01*
X181900008Y-81512589D01*
X181825091Y-81437672D01*
X181791606Y-81376349D01*
X181791183Y-81374323D01*
X181769737Y-81266503D01*
X181754651Y-81230082D01*
X181709397Y-81120827D01*
X181709390Y-81120814D01*
X181648398Y-81029533D01*
X181627520Y-80962855D01*
X181627500Y-80960642D01*
X181627500Y-73039356D01*
X181647185Y-72972317D01*
X181648398Y-72970465D01*
X181709394Y-72879179D01*
X181769737Y-72733497D01*
X181800500Y-72578842D01*
X181800500Y-72421158D01*
X181800500Y-72421155D01*
X181800499Y-72421153D01*
X181793227Y-72384593D01*
X181769737Y-72266503D01*
X181760623Y-72244500D01*
X181709397Y-72120827D01*
X181709390Y-72120814D01*
X181621789Y-71989711D01*
X181621786Y-71989707D01*
X181510292Y-71878213D01*
X181510288Y-71878210D01*
X181379185Y-71790609D01*
X181379172Y-71790602D01*
X181233501Y-71730264D01*
X181233489Y-71730261D01*
X181078845Y-71699500D01*
X181078842Y-71699500D01*
X181019029Y-71699500D01*
X180951990Y-71679815D01*
X180906235Y-71627011D01*
X180896291Y-71557853D01*
X180925316Y-71494297D01*
X180938493Y-71481214D01*
X180939789Y-71480106D01*
X180939788Y-71480106D01*
X180939792Y-71480104D01*
X181090104Y-71329792D01*
X181090106Y-71329788D01*
X181090109Y-71329786D01*
X181215048Y-71157820D01*
X181215047Y-71157820D01*
X181215051Y-71157816D01*
X181219514Y-71149054D01*
X181267488Y-71098259D01*
X181335308Y-71081463D01*
X181401444Y-71103999D01*
X181440486Y-71149056D01*
X181444951Y-71157820D01*
X181569890Y-71329786D01*
X181720213Y-71480109D01*
X181892179Y-71605048D01*
X181892181Y-71605049D01*
X181892184Y-71605051D01*
X182081588Y-71701557D01*
X182283757Y-71767246D01*
X182493713Y-71800500D01*
X182493714Y-71800500D01*
X182706286Y-71800500D01*
X182706287Y-71800500D01*
X182916243Y-71767246D01*
X183118412Y-71701557D01*
X183307816Y-71605051D01*
X183362572Y-71565269D01*
X183479786Y-71480109D01*
X183479788Y-71480106D01*
X183479792Y-71480104D01*
X183630104Y-71329792D01*
X183630106Y-71329788D01*
X183630109Y-71329786D01*
X183715890Y-71211717D01*
X183755051Y-71157816D01*
X183759793Y-71148508D01*
X183807763Y-71097711D01*
X183875583Y-71080911D01*
X183941719Y-71103445D01*
X183980763Y-71148500D01*
X183985373Y-71157547D01*
X184024728Y-71211716D01*
X184657037Y-70579408D01*
X184674075Y-70642993D01*
X184739901Y-70757007D01*
X184832993Y-70850099D01*
X184947007Y-70915925D01*
X185010590Y-70932962D01*
X184378282Y-71565269D01*
X184378282Y-71565270D01*
X184432449Y-71604624D01*
X184621782Y-71701095D01*
X184823870Y-71766757D01*
X185033754Y-71800000D01*
X185246246Y-71800000D01*
X185456127Y-71766757D01*
X185456130Y-71766757D01*
X185658217Y-71701095D01*
X185847554Y-71604622D01*
X185901716Y-71565270D01*
X185901717Y-71565270D01*
X185269408Y-70932962D01*
X185332993Y-70915925D01*
X185447007Y-70850099D01*
X185540099Y-70757007D01*
X185605925Y-70642993D01*
X185622962Y-70579408D01*
X186255270Y-71211717D01*
X186255270Y-71211716D01*
X186294622Y-71157554D01*
X186391095Y-70968217D01*
X186456757Y-70766130D01*
X186456757Y-70766127D01*
X186490000Y-70556246D01*
X186490000Y-70343753D01*
X186456757Y-70133872D01*
X186456757Y-70133869D01*
X186391095Y-69931782D01*
X186294624Y-69742449D01*
X186255270Y-69688282D01*
X186255269Y-69688282D01*
X185622962Y-70320590D01*
X185605925Y-70257007D01*
X185540099Y-70142993D01*
X185447007Y-70049901D01*
X185332993Y-69984075D01*
X185269409Y-69967037D01*
X185901716Y-69334728D01*
X185847550Y-69295375D01*
X185658217Y-69198904D01*
X185456129Y-69133242D01*
X185246246Y-69100000D01*
X185033754Y-69100000D01*
X184823872Y-69133242D01*
X184823869Y-69133242D01*
X184621782Y-69198904D01*
X184432439Y-69295380D01*
X184378282Y-69334727D01*
X184378282Y-69334728D01*
X185010591Y-69967037D01*
X184947007Y-69984075D01*
X184832993Y-70049901D01*
X184739901Y-70142993D01*
X184674075Y-70257007D01*
X184657037Y-70320591D01*
X184024728Y-69688282D01*
X184024727Y-69688282D01*
X183985380Y-69742440D01*
X183985376Y-69742446D01*
X183980760Y-69751505D01*
X183932781Y-69802297D01*
X183864959Y-69819087D01*
X183798826Y-69796543D01*
X183759794Y-69751493D01*
X183755051Y-69742184D01*
X183755049Y-69742181D01*
X183755048Y-69742179D01*
X183630109Y-69570213D01*
X183479786Y-69419890D01*
X183307820Y-69294951D01*
X183118414Y-69198444D01*
X183118413Y-69198443D01*
X183118412Y-69198443D01*
X182916243Y-69132754D01*
X182916241Y-69132753D01*
X182916240Y-69132753D01*
X182752863Y-69106877D01*
X182706287Y-69099500D01*
X182493713Y-69099500D01*
X182447137Y-69106877D01*
X182283755Y-69132754D01*
X182270293Y-69137128D01*
X182200451Y-69139122D01*
X182144296Y-69106877D01*
X179966600Y-66929181D01*
X179933115Y-66867858D01*
X179938099Y-66798166D01*
X179979971Y-66742233D01*
X180045435Y-66717816D01*
X180054281Y-66717500D01*
X185778719Y-66717500D01*
X185845758Y-66737185D01*
X185866400Y-66753819D01*
X187674907Y-68562326D01*
X187708392Y-68623649D01*
X187708843Y-68625815D01*
X187730261Y-68733491D01*
X187730264Y-68733501D01*
X187790603Y-68879174D01*
X187790604Y-68879175D01*
X187790606Y-68879179D01*
X187837354Y-68949142D01*
X187851602Y-68970465D01*
X187872480Y-69037142D01*
X187872500Y-69039356D01*
X187872500Y-72460642D01*
X187852815Y-72527681D01*
X187851602Y-72529533D01*
X187790609Y-72620814D01*
X187790602Y-72620827D01*
X187730264Y-72766498D01*
X187730261Y-72766510D01*
X187699500Y-72921153D01*
X187699500Y-73078846D01*
X187730261Y-73233489D01*
X187730264Y-73233501D01*
X187790603Y-73379174D01*
X187790604Y-73379175D01*
X187790606Y-73379179D01*
X187818914Y-73421544D01*
X187851602Y-73470465D01*
X187872480Y-73537142D01*
X187872500Y-73539356D01*
X187872500Y-81960642D01*
X187852815Y-82027681D01*
X187851602Y-82029533D01*
X187790609Y-82120814D01*
X187790602Y-82120827D01*
X187730264Y-82266498D01*
X187730261Y-82266510D01*
X187699500Y-82421153D01*
X187699500Y-82578846D01*
X187730261Y-82733489D01*
X187730264Y-82733501D01*
X187790603Y-82879174D01*
X187790604Y-82879175D01*
X187790606Y-82879179D01*
X187830041Y-82938197D01*
X187851602Y-82970465D01*
X187872480Y-83037142D01*
X187872500Y-83039356D01*
X187872500Y-91157309D01*
X187852815Y-91224348D01*
X187851602Y-91226200D01*
X187790609Y-91317481D01*
X187790602Y-91317494D01*
X187730264Y-91463165D01*
X187730261Y-91463177D01*
X187699500Y-91617820D01*
X187699500Y-91775513D01*
X187730261Y-91930156D01*
X187730264Y-91930168D01*
X187790603Y-92075841D01*
X187790604Y-92075842D01*
X187790606Y-92075846D01*
X187834776Y-92141950D01*
X187851602Y-92167132D01*
X187872480Y-92233809D01*
X187872500Y-92236023D01*
X187872500Y-99637414D01*
X187852815Y-99704453D01*
X187800011Y-99750208D01*
X187772695Y-99759031D01*
X187766504Y-99760262D01*
X187766500Y-99760263D01*
X187620827Y-99820602D01*
X187620814Y-99820609D01*
X187489711Y-99908210D01*
X187489707Y-99908213D01*
X187378213Y-100019707D01*
X187378210Y-100019711D01*
X187290609Y-100150814D01*
X187290602Y-100150827D01*
X187230264Y-100296498D01*
X187230261Y-100296510D01*
X187199500Y-100451153D01*
X187199500Y-100608846D01*
X187230261Y-100763489D01*
X187230264Y-100763501D01*
X187290602Y-100909172D01*
X187290609Y-100909185D01*
X187378210Y-101040288D01*
X187378213Y-101040292D01*
X187489707Y-101151786D01*
X187489711Y-101151789D01*
X187620814Y-101239390D01*
X187620827Y-101239397D01*
X187766498Y-101299735D01*
X187766503Y-101299737D01*
X187921153Y-101330499D01*
X187921156Y-101330500D01*
X187921158Y-101330500D01*
X188078844Y-101330500D01*
X188078845Y-101330499D01*
X188233497Y-101299737D01*
X188379179Y-101239394D01*
X188510289Y-101151789D01*
X188621789Y-101040289D01*
X188709394Y-100909179D01*
X188769737Y-100763497D01*
X188791156Y-100655812D01*
X188823539Y-100593906D01*
X188824976Y-100592441D01*
X188987411Y-100430008D01*
X188993324Y-100421158D01*
X189056083Y-100327233D01*
X189081238Y-100266503D01*
X189103386Y-100213034D01*
X189127500Y-100091803D01*
X189127500Y-99968197D01*
X189127500Y-92236023D01*
X189147185Y-92168984D01*
X189148398Y-92167132D01*
X189209394Y-92075846D01*
X189269737Y-91930164D01*
X189300500Y-91775509D01*
X189300500Y-91617825D01*
X189300500Y-91617822D01*
X189300499Y-91617820D01*
X189275016Y-91489711D01*
X189269737Y-91463170D01*
X189234546Y-91378210D01*
X189209397Y-91317494D01*
X189209390Y-91317481D01*
X189148398Y-91226200D01*
X189127520Y-91159522D01*
X189127500Y-91157309D01*
X189127500Y-83039356D01*
X189147185Y-82972317D01*
X189148398Y-82970465D01*
X189156813Y-82957871D01*
X189209394Y-82879179D01*
X189269737Y-82733497D01*
X189300500Y-82578842D01*
X189300500Y-82421158D01*
X189300500Y-82421155D01*
X189300499Y-82421153D01*
X189285346Y-82344973D01*
X189269737Y-82266503D01*
X189255307Y-82231665D01*
X189209397Y-82120827D01*
X189209390Y-82120814D01*
X189148398Y-82029533D01*
X189127520Y-81962855D01*
X189127500Y-81960642D01*
X189127500Y-76360258D01*
X207749500Y-76360258D01*
X207749500Y-76589741D01*
X207764679Y-76705027D01*
X207779452Y-76817238D01*
X207817132Y-76957863D01*
X207838842Y-77038887D01*
X207926650Y-77250876D01*
X207926656Y-77250888D01*
X208041041Y-77449010D01*
X208041392Y-77449617D01*
X208181081Y-77631661D01*
X208181089Y-77631670D01*
X208343330Y-77793911D01*
X208343338Y-77793918D01*
X208525382Y-77933607D01*
X208525385Y-77933608D01*
X208525388Y-77933611D01*
X208724112Y-78048344D01*
X208724117Y-78048346D01*
X208724123Y-78048349D01*
X208815480Y-78086190D01*
X208936113Y-78136158D01*
X209157762Y-78195548D01*
X209385266Y-78225500D01*
X209385273Y-78225500D01*
X209614727Y-78225500D01*
X209614734Y-78225500D01*
X209842238Y-78195548D01*
X210063887Y-78136158D01*
X210275888Y-78048344D01*
X210474612Y-77933611D01*
X210656661Y-77793919D01*
X210656665Y-77793914D01*
X210656670Y-77793911D01*
X210818911Y-77631670D01*
X210818914Y-77631665D01*
X210818919Y-77631661D01*
X210958611Y-77449612D01*
X211073344Y-77250888D01*
X211161158Y-77038887D01*
X211220548Y-76817238D01*
X211250500Y-76589734D01*
X211250500Y-76360266D01*
X211220548Y-76132762D01*
X211161158Y-75911113D01*
X211099967Y-75763386D01*
X211073349Y-75699123D01*
X211073346Y-75699117D01*
X211073344Y-75699112D01*
X210958611Y-75500388D01*
X210958608Y-75500385D01*
X210958607Y-75500382D01*
X210818918Y-75318338D01*
X210818911Y-75318330D01*
X210656670Y-75156089D01*
X210656661Y-75156081D01*
X210474617Y-75016392D01*
X210471705Y-75014711D01*
X210366277Y-74953842D01*
X210275890Y-74901657D01*
X210275876Y-74901650D01*
X210063887Y-74813842D01*
X210019322Y-74801901D01*
X209842238Y-74754452D01*
X209804215Y-74749446D01*
X209614741Y-74724500D01*
X209614734Y-74724500D01*
X209385266Y-74724500D01*
X209385258Y-74724500D01*
X209168715Y-74753009D01*
X209157762Y-74754452D01*
X209087046Y-74773400D01*
X208936112Y-74813842D01*
X208724123Y-74901650D01*
X208724109Y-74901657D01*
X208525382Y-75016392D01*
X208343338Y-75156081D01*
X208181081Y-75318338D01*
X208041392Y-75500382D01*
X207926657Y-75699109D01*
X207926650Y-75699123D01*
X207838842Y-75911112D01*
X207805697Y-76034812D01*
X207781399Y-76125498D01*
X207779453Y-76132759D01*
X207779451Y-76132770D01*
X207749500Y-76360258D01*
X189127500Y-76360258D01*
X189127500Y-73539356D01*
X189147185Y-73472317D01*
X189148398Y-73470465D01*
X189209394Y-73379179D01*
X189269737Y-73233497D01*
X189300500Y-73078842D01*
X189300500Y-72921158D01*
X189300500Y-72921155D01*
X189300499Y-72921153D01*
X189290758Y-72872184D01*
X189269737Y-72766503D01*
X189269735Y-72766498D01*
X189209397Y-72620827D01*
X189209390Y-72620814D01*
X189148398Y-72529533D01*
X189127520Y-72462855D01*
X189127500Y-72460642D01*
X189127500Y-69039356D01*
X189147185Y-68972317D01*
X189148398Y-68970465D01*
X189209394Y-68879179D01*
X189269737Y-68733497D01*
X189300500Y-68578842D01*
X189300500Y-68421158D01*
X189300500Y-68421155D01*
X189300499Y-68421153D01*
X189292913Y-68383015D01*
X189269737Y-68266503D01*
X189261888Y-68247554D01*
X189209397Y-68120827D01*
X189209390Y-68120814D01*
X189121789Y-67989711D01*
X189121786Y-67989707D01*
X189010292Y-67878213D01*
X189010288Y-67878210D01*
X188879185Y-67790609D01*
X188879172Y-67790602D01*
X188733501Y-67730264D01*
X188733491Y-67730261D01*
X188625815Y-67708843D01*
X188563904Y-67676458D01*
X188562326Y-67674907D01*
X186490011Y-65602591D01*
X186490007Y-65602588D01*
X186387239Y-65533920D01*
X186387226Y-65533913D01*
X186353785Y-65520062D01*
X186273035Y-65486614D01*
X186273027Y-65486612D01*
X186151807Y-65462500D01*
X186151803Y-65462500D01*
X99511803Y-65462500D01*
X99474499Y-65462500D01*
X99407460Y-65442815D01*
X99361705Y-65390011D01*
X99350499Y-65338500D01*
X99350499Y-64102129D01*
X99350498Y-64102123D01*
X99350497Y-64102116D01*
X99344091Y-64042517D01*
X99293796Y-63907669D01*
X99293795Y-63907668D01*
X99293793Y-63907664D01*
X99207547Y-63792455D01*
X99207544Y-63792452D01*
X99092335Y-63706206D01*
X99092328Y-63706202D01*
X98957482Y-63655908D01*
X98957483Y-63655908D01*
X98897883Y-63649501D01*
X98897881Y-63649500D01*
X98897873Y-63649500D01*
X98897864Y-63649500D01*
X97102129Y-63649500D01*
X97102123Y-63649501D01*
X97042516Y-63655908D01*
X96907671Y-63706202D01*
X96907664Y-63706206D01*
X96792455Y-63792452D01*
X96792452Y-63792455D01*
X96706206Y-63907664D01*
X96706202Y-63907671D01*
X96655908Y-64042517D01*
X96649501Y-64102116D01*
X96649501Y-64102123D01*
X96649500Y-64102135D01*
X96649500Y-65897870D01*
X96649501Y-65897876D01*
X96655908Y-65957483D01*
X96706202Y-66092328D01*
X96706206Y-66092335D01*
X96792452Y-66207544D01*
X96792455Y-66207547D01*
X96907664Y-66293793D01*
X96907671Y-66293797D01*
X97039082Y-66342810D01*
X97095016Y-66384681D01*
X97119433Y-66450145D01*
X97104582Y-66518418D01*
X97083431Y-66546673D01*
X96969889Y-66660215D01*
X96844951Y-66832179D01*
X96748444Y-67021585D01*
X96682753Y-67223760D01*
X96649500Y-67433713D01*
X96649500Y-67646286D01*
X96682735Y-67856127D01*
X96682754Y-67856243D01*
X96726119Y-67989707D01*
X96748444Y-68058414D01*
X96844951Y-68247820D01*
X96969890Y-68419786D01*
X97120213Y-68570109D01*
X97292182Y-68695050D01*
X97300946Y-68699516D01*
X97351742Y-68747491D01*
X97368536Y-68815312D01*
X97345998Y-68881447D01*
X97300946Y-68920484D01*
X97292182Y-68924949D01*
X97120213Y-69049890D01*
X96969890Y-69200213D01*
X96844951Y-69372179D01*
X96748444Y-69561585D01*
X96682753Y-69763760D01*
X96656172Y-69931588D01*
X96649500Y-69973713D01*
X96649500Y-70186287D01*
X96682754Y-70396243D01*
X96734742Y-70556246D01*
X96748444Y-70598414D01*
X96844951Y-70787820D01*
X96969890Y-70959786D01*
X97120213Y-71110109D01*
X97292179Y-71235048D01*
X97292181Y-71235049D01*
X97292184Y-71235051D01*
X97481588Y-71331557D01*
X97683757Y-71397246D01*
X97893713Y-71430500D01*
X97893714Y-71430500D01*
X98106286Y-71430500D01*
X98106287Y-71430500D01*
X98316243Y-71397246D01*
X98416206Y-71364765D01*
X98486043Y-71362771D01*
X98545876Y-71398851D01*
X98576705Y-71461552D01*
X98568741Y-71530966D01*
X98542202Y-71570378D01*
X98156400Y-71956181D01*
X98095077Y-71989666D01*
X98068719Y-71992500D01*
X94271961Y-71992500D01*
X94204922Y-71972815D01*
X94161475Y-71924792D01*
X94155050Y-71912181D01*
X94030109Y-71740213D01*
X93879786Y-71589890D01*
X93707820Y-71464951D01*
X93707115Y-71464591D01*
X93699054Y-71460485D01*
X93648259Y-71412512D01*
X93631463Y-71344692D01*
X93653999Y-71278556D01*
X93699054Y-71239515D01*
X93707816Y-71235051D01*
X93739934Y-71211716D01*
X93879786Y-71110109D01*
X93879788Y-71110106D01*
X93879792Y-71110104D01*
X94030104Y-70959792D01*
X94030106Y-70959788D01*
X94030109Y-70959786D01*
X94155048Y-70787820D01*
X94155047Y-70787820D01*
X94155051Y-70787816D01*
X94251557Y-70598412D01*
X94317246Y-70396243D01*
X94350500Y-70186287D01*
X94350500Y-69973713D01*
X94317246Y-69763757D01*
X94251557Y-69561588D01*
X94155051Y-69372184D01*
X94155049Y-69372181D01*
X94155048Y-69372179D01*
X94030109Y-69200213D01*
X93879786Y-69049890D01*
X93707817Y-68924949D01*
X93698504Y-68920204D01*
X93647707Y-68872230D01*
X93630912Y-68804409D01*
X93653449Y-68738274D01*
X93698507Y-68699232D01*
X93707555Y-68694622D01*
X93761716Y-68655270D01*
X93761717Y-68655270D01*
X93129408Y-68022962D01*
X93192993Y-68005925D01*
X93307007Y-67940099D01*
X93400099Y-67847007D01*
X93465925Y-67732993D01*
X93482962Y-67669409D01*
X94115270Y-68301717D01*
X94115270Y-68301716D01*
X94154622Y-68247554D01*
X94251095Y-68058217D01*
X94316757Y-67856130D01*
X94316757Y-67856127D01*
X94350000Y-67646246D01*
X94350000Y-67433753D01*
X94316757Y-67223872D01*
X94316757Y-67223869D01*
X94251095Y-67021782D01*
X94154624Y-66832449D01*
X94115270Y-66778282D01*
X94115269Y-66778282D01*
X93482962Y-67410590D01*
X93465925Y-67347007D01*
X93400099Y-67232993D01*
X93307007Y-67139901D01*
X93192993Y-67074075D01*
X93129409Y-67057037D01*
X93799627Y-66386818D01*
X93860950Y-66353333D01*
X93887307Y-66350499D01*
X93897872Y-66350499D01*
X93957483Y-66344091D01*
X94092331Y-66293796D01*
X94207546Y-66207546D01*
X94293796Y-66092331D01*
X94344091Y-65957483D01*
X94350500Y-65897873D01*
X94350499Y-64102128D01*
X94344091Y-64042517D01*
X94293796Y-63907669D01*
X94293795Y-63907668D01*
X94293793Y-63907664D01*
X94207547Y-63792455D01*
X94207544Y-63792452D01*
X94092335Y-63706206D01*
X94092328Y-63706202D01*
X93957482Y-63655908D01*
X93957483Y-63655908D01*
X93897883Y-63649501D01*
X93897881Y-63649500D01*
X93897873Y-63649500D01*
X93897864Y-63649500D01*
X92102129Y-63649500D01*
X92102123Y-63649501D01*
X92042516Y-63655908D01*
X91907671Y-63706202D01*
X91907664Y-63706206D01*
X91792455Y-63792452D01*
X91792452Y-63792455D01*
X91706206Y-63907664D01*
X91706202Y-63907671D01*
X91655908Y-64042517D01*
X91649501Y-64102116D01*
X91649501Y-64102123D01*
X91649500Y-64102135D01*
X91649500Y-65897870D01*
X91649501Y-65897876D01*
X91655908Y-65957483D01*
X91706202Y-66092328D01*
X91706206Y-66092335D01*
X91792452Y-66207544D01*
X91792455Y-66207547D01*
X91907664Y-66293793D01*
X91907671Y-66293797D01*
X91952618Y-66310561D01*
X92042517Y-66344091D01*
X92102127Y-66350500D01*
X92112685Y-66350499D01*
X92179723Y-66370179D01*
X92200372Y-66386818D01*
X92870591Y-67057037D01*
X92807007Y-67074075D01*
X92692993Y-67139901D01*
X92599901Y-67232993D01*
X92534075Y-67347007D01*
X92517037Y-67410591D01*
X91884728Y-66778282D01*
X91884727Y-66778282D01*
X91845380Y-66832439D01*
X91748904Y-67021782D01*
X91683242Y-67223869D01*
X91683242Y-67223872D01*
X91650000Y-67433753D01*
X91650000Y-67646246D01*
X91683242Y-67856127D01*
X91683242Y-67856130D01*
X91748904Y-68058217D01*
X91845375Y-68247550D01*
X91884728Y-68301716D01*
X92517037Y-67669408D01*
X92534075Y-67732993D01*
X92599901Y-67847007D01*
X92692993Y-67940099D01*
X92807007Y-68005925D01*
X92870590Y-68022962D01*
X92238282Y-68655269D01*
X92238282Y-68655270D01*
X92292452Y-68694626D01*
X92292451Y-68694626D01*
X92301495Y-68699234D01*
X92352292Y-68747208D01*
X92369087Y-68815029D01*
X92346550Y-68881164D01*
X92301499Y-68920202D01*
X92292182Y-68924949D01*
X92120213Y-69049890D01*
X91969890Y-69200213D01*
X91844951Y-69372179D01*
X91748444Y-69561585D01*
X91682753Y-69763760D01*
X91656172Y-69931588D01*
X91649500Y-69973713D01*
X91649500Y-70186287D01*
X91682754Y-70396243D01*
X91734742Y-70556246D01*
X91748444Y-70598414D01*
X91844951Y-70787820D01*
X91969890Y-70959786D01*
X92120213Y-71110109D01*
X92292182Y-71235050D01*
X92300946Y-71239516D01*
X92351742Y-71287491D01*
X92368536Y-71355312D01*
X92345998Y-71421447D01*
X92300946Y-71460484D01*
X92292182Y-71464949D01*
X92120213Y-71589890D01*
X91969890Y-71740213D01*
X91844951Y-71912179D01*
X91748444Y-72101585D01*
X91682753Y-72303760D01*
X91665927Y-72409996D01*
X91649500Y-72513713D01*
X91649500Y-72726287D01*
X91652970Y-72748197D01*
X91680364Y-72921158D01*
X91682754Y-72936243D01*
X91745818Y-73130334D01*
X91748444Y-73138414D01*
X91844951Y-73327820D01*
X91965274Y-73493432D01*
X91988754Y-73559239D01*
X91972928Y-73627292D01*
X91952637Y-73653998D01*
X91550561Y-74056076D01*
X91421992Y-74184645D01*
X91397247Y-74209390D01*
X91334586Y-74272050D01*
X91334585Y-74272052D01*
X91265233Y-74375845D01*
X91263586Y-74380449D01*
X91218614Y-74489020D01*
X91218612Y-74489028D01*
X91195866Y-74603379D01*
X91195866Y-74603385D01*
X91194567Y-74609919D01*
X91194500Y-74610254D01*
X89145500Y-74610254D01*
X89145500Y-62159500D01*
X89165185Y-62092461D01*
X89217989Y-62046706D01*
X89269500Y-62035500D01*
X224780500Y-62035500D01*
X224847539Y-62055185D01*
G37*
%TD.AperFunction*%
%TD*%
M02*
