%TF.GenerationSoftware,KiCad,Pcbnew,9.0.1*%
%TF.CreationDate,2025-04-05T14:03:07-06:00*%
%TF.ProjectId,GBDump,47424475-6d70-42e6-9b69-6361645f7063,rev?*%
%TF.SameCoordinates,Original*%
%TF.FileFunction,Legend,Top*%
%TF.FilePolarity,Positive*%
%FSLAX46Y46*%
G04 Gerber Fmt 4.6, Leading zero omitted, Abs format (unit mm)*
G04 Created by KiCad (PCBNEW 9.0.1) date 2025-04-05 14:03:07*
%MOMM*%
%LPD*%
G01*
G04 APERTURE LIST*
%ADD10C,0.150000*%
%ADD11C,0.100000*%
%ADD12C,0.120000*%
G04 APERTURE END LIST*
D10*
X167954819Y-86095237D02*
X168764342Y-86095237D01*
X168764342Y-86095237D02*
X168859580Y-86047618D01*
X168859580Y-86047618D02*
X168907200Y-85999999D01*
X168907200Y-85999999D02*
X168954819Y-85904761D01*
X168954819Y-85904761D02*
X168954819Y-85714285D01*
X168954819Y-85714285D02*
X168907200Y-85619047D01*
X168907200Y-85619047D02*
X168859580Y-85571428D01*
X168859580Y-85571428D02*
X168764342Y-85523809D01*
X168764342Y-85523809D02*
X167954819Y-85523809D01*
X167954819Y-85142856D02*
X167954819Y-84523809D01*
X167954819Y-84523809D02*
X168335771Y-84857142D01*
X168335771Y-84857142D02*
X168335771Y-84714285D01*
X168335771Y-84714285D02*
X168383390Y-84619047D01*
X168383390Y-84619047D02*
X168431009Y-84571428D01*
X168431009Y-84571428D02*
X168526247Y-84523809D01*
X168526247Y-84523809D02*
X168764342Y-84523809D01*
X168764342Y-84523809D02*
X168859580Y-84571428D01*
X168859580Y-84571428D02*
X168907200Y-84619047D01*
X168907200Y-84619047D02*
X168954819Y-84714285D01*
X168954819Y-84714285D02*
X168954819Y-84999999D01*
X168954819Y-84999999D02*
X168907200Y-85095237D01*
X168907200Y-85095237D02*
X168859580Y-85142856D01*
X92666666Y-62074819D02*
X92666666Y-62789104D01*
X92666666Y-62789104D02*
X92619047Y-62931961D01*
X92619047Y-62931961D02*
X92523809Y-63027200D01*
X92523809Y-63027200D02*
X92380952Y-63074819D01*
X92380952Y-63074819D02*
X92285714Y-63074819D01*
X93047619Y-62074819D02*
X93666666Y-62074819D01*
X93666666Y-62074819D02*
X93333333Y-62455771D01*
X93333333Y-62455771D02*
X93476190Y-62455771D01*
X93476190Y-62455771D02*
X93571428Y-62503390D01*
X93571428Y-62503390D02*
X93619047Y-62551009D01*
X93619047Y-62551009D02*
X93666666Y-62646247D01*
X93666666Y-62646247D02*
X93666666Y-62884342D01*
X93666666Y-62884342D02*
X93619047Y-62979580D01*
X93619047Y-62979580D02*
X93571428Y-63027200D01*
X93571428Y-63027200D02*
X93476190Y-63074819D01*
X93476190Y-63074819D02*
X93190476Y-63074819D01*
X93190476Y-63074819D02*
X93095238Y-63027200D01*
X93095238Y-63027200D02*
X93047619Y-62979580D01*
X168317319Y-77036904D02*
X169126842Y-77036904D01*
X169126842Y-77036904D02*
X169222080Y-76989285D01*
X169222080Y-76989285D02*
X169269700Y-76941666D01*
X169269700Y-76941666D02*
X169317319Y-76846428D01*
X169317319Y-76846428D02*
X169317319Y-76655952D01*
X169317319Y-76655952D02*
X169269700Y-76560714D01*
X169269700Y-76560714D02*
X169222080Y-76513095D01*
X169222080Y-76513095D02*
X169126842Y-76465476D01*
X169126842Y-76465476D02*
X168317319Y-76465476D01*
X168412557Y-76036904D02*
X168364938Y-75989285D01*
X168364938Y-75989285D02*
X168317319Y-75894047D01*
X168317319Y-75894047D02*
X168317319Y-75655952D01*
X168317319Y-75655952D02*
X168364938Y-75560714D01*
X168364938Y-75560714D02*
X168412557Y-75513095D01*
X168412557Y-75513095D02*
X168507795Y-75465476D01*
X168507795Y-75465476D02*
X168603033Y-75465476D01*
X168603033Y-75465476D02*
X168745890Y-75513095D01*
X168745890Y-75513095D02*
X169317319Y-76084523D01*
X169317319Y-76084523D02*
X169317319Y-75465476D01*
D11*
X102467419Y-117811904D02*
X103276942Y-117811904D01*
X103276942Y-117811904D02*
X103372180Y-117764285D01*
X103372180Y-117764285D02*
X103419800Y-117716666D01*
X103419800Y-117716666D02*
X103467419Y-117621428D01*
X103467419Y-117621428D02*
X103467419Y-117430952D01*
X103467419Y-117430952D02*
X103419800Y-117335714D01*
X103419800Y-117335714D02*
X103372180Y-117288095D01*
X103372180Y-117288095D02*
X103276942Y-117240476D01*
X103276942Y-117240476D02*
X102467419Y-117240476D01*
X103467419Y-116240476D02*
X103467419Y-116811904D01*
X103467419Y-116526190D02*
X102467419Y-116526190D01*
X102467419Y-116526190D02*
X102610276Y-116621428D01*
X102610276Y-116621428D02*
X102705514Y-116716666D01*
X102705514Y-116716666D02*
X102753133Y-116811904D01*
D10*
X208045180Y-88713095D02*
X207235657Y-88713095D01*
X207235657Y-88713095D02*
X207140419Y-88760714D01*
X207140419Y-88760714D02*
X207092800Y-88808333D01*
X207092800Y-88808333D02*
X207045180Y-88903571D01*
X207045180Y-88903571D02*
X207045180Y-89094047D01*
X207045180Y-89094047D02*
X207092800Y-89189285D01*
X207092800Y-89189285D02*
X207140419Y-89236904D01*
X207140419Y-89236904D02*
X207235657Y-89284523D01*
X207235657Y-89284523D02*
X208045180Y-89284523D01*
X208045180Y-90236904D02*
X208045180Y-89760714D01*
X208045180Y-89760714D02*
X207568990Y-89713095D01*
X207568990Y-89713095D02*
X207616609Y-89760714D01*
X207616609Y-89760714D02*
X207664228Y-89855952D01*
X207664228Y-89855952D02*
X207664228Y-90094047D01*
X207664228Y-90094047D02*
X207616609Y-90189285D01*
X207616609Y-90189285D02*
X207568990Y-90236904D01*
X207568990Y-90236904D02*
X207473752Y-90284523D01*
X207473752Y-90284523D02*
X207235657Y-90284523D01*
X207235657Y-90284523D02*
X207140419Y-90236904D01*
X207140419Y-90236904D02*
X207092800Y-90189285D01*
X207092800Y-90189285D02*
X207045180Y-90094047D01*
X207045180Y-90094047D02*
X207045180Y-89855952D01*
X207045180Y-89855952D02*
X207092800Y-89760714D01*
X207092800Y-89760714D02*
X207140419Y-89713095D01*
X97166666Y-62074819D02*
X97166666Y-62789104D01*
X97166666Y-62789104D02*
X97119047Y-62931961D01*
X97119047Y-62931961D02*
X97023809Y-63027200D01*
X97023809Y-63027200D02*
X96880952Y-63074819D01*
X96880952Y-63074819D02*
X96785714Y-63074819D01*
X97642857Y-63074819D02*
X97642857Y-62074819D01*
X97642857Y-62074819D02*
X98023809Y-62074819D01*
X98023809Y-62074819D02*
X98119047Y-62122438D01*
X98119047Y-62122438D02*
X98166666Y-62170057D01*
X98166666Y-62170057D02*
X98214285Y-62265295D01*
X98214285Y-62265295D02*
X98214285Y-62408152D01*
X98214285Y-62408152D02*
X98166666Y-62503390D01*
X98166666Y-62503390D02*
X98119047Y-62551009D01*
X98119047Y-62551009D02*
X98023809Y-62598628D01*
X98023809Y-62598628D02*
X97642857Y-62598628D01*
X99166666Y-63074819D02*
X98595238Y-63074819D01*
X98880952Y-63074819D02*
X98880952Y-62074819D01*
X98880952Y-62074819D02*
X98785714Y-62217676D01*
X98785714Y-62217676D02*
X98690476Y-62312914D01*
X98690476Y-62312914D02*
X98595238Y-62360533D01*
X106479819Y-89758333D02*
X107194104Y-89758333D01*
X107194104Y-89758333D02*
X107336961Y-89805952D01*
X107336961Y-89805952D02*
X107432200Y-89901190D01*
X107432200Y-89901190D02*
X107479819Y-90044047D01*
X107479819Y-90044047D02*
X107479819Y-90139285D01*
X106575057Y-89329761D02*
X106527438Y-89282142D01*
X106527438Y-89282142D02*
X106479819Y-89186904D01*
X106479819Y-89186904D02*
X106479819Y-88948809D01*
X106479819Y-88948809D02*
X106527438Y-88853571D01*
X106527438Y-88853571D02*
X106575057Y-88805952D01*
X106575057Y-88805952D02*
X106670295Y-88758333D01*
X106670295Y-88758333D02*
X106765533Y-88758333D01*
X106765533Y-88758333D02*
X106908390Y-88805952D01*
X106908390Y-88805952D02*
X107479819Y-89377380D01*
X107479819Y-89377380D02*
X107479819Y-88758333D01*
X167817319Y-103761904D02*
X168626842Y-103761904D01*
X168626842Y-103761904D02*
X168722080Y-103714285D01*
X168722080Y-103714285D02*
X168769700Y-103666666D01*
X168769700Y-103666666D02*
X168817319Y-103571428D01*
X168817319Y-103571428D02*
X168817319Y-103380952D01*
X168817319Y-103380952D02*
X168769700Y-103285714D01*
X168769700Y-103285714D02*
X168722080Y-103238095D01*
X168722080Y-103238095D02*
X168626842Y-103190476D01*
X168626842Y-103190476D02*
X167817319Y-103190476D01*
X167817319Y-102285714D02*
X167817319Y-102476190D01*
X167817319Y-102476190D02*
X167864938Y-102571428D01*
X167864938Y-102571428D02*
X167912557Y-102619047D01*
X167912557Y-102619047D02*
X168055414Y-102714285D01*
X168055414Y-102714285D02*
X168245890Y-102761904D01*
X168245890Y-102761904D02*
X168626842Y-102761904D01*
X168626842Y-102761904D02*
X168722080Y-102714285D01*
X168722080Y-102714285D02*
X168769700Y-102666666D01*
X168769700Y-102666666D02*
X168817319Y-102571428D01*
X168817319Y-102571428D02*
X168817319Y-102380952D01*
X168817319Y-102380952D02*
X168769700Y-102285714D01*
X168769700Y-102285714D02*
X168722080Y-102238095D01*
X168722080Y-102238095D02*
X168626842Y-102190476D01*
X168626842Y-102190476D02*
X168388747Y-102190476D01*
X168388747Y-102190476D02*
X168293509Y-102238095D01*
X168293509Y-102238095D02*
X168245890Y-102285714D01*
X168245890Y-102285714D02*
X168198271Y-102380952D01*
X168198271Y-102380952D02*
X168198271Y-102571428D01*
X168198271Y-102571428D02*
X168245890Y-102666666D01*
X168245890Y-102666666D02*
X168293509Y-102714285D01*
X168293509Y-102714285D02*
X168388747Y-102761904D01*
X167817319Y-94928571D02*
X168626842Y-94928571D01*
X168626842Y-94928571D02*
X168722080Y-94880952D01*
X168722080Y-94880952D02*
X168769700Y-94833333D01*
X168769700Y-94833333D02*
X168817319Y-94738095D01*
X168817319Y-94738095D02*
X168817319Y-94547619D01*
X168817319Y-94547619D02*
X168769700Y-94452381D01*
X168769700Y-94452381D02*
X168722080Y-94404762D01*
X168722080Y-94404762D02*
X168626842Y-94357143D01*
X168626842Y-94357143D02*
X167817319Y-94357143D01*
X168150652Y-93452381D02*
X168817319Y-93452381D01*
X167769700Y-93690476D02*
X168483985Y-93928571D01*
X168483985Y-93928571D02*
X168483985Y-93309524D01*
X92666666Y-98074819D02*
X92666666Y-98789104D01*
X92666666Y-98789104D02*
X92619047Y-98931961D01*
X92619047Y-98931961D02*
X92523809Y-99027200D01*
X92523809Y-99027200D02*
X92380952Y-99074819D01*
X92380952Y-99074819D02*
X92285714Y-99074819D01*
X93666666Y-99074819D02*
X93095238Y-99074819D01*
X93380952Y-99074819D02*
X93380952Y-98074819D01*
X93380952Y-98074819D02*
X93285714Y-98217676D01*
X93285714Y-98217676D02*
X93190476Y-98312914D01*
X93190476Y-98312914D02*
X93095238Y-98360533D01*
D12*
%TO.C,U3*%
X173500000Y-81948333D02*
X171300000Y-81948333D01*
X173500000Y-81948333D02*
X175700000Y-81948333D01*
X173500000Y-88718333D02*
X171300000Y-88718333D01*
X173500000Y-88718333D02*
X175700000Y-88718333D01*
X169640000Y-82408333D02*
X169310000Y-82648333D01*
X169310000Y-82168333D01*
X169640000Y-82408333D01*
G36*
X169640000Y-82408333D02*
G01*
X169310000Y-82648333D01*
X169310000Y-82168333D01*
X169640000Y-82408333D01*
G37*
%TO.C,J3*%
X91620000Y-63620000D02*
X93000000Y-63620000D01*
X91620000Y-65000000D02*
X91620000Y-63620000D01*
X91620000Y-66270000D02*
X91620000Y-79080000D01*
X91620000Y-66270000D02*
X94380000Y-66270000D01*
X91620000Y-79080000D02*
X94380000Y-79080000D01*
X94380000Y-66270000D02*
X94380000Y-79080000D01*
%TO.C,U2*%
X173500000Y-73115000D02*
X171300000Y-73115000D01*
X173500000Y-73115000D02*
X175700000Y-73115000D01*
X173500000Y-79885000D02*
X171300000Y-79885000D01*
X173500000Y-79885000D02*
X175700000Y-79885000D01*
X169640000Y-73575000D02*
X169310000Y-73815000D01*
X169310000Y-73335000D01*
X169640000Y-73575000D01*
G36*
X169640000Y-73575000D02*
G01*
X169310000Y-73815000D01*
X169310000Y-73335000D01*
X169640000Y-73575000D01*
G37*
%TO.C,U1*%
X102480000Y-71830000D02*
X102480000Y-70450000D01*
X102480000Y-109930000D02*
X102480000Y-108550000D01*
X103860000Y-71830000D02*
X102480000Y-71830000D01*
X103860000Y-109930000D02*
X102480000Y-109930000D01*
X105130000Y-69070000D02*
X186520000Y-69070000D01*
X105130000Y-71830000D02*
X105130000Y-69070000D01*
X105130000Y-71830000D02*
X186520000Y-71830000D01*
X105130000Y-107170000D02*
X186520000Y-107170000D01*
X105130000Y-109930000D02*
X105130000Y-107170000D01*
X105130000Y-109930000D02*
X186520000Y-109930000D01*
X186520000Y-71830000D02*
X186520000Y-69070000D01*
X186520000Y-109930000D02*
X186520000Y-107170000D01*
%TO.C,JP1*%
X96620000Y-63620000D02*
X98000000Y-63620000D01*
X96620000Y-65000000D02*
X96620000Y-63620000D01*
X96620000Y-66270000D02*
X96620000Y-71460000D01*
X96620000Y-66270000D02*
X99380000Y-66270000D01*
X96620000Y-71460000D02*
X99380000Y-71460000D01*
X99380000Y-66270000D02*
X99380000Y-71460000D01*
%TO.C,J2*%
X89115000Y-83555000D02*
X89115000Y-85415000D01*
X89115000Y-83555000D02*
X89315000Y-83355000D01*
X89115000Y-85415000D02*
X89315000Y-85625000D01*
X89115000Y-92505000D02*
X89465000Y-91995000D01*
X89115000Y-94815000D02*
X89115000Y-92505000D01*
X89115000Y-94815000D02*
X89315000Y-95015000D01*
X89315000Y-95015000D02*
X89315000Y-95275000D01*
X89465000Y-85625000D02*
X89315000Y-85625000D01*
X89465000Y-85625000D02*
X89465000Y-91995000D01*
X94075000Y-82525000D02*
X92275000Y-82525000D01*
X100075000Y-82525000D02*
X95375000Y-82525000D01*
X105385000Y-82525000D02*
X101775000Y-82525000D01*
X105385000Y-82975000D02*
X105385000Y-82525000D01*
X105385000Y-94575000D02*
X105385000Y-96495000D01*
X105385000Y-96495000D02*
X91375000Y-96495000D01*
%TO.C,U6*%
X173500000Y-99615000D02*
X171300000Y-99615000D01*
X173500000Y-99615000D02*
X175700000Y-99615000D01*
X173500000Y-106385000D02*
X171300000Y-106385000D01*
X173500000Y-106385000D02*
X175700000Y-106385000D01*
X169640000Y-100075000D02*
X169310000Y-100315000D01*
X169310000Y-99835000D01*
X169640000Y-100075000D01*
G36*
X169640000Y-100075000D02*
G01*
X169310000Y-100315000D01*
X169310000Y-99835000D01*
X169640000Y-100075000D01*
G37*
%TO.C,U4*%
X173500000Y-90781667D02*
X171300000Y-90781667D01*
X173500000Y-90781667D02*
X175700000Y-90781667D01*
X173500000Y-97551667D02*
X171300000Y-97551667D01*
X173500000Y-97551667D02*
X175700000Y-97551667D01*
X169640000Y-91241667D02*
X169310000Y-91481667D01*
X169310000Y-91001667D01*
X169640000Y-91241667D01*
G36*
X169640000Y-91241667D02*
G01*
X169310000Y-91481667D01*
X169310000Y-91001667D01*
X169640000Y-91241667D01*
G37*
%TO.C,J1*%
X91620000Y-99620000D02*
X93000000Y-99620000D01*
X91620000Y-101000000D02*
X91620000Y-99620000D01*
X91620000Y-102270000D02*
X91620000Y-115080000D01*
X91620000Y-102270000D02*
X94380000Y-102270000D01*
X91620000Y-115080000D02*
X94380000Y-115080000D01*
X94380000Y-102270000D02*
X94380000Y-115080000D01*
%TD*%
M02*
