%TF.GenerationSoftware,KiCad,Pcbnew,9.0.1*%
%TF.CreationDate,2025-04-05T14:03:07-06:00*%
%TF.ProjectId,GBDump,47424475-6d70-42e6-9b69-6361645f7063,rev?*%
%TF.SameCoordinates,Original*%
%TF.FileFunction,Soldermask,Top*%
%TF.FilePolarity,Negative*%
%FSLAX46Y46*%
G04 Gerber Fmt 4.6, Leading zero omitted, Abs format (unit mm)*
G04 Created by KiCad (PCBNEW 9.0.1) date 2025-04-05 14:03:07*
%MOMM*%
%LPD*%
G01*
G04 APERTURE LIST*
G04 Aperture macros list*
%AMRoundRect*
0 Rectangle with rounded corners*
0 $1 Rounding radius*
0 $2 $3 $4 $5 $6 $7 $8 $9 X,Y pos of 4 corners*
0 Add a 4 corners polygon primitive as box body*
4,1,4,$2,$3,$4,$5,$6,$7,$8,$9,$2,$3,0*
0 Add four circle primitives for the rounded corners*
1,1,$1+$1,$2,$3*
1,1,$1+$1,$4,$5*
1,1,$1+$1,$6,$7*
1,1,$1+$1,$8,$9*
0 Add four rect primitives between the rounded corners*
20,1,$1+$1,$2,$3,$4,$5,0*
20,1,$1+$1,$4,$5,$6,$7,0*
20,1,$1+$1,$6,$7,$8,$9,0*
20,1,$1+$1,$8,$9,$2,$3,0*%
G04 Aperture macros list end*
%ADD10RoundRect,0.125400X-0.662900X-0.125400X0.662900X-0.125400X0.662900X0.125400X-0.662900X0.125400X0*%
%ADD11RoundRect,0.050800X-0.850000X-0.850000X0.850000X-0.850000X0.850000X0.850000X-0.850000X0.850000X0*%
%ADD12C,1.801600*%
%ADD13RoundRect,0.050800X0.850000X-0.850000X0.850000X0.850000X-0.850000X0.850000X-0.850000X-0.850000X0*%
%ADD14RoundRect,0.050800X-1.750000X2.500000X-1.750000X-2.500000X1.750000X-2.500000X1.750000X2.500000X0*%
%ADD15C,2.601600*%
%ADD16RoundRect,0.050800X-2.350000X0.500000X-2.350000X-0.500000X2.350000X-0.500000X2.350000X0.500000X0*%
%ADD17RoundRect,0.050800X2.350000X-0.500000X2.350000X0.500000X-2.350000X0.500000X-2.350000X-0.500000X0*%
%ADD18RoundRect,0.050800X-0.600000X0.350000X-0.600000X-0.350000X0.600000X-0.350000X0.600000X0.350000X0*%
%ADD19RoundRect,0.050800X-0.400000X0.500000X-0.400000X-0.500000X0.400000X-0.500000X0.400000X0.500000X0*%
%ADD20RoundRect,0.050800X-0.600000X0.500000X-0.600000X-0.500000X0.600000X-0.500000X0.600000X0.500000X0*%
%ADD21RoundRect,0.050800X-1.400000X0.500000X-1.400000X-0.500000X1.400000X-0.500000X1.400000X0.500000X0*%
%ADD22RoundRect,0.050800X-0.950000X0.650000X-0.950000X-0.650000X0.950000X-0.650000X0.950000X0.650000X0*%
G04 APERTURE END LIST*
D10*
%TO.C,U3*%
X170637500Y-82408333D03*
X170637500Y-83058333D03*
X170637500Y-83708333D03*
X170637500Y-84358333D03*
X170637500Y-85008333D03*
X170637500Y-85658333D03*
X170637500Y-86308333D03*
X170637500Y-86958333D03*
X170637500Y-87608333D03*
X170637500Y-88258333D03*
X176362500Y-88258333D03*
X176362500Y-87608333D03*
X176362500Y-86958333D03*
X176362500Y-86308333D03*
X176362500Y-85658333D03*
X176362500Y-85008333D03*
X176362500Y-84358333D03*
X176362500Y-83708333D03*
X176362500Y-83058333D03*
X176362500Y-82408333D03*
%TD*%
D11*
%TO.C,J3*%
X93000000Y-65000000D03*
D12*
X93000000Y-67540000D03*
X93000000Y-70080000D03*
X93000000Y-72620000D03*
X93000000Y-75160000D03*
X93000000Y-77700000D03*
%TD*%
D10*
%TO.C,U2*%
X170637500Y-73575000D03*
X170637500Y-74225000D03*
X170637500Y-74875000D03*
X170637500Y-75525000D03*
X170637500Y-76175000D03*
X170637500Y-76825000D03*
X170637500Y-77475000D03*
X170637500Y-78125000D03*
X170637500Y-78775000D03*
X170637500Y-79425000D03*
X176362500Y-79425000D03*
X176362500Y-78775000D03*
X176362500Y-78125000D03*
X176362500Y-77475000D03*
X176362500Y-76825000D03*
X176362500Y-76175000D03*
X176362500Y-75525000D03*
X176362500Y-74875000D03*
X176362500Y-74225000D03*
X176362500Y-73575000D03*
%TD*%
D13*
%TO.C,U1*%
X103860000Y-108550000D03*
D12*
X106400000Y-108550000D03*
X108940000Y-108550000D03*
X111480000Y-108550000D03*
X114020000Y-108550000D03*
X116560000Y-108550000D03*
X119100000Y-108550000D03*
X121640000Y-108550000D03*
X124180000Y-108550000D03*
X126720000Y-108550000D03*
X129260000Y-108550000D03*
X131800000Y-108550000D03*
X134340000Y-108550000D03*
X136880000Y-108550000D03*
X139420000Y-108550000D03*
X141960000Y-108550000D03*
X144500000Y-108550000D03*
X147040000Y-108550000D03*
X149580000Y-108550000D03*
X152120000Y-108550000D03*
X154660000Y-108550000D03*
X157200000Y-108550000D03*
X159740000Y-108550000D03*
X162280000Y-108550000D03*
X164820000Y-108550000D03*
X167360000Y-108550000D03*
X169900000Y-108550000D03*
X172440000Y-108550000D03*
X174980000Y-108550000D03*
X177520000Y-108550000D03*
X180060000Y-108550000D03*
X182600000Y-108550000D03*
X185140000Y-108550000D03*
D13*
X103860000Y-70450000D03*
D12*
X106400000Y-70450000D03*
X108940000Y-70450000D03*
X111480000Y-70450000D03*
X114020000Y-70450000D03*
X116560000Y-70450000D03*
X119100000Y-70450000D03*
X121640000Y-70450000D03*
X124180000Y-70450000D03*
X126720000Y-70450000D03*
X129260000Y-70450000D03*
X131800000Y-70450000D03*
X134340000Y-70450000D03*
X136880000Y-70450000D03*
X139420000Y-70450000D03*
X141960000Y-70450000D03*
X144500000Y-70450000D03*
X147040000Y-70450000D03*
X149580000Y-70450000D03*
X152120000Y-70450000D03*
X154660000Y-70450000D03*
X157200000Y-70450000D03*
X159740000Y-70450000D03*
X162280000Y-70450000D03*
X164820000Y-70450000D03*
X167360000Y-70450000D03*
X169900000Y-70450000D03*
X172440000Y-70450000D03*
X174980000Y-70450000D03*
X177520000Y-70450000D03*
X180060000Y-70450000D03*
X182600000Y-70450000D03*
X185140000Y-70450000D03*
%TD*%
D14*
%TO.C,U5*%
X221500000Y-76475000D03*
D15*
X209500000Y-76475000D03*
D14*
X221500000Y-102475000D03*
D15*
X209500000Y-102475000D03*
D16*
X202500000Y-66225000D03*
D17*
X202500000Y-67725000D03*
X202500000Y-69225000D03*
X202500000Y-70725000D03*
X202500000Y-72225000D03*
X202500000Y-73725000D03*
X202500000Y-75225000D03*
X202500000Y-76725000D03*
X202500000Y-78225000D03*
X202500000Y-79725000D03*
X202500000Y-81225000D03*
X202500000Y-82725000D03*
X202500000Y-84225000D03*
X202500000Y-85725000D03*
X202500000Y-87225000D03*
D16*
X202500000Y-88725000D03*
D17*
X202500000Y-90225000D03*
X202500000Y-91725000D03*
X202500000Y-93225000D03*
X202500000Y-94725000D03*
X202500000Y-96225000D03*
X202500000Y-97725000D03*
X202500000Y-99225000D03*
X202500000Y-100725000D03*
X202500000Y-102225000D03*
X202500000Y-103725000D03*
X202500000Y-105225000D03*
X202500000Y-106725000D03*
X202500000Y-108225000D03*
X202500000Y-109725000D03*
X202500000Y-111225000D03*
D16*
X202500000Y-112725000D03*
%TD*%
D11*
%TO.C,JP1*%
X98000000Y-65000000D03*
D12*
X98000000Y-67540000D03*
X98000000Y-70080000D03*
%TD*%
D18*
%TO.C,J2*%
X105225000Y-92275000D03*
X105225000Y-91175000D03*
X105225000Y-90075000D03*
X105225000Y-88975000D03*
X105225000Y-87875000D03*
X105225000Y-86775000D03*
X105225000Y-85675000D03*
X105225000Y-84575000D03*
X105225000Y-83625000D03*
D19*
X94725000Y-82675000D03*
D20*
X100925000Y-82675000D03*
D21*
X90575000Y-82675000D03*
D20*
X105225000Y-93825000D03*
D22*
X90125000Y-96175000D03*
%TD*%
D10*
%TO.C,U6*%
X170637500Y-100075000D03*
X170637500Y-100725000D03*
X170637500Y-101375000D03*
X170637500Y-102025000D03*
X170637500Y-102675000D03*
X170637500Y-103325000D03*
X170637500Y-103975000D03*
X170637500Y-104625000D03*
X170637500Y-105275000D03*
X170637500Y-105925000D03*
X176362500Y-105925000D03*
X176362500Y-105275000D03*
X176362500Y-104625000D03*
X176362500Y-103975000D03*
X176362500Y-103325000D03*
X176362500Y-102675000D03*
X176362500Y-102025000D03*
X176362500Y-101375000D03*
X176362500Y-100725000D03*
X176362500Y-100075000D03*
%TD*%
%TO.C,U4*%
X170637500Y-91241667D03*
X170637500Y-91891667D03*
X170637500Y-92541667D03*
X170637500Y-93191667D03*
X170637500Y-93841667D03*
X170637500Y-94491667D03*
X170637500Y-95141667D03*
X170637500Y-95791667D03*
X170637500Y-96441667D03*
X170637500Y-97091667D03*
X176362500Y-97091667D03*
X176362500Y-96441667D03*
X176362500Y-95791667D03*
X176362500Y-95141667D03*
X176362500Y-94491667D03*
X176362500Y-93841667D03*
X176362500Y-93191667D03*
X176362500Y-92541667D03*
X176362500Y-91891667D03*
X176362500Y-91241667D03*
%TD*%
D11*
%TO.C,J1*%
X93000000Y-101000000D03*
D12*
X93000000Y-103540000D03*
X93000000Y-106080000D03*
X93000000Y-108620000D03*
X93000000Y-111160000D03*
X93000000Y-113700000D03*
%TD*%
M02*
