M48
; DRILL file {KiCad 9.0.1} date 2025-04-05T14:03:04-0600
; FORMAT={-:-/ absolute / metric / decimal}
; #@! TF.CreationDate,2025-04-05T14:03:04-06:00
; #@! TF.GenerationSoftware,Kicad,Pcbnew,9.0.1
; #@! TF.FileFunction,Plated,1,2,PTH
FMAT,2
METRIC
; #@! TA.AperFunction,Plated,PTH,ViaDrill
T1C0.300
; #@! TA.AperFunction,Plated,PTH,ComponentDrill
T2C1.000
%
G90
G05
T1
X97.75Y-105.75
X97.75Y-106.75
X98.75Y-105.75
X98.75Y-106.75
X100.0Y-73.0
X106.75Y-86.75
X106.75Y-101.75
X106.75Y-102.75
X107.0Y-88.75
X107.75Y-101.75
X107.75Y-102.75
X108.0Y-91.25
X109.5Y-84.25
X156.0Y-83.0
X157.0Y-83.0
X158.0Y-83.0
X158.5Y-73.5
X159.0Y-83.0
X161.0Y-95.0
X161.625Y-74.875
X162.0Y-95.0
X163.0Y-95.0
X163.025Y-75.525
X164.0Y-95.0
X164.175Y-76.175
X165.0Y-79.5
X165.0Y-95.0
X166.0Y-79.5
X167.0Y-79.5
X168.0Y-79.5
X168.0Y-94.5
X168.39Y-95.198
X168.768Y-95.903
X169.0Y-82.408
X169.0Y-83.708
X171.975Y-100.525
X172.0Y-74.0
X172.0Y-83.0
X172.0Y-92.0
X174.5Y-74.0
X174.5Y-83.0
X174.5Y-92.0
X174.5Y-100.5
X177.75Y-88.25
X177.75Y-97.25
X177.75Y-105.75
X178.0Y-79.5
X179.5Y-81.0
X180.5Y-89.0
X180.5Y-98.0
X181.0Y-72.5
X181.0Y-81.5
X181.0Y-105.5
X181.5Y-89.5
X181.5Y-98.5
X183.25Y-97.25
X183.5Y-79.5
X183.5Y-88.25
X185.0Y-79.5
X185.0Y-88.25
X185.0Y-97.25
X186.25Y-79.5
X186.25Y-88.25
X186.5Y-97.25
X187.5Y-79.5
X187.5Y-88.25
X188.0Y-100.53
X188.5Y-68.5
X188.5Y-73.0
X188.5Y-82.5
X188.5Y-91.697
X189.5Y-88.25
X190.5Y-89.0
X191.0Y-79.0
T2
X93.0Y-65.0
X93.0Y-67.54
X93.0Y-70.08
X93.0Y-72.62
X93.0Y-75.16
X93.0Y-77.7
X93.0Y-101.0
X93.0Y-103.54
X93.0Y-106.08
X93.0Y-108.62
X93.0Y-111.16
X93.0Y-113.7
X98.0Y-65.0
X98.0Y-67.54
X98.0Y-70.08
X103.86Y-70.45
X103.86Y-108.55
X106.4Y-70.45
X106.4Y-108.55
X108.94Y-70.45
X108.94Y-108.55
X111.48Y-70.45
X111.48Y-108.55
X114.02Y-70.45
X114.02Y-108.55
X116.56Y-70.45
X116.56Y-108.55
X119.1Y-70.45
X119.1Y-108.55
X121.64Y-70.45
X121.64Y-108.55
X124.18Y-70.45
X124.18Y-108.55
X126.72Y-70.45
X126.72Y-108.55
X129.26Y-70.45
X129.26Y-108.55
X131.8Y-70.45
X131.8Y-108.55
X134.34Y-70.45
X134.34Y-108.55
X136.88Y-70.45
X136.88Y-108.55
X139.42Y-70.45
X139.42Y-108.55
X141.96Y-70.45
X141.96Y-108.55
X144.5Y-70.45
X144.5Y-108.55
X147.04Y-70.45
X147.04Y-108.55
X149.58Y-70.45
X149.58Y-108.55
X152.12Y-70.45
X152.12Y-108.55
X154.66Y-70.45
X154.66Y-108.55
X157.2Y-70.45
X157.2Y-108.55
X159.74Y-70.45
X159.74Y-108.55
X162.28Y-70.45
X162.28Y-108.55
X164.82Y-70.45
X164.82Y-108.55
X167.36Y-70.45
X167.36Y-108.55
X169.9Y-70.45
X169.9Y-108.55
X172.44Y-70.45
X172.44Y-108.55
X174.98Y-70.45
X174.98Y-108.55
X177.52Y-70.45
X177.52Y-108.55
X180.06Y-70.45
X180.06Y-108.55
X182.6Y-70.45
X182.6Y-108.55
X185.14Y-70.45
X185.14Y-108.55
M30
