%TF.GenerationSoftware,KiCad,Pcbnew,9.0.1*%
%TF.CreationDate,2025-04-05T14:03:07-06:00*%
%TF.ProjectId,GBDump,47424475-6d70-42e6-9b69-6361645f7063,rev?*%
%TF.SameCoordinates,Original*%
%TF.FileFunction,Soldermask,Bot*%
%TF.FilePolarity,Negative*%
%FSLAX46Y46*%
G04 Gerber Fmt 4.6, Leading zero omitted, Abs format (unit mm)*
G04 Created by KiCad (PCBNEW 9.0.1) date 2025-04-05 14:03:07*
%MOMM*%
%LPD*%
G01*
G04 APERTURE LIST*
G04 Aperture macros list*
%AMRoundRect*
0 Rectangle with rounded corners*
0 $1 Rounding radius*
0 $2 $3 $4 $5 $6 $7 $8 $9 X,Y pos of 4 corners*
0 Add a 4 corners polygon primitive as box body*
4,1,4,$2,$3,$4,$5,$6,$7,$8,$9,$2,$3,0*
0 Add four circle primitives for the rounded corners*
1,1,$1+$1,$2,$3*
1,1,$1+$1,$4,$5*
1,1,$1+$1,$6,$7*
1,1,$1+$1,$8,$9*
0 Add four rect primitives between the rounded corners*
20,1,$1+$1,$2,$3,$4,$5,0*
20,1,$1+$1,$4,$5,$6,$7,0*
20,1,$1+$1,$6,$7,$8,$9,0*
20,1,$1+$1,$8,$9,$2,$3,0*%
G04 Aperture macros list end*
%ADD10RoundRect,0.050800X-0.850000X-0.850000X0.850000X-0.850000X0.850000X0.850000X-0.850000X0.850000X0*%
%ADD11C,1.801600*%
%ADD12RoundRect,0.050800X0.850000X-0.850000X0.850000X0.850000X-0.850000X0.850000X-0.850000X-0.850000X0*%
%ADD13C,2.601600*%
%ADD14RoundRect,0.272087X-0.678713X0.353713X-0.678713X-0.353713X0.678713X-0.353713X0.678713X0.353713X0*%
%ADD15RoundRect,0.272087X0.678713X-0.353713X0.678713X0.353713X-0.678713X0.353713X-0.678713X-0.353713X0*%
%ADD16RoundRect,0.272578X-0.340722X-0.653222X0.340722X-0.653222X0.340722X0.653222X-0.340722X0.653222X0*%
G04 APERTURE END LIST*
D10*
%TO.C,J3*%
X93000000Y-65000000D03*
D11*
X93000000Y-67540000D03*
X93000000Y-70080000D03*
X93000000Y-72620000D03*
X93000000Y-75160000D03*
X93000000Y-77700000D03*
%TD*%
D12*
%TO.C,U1*%
X103860000Y-108550000D03*
D11*
X106400000Y-108550000D03*
X108940000Y-108550000D03*
X111480000Y-108550000D03*
X114020000Y-108550000D03*
X116560000Y-108550000D03*
X119100000Y-108550000D03*
X121640000Y-108550000D03*
X124180000Y-108550000D03*
X126720000Y-108550000D03*
X129260000Y-108550000D03*
X131800000Y-108550000D03*
X134340000Y-108550000D03*
X136880000Y-108550000D03*
X139420000Y-108550000D03*
X141960000Y-108550000D03*
X144500000Y-108550000D03*
X147040000Y-108550000D03*
X149580000Y-108550000D03*
X152120000Y-108550000D03*
X154660000Y-108550000D03*
X157200000Y-108550000D03*
X159740000Y-108550000D03*
X162280000Y-108550000D03*
X164820000Y-108550000D03*
X167360000Y-108550000D03*
X169900000Y-108550000D03*
X172440000Y-108550000D03*
X174980000Y-108550000D03*
X177520000Y-108550000D03*
X180060000Y-108550000D03*
X182600000Y-108550000D03*
X185140000Y-108550000D03*
D12*
X103860000Y-70450000D03*
D11*
X106400000Y-70450000D03*
X108940000Y-70450000D03*
X111480000Y-70450000D03*
X114020000Y-70450000D03*
X116560000Y-70450000D03*
X119100000Y-70450000D03*
X121640000Y-70450000D03*
X124180000Y-70450000D03*
X126720000Y-70450000D03*
X129260000Y-70450000D03*
X131800000Y-70450000D03*
X134340000Y-70450000D03*
X136880000Y-70450000D03*
X139420000Y-70450000D03*
X141960000Y-70450000D03*
X144500000Y-70450000D03*
X147040000Y-70450000D03*
X149580000Y-70450000D03*
X152120000Y-70450000D03*
X154660000Y-70450000D03*
X157200000Y-70450000D03*
X159740000Y-70450000D03*
X162280000Y-70450000D03*
X164820000Y-70450000D03*
X167360000Y-70450000D03*
X169900000Y-70450000D03*
X172440000Y-70450000D03*
X174980000Y-70450000D03*
X177520000Y-70450000D03*
X180060000Y-70450000D03*
X182600000Y-70450000D03*
X185140000Y-70450000D03*
%TD*%
D13*
%TO.C,U5*%
X209500000Y-76475000D03*
X209500000Y-102475000D03*
%TD*%
D10*
%TO.C,JP1*%
X98000000Y-65000000D03*
D11*
X98000000Y-67540000D03*
X98000000Y-70080000D03*
%TD*%
D10*
%TO.C,J1*%
X93000000Y-101000000D03*
D11*
X93000000Y-103540000D03*
X93000000Y-106080000D03*
X93000000Y-108620000D03*
X93000000Y-111160000D03*
X93000000Y-113700000D03*
%TD*%
D14*
%TO.C,C5*%
X172000000Y-84000000D03*
X172000000Y-86950000D03*
%TD*%
%TO.C,C7*%
X172000000Y-75025000D03*
X172000000Y-77975000D03*
%TD*%
D15*
%TO.C,C4*%
X174500000Y-95950000D03*
X174500000Y-93000000D03*
%TD*%
D16*
%TO.C,R1*%
X181075000Y-103000000D03*
X184000000Y-103000000D03*
%TD*%
D15*
%TO.C,C2*%
X174500000Y-104450000D03*
X174500000Y-101500000D03*
%TD*%
%TO.C,C8*%
X174500000Y-78000000D03*
X174500000Y-75050000D03*
%TD*%
%TO.C,C6*%
X174500000Y-86950000D03*
X174500000Y-84000000D03*
%TD*%
D14*
%TO.C,C3*%
X172000000Y-92975000D03*
X172000000Y-95925000D03*
%TD*%
%TO.C,C1*%
X171975000Y-101550000D03*
X171975000Y-104500000D03*
%TD*%
M02*
